<svg width="205" height="175" viewBox="0 0 205 175" fill="none" xmlns="http://www.w3.org/2000/svg">
<path d="M40.3961 24.4562C40.6935 24.7257 40.8283 24.8419 40.9491 24.9627C50.131 34.1539 59.3176 43.3451 68.4762 52.5549C68.7643 52.8476 68.9455 53.382 68.9455 53.8002C68.9734 63.5815 68.9641 73.3628 68.9641 83.1442C68.9641 83.4601 68.9641 83.7808 68.9641 84.0874H60.521V82.9769C60.521 75.2633 60.5071 67.5544 60.5396 59.8409C60.5396 58.9999 60.3073 58.7861 59.4802 58.7908C54.4385 58.8279 49.3968 58.8279 44.3551 58.7861C43.4723 58.7768 43.1795 58.972 43.1842 59.9153C43.226 67.6567 43.2074 75.3981 43.2074 83.1395C43.2074 83.4601 43.2074 83.7808 43.2074 84.3802C42.6405 84.0735 42.2177 83.9434 41.9203 83.6739C39.7317 81.6665 37.5802 79.622 35.3963 77.6053C35.0292 77.2661 34.611 76.9454 34.1603 76.7317C32.7941 76.0812 31.4931 76.7503 31.126 78.2233C30.8332 79.3896 31.3443 80.319 31.9902 81.2018C32.6687 82.1312 33.375 83.0419 34.1649 84.0874H11.5494C11.5401 83.8923 11.5215 83.7157 11.5215 83.5438C11.5215 73.6695 11.5122 63.7999 11.5447 53.9257C11.5447 53.5446 11.8049 53.0846 12.0884 52.8012C17.0557 47.8431 22.0649 42.9222 27.0322 37.9549C31.4884 33.4987 35.8981 29.0007 40.3961 24.4516V24.4562ZM169.83 45.7242C169.756 46.0216 169.682 46.2772 169.635 46.5374C168.85 50.7938 166.954 54.5065 164.031 57.6802C159.426 62.6754 153.701 65.4263 146.931 65.9049C140.389 66.3649 135.017 64.0927 131.067 58.7675C127.322 53.7166 126.03 47.8199 125.347 41.742C125.059 39.1816 124.929 36.6074 124.725 34.0424C124.404 30.009 124.627 26.0268 125.891 22.1561C127.276 17.909 129.855 14.6377 133.879 12.5699C137.61 21.9935 150.189 25.3949 159.296 20.7203C161.461 25.3484 164.593 29.1401 169.022 31.7237C168.701 32.3882 168.343 32.9829 168.125 33.6242C167.976 34.0656 167.409 34.7626 168.162 34.9996C168.864 35.218 168.752 34.3398 168.91 33.9216C169.649 31.9374 171.01 30.8687 172.888 30.8733C174.807 30.8826 176.178 31.97 176.865 34.0192C177.423 35.692 177.288 37.3834 177.014 39.0748C176.494 42.3368 173.51 46.0727 169.835 45.7149L169.83 45.7242ZM133.553 11.6406C126.23 15.4556 124.097 22.1096 123.67 29.7302C123.572 29.6373 123.526 29.6048 123.498 29.563C123.447 29.4886 123.405 29.4096 123.368 29.3306C121.737 25.7759 121.24 22.0446 121.955 18.2157C122.596 14.7911 124.051 11.7382 126.755 9.41483C128.656 7.78384 130.854 6.83126 133.381 6.87308C133.981 6.88238 134.367 6.69651 134.822 6.39912C136.42 5.35826 137.968 4.20123 139.678 3.3834C145.11 0.781248 150.853 0.418805 156.671 1.61301C162.879 2.88621 168.111 5.89263 171.977 11.0319C174.509 14.4008 175.955 18.2157 176.452 22.3884C176.796 25.2508 176.693 28.0992 176.024 30.9895C173.859 29.6234 171.745 29.5165 169.733 31.0638C165.653 28.6243 162.646 25.2926 160.56 21.1152C159.742 19.4842 159.751 19.4982 158.06 20.2742C154.162 22.0632 150.1 22.3141 145.969 21.3569C142.154 20.474 138.874 18.6107 136.583 15.3626C135.672 14.0708 135.129 12.5188 134.39 11.1016C134.278 10.8878 134.004 10.7577 133.809 10.5858C133.716 10.8507 133.614 11.1155 133.53 11.3804C133.507 11.4501 133.549 11.543 133.563 11.6313L133.553 11.6406ZM134.859 105.611C134.855 105.607 134.851 105.604 134.847 105.6C134.538 105.306 134.163 105.016 133.869 104.654C132.42 102.865 131.602 100.769 131.314 98.5248C130.905 95.365 132.029 93.9245 135.147 93.4366C136.829 93.1718 138.535 93.0788 140.226 92.8697C140.486 92.8372 140.719 92.6049 140.965 92.4655C140.719 92.3586 140.468 92.1402 140.231 92.1588C138.618 92.261 137.001 92.34 135.403 92.563C134.009 92.7535 132.67 93.1764 131.555 94.129C130.645 94.905 129.72 95.6717 128.739 96.3547C127.313 97.3538 125.747 97.9904 123.944 97.7534C123.219 97.6558 122.462 97.3817 122.378 96.6475C122.327 96.1875 122.861 95.6485 123.168 95.1745C123.275 95.0118 123.512 94.9422 123.674 94.812C124.827 93.9152 126.026 93.0695 127.108 92.0984C129.055 90.3512 131.105 88.7063 133.809 88.618C135.942 88.5483 138.116 88.762 140.221 89.1431C143.985 89.8261 147.424 91.2898 150.114 94.1615C152.07 96.2525 153.316 98.7664 154.496 101.327C155.816 104.198 157.066 107.103 158.45 109.946C159.403 111.907 160.723 113.603 162.767 114.649C161.438 119.728 158.195 123.426 154.231 126.688C150.361 123.25 145.928 120.792 141.392 118.478C138.995 117.251 136.978 115.49 135.375 113.311C133.121 110.248 130.965 107.098 127.819 105.114C127.884 103.817 128.149 102.628 127.949 101.517C127.75 100.407 127.09 99.3751 126.648 98.3389C128.484 98.0601 130.449 99.2496 131.109 101.08C131.876 103.204 132.726 105.276 134.854 106.48C135.259 106.708 135.658 107.079 135.881 107.484C136.597 108.803 137.61 109.663 139.092 109.993C139.371 110.053 139.645 110.286 139.845 110.509C141.378 112.242 143.214 113.222 145.663 112.957C145.723 113.208 145.807 113.492 145.862 113.78C146.485 117.079 148.06 119.816 150.7 121.912C150.886 122.06 151.243 121.991 151.518 122.019C151.411 121.782 151.364 121.466 151.183 121.317C148.167 118.831 146.69 115.601 146.378 111.749C146.271 110.448 146.072 109.115 144.719 108.362C144.496 108.236 144.362 107.893 144.264 107.623C144.074 107.079 144.255 106.722 144.882 106.763C145.296 106.791 145.704 106.931 146.118 106.954C146.327 106.968 146.546 106.842 146.759 106.782C146.615 106.591 146.504 106.275 146.327 106.238C145.723 106.108 145.091 105.987 144.478 106.025C143.562 106.085 143.107 106.726 143.39 107.577C143.562 108.092 143.855 108.678 144.273 108.975C145.379 109.77 145.486 110.862 145.551 112.316C144.594 112.144 143.72 112.121 142.954 111.819C140.217 110.746 138.767 107.86 139.115 104.621C139.26 103.302 139.826 102.405 141.072 102.01C142.81 101.452 144.571 100.997 146.439 101.271C146.722 101.313 147.038 101.122 147.34 101.039C147.326 100.936 147.317 100.83 147.303 100.727C147.066 100.639 146.829 100.486 146.587 100.472C144.408 100.337 142.285 100.597 140.277 101.494C139.264 101.945 138.651 102.744 138.437 103.873C138.102 105.653 138.349 107.358 138.855 109.147C138.195 108.766 137.489 108.39 137.076 107.809C135.714 105.89 135.101 103.664 134.896 101.35C134.678 98.8919 135.672 97.6233 138.112 97.233C139.91 96.9495 141.741 96.8659 143.548 96.6521C143.79 96.6243 143.999 96.3269 144.227 96.1549C144.018 96.0388 143.799 95.8064 143.604 95.825C141.611 96.0248 139.608 96.1828 137.638 96.5174C135.259 96.9216 134.069 98.3528 134.171 100.764C134.241 102.376 134.606 103.974 134.847 105.6C134.848 105.605 134.849 105.61 134.85 105.616L134.859 105.611ZM49.5176 98.4736C49.5176 100.002 49.3132 101.461 49.5734 102.832C49.8475 104.296 50.5446 105.681 51.1068 107.079C51.1765 107.256 51.5668 107.307 51.8085 107.414C51.7945 107.182 51.8642 106.903 51.7573 106.722C50.2704 104.208 49.7964 101.554 50.591 98.7153C50.7536 98.1344 50.591 97.8278 49.9498 97.7302C49.0669 97.6001 48.1469 97.5071 47.3337 97.1726C46.4322 96.8055 45.8328 97.1075 45.1683 97.6187C44.1275 98.4225 42.989 98.9523 41.6136 98.8314C40.1731 98.706 39.6294 97.8231 40.4426 96.6614C41.3162 95.4161 42.292 94.2312 43.3096 93.0974C44.1693 92.1495 45.2938 91.6755 46.6181 91.8056C48.5232 91.9915 50.4423 92.0798 52.3289 92.3725C55.642 92.8883 57.9979 94.6122 58.9411 97.9811C59.127 98.6409 59.3919 99.2729 59.601 99.9281C60.8324 103.743 61.9754 107.604 65.3443 110.221C61.6688 114.458 57.97 118.533 53.5835 122.288C52.8354 121.461 52.1151 120.699 51.4367 119.9C50.6328 118.952 49.6013 118.403 48.4442 118.018C43.6907 116.447 39.49 113.91 35.7401 110.625C34.2997 109.366 32.8592 108.078 31.981 106.317C31.3908 105.128 31.2654 103.915 31.8741 102.702C32.3341 101.787 33.2449 101.568 34.0441 102.191C35.7216 103.501 37.3665 104.849 39.0393 106.164C39.5783 106.591 39.806 107.182 39.569 107.748C39.3739 108.209 38.9138 108.678 38.4538 108.873C38.0031 109.063 37.4083 108.892 36.8832 108.929C36.6137 108.947 36.3582 109.087 36.0933 109.17C36.2977 109.347 36.479 109.616 36.716 109.682C38.6629 110.211 40.6703 109.226 40.3729 107.01C40.3636 106.935 40.4194 106.856 40.4473 106.782C43.3422 107.298 44.3087 104.793 43.4862 102.4C45.094 101.88 46.028 101.262 45.6051 98.8222C45.5122 98.2878 45.9815 97.7859 46.5623 97.8789C47.6125 98.0508 48.658 98.2924 49.5316 98.469L49.5176 98.4736ZM59.7218 59.6132V84.0967H44.1042V59.6132H59.7218ZM74.9723 57.9265C74.9715 57.9257 74.9708 57.9249 74.97 57.9242C74.6177 57.5672 74.2792 57.2241 73.9454 56.8856C63.1325 46.017 52.3242 35.1483 41.5114 24.2797C40.5309 23.2946 40.5216 23.2899 39.5458 24.2611C30.271 33.4848 20.9961 42.7085 11.7213 51.9322C9.83009 53.8141 7.93889 55.6914 6.10344 57.5222C5.32278 56.7927 4.56073 56.0817 3.7429 55.3197C4.6702 54.3983 5.59717 53.4773 6.52382 52.5566C17.8746 41.2789 29.1771 30.0491 40.424 18.8709C52.7285 31.1196 64.9819 43.3219 77.2538 55.5381C76.6637 56.1654 76.1154 56.7555 75.5578 57.3456C75.3957 57.517 75.2197 57.6792 74.97 57.9242C74.9692 57.9249 74.9684 57.9257 74.9677 57.9265H74.9723ZM170.016 68.3816C163.799 74.2318 156.62 77.6192 147.94 77.1824C145.361 77.0523 142.865 76.3971 140.677 74.9148C139.236 73.939 138.07 72.7355 137.466 70.9698C139.78 70.2681 140.356 68.4187 140.477 66.416C151.071 68.126 159.515 64.5109 166.336 56.5139C166.503 60.8539 166.568 65.1103 170.021 68.3816H170.016ZM18.1849 30.9756C18.1849 33.8333 18.1942 36.6167 18.1663 39.3954C18.1663 39.6417 17.9293 39.9251 17.7341 40.1203C15.75 42.1184 13.7519 44.1072 11.7538 46.0913C11.6005 46.2446 11.4193 46.3655 11.2102 46.5374V30.9709H18.1849V30.9756ZM42.0782 92.879C41.4556 92.0519 40.74 91.0621 39.9872 90.1003C37.5709 87.0102 35.1361 83.9341 32.7337 80.8347C32.3945 80.3933 32.1203 79.8682 31.9438 79.3431C31.73 78.7112 31.7951 77.9631 32.441 77.6889C32.9382 77.4798 33.6166 77.5774 34.1835 77.6982C34.5227 77.7726 34.8154 78.135 35.0989 78.3952C37.8219 80.9277 40.5402 83.4694 43.2539 86.0112C44.8727 87.5272 46.4876 89.0512 48.2149 90.6812C48.3618 90.8198 48.5094 90.9592 48.658 91.0993C47.329 91.0993 46.1348 90.8716 45.0847 91.1644C44.0206 91.4618 43.0959 92.2749 42.0736 92.8837L42.0782 92.879ZM120.031 108.947C119.985 109.129 119.957 109.268 119.911 109.407C119.609 110.286 119.86 111.006 120.584 111.54C121.295 112.061 122.197 112.019 122.833 111.503C123.516 110.95 123.753 110.035 123.4 109.24C123.019 108.38 122.299 107.972 121.439 108.204C120.575 108.441 120.055 108.004 119.404 107.581C120.44 106.959 121.518 106.824 122.62 106.949C124.976 107.223 126.89 109.17 127.294 111.624C127.68 113.97 126.346 116.438 124.144 117.442C121.932 118.45 119.255 117.911 117.75 116.15C116.119 114.249 115.928 111.568 117.276 109.486C118.289 107.92 118.442 107.888 120.036 108.943L120.031 108.947ZM125.394 107.103C122.866 105.834 121.333 105.811 118.958 106.852C118.707 106.963 118.224 106.833 117.987 106.643C116.379 105.332 115.77 102.869 116.477 100.76C117.178 98.6688 119.181 97.0146 121.202 96.9031C121.374 96.8938 121.653 97.0564 121.709 97.2051C121.76 97.3352 121.611 97.6233 121.472 97.7302C120.32 98.5991 120.092 99.6074 121.063 101.104C121.398 101.619 121.848 102.107 122.345 102.465C123.721 103.455 125.152 104.366 126.662 105.379C126.263 105.927 125.844 106.494 125.398 107.103H125.394ZM32.7337 98.8593C32.7523 98.6223 32.743 98.3761 32.7895 98.1437C33.1287 96.443 34.7365 95.5927 35.9353 96.5546C38.0077 98.2181 40.0291 99.9559 42.0364 101.698C43.0959 102.619 43.1098 103.822 42.7288 105.072C42.5243 105.736 42.0225 106.145 41.3905 105.997C40.5495 105.802 39.6527 105.537 38.965 105.049C37.2364 103.822 35.6054 102.465 33.9512 101.132C33.2356 100.555 32.664 99.8677 32.7384 98.8547L32.7337 98.8593ZM119.404 128.041C119.808 127.706 120.101 127.441 120.417 127.218C121.044 126.777 121.035 126.349 120.584 125.741C120.05 125.016 119.418 124.328 119.557 123.264C119.757 121.703 119.836 120.123 119.966 118.594C120.938 118.696 121.844 118.794 122.815 118.901C122.815 119.23 122.815 119.556 122.815 119.881C122.815 123.329 122.722 126.777 122.857 130.22C122.912 131.712 122.299 132.548 121.109 133.236C120.556 132.634 120.012 132.037 119.546 131.527C119.518 131.497 119.491 131.467 119.465 131.437C119.655 130.215 121.593 129.258 119.404 128.05V128.041ZM39.2856 98.3157C38.1425 97.3352 37.083 96.4152 36.0143 95.5044C35.229 94.8353 35.1825 94.0082 35.5403 93.1392C35.8888 92.2935 36.558 91.8381 37.4873 91.801C39.1555 91.7359 40.5077 92.4794 41.7576 93.4366C40.8422 95.0258 39.109 96.1178 39.2902 98.3157H39.2856ZM126.792 104.589C125.222 103.46 123.67 102.382 122.169 101.229C121.816 100.96 121.495 100.472 121.43 100.04C121.36 99.5749 121.509 99.0127 121.737 98.5898C122.011 98.0833 122.503 98.1159 123.056 98.311C123.633 98.5155 124.279 98.5294 124.887 98.6502C125.166 98.706 125.487 98.7524 125.696 98.9197C127.201 100.109 127.736 102.595 126.792 104.589ZM153.706 127.227C152.54 127.762 151.624 128.25 150.658 128.603C149.835 128.9 149.329 128.403 149.631 127.585C149.952 126.712 150.444 125.899 150.904 124.969C151.861 125.741 152.67 126.391 153.711 127.227H153.706ZM44.8244 99.1381C44.8244 99.4541 44.8849 99.9095 44.8105 100.342C44.6618 101.224 43.4537 101.852 42.8403 101.364C42.1712 100.83 41.5625 100.221 41.0699 99.7747C42.2455 99.5749 43.5002 99.3612 44.8198 99.1335L44.8244 99.1381ZM120.603 109.709C120.877 109.5 121.221 109.096 121.653 108.957C122.15 108.799 122.773 109.468 122.727 110.021C122.675 110.611 122.383 111.062 121.723 111.062C121.04 111.062 120.71 110.657 120.608 109.709H120.603ZM130.5 98.5991C129.724 98.2645 129.009 97.9579 128.238 97.6279C129.004 97.1122 129.729 96.6289 130.5 96.1131V98.5991Z" fill="black"/>
<path fill-rule="evenodd" clip-rule="evenodd" d="M170.56 46.6582C173.975 46.4816 176.865 43.3683 177.674 40.0366C178.329 37.3369 178.473 34.6558 176.935 32.1326C176.805 31.9188 176.824 31.5564 176.879 31.2869C179.361 20.0651 174.821 8.60631 163.757 3.0349C158.65 0.460625 153.204 -0.40831 147.554 0.172529C142.61 0.67902 138.107 2.41224 134.199 5.56271C133.985 5.73464 133.679 5.86939 133.414 5.87404C129.26 5.91586 126.133 7.87677 123.842 11.1759C121.384 14.7121 120.436 18.6897 120.77 22.9972C121.012 26.0965 122.025 28.8985 123.433 31.654C123.972 32.7134 123.8 34.1586 123.888 35.4271C124.302 41.426 124.808 47.411 126.978 53.0985C128.739 57.7174 131.402 61.6578 135.719 64.2692C136.76 64.9012 137.931 65.3101 139.013 65.877C139.26 66.0071 139.548 66.3742 139.529 66.6205C139.408 68.5907 138.767 69.6501 136.904 70.2031C131.611 71.7783 126.416 73.6045 121.314 75.728C113.995 78.7762 108.805 83.8179 105.51 91.0621C100.985 101.006 96.1892 110.825 91.4914 120.694C90.3018 123.189 89.0611 125.662 87.7833 128.259C83.8708 124.988 80.0047 121.809 76.2037 118.552C73.2205 115.996 70.5022 113.088 67.3331 110.797C63.5832 108.092 61.7524 104.403 60.5164 100.207C60.2469 99.2915 59.8984 98.4039 59.6196 97.4932C58.5648 94.0686 56.1299 92.2656 52.7146 91.6244C51.9246 91.4757 51.1207 91.3874 50.3262 91.248C50.1078 91.2108 49.8568 91.1226 49.6989 90.9785C47.7004 89.1266 45.7146 87.2662 43.5509 85.239L43.2492 84.9564H44.3598C56.1857 84.9564 68.0115 84.9564 79.8374 84.9424C80.2277 84.9424 80.9619 84.6729 80.9526 84.6032C80.8597 83.8876 80.251 84.1478 79.8235 84.1432C76.5289 84.1246 73.2298 84.1339 69.8888 84.1339V53.9954C71.622 55.6775 73.2902 57.2945 75.0188 58.9766C76.055 57.9404 77.1423 56.881 78.1739 55.7704C78.2622 55.6728 78.0809 55.1803 77.8951 54.9944C74.0801 51.1702 70.2327 47.3784 66.4177 43.5496C58.0722 35.1762 49.7407 26.7842 41.3998 18.4016C40.5216 17.5187 40.4937 17.528 39.6155 18.3923C32.9475 25.0092 26.2748 31.6215 19.6068 38.2384C19.4813 38.3638 19.3466 38.4753 19.0724 38.7263V35.85C19.0724 34.2283 19.0492 32.6066 19.0863 30.9895C19.1003 30.325 18.8726 30.0741 18.2081 30.0787C15.8383 30.0973 13.4638 30.1066 11.094 30.0787C10.3319 30.0695 10.3041 30.5016 10.3041 31.0685C10.3087 36.231 10.2901 41.3935 10.3226 46.556C10.3226 47.2809 10.0996 47.7734 9.59311 48.2753C7.29764 50.5614 5.04399 52.8848 2.67418 55.2964C3.65927 56.328 4.68619 57.4386 5.76888 58.4934C5.87109 58.5956 6.37759 58.4515 6.55882 58.275C7.7112 57.1784 8.82175 56.0399 9.94626 54.9108C10.1507 54.7063 10.3366 54.4786 10.6618 54.1115V84.0688C10.4574 84.0921 10.2622 84.1385 10.0624 84.1385C7.24187 84.1385 4.42131 84.1246 1.60075 84.1525C1.21043 84.1525 0.820129 84.3941 0.42981 84.5242C0.806183 84.6683 1.18257 84.9331 1.55896 84.9378C12.3625 84.961 23.1708 84.961 33.9744 84.9378C34.611 84.9378 34.9827 85.119 35.373 85.6301C36.8507 87.5539 38.3981 89.4219 40.0244 91.4432C38.5096 90.9553 37.1063 90.6532 35.8424 91.5315C34.5181 92.4469 34.3368 93.8083 34.7272 95.2814C32.1668 95.7507 31.0144 98.8733 32.664 101.053C31.6324 101.382 31.0516 102.126 30.8146 103.13C30.5079 104.403 30.6845 105.63 31.3118 106.773C32.3852 108.729 34.0069 110.207 35.6751 111.624C39.4761 114.853 43.7232 117.293 48.4628 118.896C49.2992 119.179 50.0659 119.779 50.7583 120.355C51.5854 121.043 52.301 121.861 53.1374 122.697C52.7424 123.036 52.3661 123.357 51.92 123.742C53.0817 125.095 54.1597 126.41 55.3028 127.669C60.0703 132.901 64.7867 138.18 69.6611 143.314C72.5932 146.404 75.9899 148.979 79.6423 151.214C84.038 153.909 88.5918 154.025 93.3175 152.352C97.5785 150.842 101.115 148.189 104.321 145.089C106.626 142.864 108.782 140.48 111.031 138.143C111.045 138.273 111.077 138.449 111.077 138.631C111.087 145.926 111.091 153.217 111.1 160.512C111.1 160.572 111.087 160.637 111.1 160.693C111.1 161.241 111.221 165.731 111.263 167.059C111.308 167.296 111.457 167.391 111.519 167.408C111.519 167.408 135.845 175.12 151.885 174.999C165.627 174.895 186.549 168.941 186.549 168.941C186.844 168.901 186.828 168.151 186.814 167.733C186.74 165.818 186.609 158.333 186.493 156.307C189.054 156.771 191.507 156.674 193.919 155.991C199.044 154.536 202.055 150.986 203.644 146.075C204.495 143.44 204.904 140.712 204.904 137.952C204.904 132.223 204.885 126.493 204.704 120.769C204.56 116.187 204.188 111.61 203.872 107.038C203.668 104.082 203.449 101.122 203.105 98.1763C202.306 91.3317 200.011 85.1794 194.644 80.5095C192.441 78.5904 190.025 76.9733 187.399 75.7234C183.25 73.7532 179.04 71.8991 174.853 69.9986C173.055 69.1854 171.21 68.4513 169.84 66.9457C168.269 65.2264 167.841 63.0518 167.47 60.8632C167.381 60.3335 167.349 59.7944 167.284 59.2601C166.972 56.7416 167.186 54.3624 168.715 52.1785C169.263 51.3978 169.491 50.3802 169.798 49.4462C170.09 48.5401 170.295 47.6061 170.55 46.635L170.56 46.6582ZM111.909 122.618C111.881 135.313 111.907 147.868 111.898 160.563C111.898 160.636 111.973 166.615 112.154 166.662C112.154 166.662 135.998 174.242 151.885 174.211C165.329 174.185 185.865 168.433 185.865 168.433C186.041 168.409 186.028 167.983 186.015 167.775C185.885 165.753 185.796 158.151 185.694 156.153C182.646 155.452 179.946 154.192 177.339 152.724C172.312 149.885 167.688 146.456 163.39 142.631C158.711 138.468 154.18 134.128 149.608 129.839C148.599 128.896 148.474 127.892 149.069 126.651C149.403 125.959 149.808 125.299 150.305 124.402C147.916 123.027 145.621 121.507 143.158 120.327C139.074 118.366 135.765 115.625 133.288 111.824C131.727 109.426 129.785 107.363 127.373 105.774C126.89 106.396 126.43 106.977 125.956 107.581C126.068 107.707 126.202 107.865 126.346 108.013C129.404 111.229 128.4 116.447 124.344 118.194C123.693 118.473 123.549 118.803 123.549 119.44C123.572 123.464 123.558 127.483 123.549 131.507C123.549 132.26 121.969 134.063 121.258 134.081C121.03 134.091 120.752 133.928 120.575 133.761C120.008 133.226 119.483 132.646 118.921 132.107C118.479 131.684 118.447 131.256 118.749 130.745C119.032 130.262 119.274 129.755 119.525 129.277C118.778 128.524 118.922 127.551 119.957 126.359C119.646 125.875 119.297 125.392 119.014 124.872C118.847 124.57 118.675 124.207 118.693 123.882C118.791 122.237 118.893 120.587 119.116 118.956C119.204 118.32 119.005 118.078 118.521 117.781C116.193 116.35 115.027 113.562 115.826 110.945C116.198 109.737 116.979 108.65 117.657 107.34C117.676 107.354 117.462 107.233 117.295 107.065C113.888 103.664 115.203 97.9765 119.753 96.4105C120.008 96.3222 122.183 94.97 122.401 94.7842C122.624 94.589 122.871 94.4124 123.103 94.2266C124.385 93.2043 125.705 92.2285 126.941 91.1504C128.939 89.4079 131.081 88.0186 133.804 87.7398C136.439 87.4702 138.995 87.9489 141.527 88.5529C145.756 89.5566 149.515 91.4804 151.964 95.1652C153.585 97.6094 154.812 100.332 156.099 102.986C157.489 105.857 158.45 108.947 160.425 111.512C161.094 112.377 161.959 113.092 162.753 113.901C162.93 113.431 162.967 113.064 163.111 113.013C163.302 112.948 163.608 113.092 163.813 113.222C168.975 116.48 174.128 119.742 179.286 123.004C179.63 123.222 179.974 123.44 180.406 123.715C180.406 123.338 180.411 123.106 180.406 122.874C180.299 118.733 180.146 114.593 180.095 110.453C180.039 105.867 179.932 101.266 180.824 96.7404C181.08 95.444 181.647 94.2033 182.13 92.958C182.204 92.7675 182.576 92.6885 182.813 92.5584C182.808 92.814 182.864 93.0974 182.785 93.3297C182.623 93.8083 182.358 94.2498 182.186 94.7238C181.308 97.1447 181.001 99.6771 181.001 102.219C180.992 109.152 181.098 116.08 181.154 123.013C181.164 124.119 182.237 125.299 183.352 125.452C184.565 125.62 185.782 125.764 186.981 126.01C189.337 126.498 191.6 127.241 193.459 128.863C193.663 129.04 193.728 129.384 193.858 129.648C193.556 129.574 193.189 129.583 192.966 129.407C190.629 127.581 187.878 126.935 185.025 126.549C185.731 127.097 186.475 127.576 187.204 128.073C188.696 129.086 189.909 130.341 190.541 132.069C190.661 132.409 190.685 132.78 190.754 133.138C190.671 133.185 190.582 133.231 190.494 133.277C190.318 133.106 190.048 132.957 189.978 132.748C189.319 130.759 187.911 129.435 186.196 128.352C179.212 123.952 172.237 119.537 165.258 115.127C164.714 114.788 164.184 114.43 163.743 114.142C161.68 121.41 157.191 126.433 150.444 129.709C150.57 129.811 150.811 129.983 151.03 130.187C154.78 133.686 158.46 137.264 162.289 140.675C166.963 144.848 171.889 148.705 177.344 151.841C180.917 153.9 184.625 155.554 188.84 155.754C195.108 156.051 200.015 152.984 202.366 147.255C203.305 144.964 203.877 142.562 203.965 140.117C204.142 135.382 204.23 130.638 204.114 125.903C203.988 120.81 203.649 115.722 203.287 110.639L203.283 110.588C202.95 105.893 202.615 101.185 202.009 96.5174C200.935 88.2927 196.897 81.8291 189.523 77.9027C183.371 74.6314 176.972 71.8201 170.736 68.8323C165.355 73.9483 159.25 77.2893 151.885 78.0049C148.599 78.3255 145.356 78.0885 142.275 76.806C139.65 75.7094 137.596 73.9715 136.546 71.2625C136.379 71.2765 136.281 71.2625 136.202 71.2904C131.49 72.9632 126.732 74.5292 122.071 76.3507C115.115 79.069 109.823 83.6135 106.658 90.5742C103.103 98.3993 99.3118 106.117 95.6083 113.873C93.2478 118.817 90.8548 123.752 88.4617 128.719C89.4143 129.472 90.3901 130.211 91.3241 131.005C91.5471 131.191 91.6168 131.558 91.7562 131.842C91.4681 131.767 91.1103 131.772 90.9012 131.6C84.2843 126.103 77.672 120.597 71.083 115.067C69.3916 113.65 67.7792 112.135 66.2272 110.746C61.85 115.211 57.5425 119.607 53.1839 124.058C55.5026 126.712 57.9049 129.514 60.3677 132.255C62.9513 135.136 65.5627 137.994 68.2299 140.796C72.2168 144.983 76.5336 148.76 81.724 151.423C84.1077 152.645 86.6448 152.845 89.2423 152.543C92.8389 152.129 95.9801 150.568 98.9028 148.533C103.299 145.47 106.891 141.567 110.362 137.539C110.915 136.902 111.1 136.265 111.1 135.443C111.124 122.362 110.961 109.277 112.016 96.2246C112.039 95.9365 112.29 95.667 112.439 95.3882C112.536 95.681 112.736 95.9784 112.722 96.2665C112.564 99.5006 112.295 102.73 112.202 105.964C112.044 111.517 111.923 117.065 111.909 122.618ZM40.9491 24.9627C40.8283 24.8419 40.6935 24.7257 40.3961 24.4562V24.4516C35.8981 29.0007 31.4884 33.4987 27.0322 37.9549C22.0649 42.9222 17.0557 47.8431 12.0884 52.8012C11.8049 53.0846 11.5447 53.5446 11.5447 53.9257C11.5122 63.7999 11.5215 73.6695 11.5215 83.5438C11.5215 83.7157 11.5401 83.8923 11.5494 84.0874H34.1649C33.375 83.0419 32.6687 82.1312 31.9902 81.2018C31.3443 80.319 30.8332 79.3896 31.126 78.2233C31.4931 76.7503 32.7941 76.0812 34.1603 76.7317C34.611 76.9454 35.0292 77.2661 35.3963 77.6053C37.5802 79.622 39.7317 81.6665 41.9203 83.6739C42.2177 83.9434 42.6405 84.0735 43.2074 84.3802V83.1395C43.2074 75.3981 43.226 67.6567 43.1842 59.9153C43.1795 58.972 43.4723 58.7768 44.3551 58.7861C49.3968 58.8279 54.4385 58.8279 59.4802 58.7908C60.3073 58.7861 60.5396 58.9999 60.5396 59.8409C60.5071 67.5544 60.521 75.2633 60.521 82.9769V84.0874H68.9641V83.1442C68.9641 73.3628 68.9734 63.5815 68.9455 53.8002C68.9455 53.382 68.7643 52.8476 68.4762 52.5549C59.3176 43.3451 50.131 34.1539 40.9491 24.9627ZM169.635 46.5374C169.682 46.2772 169.756 46.0216 169.83 45.7242L169.835 45.7149C173.51 46.0727 176.494 42.3368 177.014 39.0748C177.288 37.3834 177.423 35.692 176.865 34.0192C176.178 31.97 174.807 30.8826 172.888 30.8733C171.01 30.8687 169.649 31.9374 168.91 33.9216C168.752 34.3398 168.864 35.218 168.162 34.9996C167.409 34.7626 167.976 34.0656 168.125 33.6242C168.343 32.9829 168.701 32.3882 169.022 31.7237C164.593 29.1401 161.461 25.3484 159.296 20.7203C150.189 25.3949 137.61 21.9935 133.879 12.5699C129.855 14.6377 127.276 17.909 125.891 22.1561C124.627 26.0268 124.404 30.009 124.725 34.0424C124.929 36.6074 125.059 39.1816 125.347 41.742C126.03 47.8199 127.322 53.7166 131.067 58.7675C135.017 64.0927 140.389 66.3649 146.931 65.9049C153.701 65.4263 159.426 62.6754 164.031 57.6802C166.954 54.5065 168.85 50.7938 169.635 46.5374ZM123.67 29.7302C124.097 22.1096 126.23 15.4556 133.553 11.6406L133.563 11.6313C133.549 11.543 133.507 11.4501 133.53 11.3804C133.614 11.1155 133.716 10.8507 133.809 10.5858C134.004 10.7577 134.278 10.8878 134.39 11.1016C135.129 12.5188 135.672 14.0708 136.583 15.3626C138.874 18.6107 142.154 20.474 145.969 21.3569C150.1 22.3141 154.162 22.0632 158.06 20.2742C159.751 19.4982 159.742 19.4842 160.56 21.1152C162.646 25.2926 165.653 28.6243 169.733 31.0638C171.745 29.5165 173.859 29.6234 176.024 30.9895C176.693 28.0992 176.796 25.2508 176.452 22.3884C175.955 18.2157 174.509 14.4008 171.977 11.0319C168.111 5.89263 162.879 2.88621 156.671 1.61301C150.853 0.418805 145.11 0.781248 139.678 3.3834C137.968 4.20123 136.42 5.35826 134.822 6.39912C134.367 6.69651 133.981 6.88238 133.381 6.87308C130.854 6.83126 128.656 7.78384 126.755 9.41483C124.051 11.7382 122.596 14.7911 121.955 18.2157C121.24 22.0446 121.737 25.7759 123.368 29.3306C123.405 29.4096 123.447 29.4886 123.498 29.563C123.526 29.6048 123.572 29.6373 123.67 29.7302ZM134.859 105.611C134.855 105.607 134.851 105.604 134.847 105.6C134.606 103.974 134.241 102.376 134.171 100.764C134.069 98.3528 135.259 96.9216 137.638 96.5174C139.608 96.1828 141.611 96.0248 143.604 95.825C143.799 95.8064 144.018 96.0388 144.227 96.1549C143.999 96.3269 143.79 96.6243 143.548 96.6521C141.741 96.8659 139.91 96.9495 138.112 97.233C135.672 97.6233 134.678 98.8919 134.896 101.35C135.101 103.664 135.714 105.89 137.076 107.809C137.489 108.39 138.195 108.766 138.855 109.147C138.349 107.358 138.102 105.653 138.437 103.873C138.651 102.744 139.264 101.945 140.277 101.494C142.285 100.597 144.408 100.337 146.587 100.472C146.829 100.486 147.066 100.639 147.303 100.727C147.317 100.83 147.326 100.936 147.34 101.039C147.038 101.122 146.722 101.313 146.439 101.271C144.571 100.997 142.81 101.452 141.072 102.01C139.826 102.405 139.26 103.302 139.115 104.621C138.767 107.86 140.217 110.746 142.954 111.819C143.72 112.121 144.594 112.144 145.551 112.316C145.486 110.862 145.379 109.77 144.273 108.975C143.855 108.678 143.562 108.092 143.39 107.577C143.107 106.726 143.562 106.085 144.478 106.025C145.091 105.987 145.723 106.108 146.327 106.238C146.504 106.275 146.615 106.591 146.759 106.782C146.546 106.842 146.327 106.968 146.118 106.954C145.704 106.931 145.296 106.791 144.882 106.763C144.255 106.722 144.074 107.079 144.264 107.623C144.362 107.893 144.496 108.236 144.719 108.362C146.072 109.115 146.271 110.448 146.378 111.749C146.69 115.601 148.167 118.831 151.183 121.317C151.364 121.466 151.411 121.782 151.518 122.019C151.243 121.991 150.886 122.06 150.7 121.912C148.06 119.816 146.485 117.079 145.862 113.78C145.807 113.492 145.723 113.208 145.663 112.957C143.214 113.222 141.378 112.242 139.845 110.509C139.645 110.286 139.371 110.053 139.092 109.993C137.61 109.663 136.597 108.803 135.881 107.484C135.658 107.079 135.259 106.708 134.854 106.48C132.726 105.276 131.876 103.204 131.109 101.08C130.449 99.2496 128.484 98.0601 126.648 98.3389C127.09 99.3751 127.75 100.407 127.949 101.517C128.149 102.628 127.884 103.817 127.819 105.114C130.965 107.098 133.121 110.248 135.375 113.311C136.978 115.49 138.995 117.251 141.392 118.478C145.928 120.792 150.361 123.25 154.231 126.688C158.195 123.426 161.438 119.728 162.767 114.649C160.723 113.603 159.403 111.907 158.45 109.946C157.066 107.103 155.816 104.198 154.496 101.327C153.316 98.7664 152.07 96.2525 150.114 94.1615C147.424 91.2898 143.985 89.8261 140.221 89.1431C138.116 88.762 135.942 88.5483 133.809 88.618C131.105 88.7063 129.055 90.3512 127.108 92.0984C126.026 93.0695 124.827 93.9152 123.674 94.812C123.512 94.9422 123.275 95.0118 123.168 95.1745C122.861 95.6485 122.327 96.1875 122.378 96.6475C122.462 97.3817 123.219 97.6558 123.944 97.7534C125.747 97.9904 127.313 97.3538 128.739 96.3547C129.72 95.6717 130.645 94.905 131.555 94.129C132.67 93.1764 134.009 92.7535 135.403 92.563C137.001 92.34 138.618 92.261 140.231 92.1588C140.468 92.1402 140.719 92.3586 140.965 92.4655C140.719 92.6049 140.486 92.8372 140.226 92.8697C138.535 93.0788 136.829 93.1718 135.147 93.4366C132.029 93.9245 130.905 95.365 131.314 98.5248C131.602 100.769 132.42 102.865 133.869 104.654C134.163 105.016 134.538 105.306 134.847 105.6C134.848 105.605 134.849 105.61 134.85 105.616L134.859 105.611ZM49.5734 102.832C49.3132 101.461 49.5176 100.002 49.5176 98.4736L49.5316 98.469C48.658 98.2924 47.6125 98.0508 46.5623 97.8789C45.9815 97.7859 45.5122 98.2878 45.6051 98.8222C46.028 101.262 45.094 101.88 43.4862 102.4C44.3087 104.793 43.3422 107.298 40.4473 106.782C40.4194 106.856 40.3636 106.935 40.3729 107.01C40.6703 109.226 38.6629 110.211 36.716 109.682C36.479 109.616 36.2977 109.347 36.0933 109.17C36.3582 109.087 36.6137 108.947 36.8832 108.929C37.4083 108.892 38.0031 109.063 38.4538 108.873C38.9138 108.678 39.3739 108.209 39.569 107.748C39.806 107.182 39.5783 106.591 39.0393 106.164C37.3665 104.849 35.7216 103.501 34.0441 102.191C33.2449 101.568 32.3341 101.787 31.8741 102.702C31.2654 103.915 31.3908 105.128 31.981 106.317C32.8592 108.078 34.2997 109.366 35.7401 110.625C39.49 113.91 43.6907 116.447 48.4442 118.018C49.6013 118.403 50.6328 118.952 51.4367 119.9C52.1151 120.699 52.8354 121.461 53.5835 122.288C57.97 118.533 61.6688 114.458 65.3443 110.221C61.9754 107.604 60.8324 103.743 59.601 99.9281C59.3919 99.2729 59.127 98.6409 58.9411 97.9811C57.9979 94.6122 55.642 92.8883 52.3289 92.3725C50.4423 92.0798 48.5232 91.9915 46.6181 91.8056C45.2938 91.6755 44.1693 92.1495 43.3096 93.0974C42.292 94.2312 41.3162 95.4161 40.4426 96.6614C39.6294 97.8231 40.1731 98.706 41.6136 98.8314C42.989 98.9523 44.1275 98.4225 45.1683 97.6187C45.8328 97.1075 46.4322 96.8055 47.3337 97.1726C48.1469 97.5071 49.0669 97.6001 49.9498 97.7302C50.591 97.8278 50.7536 98.1344 50.591 98.7153C49.7964 101.554 50.2704 104.208 51.7573 106.722C51.8642 106.903 51.7945 107.182 51.8085 107.414C51.5668 107.307 51.1765 107.256 51.1068 107.079C50.5446 105.681 49.8475 104.296 49.5734 102.832ZM59.7218 84.0967V59.6132H44.1042V84.0967H59.7218ZM74.9723 57.9265C74.9715 57.9257 74.9708 57.9249 74.97 57.9242C75.2197 57.6792 75.3957 57.517 75.5578 57.3456C76.1154 56.7555 76.6637 56.1654 77.2538 55.5381C64.9819 43.3219 52.7285 31.1196 40.424 18.8709C29.1771 30.0491 17.8746 41.2789 6.52382 52.5566L3.7429 55.3197C4.56073 56.0817 5.32278 56.7927 6.10344 57.5222C7.93889 55.6914 9.83009 53.8141 11.7213 51.9322L39.5458 24.2611C40.5216 23.2899 40.5309 23.2946 41.5114 24.2797C52.3242 35.1483 63.1325 46.017 73.9454 56.8856C74.2792 57.2241 74.6177 57.5672 74.97 57.9242C74.9692 57.9249 74.9684 57.9257 74.9677 57.9265H74.9723ZM147.94 77.1824C156.62 77.6192 163.799 74.2318 170.016 68.3816H170.021C166.568 65.1103 166.503 60.8539 166.336 56.5139C159.515 64.5109 151.071 68.126 140.477 66.416C140.356 68.4187 139.78 70.2681 137.466 70.9698C138.07 72.7355 139.236 73.939 140.677 74.9148C142.865 76.3971 145.361 77.0523 147.94 77.1824ZM18.1663 39.3954C18.1942 36.6167 18.1849 33.8333 18.1849 30.9756V30.9709H11.2102V46.5374C11.4193 46.3655 11.6005 46.2446 11.7538 46.0913C13.7519 44.1072 15.75 42.1184 17.7341 40.1203C17.9293 39.9251 18.1663 39.6417 18.1663 39.3954ZM39.9872 90.1003C40.74 91.0621 41.4556 92.0519 42.0782 92.879L42.0736 92.8837C43.0959 92.2749 44.0206 91.4618 45.0847 91.1644C46.1348 90.8716 47.329 91.0993 48.658 91.0993L48.2149 90.6812C46.4876 89.0512 44.8727 87.5272 43.2539 86.0112C40.5402 83.4694 37.8219 80.9277 35.0989 78.3952C34.8154 78.135 34.5227 77.7726 34.1835 77.6982C33.6166 77.5774 32.9382 77.4798 32.441 77.6889C31.7951 77.9631 31.73 78.7112 31.9438 79.3431C32.1203 79.8682 32.3945 80.3933 32.7337 80.8347C35.1361 83.9341 37.5709 87.0102 39.9872 90.1003ZM119.911 109.407C119.957 109.268 119.985 109.129 120.031 108.947L120.036 108.943C118.442 107.888 118.289 107.92 117.276 109.486C115.928 111.568 116.119 114.249 117.75 116.15C119.255 117.911 121.932 118.45 124.144 117.442C126.346 116.438 127.68 113.97 127.294 111.624C126.89 109.17 124.976 107.223 122.62 106.949C121.518 106.824 120.44 106.959 119.404 107.581C120.055 108.004 120.575 108.441 121.439 108.204C122.299 107.972 123.019 108.38 123.4 109.24C123.753 110.035 123.516 110.95 122.833 111.503C122.197 112.019 121.295 112.061 120.584 111.54C119.86 111.006 119.609 110.286 119.911 109.407ZM118.958 106.852C121.333 105.811 122.866 105.834 125.394 107.103H125.398C125.844 106.494 126.263 105.927 126.662 105.379C125.152 104.366 123.721 103.455 122.345 102.465C121.848 102.107 121.398 101.619 121.063 101.104C120.092 99.6074 120.32 98.5991 121.472 97.7302C121.611 97.6233 121.76 97.3352 121.709 97.2051C121.653 97.0564 121.374 96.8938 121.202 96.9031C119.181 97.0146 117.178 98.6688 116.477 100.76C115.77 102.869 116.379 105.332 117.987 106.643C118.224 106.833 118.707 106.963 118.958 106.852ZM32.7895 98.1437C32.743 98.3761 32.7523 98.6223 32.7337 98.8593L32.7384 98.8547C32.664 99.8677 33.2356 100.555 33.9512 101.132C35.6054 102.465 37.2364 103.822 38.965 105.049C39.6527 105.537 40.5495 105.802 41.3905 105.997C42.0225 106.145 42.5243 105.736 42.7288 105.072C43.1098 103.822 43.0959 102.619 42.0364 101.698C40.0291 99.9559 38.0077 98.2181 35.9353 96.5546C34.7365 95.5927 33.1287 96.443 32.7895 98.1437ZM120.417 127.218C120.101 127.441 119.808 127.706 119.404 128.041V128.05C121.593 129.258 119.655 130.215 119.465 131.437L119.546 131.527C120.012 132.037 120.556 132.634 121.109 133.236C122.299 132.548 122.912 131.712 122.857 130.22C122.722 126.777 122.815 123.329 122.815 119.881V118.901C121.844 118.794 120.938 118.696 119.966 118.594C119.836 120.123 119.757 121.703 119.557 123.264C119.418 124.328 120.05 125.016 120.584 125.741C121.035 126.349 121.044 126.777 120.417 127.218ZM36.0143 95.5044C37.083 96.4152 38.1425 97.3352 39.2856 98.3157H39.2902C39.109 96.1178 40.8422 95.0258 41.7576 93.4366C40.5077 92.4794 39.1555 91.7359 37.4873 91.801C36.558 91.8381 35.8888 92.2935 35.5403 93.1392C35.1825 94.0082 35.229 94.8353 36.0143 95.5044ZM122.169 101.229C123.67 102.382 125.222 103.46 126.792 104.589C127.736 102.595 127.201 100.109 125.696 98.9197C125.487 98.7524 125.166 98.706 124.887 98.6502C124.279 98.5294 123.633 98.5155 123.056 98.311C122.503 98.1159 122.011 98.0833 121.737 98.5898C121.509 99.0127 121.36 99.5749 121.43 100.04C121.495 100.472 121.816 100.96 122.169 101.229ZM150.658 128.603C151.624 128.25 152.54 127.762 153.706 127.227H153.711C152.67 126.391 151.861 125.741 150.904 124.969C150.444 125.899 149.952 126.712 149.631 127.585C149.329 128.403 149.835 128.9 150.658 128.603ZM44.8105 100.342C44.8849 99.9095 44.8244 99.4541 44.8244 99.1381L44.8198 99.1335C43.5002 99.3612 42.2455 99.5749 41.0699 99.7747C41.5625 100.221 42.1712 100.83 42.8403 101.364C43.4537 101.852 44.6618 101.224 44.8105 100.342ZM121.653 108.957C121.221 109.096 120.877 109.5 120.603 109.709H120.608C120.71 110.657 121.04 111.062 121.723 111.062C122.383 111.062 122.675 110.611 122.727 110.021C122.773 109.468 122.15 108.799 121.653 108.957ZM128.238 97.6279C129.009 97.9579 129.724 98.2645 130.5 98.5991V96.1131C129.729 96.6289 129.004 97.1122 128.238 97.6279Z" fill="black"/>
<path d="M111.898 160.563C111.907 147.868 111.881 135.313 111.909 122.618C111.923 117.065 112.044 111.517 112.202 105.964C112.295 102.73 112.564 99.5006 112.722 96.2665C112.736 95.9784 112.536 95.681 112.439 95.3882C112.29 95.667 112.039 95.9365 112.016 96.2246C110.961 109.277 111.124 122.362 111.1 135.443C111.1 136.265 110.915 136.902 110.362 137.539C106.891 141.567 103.299 145.47 98.9028 148.533C95.9801 150.568 92.8389 152.129 89.2423 152.543C86.6448 152.845 84.1077 152.645 81.724 151.423C76.5336 148.76 72.2168 144.983 68.2299 140.796C65.5627 137.994 62.9513 135.136 60.3677 132.255C57.9049 129.514 55.5026 126.712 53.1839 124.058C57.5425 119.607 61.85 115.211 66.2272 110.746C67.7792 112.135 69.3916 113.65 71.083 115.067C77.672 120.597 84.2843 126.103 90.9012 131.6C91.1103 131.772 91.4681 131.767 91.7562 131.842C91.6168 131.558 91.5471 131.191 91.3241 131.005C90.3901 130.211 89.4143 129.472 88.4617 128.719C90.8548 123.752 93.2478 118.817 95.6083 113.873C99.3118 106.117 103.103 98.3993 106.658 90.5742C109.823 83.6135 115.115 79.069 122.071 76.3507C126.732 74.5292 131.49 72.9632 136.202 71.2904C136.281 71.2625 136.379 71.2765 136.546 71.2625C137.596 73.9715 139.65 75.7094 142.275 76.806C145.356 78.0885 148.599 78.3255 151.885 78.0049C159.25 77.2893 165.355 73.9483 170.736 68.8323C176.972 71.8201 183.371 74.6314 189.523 77.9027C196.897 81.8291 200.935 88.2927 202.009 96.5174C202.615 101.185 202.95 105.893 203.283 110.588L203.287 110.639C203.649 115.722 203.988 120.81 204.114 125.903C204.23 130.638 204.142 135.382 203.965 140.117C203.877 142.562 203.305 144.964 202.366 147.255C200.015 152.984 195.108 156.051 188.84 155.754C184.625 155.554 180.917 153.9 177.344 151.841C171.889 148.705 166.963 144.848 162.289 140.675C158.46 137.264 154.78 133.686 151.03 130.187C150.811 129.983 150.57 129.811 150.444 129.709C157.191 126.433 161.68 121.41 163.743 114.142C164.184 114.43 164.714 114.788 165.258 115.127C172.237 119.537 179.212 123.952 186.196 128.352C187.911 129.435 189.319 130.759 189.978 132.748C190.048 132.957 190.318 133.106 190.494 133.277C190.582 133.231 190.671 133.185 190.754 133.138C190.685 132.78 190.661 132.409 190.541 132.069C189.909 130.341 188.696 129.086 187.204 128.073C186.475 127.576 185.731 127.097 185.025 126.549C187.878 126.935 190.629 127.581 192.966 129.407C193.189 129.583 193.556 129.574 193.858 129.648C193.728 129.384 193.663 129.04 193.459 128.863C191.6 127.241 189.337 126.498 186.981 126.01C185.782 125.764 184.565 125.62 183.352 125.452C182.237 125.299 181.164 124.119 181.154 123.013C181.098 116.08 180.992 109.152 181.001 102.219C181.001 99.6771 181.308 97.1447 182.186 94.7238C182.358 94.2498 182.623 93.8083 182.785 93.3297C182.864 93.0974 182.808 92.814 182.813 92.5584C182.576 92.6885 182.204 92.7675 182.13 92.958C181.647 94.2033 181.08 95.444 180.824 96.7404C179.932 101.266 180.039 105.867 180.095 110.453C180.146 114.593 180.299 118.733 180.406 122.874C180.411 123.106 180.406 123.338 180.406 123.715C179.974 123.44 179.63 123.222 179.286 123.004C174.128 119.742 168.975 116.48 163.813 113.222C163.608 113.092 163.302 112.948 163.111 113.013C162.967 113.064 162.93 113.431 162.753 113.901C161.959 113.092 161.094 112.377 160.425 111.512C158.45 108.947 157.489 105.857 156.099 102.986C154.812 100.332 153.585 97.6094 151.964 95.1652C149.515 91.4804 145.756 89.5566 141.527 88.5529C138.995 87.9489 136.439 87.4702 133.804 87.7398C131.081 88.0186 128.939 89.4079 126.941 91.1504C125.705 92.2285 124.385 93.2043 123.103 94.2266C122.871 94.4124 122.624 94.589 122.401 94.7842C122.183 94.97 120.008 96.3222 119.753 96.4105C115.203 97.9765 113.888 103.664 117.295 107.065C117.462 107.233 117.676 107.354 117.657 107.34C116.979 108.65 116.198 109.737 115.826 110.945C115.027 113.562 116.193 116.35 118.521 117.781C119.005 118.078 119.204 118.32 119.116 118.956C118.893 120.587 118.791 122.237 118.693 123.882C118.675 124.207 118.847 124.57 119.014 124.872C119.297 125.392 119.646 125.875 119.957 126.359C118.922 127.551 118.778 128.524 119.525 129.277C119.274 129.755 119.032 130.262 118.749 130.745C118.447 131.256 118.479 131.684 118.921 132.107C119.483 132.646 120.008 133.226 120.575 133.761C120.752 133.928 121.03 134.091 121.258 134.081C121.969 134.063 123.549 132.26 123.549 131.507C123.558 127.483 123.572 123.464 123.549 119.44C123.549 118.803 123.693 118.473 124.344 118.194C128.4 116.447 129.404 111.229 126.346 108.013C126.202 107.865 126.068 107.707 125.956 107.581C126.43 106.977 126.89 106.396 127.373 105.774C129.785 107.363 131.727 109.426 133.288 111.824C135.765 115.625 139.074 118.366 143.158 120.327C145.621 121.507 147.916 123.027 150.305 124.402C149.808 125.299 149.403 125.959 149.069 126.651C148.474 127.892 148.599 128.896 149.608 129.839C154.18 134.128 158.711 138.468 163.39 142.631C167.688 146.456 172.312 149.885 177.339 152.724C179.946 154.192 182.646 155.452 185.694 156.153C185.796 158.151 185.885 165.753 186.015 167.775C186.028 167.983 186.041 168.409 185.865 168.433C185.865 168.433 165.329 174.185 151.885 174.211C135.998 174.242 112.154 166.662 112.154 166.662C111.973 166.615 111.898 160.636 111.898 160.563Z" fill="#F1B069"/>
<path d="M13.041 21.4593C13.0596 19.9166 13.8634 18.82 14.8904 17.8535C15.829 16.9706 16.7909 16.111 17.7713 15.2792C20.4385 13.007 20.2527 8.9504 18.7378 6.40401C18.6403 6.23673 18.2778 6.22743 18.0408 6.14844C18.0408 6.38077 17.9479 6.65958 18.0408 6.8315C19.5417 9.52195 19.5231 13.1557 16.3541 15.4697C15.4898 16.1017 14.7045 16.8637 13.9471 17.6258C12.0094 19.5774 11.6981 21.924 13.0689 24.3403C13.4917 25.0884 14.0354 25.7808 14.5744 26.4546C14.6999 26.6125 15.0437 26.5986 15.29 26.6683C15.2575 26.4081 15.3086 26.1014 15.1831 25.8969C14.6348 24.9769 13.9843 24.1219 13.4871 23.1786C13.2175 22.6721 13.1804 22.0448 13.041 21.4686V21.4593Z" fill="black"/>
<path d="M40.3962 24.4561C35.8936 29.0052 31.4839 33.5078 27.0323 37.9594C22.0696 42.9221 17.0605 47.8429 12.0885 52.8056C11.8051 53.0844 11.5448 53.5491 11.5448 53.9301C11.517 63.8044 11.5216 73.674 11.5216 83.5482C11.5216 83.7248 11.5402 83.8967 11.5495 84.0919H34.165C33.3751 83.0464 32.6688 82.1356 31.9904 81.2063C31.3445 80.3234 30.8333 79.3941 31.1261 78.2278C31.4932 76.7548 32.7989 76.0903 34.1604 76.7362C34.6111 76.9499 35.0293 77.2705 35.3964 77.6098C37.5804 79.6264 39.7318 81.671 41.9204 83.6784C42.2178 83.9479 42.6406 84.0826 43.2075 84.3847C43.2075 83.7852 43.2075 83.4646 43.2075 83.144C43.2075 75.4026 43.2261 67.6611 43.1843 59.9197C43.1796 58.9718 43.4724 58.7813 44.3553 58.7906C49.3969 58.8324 54.4386 58.8324 59.4803 58.7952C60.3028 58.7906 60.5397 59.0043 60.5397 59.8454C60.5072 67.5589 60.5211 75.2678 60.5211 82.9813V84.0919H68.9642C68.9642 83.7852 68.9642 83.4646 68.9642 83.1486C68.9642 73.3673 68.9689 63.586 68.9456 53.8047C68.9456 53.3818 68.7644 52.8474 68.4763 52.5593C59.313 43.3449 50.1311 34.1584 40.9492 24.9672C40.8237 24.8417 40.6936 24.7302 40.3962 24.4607V24.4561ZM26.5584 71.1555C24.7601 71.1555 22.9572 71.1276 21.1635 71.1694C20.4572 71.188 20.2063 70.951 20.2109 70.2494C20.2342 66.7132 20.2342 63.1724 20.2156 59.6363C20.2156 59.0136 20.434 58.8045 21.0613 58.8092C24.7508 58.8324 28.4356 58.8278 32.1251 58.8092C32.7385 58.8092 32.9708 58.9997 32.9662 59.6363C32.9429 63.205 32.9429 66.7736 32.9662 70.3423C32.9662 70.9743 32.7617 71.1787 32.1344 71.1694C30.2757 71.1369 28.417 71.1601 26.5584 71.1601V71.1555Z" fill="#EFCFA9"/>
<path d="M169.83 45.7241C173.506 46.0819 176.489 42.3413 177.009 39.0839C177.279 37.3925 177.418 35.7011 176.861 34.0283C176.178 31.9791 174.802 30.8918 172.883 30.8825C171.006 30.8732 169.644 31.9419 168.906 33.9307C168.752 34.3489 168.859 35.2272 168.157 35.0088C167.405 34.7764 167.972 34.0794 168.12 33.6333C168.339 32.9921 168.696 32.3927 169.017 31.7328C164.593 29.1493 161.457 25.3576 159.292 20.7294C150.179 25.404 137.605 22.0026 133.874 12.5791C129.845 14.6422 127.271 17.9182 125.886 22.1653C124.622 26.036 124.399 30.0182 124.72 34.0515C124.924 36.6212 125.055 39.1954 125.343 41.7511C126.026 47.829 127.318 53.7257 131.063 58.7767C135.012 64.1018 140.384 66.374 146.927 65.914C153.697 65.4354 159.422 62.6846 164.027 57.6894C166.949 54.5156 168.84 50.8029 169.63 46.5465C169.677 46.2863 169.756 46.0261 169.826 45.7334L169.83 45.7241ZM141.067 47.0298C141.053 47.0856 141.035 47.1413 141.021 47.1924C140.235 46.9415 139.399 46.7882 138.679 46.4118C137.624 45.8635 137.238 44.962 137.489 44.0559C138.27 41.2121 139.06 38.3683 139.854 35.5292C139.961 35.1528 139.933 34.5766 140.57 34.7393C141.286 34.9205 140.909 35.4688 140.807 35.8452C140.105 38.4613 139.366 41.0727 138.651 43.6888C138.288 45.0131 138.549 45.5382 139.91 45.8588C140.584 46.0168 141.318 45.8774 142.02 45.9425C142.35 45.9704 142.666 46.1562 142.986 46.2677C142.707 46.4954 142.456 46.8068 142.136 46.9322C141.82 47.0577 141.43 47.0019 141.067 47.0252V47.0298ZM142.889 53.9952C140.77 53.958 138.846 53.4841 137.15 52.3178C136.899 52.1458 136.866 51.6533 136.736 51.3094C137.043 51.3605 137.415 51.3187 137.652 51.4767C141.174 53.8047 146.332 53.3911 149.394 50.5381C149.612 50.3336 150.147 50.157 150.319 50.2779C150.834 50.6496 150.337 50.933 150.082 51.184C148.056 53.1356 145.584 53.9302 142.893 53.9952H142.889ZM150.435 33.6333C151.494 33.6473 152.335 34.572 152.331 35.7197C152.326 36.9 151.457 37.7968 150.328 37.7829C149.241 37.7689 148.414 36.8721 148.427 35.7197C148.446 34.5255 149.315 33.6194 150.43 33.6333H150.435ZM132.726 37.9548C131.704 37.9548 130.803 36.9929 130.789 35.887C130.775 34.7346 131.658 33.7634 132.745 33.7309C133.739 33.703 134.683 34.7114 134.678 35.7941C134.678 36.9511 133.776 37.9455 132.726 37.9501V37.9548ZM146.197 29.4234C146.332 29.298 146.471 29.0935 146.662 28.9959C149.636 27.4857 153.646 27.7274 155.904 30.2831C156.118 30.5247 156.081 30.9894 156.164 31.3518C155.848 31.2356 155.439 31.2078 155.235 30.9894C154.092 29.758 152.693 29.1725 151.03 29.1121C149.659 29.061 148.353 29.2376 147.131 29.8834C146.694 30.1158 146.323 30.1437 146.202 29.4188L146.197 29.4234ZM127.415 30.3899C127.559 30.1762 127.652 29.9996 127.782 29.8509C129.78 27.5601 133.855 27.1094 136.29 28.9355C136.49 29.0842 136.509 29.4652 136.611 29.744C136.314 29.744 135.946 29.8509 135.723 29.7208C134.269 28.8705 132.712 28.4104 131.105 28.9913C130.133 29.3444 129.306 30.0925 128.405 30.6455C128.219 30.7617 127.987 30.8918 127.791 30.8685C127.657 30.85 127.554 30.5805 127.415 30.3899Z" fill="#F8F6F3"/>
<path d="M133.553 11.6406C133.539 11.5477 133.502 11.4594 133.521 11.3897C133.605 11.1202 133.707 10.86 133.8 10.5951C133.999 10.7624 134.269 10.8971 134.381 11.1109C135.119 12.5281 135.663 14.0801 136.574 15.3719C138.86 18.62 142.141 20.4833 145.96 21.3662C150.091 22.3234 154.152 22.0725 158.051 20.2835C159.742 19.5075 159.733 19.4889 160.551 21.1245C162.642 25.3019 165.648 28.6336 169.723 31.0731C171.74 29.5211 173.854 29.628 176.015 30.9988C176.684 28.1086 176.786 25.2601 176.443 22.3977C175.945 18.225 174.5 14.4101 171.968 11.0412C168.102 5.90193 162.874 2.89551 156.661 1.62231C150.844 0.428105 145.1 0.795195 139.668 3.39271C137.958 4.21053 136.411 5.3722 134.813 6.40842C134.357 6.70581 133.972 6.89168 133.372 6.88238C130.844 6.84056 128.646 7.78849 126.746 9.42413C124.042 11.7475 122.583 14.8004 121.946 18.225C121.23 22.0539 121.728 25.7806 123.359 29.3399C123.396 29.4189 123.442 29.4979 123.489 29.5723C123.517 29.6141 123.563 29.6466 123.661 29.7395C124.088 22.1143 126.226 15.4649 133.544 11.6499L133.553 11.6406Z" fill="#F1B069"/>
<path d="M134.859 105.611C134.622 103.976 134.25 102.373 134.181 100.76C134.079 98.3485 135.268 96.9173 137.647 96.5131C139.617 96.1785 141.62 96.0205 143.614 95.8207C143.809 95.8021 144.027 96.0345 144.236 96.1506C144.013 96.3226 143.799 96.6199 143.558 96.6478C141.75 96.8662 139.919 96.9452 138.121 97.2287C135.682 97.6143 134.687 98.8875 134.906 101.346C135.11 103.655 135.719 105.885 137.085 107.805C137.499 108.39 138.205 108.766 138.865 109.143C138.358 107.358 138.107 105.649 138.446 103.869C138.66 102.74 139.269 101.945 140.287 101.49C142.294 100.593 144.417 100.333 146.597 100.467C146.838 100.481 147.075 100.635 147.312 100.723C147.326 100.825 147.336 100.932 147.35 101.034C147.048 101.118 146.732 101.308 146.448 101.267C144.58 100.993 142.824 101.453 141.081 102.005C139.836 102.4 139.269 103.297 139.125 104.617C138.776 107.856 140.226 110.737 142.963 111.815C143.73 112.117 144.608 112.14 145.561 112.312C145.491 110.857 145.389 109.765 144.283 108.971C143.865 108.669 143.572 108.083 143.4 107.572C143.116 106.722 143.572 106.076 144.487 106.02C145.096 105.983 145.728 106.104 146.337 106.234C146.513 106.271 146.625 106.592 146.769 106.778C146.555 106.838 146.337 106.964 146.127 106.95C145.714 106.922 145.305 106.787 144.891 106.759C144.264 106.713 144.083 107.075 144.273 107.619C144.366 107.888 144.506 108.237 144.729 108.358C146.076 109.115 146.281 110.444 146.388 111.745C146.704 115.597 148.177 118.827 151.192 121.313C151.374 121.461 151.415 121.777 151.527 122.014C151.248 121.982 150.89 122.051 150.709 121.907C148.07 119.816 146.495 117.079 145.872 113.776C145.816 113.487 145.732 113.204 145.672 112.953C143.228 113.223 141.388 112.242 139.854 110.504C139.659 110.281 139.38 110.049 139.102 109.989C137.624 109.659 136.606 108.799 135.891 107.479C135.672 107.075 135.273 106.703 134.864 106.476C132.74 105.272 131.885 103.2 131.119 101.076C130.459 99.25 128.493 98.0558 126.658 98.3346C127.104 99.3708 127.759 100.402 127.959 101.513C128.159 102.619 127.894 103.808 127.829 105.109C130.975 107.094 133.131 110.244 135.384 113.306C136.992 115.486 139.004 117.251 141.402 118.473C145.937 120.787 150.37 123.246 154.241 126.684C158.204 123.422 161.448 119.723 162.777 114.645C160.732 113.599 159.412 111.898 158.46 109.942C157.075 107.098 155.825 104.194 154.505 101.322C153.33 98.7621 152.085 96.2436 150.124 94.1572C147.433 91.2809 143.995 89.8218 140.231 89.1387C138.126 88.7577 135.951 88.544 133.818 88.6137C131.114 88.702 129.065 90.3469 127.118 92.0941C126.035 93.0652 124.832 93.9109 123.684 94.8077C123.521 94.9378 123.284 95.0075 123.177 95.1702C122.866 95.6488 122.336 96.1832 122.387 96.6432C122.466 97.3774 123.228 97.6515 123.953 97.7491C125.756 97.9861 127.322 97.3541 128.749 96.3504C129.729 95.6674 130.654 94.9007 131.565 94.1247C132.68 93.1721 134.018 92.7492 135.412 92.5587C137.011 92.3403 138.628 92.2567 140.24 92.1545C140.477 92.1405 140.728 92.3543 140.974 92.4611C140.728 92.6005 140.496 92.8329 140.235 92.8654C138.544 93.0745 136.834 93.1721 135.157 93.4323C132.039 93.9202 130.919 95.3607 131.323 98.5205C131.611 100.765 132.429 102.86 133.879 104.649C134.176 105.017 134.557 105.309 134.868 105.607L134.859 105.611Z" fill="#F8F6F3"/>
<path d="M49.5176 98.4738C48.644 98.2972 47.6031 98.0556 46.5483 97.8836C45.9721 97.7861 45.4982 98.2926 45.5911 98.8269C46.014 101.266 45.0846 101.88 43.4722 102.405C44.2947 104.798 43.3282 107.298 40.4333 106.787C40.41 106.861 40.3496 106.94 40.3589 107.014C40.6563 109.231 38.6489 110.216 36.702 109.686C36.465 109.621 36.2884 109.352 36.0793 109.175C36.3442 109.092 36.5997 108.952 36.8692 108.934C37.3943 108.892 37.9937 109.068 38.4398 108.878C38.8998 108.683 39.3552 108.213 39.555 107.753C39.7967 107.191 39.569 106.596 39.0253 106.169C37.3525 104.854 35.7076 103.506 34.0301 102.196C33.2355 101.573 32.3201 101.792 31.8601 102.707C31.2514 103.92 31.3768 105.133 31.967 106.322C32.8452 108.088 34.2857 109.37 35.7261 110.63C39.4807 113.915 43.6813 116.452 48.4302 118.022C49.5919 118.408 50.6188 118.956 51.4227 119.904C52.1011 120.704 52.8214 121.466 53.5695 122.293C57.956 118.543 61.6548 114.468 65.3303 110.225C61.9615 107.609 60.8184 103.748 59.587 99.9328C59.3779 99.2823 59.113 98.6457 58.9272 97.9859C57.9885 94.6217 55.628 92.8931 52.3149 92.3773C50.4283 92.0846 48.5046 91.9963 46.6041 91.8104C45.2798 91.6803 44.1553 92.1496 43.2956 93.1022C42.2734 94.2313 41.2975 95.4162 40.4286 96.6662C39.6154 97.8279 40.1591 98.7108 41.5996 98.8362C42.9797 98.957 44.1181 98.4273 45.1543 97.6234C45.8188 97.1076 46.4182 96.8056 47.3197 97.1773C48.1329 97.5119 49.0529 97.6048 49.9358 97.7349C50.577 97.8325 50.7397 98.1392 50.577 98.72C49.7824 101.559 50.2564 104.212 51.7434 106.726C51.8502 106.903 51.7805 107.186 51.7945 107.419C51.5528 107.312 51.1625 107.261 51.0928 107.084C50.5306 105.685 49.8335 104.301 49.5594 102.837C49.2992 101.466 49.5036 100.007 49.5036 98.4784L49.5176 98.4738Z" fill="#F8F6F3"/>
<path d="M59.7218 59.6133H44.1042V84.0968H59.7218V59.6133Z" fill="white"/>
<path d="M74.9724 57.9267C75.2186 57.6804 75.3952 57.5178 75.5625 57.3458C76.1155 56.7604 76.6684 56.1702 77.2585 55.5383C64.9866 43.3221 52.7332 31.1198 40.4287 18.8711C28.259 30.9618 16.0335 43.113 3.74762 55.3199C4.56079 56.0773 5.32749 56.7929 6.10814 57.5224C7.94823 55.6916 9.8348 53.8097 11.726 51.9324C21.0008 42.7087 30.2757 33.485 39.5505 24.2613C40.5263 23.2948 40.531 23.2948 41.5161 24.2799C52.3289 35.1485 63.1372 46.0172 73.9501 56.8858C74.2893 57.225 74.6239 57.5642 74.977 57.9267H74.9724Z" fill="#2F9E72"/>
<path d="M170.016 68.3814C166.559 65.1101 166.498 60.8537 166.331 56.5137C159.51 64.5107 151.067 68.1258 140.472 66.4158C140.356 68.4185 139.775 70.2679 137.461 70.9696C138.07 72.7353 139.236 73.9388 140.672 74.9146C142.861 76.3969 145.356 77.0521 147.935 77.1822C156.615 77.619 163.794 74.2316 170.011 68.3814H170.016Z" fill="#F8F6F3"/>
<path d="M18.1848 30.9756H11.2101V46.5421C11.4192 46.3701 11.6004 46.2493 11.7537 46.096C13.7518 44.1072 15.7499 42.123 17.734 40.125C17.9292 39.9298 18.1615 39.6463 18.1662 39.4001C18.1987 36.6167 18.1848 33.8333 18.1848 30.9802V30.9756Z" fill="#EFCFA9"/>
<path d="M42.0782 92.8784C43.1005 92.2697 44.0205 91.4566 45.0893 91.1592C46.1394 90.8664 47.3336 91.0941 48.6626 91.0941C46.7667 89.3051 45.0149 87.6509 43.2585 86.006C40.5448 83.4642 37.8265 80.9271 35.1035 78.39C34.8201 78.1251 34.5273 77.7627 34.1881 77.693C33.6259 77.5722 32.9428 77.4746 32.4456 77.6837C31.7997 77.9579 31.7346 78.706 31.9484 79.3379C32.125 79.8677 32.3991 80.3881 32.7383 80.8295C35.1407 83.9289 37.5755 87.005 39.9918 90.0951C40.7446 91.0569 41.4648 92.0513 42.0829 92.8738L42.0782 92.8784Z" fill="#F8F6F3"/>
<path d="M120.031 108.948C118.438 107.888 118.289 107.921 117.271 109.491C115.924 111.573 116.114 114.254 117.745 116.155C119.255 117.916 121.932 118.455 124.139 117.446C126.342 116.438 127.68 113.975 127.29 111.629C126.885 109.175 124.971 107.233 122.615 106.954C121.518 106.824 120.436 106.959 119.399 107.586C120.05 108.014 120.57 108.446 121.435 108.209C122.294 107.976 123.015 108.385 123.396 109.245C123.749 110.04 123.516 110.955 122.829 111.508C122.187 112.024 121.286 112.066 120.58 111.545C119.855 111.011 119.604 110.291 119.906 109.412C119.952 109.278 119.98 109.133 120.027 108.952L120.031 108.948Z" fill="#2F9E72"/>
<path d="M125.394 107.103C125.84 106.495 126.258 105.928 126.658 105.379C125.148 104.366 123.716 103.456 122.341 102.466C121.844 102.108 121.393 101.62 121.058 101.104C120.087 99.6081 120.31 98.5951 121.467 97.7308C121.611 97.6239 121.755 97.3358 121.704 97.2057C121.649 97.057 121.37 96.8944 121.198 96.9037C119.177 97.0199 117.174 98.6695 116.472 100.76C115.766 102.865 116.375 105.328 117.982 106.643C118.219 106.834 118.703 106.964 118.953 106.852C121.328 105.807 122.861 105.83 125.389 107.103H125.394Z" fill="#F1B069"/>
<path d="M32.7337 98.8595C32.6594 99.8724 33.2309 100.56 33.9465 101.136C35.6007 102.465 37.2317 103.827 38.9603 105.054C39.6526 105.541 40.5448 105.806 41.3859 106.001C42.0225 106.146 42.5243 105.737 42.7241 105.077C43.1052 103.827 43.0912 102.623 42.0318 101.703C40.0244 99.9561 38.0077 98.2229 35.9306 96.5593C34.7318 95.5975 33.124 96.4478 32.7848 98.1485C32.7383 98.3809 32.7476 98.6271 32.7291 98.8641L32.7337 98.8595Z" fill="#F8F6F3"/>
<path d="M119.404 128.041C121.593 129.249 119.655 130.206 119.465 131.428C119.952 131.958 120.529 132.59 121.109 133.227C122.299 132.544 122.912 131.707 122.857 130.211C122.722 126.768 122.815 123.32 122.815 119.872C122.815 119.547 122.815 119.222 122.815 118.892C121.844 118.789 120.938 118.692 119.966 118.585C119.836 120.114 119.757 121.694 119.557 123.255C119.423 124.319 120.055 125.007 120.584 125.732C121.035 126.34 121.044 126.768 120.417 127.209C120.096 127.432 119.808 127.702 119.404 128.032V128.041Z" fill="#2F9E72"/>
<path d="M39.2857 98.3155C39.1044 96.113 40.8423 95.0257 41.7531 93.4365C40.5031 92.4793 39.1555 91.7358 37.4827 91.8008C36.5534 91.838 35.8843 92.298 35.5358 93.1391C35.178 94.008 35.2291 94.8351 36.0097 95.5043C37.0785 96.415 38.1379 97.3351 39.281 98.3155H39.2857Z" fill="#F8F6F3"/>
<path d="M126.792 104.589C127.736 102.6 127.201 100.109 125.696 98.9195C125.487 98.7522 125.166 98.7058 124.887 98.65C124.278 98.5292 123.633 98.5153 123.056 98.3108C122.503 98.1156 122.011 98.0831 121.737 98.5896C121.509 99.0125 121.36 99.5794 121.43 100.039C121.495 100.467 121.816 100.955 122.169 101.229C123.67 102.381 125.226 103.459 126.792 104.589Z" fill="#F8F6F3"/>
<path d="M153.706 127.227C152.665 126.391 151.861 125.74 150.9 124.969C150.44 125.898 149.947 126.707 149.626 127.585C149.324 128.403 149.831 128.905 150.653 128.602C151.62 128.249 152.54 127.761 153.702 127.227H153.706Z" fill="white"/>
<path d="M44.8245 99.1387C43.5048 99.3664 42.2502 99.5801 41.0746 99.7799C41.5671 100.226 42.1758 100.835 42.845 101.369C43.4583 101.857 44.6665 101.23 44.8152 100.347C44.8849 99.9147 44.8291 99.4593 44.8291 99.1433L44.8245 99.1387Z" fill="white"/>
<path d="M120.603 109.709C120.705 110.661 121.04 111.066 121.718 111.061C122.378 111.061 122.671 110.61 122.722 110.02C122.773 109.467 122.146 108.798 121.648 108.956C121.216 109.096 120.872 109.5 120.598 109.709H120.603Z" fill="#F1B069"/>
<path d="M130.5 98.5993V96.1133C129.729 96.6291 129.004 97.117 128.237 97.6281C129.004 97.958 129.724 98.2647 130.5 98.5993Z" fill="white"/>
<path d="M26.5583 71.1557C28.417 71.1557 30.2757 71.1371 32.1343 71.165C32.757 71.1743 32.9708 70.9699 32.9661 70.3379C32.9429 66.7692 32.9429 63.2006 32.9661 59.6319C32.9661 58.9953 32.7384 58.8001 32.1251 58.8048C28.4356 58.8234 24.7507 58.828 21.0612 58.8048C20.4386 58.8048 20.2155 59.0092 20.2155 59.6319C20.2295 63.168 20.2341 66.7088 20.2109 70.245C20.2109 70.9466 20.4572 71.1836 21.1635 71.165C22.9618 71.1232 24.76 71.1511 26.5583 71.1511V71.1557ZM21.0938 59.6458H31.9996V70.3007H21.0938V59.6458Z" fill="black"/>
<path d="M141.067 47.0298C141.425 47.0066 141.815 47.0623 142.136 46.9369C142.456 46.8068 142.707 46.5001 142.986 46.2724C142.666 46.1609 142.35 45.975 142.02 45.9471C141.318 45.8867 140.579 46.0261 139.91 45.8635C138.553 45.5429 138.288 45.0178 138.651 43.6935C139.366 41.0774 140.105 38.4706 140.807 35.8498C140.909 35.4734 141.286 34.9251 140.57 34.7439C139.933 34.5813 139.961 35.1621 139.854 35.5338C139.06 38.373 138.274 41.2168 137.489 44.0606C137.238 44.9667 137.624 45.8681 138.679 46.4164C139.399 46.7928 140.235 46.9415 141.021 47.1971C141.035 47.1413 141.053 47.0856 141.067 47.0344V47.0298Z" fill="black"/>
<path d="M142.889 53.9961C145.579 53.9357 148.051 53.1411 150.077 51.1848C150.333 50.9339 150.834 50.6504 150.314 50.2787C150.147 50.1579 149.608 50.3345 149.389 50.5389C146.327 53.392 141.169 53.8056 137.647 51.4776C137.41 51.3196 137.038 51.3614 136.732 51.3103C136.866 51.6541 136.894 52.1467 137.145 52.3186C138.841 53.4849 140.77 53.9589 142.884 53.9961H142.889Z" fill="black"/>
<path d="M150.435 33.633C149.32 33.619 148.451 34.5251 148.432 35.7193C148.414 36.8717 149.241 37.7732 150.333 37.7825C151.457 37.7964 152.326 36.8996 152.335 35.7193C152.34 34.5716 151.499 33.6469 150.44 33.633H150.435Z" fill="black"/>
<path d="M132.726 37.9551C133.777 37.9551 134.678 36.9561 134.678 35.7991C134.678 34.7164 133.735 33.708 132.745 33.7359C131.658 33.7638 130.775 34.735 130.789 35.892C130.803 36.9979 131.704 37.9644 132.726 37.9598V37.9551Z" fill="black"/>
<path d="M146.197 29.4237C146.318 30.144 146.685 30.1207 147.126 29.8884C148.349 29.2379 149.654 29.0659 151.025 29.117C152.693 29.1775 154.087 29.7629 155.23 30.9943C155.435 31.2127 155.844 31.2406 156.16 31.3568C156.081 30.9943 156.118 30.5296 155.899 30.288C153.641 27.7323 149.631 27.4953 146.657 29.0009C146.462 29.0985 146.327 29.3029 146.192 29.4284L146.197 29.4237Z" fill="black"/>
<path d="M127.415 30.3905C127.554 30.581 127.657 30.8505 127.791 30.8691C127.987 30.8923 128.219 30.7622 128.405 30.646C129.306 30.0884 130.133 29.3403 131.104 28.9918C132.712 28.411 134.269 28.871 135.723 29.7213C135.946 29.8514 136.313 29.7446 136.611 29.7446C136.509 29.4704 136.485 29.0847 136.29 28.936C133.855 27.1099 129.78 27.5606 127.782 29.8514C127.652 30.0001 127.559 30.1814 127.415 30.3905Z" fill="black"/>
<path d="M21.0937 59.6455V70.3004H31.9995V59.6455H21.0937Z" fill="white"/>
</svg>
