<svg width="188" height="175" viewBox="0 0 188 175" fill="none" xmlns="http://www.w3.org/2000/svg">
<path fill-rule="evenodd" clip-rule="evenodd" d="M72.7746 167.964V149.437V148.51C72.6857 148.487 72.5968 148.463 72.5126 148.44C72.3582 148.725 72.1851 149.006 72.0541 149.306C70.5616 152.585 68.5685 155.5 65.7801 157.825C62.608 160.469 58.9119 161.348 54.8789 160.852C48.0996 160.015 42.2373 156.904 36.796 153.044C32.4683 149.975 28.4073 146.536 24.248 143.237C23.5322 142.671 22.8584 142.035 22.2502 141.352C21.511 140.514 21.2303 139.532 21.5157 138.381C21.5812 138.119 21.2771 137.628 21.0057 137.436C17.7353 135.125 14.4089 132.898 11.1666 130.549C8.32197 128.486 5.73469 126.137 3.72289 123.208C2.72634 121.758 2.27252 120.153 2.19298 118.455C2.06198 115.788 2.07134 113.116 1.9918 110.45C1.93566 108.606 2.46434 107.006 4.05507 105.986C5.74873 104.901 5.98266 103.591 5.61305 101.644C4.32175 94.8465 3.28778 88.0016 2.13684 81.1755C1.52394 77.5309 0.868932 73.8956 0.237319 70.2556C-0.230543 67.5561 1.20579 65.8156 3.98021 65.7595C5.76277 65.7221 7.54532 65.7314 9.32787 65.7501C9.90334 65.7548 10.0858 65.6378 10.17 64.9782C10.301 63.9769 10.6145 62.9617 11.059 62.0493C11.6064 60.9124 12.7058 60.4305 13.9363 60.4446C15.2697 60.4586 16.2896 61.1791 16.7996 62.3768C17.2347 63.3968 17.4359 64.515 17.7681 65.6893H38.3868C38.602 64.8284 38.7704 63.9301 39.0558 63.074C39.5237 61.6704 40.4828 60.73 41.994 60.5849C43.6596 60.4212 44.9088 61.1651 45.5918 62.7605C45.9802 63.6681 46.1533 64.6694 46.4527 65.7455C48.0481 65.7455 49.7371 65.7408 51.4261 65.7455C54.0133 65.7595 55.2766 66.7467 55.7397 69.2778C56.6614 74.3073 57.5223 79.3509 58.4206 84.3851C59.5993 90.9945 60.7875 97.5992 61.9756 104.204L61.9763 104.208C62.0091 104.396 62.0793 104.578 62.3085 104.779C62.7624 103.432 63.1788 102.07 63.6794 100.737C65.0081 97.1951 66.2292 93.6066 67.7591 90.1538C70.0189 85.0635 74.0612 81.6294 78.9036 79.0748C83.5261 76.6373 88.4059 74.8033 93.3044 73.0301C94.1044 72.74 94.4506 72.3657 94.3477 71.4955C94.2588 70.7329 94.2822 69.9515 94.315 69.1842C94.3383 68.6602 94.1185 68.4076 93.6272 68.3421C85.5659 67.2847 81.0838 62.1663 78.4451 54.9753C77.121 51.3634 76.6719 47.5643 76.1572 43.784C75.7362 40.6774 75.3385 37.5661 74.9314 34.4549C74.9127 34.3098 74.908 34.1601 74.908 34.0104C74.908 32.7518 74.5244 31.8161 73.4156 30.974C71.4038 29.4487 70.7862 27.1001 70.4493 24.7093C69.4247 17.4808 74.5197 10.5424 80.4429 8.32946C81.0791 8.09085 81.7435 7.94113 82.3751 7.69317C82.8055 7.52474 83.2594 7.33759 83.5962 7.04284C87.3438 3.78184 91.6622 1.63904 96.5279 0.71735C98.8438 0.282239 101.235 -0.0499432 103.583 0.00620019C114.353 0.254167 122.541 4.82985 127.402 14.6877C128.413 16.7369 129.685 18.5569 131.309 20.157C133.227 22.0425 134.724 24.204 135.234 26.8895C135.87 30.2441 135.412 33.4911 134.079 36.6257C133.732 37.4445 133.367 38.2539 132.979 39.0539C132.015 41.0377 131.618 43.0963 131.678 45.328C131.753 48.1398 131.108 50.7879 129.157 52.9915C127.482 54.8817 125.329 55.7285 122.911 55.9999C122.326 56.0654 122.064 56.29 122.134 56.8046C122.452 59.1486 122.7 61.5066 123.187 63.8179C123.435 65.0062 124.052 66.1431 124.656 67.2192C124.913 67.6777 125.517 68.0286 126.036 68.2298C131.749 70.4428 137.499 72.5575 143.192 74.822C148.386 76.8899 153.088 79.7018 156.48 84.3196C158.272 86.7618 159.441 89.4988 160.41 92.3387C160.489 92.5773 160.574 92.8159 160.653 93.0499C161.079 92.3106 161.491 91.6322 161.851 90.9305C161.954 90.7293 162.015 90.4205 161.935 90.2287C161.196 88.4461 161.481 86.7992 163.133 85.6904C164.363 84.8623 164.606 83.819 164.616 82.5323C164.621 81.8867 164.681 81.241 164.719 80.5299C160.279 80.8387 156.405 79.4912 152.985 76.7776C149.953 74.3728 147.951 71.2569 146.973 67.5467C144.694 58.9287 149.555 50.6054 155.9 47.5316C162.997 44.0881 171.091 45.3326 176.406 50.8487C179.704 54.2782 181.393 58.4328 181.281 63.2471C181.173 67.9912 179.587 72.099 175.994 75.3226C177.206 76.2115 178.362 76.9929 179.433 77.8678C181.529 79.5801 182.998 81.8212 184.458 84.0622C184.846 84.6564 185.164 85.3021 185.567 85.8869C187.508 88.6894 187.597 91.6509 186.385 94.7435C184.519 99.5063 182.671 104.279 180.813 109.041C180.373 110.169 179.924 111.296 179.447 112.41C179.255 112.864 179.311 113.149 179.728 113.463C181.099 114.497 181.604 115.867 181.421 117.599C181.024 121.304 180.757 125.028 180.364 128.734L180.311 129.236C179.969 132.48 179.626 135.726 179.115 138.942C178.516 142.732 177.875 146.531 176.958 150.251C175.952 154.33 174.043 158.031 170.909 160.932C166.188 165.302 159.137 165.718 153.644 162.031C149.551 159.28 146.776 155.463 144.825 150.999C144.676 150.653 144.517 150.311 144.269 149.745C144.217 150.157 144.175 150.335 144.175 150.517C144.175 156.366 144.184 162.214 144.189 168.067C144.189 168.156 144.226 168.263 144.189 168.329C144.189 168.329 144.189 169.049 144.081 169.611C144.004 170.012 143.486 170.371 142.972 170.452C128.953 172.658 121.805 175.167 108.056 174.991C94.3742 174.816 73.4342 169.611 73.4342 169.611C73.4342 169.611 73.0985 169.48 72.9664 169.307C72.714 168.976 72.7746 168.362 72.7746 167.964ZM54.3455 133.684C54.3546 133.684 54.3637 133.684 54.3727 133.684C54.4749 133.354 54.5301 133.135 54.6075 132.921C55.9877 129.047 57.41 125.192 58.7247 121.299C59.1084 120.162 59.5201 119.456 60.8722 119.199C63.0103 118.792 64.2408 116.939 63.9367 115.053C63.7028 113.594 63.3519 112.153 63.1507 110.688C62.9776 109.444 62.5752 108.073 62.9168 106.95C64.194 102.735 65.7239 98.5987 67.1836 94.4441C69.3545 88.2589 73.1208 83.3324 79.0627 80.4223C83.4652 78.2654 88.0596 76.5063 92.5745 74.574C92.9956 74.3915 93.44 74.2512 93.9734 74.0547C93.9594 74.3775 93.9875 74.5834 93.936 74.7658C93.2482 77.1145 94.0062 78.0362 95.8261 79.3368C97.997 80.8855 100.505 81.62 103.139 81.8399C108.973 82.3311 114.396 81.0445 119.294 77.7976C121.998 76.001 124.3 73.7927 125.788 70.8545C126.378 69.6942 126.331 69.6848 127.552 70.1527C132.469 72.0382 137.396 73.9096 142.313 75.7998C146.304 77.3344 149.976 79.393 153.12 82.3452C156.592 85.6062 158.459 89.7514 159.783 94.2055C159.961 94.795 160.195 95.4453 160.101 96.0161C159.773 98.0279 160.204 99.773 161.495 101.097C161.205 102.192 160.85 103.137 160.709 104.115C160.33 106.749 160.854 109.303 161.626 111.811C161.799 112.387 161.776 112.719 161.144 112.854C159.689 113.168 159.231 114.295 158.936 115.559C157.738 120.705 156.531 125.852 155.348 131.003C155.053 132.285 154.454 133.202 153.191 133.805C151.623 134.554 150.374 135.775 149.368 137.202C149.247 137.375 149.331 137.698 149.321 137.951C149.597 137.927 149.892 137.941 150.154 137.862C150.295 137.815 150.369 137.586 150.505 137.473C151.689 136.5 152.877 135.532 154.066 134.563C154.126 134.629 154.192 134.699 154.257 134.769C154.215 134.905 154.178 135.04 154.131 135.171C153.163 137.871 152.171 140.566 151.244 143.279C151.151 143.556 151.441 143.958 151.548 144.304C151.824 144.094 152.213 143.944 152.344 143.668C152.657 143.003 152.844 142.278 153.097 141.586C155.979 133.744 158.225 125.73 159.741 117.514C159.844 116.958 160.012 116.41 160.106 116.041C161.322 116.855 162.412 117.776 163.657 118.385C166.876 119.966 170.31 120.476 173.865 119.966C175.578 119.718 177.225 119.217 178.638 118.169L178.672 118.144C179.16 117.78 179.715 117.368 179.391 116.504C178.965 116.691 178.572 116.864 178.058 117.093C178.348 116.186 178.605 115.386 178.867 114.571C180.135 115.189 180.481 116.017 180.303 117.739C179.887 121.772 179.55 125.819 179.059 129.847C178.408 135.157 177.753 140.472 176.888 145.754C176.177 150.101 174.778 154.241 172.069 157.835C167.998 163.229 162.319 164.45 156.658 162.209C152.629 160.614 149.794 157.521 147.604 153.844C144.83 149.189 143.585 144.019 142.598 138.774C141.522 133.061 140.872 127.297 140.591 121.491C140.245 114.249 140.329 107.03 141.719 99.8806C142.355 96.6103 143.412 93.4756 144.947 90.5187C145.363 89.7093 145.995 89.0122 146.453 88.2215C146.594 87.9782 146.496 87.5946 146.51 87.2765C146.191 87.3092 145.841 87.2577 145.579 87.3934C145.34 87.5197 145.162 87.8192 145.026 88.0765C144.175 89.7 143.206 91.2767 142.528 92.9703C140.123 98.9683 139.548 105.313 139.319 111.689C139.122 117.238 139.3 122.787 140.002 128.299C140.516 132.346 141.171 136.374 141.747 140.416C142.191 143.556 143.277 146.536 143.127 149.839C142.851 156.001 143.213 162.153 143.237 168.329C143.237 168.703 143.237 169.323 142.678 169.377C142.678 169.377 121.699 174.208 108.056 174.056C94.5171 173.904 74.9486 168.891 74.2576 168.749C73.5666 168.608 73.8039 167.211 73.8039 166.471C73.8086 158.99 73.8226 151.509 73.8226 144.028C73.8226 139.574 73.7711 135.12 73.7945 130.666C73.8507 118.899 73.5185 107.114 75.3619 95.4266C75.4367 94.9587 75.7362 94.2476 75.0578 94.1353C74.2764 94.009 74.2671 94.8418 74.225 95.3471C73.7244 101.041 72.9898 106.73 72.8495 112.433C72.6155 121.931 72.6623 131.438 72.8167 140.936C72.8682 144.098 72.1383 146.896 70.6224 149.568C69.8645 150.906 69.0738 152.234 68.1849 153.488C64.7461 158.331 60.0581 160.473 54.1537 159.538C48.792 158.691 43.9496 156.412 39.5143 153.399C35.4205 150.62 31.5466 147.518 27.5885 144.543C26.7885 143.939 26.0492 143.261 25.3241 142.653C32.8894 140.538 35.1585 134.825 35.9024 127.892C36.6042 128.191 37.3013 128.43 37.947 128.766C42.2419 131.003 46.7428 132.696 51.3793 134.077C54.2473 134.933 57.0544 136 58.9914 138.404C60.1096 139.794 60.8956 141.445 61.8687 142.957C62.0418 143.233 62.4021 143.382 62.6781 143.593C62.7624 143.228 62.9776 142.83 62.8934 142.512C62.739 141.923 62.4208 141.371 62.1401 140.814C61.2371 139.017 60.0534 137.431 58.4487 136.196C57.9948 135.845 57.4662 135.593 56.9749 135.293C57.1667 135.162 57.3071 135.162 57.4381 135.19C59.4873 135.639 61.2324 136.636 62.7811 138.039C63.0337 138.269 63.4922 138.273 63.8572 138.386C63.7589 137.969 63.7823 137.45 63.5343 137.16C63.1226 136.678 62.5612 136.304 62.0185 135.943C59.7472 134.442 57.2156 133.763 54.3727 133.684C54.3699 133.693 54.3671 133.703 54.3642 133.712L54.3455 133.684ZM109.881 24.0683L109.879 24.0684C110.772 26.6567 111.927 29.0068 113.628 31.0582C115.313 33.0934 117.268 34.7683 119.94 35.5356C119.876 35.6644 119.811 35.7803 119.75 35.8886C119.627 36.107 119.522 36.2946 119.481 36.4947C119.442 36.6801 119.48 36.8836 119.518 37.0863C119.534 37.1752 119.551 37.2639 119.561 37.3509C119.64 37.3294 119.724 37.3145 119.809 37.2996C120 37.2658 120.192 37.232 120.319 37.1217C120.621 36.8605 120.907 36.5788 121.193 36.2972C121.562 35.9332 121.932 35.5694 122.335 35.2502C125.175 32.9951 127.5 33.7203 128.268 37.248C129.072 40.9394 128.352 44.3361 125.432 46.9842C124.122 48.1726 122.639 48.996 120.74 48.3176C120.612 48.2728 120.424 48.3879 120.238 48.5026C120.152 48.5554 120.066 48.6082 119.987 48.6451C120.029 48.7245 120.068 48.8215 120.106 48.9186C120.19 49.1304 120.275 49.3429 120.403 49.375C120.936 49.5107 121.081 49.7259 121.081 50.292C121.081 50.4603 121.08 50.6286 121.079 50.7969C121.078 50.9542 121.078 51.112 121.077 51.2694C121.066 53.5504 121.054 55.8332 121.194 58.1053C121.315 60.075 121.577 62.0634 122.031 63.9816C122.49 65.9326 123.145 67.8555 124.838 69.2029C124.993 69.3246 124.927 69.9188 124.777 70.1901C123.552 72.4359 121.881 74.326 119.837 75.8466C114.732 79.6409 108.982 81.1896 102.676 80.4644C100.374 80.1977 98.1795 79.4585 96.2332 78.1017C95.1103 77.3204 94.839 76.3332 95.0027 75.0231C95.2179 73.3342 95.3115 71.6218 95.3583 69.9141C95.391 68.6649 95.4238 68.5152 96.6964 68.5105C102.035 68.4871 106.666 66.6063 110.639 63.1207C111.64 62.2448 112.499 61.1999 113.355 60.1603L113.355 60.1595L113.356 60.1588C113.393 60.1134 113.431 60.068 113.468 60.0226C113.63 59.8256 113.792 59.6289 113.956 59.434C114.12 59.2375 114.12 58.6714 113.956 58.4702C113.605 58.0351 113.268 58.4141 113.034 58.7182C111.425 60.8002 109.6 62.6529 107.354 64.0518C101.539 67.6684 95.4004 68.3982 89.0234 65.8063C86.0899 64.6179 83.9144 62.4002 82.1739 59.7709C79.8721 56.2946 78.6369 52.4301 78.0474 48.3457C77.9585 47.7316 77.869 47.1177 77.7796 46.5038C77.187 42.4351 76.5944 38.3673 76.1432 34.2817C75.7736 30.9412 75.4414 27.5633 76.2461 24.2087C77.0789 20.7325 79.1048 18.1452 82.0476 16.2129C82.1644 16.1361 82.2863 16.0643 82.4086 15.9929C82.4168 15.9881 82.4251 15.9833 82.4332 15.9785C82.69 15.8286 82.9471 15.6785 83.1611 15.4831C83.8068 14.8936 84.2513 15.0199 84.8688 15.6141C89.3088 19.909 94.4366 22.9689 100.612 24.0169C103.289 24.4707 105.983 24.5315 108.678 24.1666C108.917 24.1341 109.16 24.1184 109.416 24.1019C109.565 24.0922 109.719 24.0822 109.879 24.0684C109.878 24.0653 109.877 24.0621 109.876 24.059L109.881 24.0683ZM23.3871 118.983C23.2728 118.986 23.1605 118.98 22.9855 118.968C22.9738 118.968 22.9617 118.967 22.9495 118.966C22.8597 118.96 22.7539 118.953 22.6245 118.946V118.941C22.7577 118.709 22.8814 118.494 22.9985 118.291L23.0012 118.286C23.0284 118.239 23.0558 118.191 23.0824 118.145C23.2695 117.82 23.4413 117.52 23.6117 117.22C23.7982 116.894 23.9898 116.57 24.1815 116.246C24.6534 115.449 25.126 114.65 25.5252 113.818C26.6013 111.577 25.9837 110.333 23.5134 109.771C23.5728 109.648 23.6266 109.524 23.6799 109.401C23.7905 109.146 23.8984 108.897 24.0468 108.676C25.3428 106.758 23.8597 103.815 21.0665 104.255C21.01 104.076 20.9579 103.894 20.9058 103.712C20.781 103.277 20.6557 102.84 20.4677 102.43C19.6442 100.648 17.9693 100.138 16.2616 101.106L16.2519 101.112C16.0256 101.241 15.7908 101.375 15.5879 101.537C14.9469 102.042 14.5165 102.37 13.6369 101.588C12.5982 100.667 11.19 101.195 10.011 101.719C9.35096 102.013 8.72357 102.38 8.04585 102.777C7.7292 102.962 7.40115 103.154 7.05406 103.347C5.66919 95.1038 4.29368 86.9209 2.88541 78.5508H7.17103C22.9473 78.5274 38.7283 78.504 54.5046 78.4853C54.6411 78.485 54.7666 78.4841 54.8821 78.4832L54.8844 78.4832C55.6098 78.4779 55.9408 78.4755 56.117 78.6394C56.2649 78.777 56.3037 79.0319 56.3751 79.5006C56.3994 79.6601 56.4275 79.8444 56.4649 80.0573C57.7983 87.6273 59.1318 95.1973 60.4839 102.763C61.1903 106.716 61.9342 110.665 62.6875 114.614C62.9682 116.073 62.3927 117.313 61.0079 117.828C60.3809 118.057 59.6885 118.23 59.0241 118.244C54.782 118.335 50.5398 118.41 46.2985 118.484C46.2953 118.484 46.2922 118.484 46.289 118.484C43.3159 118.536 40.3433 118.589 37.3715 118.647C34.2614 118.709 31.1492 118.788 28.0377 118.867C26.4872 118.907 24.9369 118.946 23.3871 118.983ZM129.999 49.113C128.983 52.4675 125.722 54.8396 122.223 54.8396L122.218 54.8583C122.218 54.4676 122.217 54.0771 122.216 53.6868C122.212 52.5162 122.209 51.3469 122.237 50.175C122.242 49.9925 122.518 49.6838 122.695 49.6604C125.423 49.2767 127.159 47.5222 128.469 45.3373C130.228 42.3992 130.265 39.199 129.26 36.0269C128.212 32.7144 125.044 31.657 122.256 33.7344C121.151 34.5578 120.281 34.4783 119.196 33.9964C115.972 32.5694 114.012 29.9447 112.435 26.9504C112.092 26.2923 111.759 25.63 111.419 24.9525L111.418 24.9512L111.418 24.9501L111.417 24.9481L111.416 24.9469C111.247 24.6099 111.076 24.2692 110.901 23.9233C111.035 23.8685 111.177 23.817 111.322 23.7642C111.675 23.6365 112.047 23.5016 112.374 23.2964C112.528 23.2001 112.601 22.9785 112.674 22.7566C112.707 22.655 112.74 22.5533 112.781 22.4636C112.701 22.4427 112.617 22.4105 112.533 22.3782C112.354 22.309 112.173 22.2396 112.024 22.2811C104.425 24.4286 97.4028 23.0344 90.8387 18.861C88.1907 17.1767 85.8092 15.1883 83.9378 12.6338C83.8284 12.4826 83.6061 12.4154 83.3852 12.3487C83.2848 12.3184 83.1848 12.2881 83.0956 12.2501C83.0712 12.3384 83.042 12.4267 83.0128 12.5152C82.9413 12.7312 82.8697 12.948 82.8664 13.1671C82.8632 13.3345 82.9325 13.504 83.0139 13.703C83.0531 13.7988 83.095 13.9014 83.1331 14.014C80.2978 15.6796 77.7433 17.6446 76.19 20.6763C74.6741 23.6332 74.3279 26.8006 74.3747 30.2394C72.5921 28.63 71.9839 26.7024 71.6658 24.6719C70.5242 17.406 75.9607 11.0665 81.3552 9.26986C82.974 8.72714 84.298 7.95049 85.6268 6.9212C89.4305 3.97367 93.805 2.28001 98.5491 1.54079C102.802 0.876423 107.05 0.951281 111.158 2.25194C117.83 4.36199 123.102 8.25928 126.148 14.7485C127.182 16.9475 128.506 18.9172 130.256 20.6155C134.448 24.6953 135.225 29.5563 133.358 34.9274C132.766 36.6327 132.018 38.2854 131.272 39.9336C131.27 39.9365 131.269 39.9394 131.268 39.9423C131.16 40.1811 131.051 40.4199 130.944 40.6587C130.504 41.6319 130.298 42.5863 130.443 43.6624C130.687 45.5011 130.537 47.3304 129.999 49.113ZM166.108 77.5402C166.324 77.7962 166.552 78.0396 166.84 78.3483C166.985 78.5024 167.144 78.6727 167.325 78.869H167.329C167.063 78.9199 166.82 78.9725 166.594 79.0214C166.136 79.1208 165.744 79.2057 165.346 79.2339C161.149 79.524 157.247 78.7005 153.935 75.9495C149.78 72.4967 147.441 68.1175 147.632 62.6388C147.894 55.1016 153.364 48.6357 160.756 47.1807C165.711 46.2029 170.263 47.2789 174.174 50.5493C178.385 54.0723 180.411 58.6386 180.093 64.1033C179.873 67.907 178.502 71.3036 175.681 74.0172C175.119 74.5553 174.651 74.705 173.884 74.3354C172.13 73.4932 170.352 72.6558 168.331 72.6324C167.049 72.6183 165.931 72.9599 165.374 74.1857C164.803 75.4349 165.271 76.5531 166.108 77.5402ZM163.123 94.5283C162.857 94.6326 162.582 94.7147 162.288 94.8024C162.134 94.8485 161.975 94.8962 161.809 94.9494L161.804 94.9634C161.467 93.8405 161.823 92.8721 162.478 92.1937C163.343 91.2954 164.373 90.5 165.458 89.8778C166.451 89.3034 167.543 88.8889 168.626 88.4776C168.813 88.4065 169.001 88.3354 169.187 88.2636C170.282 87.8426 171.297 88.1607 172.195 88.8344C173.448 89.7732 174.69 90.7246 175.932 91.6763L175.933 91.6772C176.69 92.2572 177.447 92.8373 178.207 93.4148C178.23 93.4319 178.253 93.4491 178.276 93.4663C178.563 93.6798 178.856 93.8978 179.18 94.0277C179.368 94.1025 179.742 94.0417 179.849 93.9014C179.947 93.7756 179.896 93.5162 179.854 93.297C179.852 93.285 179.849 93.2732 179.847 93.2615C179.843 93.2403 179.839 93.2196 179.835 93.1996C179.82 93.1223 179.725 93.0547 179.639 92.994C179.621 92.9811 179.604 92.9686 179.587 92.9563C178.934 92.4574 178.277 91.9622 177.621 91.4669C176.171 90.3736 174.721 89.2801 173.304 88.1467C171.325 86.5606 169.266 86.7337 167.142 87.7022C166.196 88.133 165.264 88.5975 164.329 89.063C163.914 89.2699 163.499 89.4769 163.081 89.6813C162.323 88.6005 162.871 86.9302 164.293 86.191C165.006 85.8205 165.722 85.456 166.438 85.0915L166.439 85.0911C167.622 84.489 168.804 83.8869 169.973 83.2575C171.676 82.3405 173.239 82.289 174.82 83.585C176.225 84.7394 177.674 85.8437 179.121 86.9472C179.751 87.4269 180.38 87.9065 181.005 88.39C181.015 88.3976 181.024 88.406 181.033 88.415C181.048 88.4301 181.063 88.4466 181.077 88.463C181.118 88.5091 181.159 88.5541 181.206 88.5631C181.446 88.613 181.69 88.6511 181.934 88.6891C182.033 88.7045 182.132 88.72 182.231 88.7362C182.201 88.6252 182.18 88.5066 182.159 88.3882C182.112 88.1222 182.065 87.8568 181.913 87.6788C181.583 87.2918 181.164 86.9757 180.749 86.6627C180.688 86.6162 180.626 86.5698 180.565 86.5232C180.1 86.1656 179.637 85.8043 179.175 85.443C177.931 84.4712 176.687 83.4995 175.391 82.6025C174.328 81.8677 173.236 81.1752 172.144 80.4826C171.087 79.8126 170.03 79.1424 169 78.4339C168.111 77.8256 167.245 77.0958 166.604 76.2396C165.757 75.112 166.487 73.788 167.896 73.8816C169.117 73.9611 170.371 74.2231 171.517 74.6582C177.028 76.7449 181.23 80.3708 184.027 85.5828C184.196 85.8963 184.364 86.2097 184.57 86.4998C186.376 89.0403 186.353 91.7118 185.239 94.5049C184.961 95.2024 184.683 95.8997 184.405 96.5971C184.401 96.6065 184.397 96.6158 184.393 96.6252C182.605 101.106 180.817 105.585 179.12 110.103C178.338 112.19 177.655 114.366 177.318 116.56C177.145 117.669 176.733 118.048 175.859 118.263C171.489 119.334 167.273 119.021 163.311 116.752C163.02 116.588 162.735 116.003 162.805 115.694C163.236 113.748 163.02 111.905 162.365 110.033C161.598 107.844 161.448 105.575 162.043 103.301C162.114 103.025 162.22 102.755 162.337 102.459C162.396 102.308 162.458 102.15 162.52 101.981C163.312 102.291 164.036 102.579 164.744 102.861L164.746 102.861L165.028 102.973C164.884 103.205 164.732 103.435 164.58 103.664C164.233 104.19 163.884 104.718 163.624 105.284C163.4 105.768 163.386 106.362 163.373 106.917L163.371 106.992C163.368 107.107 163.512 107.227 163.655 107.347C163.721 107.402 163.788 107.457 163.839 107.511C163.892 107.458 163.959 107.406 164.026 107.353C164.17 107.239 164.315 107.125 164.321 107.006C164.396 105.345 165.463 104.339 166.623 103.38C166.715 103.304 166.818 103.235 166.921 103.167C167.127 103.03 167.331 102.895 167.437 102.702C167.984 101.701 168.583 102.047 169.285 102.491C169.469 102.606 169.708 102.634 169.947 102.662C170.06 102.675 170.174 102.689 170.282 102.711C170.251 102.599 170.231 102.476 170.211 102.354C170.166 102.082 170.121 101.81 169.964 101.649C169.159 100.821 168.321 100.016 167.4 99.3286C167.039 99.0525 166.398 98.959 165.94 99.0525C164.84 99.2771 163.764 99.6233 162.707 99.9976C162.16 100.189 161.771 100.058 161.636 99.5812C161.402 98.7437 161.229 97.8735 161.168 97.008C161.149 96.76 161.547 96.3623 161.841 96.2407C162.732 95.8753 163.632 95.5323 164.531 95.1893C165.371 94.8692 166.211 94.5489 167.044 94.2102C168.115 93.775 169.075 93.9294 169.978 94.5844C171.029 95.3458 172.073 96.114 173.116 96.8818L173.118 96.8826C173.119 96.8838 173.121 96.8851 173.122 96.8863C173.796 97.3815 174.468 97.8765 175.143 98.3694C175.184 98.3994 175.226 98.4323 175.267 98.4649C175.42 98.5846 175.576 98.7076 175.742 98.7297C175.938 98.7531 176.214 98.6455 176.35 98.5004C176.443 98.3975 176.42 98.0841 176.326 97.9484C176.167 97.7098 175.929 97.5086 175.695 97.3355C174.053 96.1097 172.41 94.8979 170.759 93.6861C169.5 92.7645 168.162 92.4557 166.665 93.1107C165.679 93.5425 164.672 93.9308 163.668 94.318C163.486 94.3881 163.305 94.4581 163.123 94.5283ZM20.3788 125.056C20.4022 124.902 20.4255 124.752 20.4489 124.602L20.4583 124.593C21.0976 124.902 21.7369 125.211 22.376 125.519C23.3222 125.976 24.2678 126.432 25.2118 126.89C25.2847 126.925 25.3547 126.979 25.4233 127.033C25.5308 127.116 25.6348 127.197 25.7405 127.194C25.9425 127.188 26.1423 127.118 26.343 127.047C26.4304 127.017 26.518 126.986 26.606 126.96C26.5806 126.877 26.5637 126.779 26.5469 126.682C26.5113 126.476 26.4758 126.271 26.358 126.198C25.4551 125.641 24.5193 125.117 23.5602 124.663C22.9345 124.368 22.2856 124.117 21.5935 123.849C21.2558 123.718 20.9078 123.583 20.5472 123.437C20.6655 123.174 20.781 122.913 20.8957 122.653C21.2256 121.906 21.5489 121.174 21.9134 120.462C22.0116 120.275 22.4046 120.162 22.6666 120.153C24.0047 120.111 25.3428 120.078 26.6762 120.139C27.0551 120.158 27.4949 120.434 27.785 120.719C29.6284 122.539 30.8261 124.776 31.8788 127.12C32.2203 127.887 32.7444 128.598 33.2964 129.234C34.0684 130.123 34.452 130.984 34.0637 132.21C33.0157 135.508 31.3033 138.292 28.3698 140.229C27.6914 140.674 27.2236 140.748 26.4048 140.121C22.6432 137.239 18.774 134.493 14.9048 131.756C11.4847 129.333 8.08804 126.914 5.43994 123.583C4.08314 121.87 3.4141 119.994 3.34392 117.861C3.30181 116.6 3.2714 115.339 3.24099 114.078C3.21058 112.817 3.18017 111.556 3.13806 110.295C3.10063 109.102 3.37199 108.035 4.34982 107.287C4.47977 107.187 4.6097 107.088 4.73964 106.988C6.44346 105.684 8.1481 104.378 9.91738 103.17C10.4851 102.779 11.263 102.654 11.9801 102.538C12.0195 102.532 12.0587 102.526 12.0976 102.519C12.3512 102.479 12.6251 102.562 12.979 102.668C13.1605 102.723 13.3631 102.784 13.5948 102.838C13.363 103.079 13.1587 103.299 12.97 103.502C12.6254 103.872 12.3325 104.187 12.0181 104.48L11.9538 104.54C9.84173 106.503 7.73258 108.464 6.36163 111.063C5.08436 113.477 4.71007 116.101 4.4855 118.768C4.48451 118.777 4.48341 118.786 4.48228 118.796C4.4728 118.876 4.46141 118.972 4.49486 119.03C4.63404 119.269 4.78412 119.503 4.9347 119.737C4.98152 119.81 5.0284 119.883 5.07501 119.957C5.13316 119.852 5.20415 119.749 5.27509 119.646C5.42674 119.426 5.57819 119.207 5.60369 118.974C5.62131 118.801 5.63856 118.627 5.65583 118.453C5.89997 115.994 6.14803 113.496 7.49385 111.381C8.61204 109.626 10.0671 108.064 11.5268 106.562L11.636 106.449C13.2049 104.834 14.7895 103.203 16.8792 102.201C17.9178 101.701 18.5073 101.761 19.0921 102.505C19.8033 103.408 19.8875 104.433 19.1576 105.158C17.6231 106.683 16.037 108.162 14.4416 109.626C11.4613 112.368 9.57584 115.704 8.89744 119.704C8.86996 119.869 8.84093 120.034 8.81189 120.199C8.70744 120.792 8.60288 121.386 8.56993 121.982C8.56029 122.162 8.69427 122.351 8.82914 122.542C8.89052 122.628 8.95208 122.715 9.00037 122.801C9.06253 122.729 9.13587 122.659 9.20947 122.589C9.37404 122.431 9.53993 122.273 9.58519 122.085C9.74591 121.44 9.87398 120.785 10.002 120.131C10.1013 119.624 10.2006 119.117 10.3151 118.614C11.0215 115.521 12.5514 112.897 14.8861 110.749C16.5657 109.205 18.2593 107.666 19.9577 106.136C20.5566 105.598 21.2349 105.289 22.0771 105.504C23.0315 105.748 23.5322 106.571 23.2701 107.526C22.8397 109.088 21.7636 110.225 20.6033 111.226C16.6546 114.637 14.4369 118.955 13.6369 124.05C13.6015 124.282 13.7429 124.542 13.8834 124.801C13.9474 124.918 14.0111 125.036 14.058 125.15C14.1314 125.061 14.2169 124.977 14.3023 124.892C14.4836 124.713 14.6649 124.533 14.7317 124.317C15.0409 123.318 15.325 122.312 15.6091 121.306C15.8451 120.469 16.0812 119.633 16.3318 118.801C16.9727 116.691 18.3716 115.077 19.8922 113.556C20.5425 112.906 21.2069 112.27 21.904 111.675C22.2128 111.413 22.6151 111.128 22.9848 111.119C23.5088 111.105 24.1965 111.17 24.5147 111.498C24.7767 111.76 24.772 112.541 24.5755 112.943C24.1957 113.719 23.7711 114.473 23.3467 115.227C22.9137 115.996 22.4809 116.765 22.0958 117.556C21.0151 119.788 20.0185 122.062 19.0407 124.34C18.8395 124.813 18.5635 125.533 19.2465 125.805C19.41 125.869 19.7009 125.619 19.9913 125.369C20.1247 125.255 20.258 125.14 20.3788 125.056ZM15.527 67.0555C15.6959 67.0555 15.8647 67.0696 16.06 67.0859C16.1623 67.0944 16.2719 67.1036 16.3926 67.1116H16.3785C16.1353 68.4216 15.7516 69.5351 14.6381 70.2603C14.5738 70.3027 14.504 70.3419 14.4338 70.3813C14.2638 70.4766 14.0918 70.5731 13.9925 70.7188C13.8851 70.8717 13.8456 71.072 13.8064 71.2711C13.7892 71.3584 13.772 71.4455 13.7492 71.5282C13.8287 71.5477 13.912 71.5792 13.9953 71.6108C14.1719 71.6776 14.3485 71.7443 14.4884 71.6967C16.1025 71.1539 16.9493 69.9141 17.3657 68.3468C17.3746 68.3136 17.3831 68.2814 17.3915 68.2499C17.7065 67.0643 17.7088 67.0555 19.0033 67.0555L19.0553 67.0555C19.06 67.0555 19.0646 67.0555 19.0692 67.0555C19.0739 67.0555 19.0785 67.0555 19.0831 67.0555C19.0878 67.0555 19.0924 67.0555 19.097 67.0555C27.4171 67.0602 35.7325 67.0648 44.0526 67.0648C44.2334 67.0648 44.4164 67.076 44.6309 67.089L44.6328 67.0891C44.7286 67.095 44.8306 67.1012 44.9415 67.1069C44.8479 68.3842 44.2584 69.3012 43.2853 70.003C43.2104 70.0573 43.122 70.0988 43.0339 70.1403C42.9019 70.2023 42.7706 70.2641 42.6864 70.3679C42.532 70.5551 42.3449 70.9481 42.4244 71.051C42.5788 71.2475 42.9624 71.4487 43.1683 71.3832C44.8386 70.8592 45.7182 69.5819 46.0316 67.9584C46.172 67.2379 46.4106 67.0321 47.1077 67.0508C47.9717 67.0752 48.8358 67.0713 49.6989 67.0673C50.322 67.0645 50.9446 67.0617 51.5664 67.0695C53.3864 67.0976 54.2052 67.7479 54.542 69.493C54.8806 71.2538 55.197 73.0191 55.5172 74.8056L55.5176 74.8075C55.6618 75.6122 55.8068 76.4212 55.955 77.2361C55.8437 77.2458 55.7436 77.2566 55.6515 77.2666C55.4765 77.2856 55.3284 77.3016 55.1783 77.3016C50.2658 77.303 45.3532 77.3035 40.4407 77.3041C28.15 77.3055 15.8592 77.307 3.56849 77.3204C2.94156 77.3204 2.61873 77.2268 2.50645 76.5109C2.3409 75.4349 2.14371 74.3633 1.94653 73.2918C1.7425 72.1831 1.53848 71.0744 1.36954 69.9609C1.07011 67.9959 1.95437 67.0508 3.9381 67.0508C7.80264 67.0555 11.6625 67.0555 15.527 67.0555ZM28.9313 120.06C38.602 119.858 48.2306 119.657 58.0744 119.456H58.0791C57.4287 121.351 56.8767 122.993 56.3012 124.631C55.3561 127.307 54.3923 129.974 53.4519 132.65C53.2928 133.099 53.1244 133.356 52.563 133.155C49.171 131.934 45.7416 130.811 42.3823 129.515C40.3986 128.752 38.5458 127.658 36.5715 126.853C35.5843 126.451 34.4614 126.385 33.4087 126.137C33.0999 126.067 32.6601 125.95 32.5572 125.73C31.6589 123.774 30.5454 121.973 29.067 120.401C28.9968 120.326 28.9827 120.195 28.9313 120.06ZM44.235 62.8354C44.5376 63.4023 44.734 64.0235 44.9451 64.6915C45.0441 65.0047 45.1463 65.3282 45.2643 65.6612H39.8231C39.7623 64.2764 40.1366 63.0693 41.1799 62.157C42.0922 61.3616 43.6081 61.6704 44.235 62.8354ZM15.3773 62.447C15.7267 63.1105 15.9882 63.8201 16.2718 64.5894C16.4021 64.943 16.5371 65.3092 16.6873 65.6893H11.4192C11.0449 64.3606 11.9198 62.3207 13.0708 61.8248C13.8334 61.4926 14.989 61.7125 15.3773 62.447ZM166.5 83.6366L165.706 84.0154V84.0108V80.6843C167.807 79.3883 169.556 79.8936 171.208 81.3861C169.637 82.1397 168.079 82.883 166.5 83.6366ZM22.6105 138.432C23.752 139.326 24.8468 140.187 26.0212 141.113V141.118C25.1603 141.628 24.4024 141.408 23.7333 141.02C22.9567 140.571 22.4093 139.265 22.6105 138.432ZM163.797 101.322C163.804 101.266 163.81 101.211 163.816 101.156C163.822 101.101 163.827 101.046 163.835 100.989C164.062 100.919 164.289 100.843 164.516 100.767C165.12 100.565 165.725 100.363 166.347 100.264C166.527 100.235 166.747 100.465 166.967 100.695C167.067 100.8 167.167 100.904 167.264 100.985C167.159 101.081 167.053 101.202 166.947 101.323C166.705 101.598 166.462 101.874 166.235 101.864C165.644 101.841 165.058 101.673 164.474 101.507C164.248 101.442 164.023 101.378 163.797 101.322ZM33.3687 127.247L33.3721 127.247C33.9021 127.326 34.4327 127.406 35.0649 127.503C35.0126 127.631 34.965 127.748 34.9206 127.857L34.92 127.858C34.762 128.245 34.6437 128.535 34.4942 128.907C34.2561 128.637 34.0379 128.389 33.8286 128.151C33.6306 127.926 33.4407 127.71 33.2496 127.494C33.2684 127.452 33.2871 127.411 33.3058 127.37C33.3128 127.354 33.3198 127.339 33.3269 127.324C33.3345 127.307 33.3421 127.29 33.3497 127.273C33.3537 127.264 33.3578 127.255 33.3619 127.246L33.3687 127.247ZM161.996 114.178C161.926 114.541 161.859 114.903 161.779 115.334L161.779 115.336L161.778 115.339C161.751 115.486 161.723 115.641 161.692 115.807C161.47 115.627 161.278 115.473 161.086 115.319C161.081 115.315 161.076 115.311 161.071 115.307C161.016 115.263 160.962 115.22 160.906 115.175C160.885 115.158 160.864 115.142 160.843 115.125C160.797 115.087 160.75 115.049 160.701 115.01C160.605 114.933 160.504 114.851 160.396 114.763C160.573 114.665 160.736 114.573 160.891 114.487C160.895 114.485 160.898 114.483 160.902 114.481L160.905 114.479C161.216 114.306 161.491 114.152 161.767 114.001L161.996 114.178Z" fill="black"/>
<path d="M62.0185 135.943C62.5612 136.304 63.1226 136.678 63.5343 137.16C63.7823 137.45 63.7589 137.969 63.8572 138.386C63.4922 138.273 63.0337 138.269 62.7811 138.039C61.2324 136.636 59.4873 135.639 57.4381 135.19C57.3071 135.162 57.1667 135.162 56.9749 135.293C57.4662 135.593 57.9948 135.845 58.4487 136.196C60.0534 137.431 61.2371 139.017 62.1401 140.814C62.4208 141.371 62.739 141.923 62.8934 142.512C62.9776 142.83 62.7624 143.228 62.6781 143.593C62.4021 143.382 62.0418 143.233 61.8687 142.957C60.8956 141.445 60.1096 139.794 58.9914 138.404C57.0544 136 54.2473 134.933 51.3793 134.077C46.7428 132.696 42.2419 131.003 37.947 128.766C37.3013 128.43 36.6042 128.191 35.9024 127.892C35.1585 134.825 32.8894 140.538 25.3241 142.653C26.0492 143.261 26.7885 143.939 27.5885 144.543C31.5466 147.518 35.4205 150.62 39.5143 153.399C43.9496 156.412 48.792 158.691 54.1537 159.538C60.0581 160.473 64.7461 158.331 68.1849 153.488C69.0738 152.234 69.8645 150.906 70.6224 149.568C72.1383 146.896 72.8682 144.098 72.8167 140.936C72.6623 131.438 72.6155 121.931 72.8495 112.433C72.9898 106.73 73.7244 101.041 74.225 95.3471C74.2671 94.8418 74.2764 94.009 75.0578 94.1353C75.7362 94.2476 75.4367 94.9587 75.3619 95.4266C73.5185 107.114 73.8507 118.899 73.7945 130.666C73.7711 135.12 73.8226 139.574 73.8226 144.028C73.8226 151.509 73.8086 158.99 73.8039 166.471C73.8039 167.211 73.5666 168.608 74.2576 168.749C74.9486 168.891 94.5171 173.904 108.056 174.056C121.699 174.208 142.678 169.377 142.678 169.377C143.237 169.323 143.237 168.703 143.237 168.329C143.213 162.153 142.851 156.001 143.127 149.839C143.277 146.536 142.191 143.556 141.747 140.416C141.171 136.374 140.516 132.346 140.002 128.299C139.3 122.787 139.122 117.238 139.319 111.689C139.548 105.313 140.123 98.9683 142.528 92.9703C143.206 91.2767 144.175 89.7 145.026 88.0765C145.162 87.8192 145.34 87.5197 145.579 87.3934C145.841 87.2577 146.191 87.3092 146.51 87.2765C146.496 87.5946 146.594 87.9782 146.453 88.2215C145.995 89.0122 145.363 89.7093 144.947 90.5187C143.412 93.4756 142.355 96.6103 141.719 99.8806C140.329 107.03 140.245 114.249 140.591 121.491C140.872 127.297 141.522 133.061 142.598 138.774C143.585 144.019 144.83 149.189 147.604 153.844C149.794 157.521 152.629 160.614 156.658 162.209C162.319 164.45 167.998 163.229 172.069 157.835C174.778 154.241 176.177 150.101 176.888 145.754C177.753 140.472 178.408 135.157 179.059 129.847C179.55 125.819 179.887 121.772 180.303 117.739C180.481 116.017 180.135 115.189 178.867 114.571C178.605 115.386 178.348 116.186 178.058 117.093C178.572 116.864 178.965 116.691 179.391 116.504C179.715 117.368 179.16 117.78 178.672 118.144L178.638 118.169C177.225 119.217 175.578 119.718 173.865 119.966C170.31 120.476 166.876 119.966 163.657 118.385C162.412 117.776 161.322 116.855 160.106 116.041C160.012 116.41 159.844 116.958 159.741 117.514C158.225 125.73 155.979 133.744 153.097 141.586C152.844 142.278 152.657 143.003 152.344 143.668C152.213 143.944 151.824 144.094 151.548 144.304C151.441 143.958 151.151 143.556 151.244 143.279C152.171 140.566 153.163 137.871 154.131 135.171C154.178 135.04 154.215 134.905 154.257 134.769C154.192 134.699 154.126 134.629 154.066 134.563C152.877 135.532 151.689 136.5 150.505 137.473C150.369 137.586 150.295 137.815 150.154 137.862C149.892 137.941 149.597 137.927 149.321 137.951C149.331 137.698 149.247 137.375 149.368 137.202C150.374 135.775 151.623 134.554 153.191 133.805C154.454 133.202 155.053 132.285 155.348 131.003C156.531 125.852 157.738 120.705 158.936 115.559C159.231 114.295 159.689 113.168 161.144 112.854C161.776 112.719 161.799 112.387 161.626 111.811C160.854 109.303 160.33 106.749 160.709 104.115C160.85 103.137 161.205 102.192 161.495 101.097C160.204 99.773 159.773 98.0279 160.101 96.0161C160.195 95.4453 159.961 94.795 159.783 94.2055C158.459 89.7514 156.592 85.6062 153.12 82.3452C149.976 79.393 146.304 77.3344 142.313 75.7998C137.396 73.9096 132.469 72.0382 127.552 70.1527C126.331 69.6848 126.378 69.6942 125.788 70.8545C124.3 73.7927 121.998 76.001 119.294 77.7976C114.396 81.0445 108.973 82.3311 103.139 81.8399C100.505 81.62 97.997 80.8855 95.8261 79.3368C94.0062 78.0362 93.2482 77.1145 93.936 74.7658C93.9875 74.5834 93.9594 74.3775 93.9734 74.0547C93.44 74.2512 92.9956 74.3915 92.5745 74.574C88.0596 76.5063 83.4652 78.2654 79.0627 80.4223C73.1208 83.3324 69.3545 88.2589 67.1836 94.4441C65.7239 98.5987 64.194 102.735 62.9168 106.95C62.5752 108.073 62.9776 109.444 63.1507 110.688C63.3519 112.153 63.7028 113.594 63.9367 115.053C64.2408 116.939 63.0103 118.792 60.8722 119.199C59.5201 119.456 59.1084 120.162 58.7247 121.299C57.41 125.192 55.9877 129.047 54.6075 132.921C54.5301 133.135 54.4749 133.354 54.3727 133.684C57.2156 133.763 59.7472 134.442 62.0185 135.943Z" fill="#F1B069"/>
<path d="M166.108 77.5402C165.271 76.5531 164.803 75.4349 165.374 74.1857C165.931 72.9599 167.049 72.6183 168.331 72.6324C170.352 72.6558 172.13 73.4932 173.884 74.3354C174.651 74.705 175.119 74.5553 175.681 74.0172C178.502 71.3036 179.873 67.907 180.093 64.1033C180.411 58.6386 178.385 54.0723 174.174 50.5493C170.263 47.2789 165.711 46.2029 160.756 47.1807C153.364 48.6357 147.894 55.1016 147.632 62.6388C147.441 68.1175 149.78 72.4967 153.935 75.9495C157.247 78.7005 161.149 79.524 165.346 79.2339C165.744 79.2057 166.136 79.1208 166.594 79.0214C166.82 78.9725 167.063 78.9199 167.329 78.869H167.325C167.144 78.6727 166.985 78.5024 166.84 78.3483C166.552 78.0396 166.324 77.7962 166.108 77.5402Z" fill="#2F9E72"/>
<path d="M59.0241 118.244C59.6885 118.23 60.3809 118.057 61.0079 117.828C62.3927 117.313 62.9682 116.073 62.6875 114.614C61.9342 110.665 61.1903 106.716 60.4839 102.763C59.1318 95.1973 57.7983 87.6273 56.4649 80.0573C56.4275 79.8444 56.3994 79.6601 56.3751 79.5006C56.3037 79.0319 56.2649 78.777 56.117 78.6394C55.9408 78.4755 55.6098 78.4779 54.8844 78.4832L54.8821 78.4832C54.7666 78.4841 54.6411 78.485 54.5046 78.4853C38.7283 78.504 22.9473 78.5274 7.17103 78.5508H2.88541C4.29368 86.9209 5.66919 95.1038 7.05406 103.347C7.40115 103.154 7.7292 102.962 8.04585 102.777C8.72357 102.38 9.35096 102.013 10.011 101.719C11.19 101.195 12.5982 100.667 13.6369 101.588C14.5165 102.37 14.9469 102.042 15.5879 101.537C15.7908 101.375 16.0256 101.241 16.2519 101.112L16.2616 101.106C17.9693 100.138 19.6442 100.648 20.4677 102.43C20.6557 102.84 20.781 103.277 20.9058 103.712C20.9579 103.894 21.01 104.076 21.0665 104.255C23.8597 103.815 25.3428 106.758 24.0468 108.676C23.8984 108.897 23.7905 109.146 23.6799 109.401C23.6266 109.524 23.5728 109.648 23.5134 109.771C25.9837 110.333 26.6013 111.577 25.5252 113.818C25.126 114.65 24.6534 115.449 24.1815 116.246C23.9898 116.57 23.7982 116.894 23.6117 117.22C23.4413 117.52 23.2695 117.82 23.0824 118.145L23.0012 118.286L22.9985 118.291C22.8814 118.494 22.7577 118.709 22.6245 118.941V118.946C22.7539 118.953 22.8597 118.96 22.9495 118.966L22.9855 118.968C23.1605 118.98 23.2728 118.986 23.3871 118.983C24.9369 118.946 26.4872 118.907 28.0377 118.867C31.1492 118.788 34.2614 118.709 37.3715 118.647C40.3433 118.589 43.3159 118.536 46.289 118.484L46.2985 118.484C50.5398 118.41 54.782 118.335 59.0241 118.244Z" fill="#2F9E72"/>
<path d="M122.223 54.8396C125.722 54.8396 128.983 52.4675 129.999 49.113C130.537 47.3304 130.687 45.5011 130.443 43.6624C130.298 42.5863 130.504 41.6319 130.944 40.6587C131.051 40.4199 131.16 40.1811 131.268 39.9423L131.272 39.9336C132.018 38.2854 132.766 36.6327 133.358 34.9274C135.225 29.5563 134.448 24.6953 130.256 20.6155C128.506 18.9172 127.182 16.9475 126.148 14.7485C123.102 8.25928 117.83 4.36199 111.158 2.25194C107.05 0.951281 102.802 0.876423 98.5491 1.54079C93.805 2.28001 89.4305 3.97367 85.6268 6.9212C84.298 7.95049 82.974 8.72714 81.3552 9.26986C75.9607 11.0665 70.5242 17.406 71.6658 24.6719C71.9839 26.7024 72.5921 28.63 74.3747 30.2394C74.3279 26.8006 74.6741 23.6332 76.19 20.6763C77.7433 17.6446 80.2978 15.6796 83.1331 14.014C83.095 13.9014 83.0531 13.7988 83.0139 13.703C82.9325 13.504 82.8632 13.3345 82.8664 13.1671C82.8697 12.948 82.9413 12.7312 83.0128 12.5152C83.042 12.4267 83.0712 12.3384 83.0956 12.2501C83.1848 12.2881 83.2848 12.3184 83.3852 12.3487C83.6061 12.4154 83.8284 12.4826 83.9378 12.6338C85.8092 15.1883 88.1907 17.1767 90.8387 18.861C97.4028 23.0344 104.425 24.4286 112.024 22.2811C112.173 22.2396 112.354 22.309 112.533 22.3782C112.617 22.4105 112.701 22.4427 112.781 22.4636C112.74 22.5533 112.707 22.655 112.674 22.7566C112.601 22.9785 112.528 23.2001 112.374 23.2964C112.047 23.5016 111.675 23.6365 111.322 23.7642C111.177 23.817 111.035 23.8685 110.901 23.9233C111.076 24.2692 111.247 24.6099 111.416 24.9469L111.417 24.9481L111.418 24.9501L111.418 24.9512L111.419 24.9525C111.759 25.63 112.092 26.2923 112.435 26.9504C114.012 29.9447 115.972 32.5694 119.196 33.9964C120.281 34.4783 121.151 34.5578 122.256 33.7344C125.044 31.657 128.212 32.7144 129.26 36.0269C130.265 39.199 130.228 42.3992 128.469 45.3373C127.159 47.5222 125.423 49.2767 122.695 49.6604C122.518 49.6838 122.242 49.9925 122.237 50.175C122.209 51.3469 122.212 52.5162 122.216 53.6868C122.217 54.0771 122.218 54.4676 122.218 54.8583L122.223 54.8396Z" fill="#F1B069"/>
<path d="M165.706 84.0159V80.6894C167.807 79.3934 169.556 79.894 171.208 81.3912C169.374 82.2661 167.559 83.1363 165.706 84.0206V84.0159Z" fill="white"/>
<path d="M26.0212 141.113C25.165 141.623 24.4024 141.403 23.7334 141.015C22.9567 140.566 22.4093 139.261 22.6105 138.428C23.7521 139.326 24.8469 140.187 26.0212 141.109V141.113Z" fill="white"/>
<path d="M35.0649 127.503C34.8263 128.084 34.6906 128.43 34.4941 128.907C34.031 128.383 33.638 127.939 33.2496 127.494C33.2871 127.41 33.3245 127.33 33.3619 127.246C33.8953 127.326 34.4286 127.41 35.0649 127.503Z" fill="white"/>
<path d="M161.692 115.807C161.219 115.428 160.892 115.161 160.396 114.764C160.934 114.464 161.35 114.23 161.767 114.001L161.996 114.179C161.907 114.665 161.813 115.152 161.692 115.807Z" fill="white"/>
<path d="M90.1135 38.4316C90.0714 40.1393 89.365 41.6224 88.8129 43.143C88.4807 44.06 88.1532 44.977 87.8304 45.894C86.9882 48.2801 88.4246 49.0895 90.2118 49.3187C90.7873 49.3936 91.3908 49.2252 91.9756 49.2579C92.2657 49.2766 92.5418 49.5059 92.8272 49.6369C92.654 49.8989 92.5277 50.3387 92.2985 50.3995C90.5159 50.8908 88.7895 50.6194 87.3204 49.5246C86.3473 48.7994 86.0946 47.6298 86.4128 46.4648C86.7543 45.2156 87.2456 44.0038 87.662 42.778C88.3263 40.8271 89.2153 38.9135 88.5509 36.7613C88.5041 36.6116 88.7661 36.2139 88.9111 36.1999C89.1544 36.1765 89.5755 36.3122 89.6363 36.4853C89.8609 37.1122 89.9638 37.7813 90.1135 38.4316Z" fill="black"/>
<path d="M91.9756 57.3097C91.1195 57.0992 89.6831 56.7763 88.2749 56.3599C88.0362 56.2898 87.9146 55.8125 87.7368 55.5271C88.0643 55.4336 88.4386 55.1856 88.71 55.2698C92.0832 56.3272 95.3817 56.1588 98.5585 54.6148C99.5035 54.1563 100.332 53.4498 101.202 52.8416C101.417 52.6919 101.571 52.4065 101.805 52.327C102.11 52.2194 102.465 52.2568 102.797 52.2334C102.746 52.5656 102.816 53.0522 102.619 53.2065C101.459 54.1189 100.304 55.064 99.0263 55.7891C97.0519 56.9073 94.8296 57.1506 91.9756 57.305V57.3097Z" fill="black"/>
<path d="M105.38 29.6079C105.197 29.8793 105.118 30.1413 104.977 30.174C104.72 30.2349 104.379 30.2489 104.163 30.1273C102.924 29.4208 101.609 28.9342 100.182 29.1073C99.0216 29.2477 97.8893 29.5939 96.7431 29.8185C96.4483 29.8746 96.1302 29.8185 95.826 29.8185C95.9383 29.4348 95.9571 28.7985 96.1816 28.7143C97.2484 28.312 98.3572 27.9377 99.4847 27.7926C101.295 27.554 103.022 27.9938 104.608 28.9061C104.889 29.0652 105.094 29.3459 105.38 29.6126V29.6079Z" fill="black"/>
<path d="M102.049 39.0166C101.89 39.5359 101.791 40.1909 101.487 40.7336C101.31 41.0518 100.8 41.3699 100.458 41.3512C100.112 41.3325 99.6439 40.9676 99.4802 40.6307C98.9562 39.5499 98.9749 38.3803 99.4287 37.2808C99.5784 36.9206 100.102 36.4667 100.43 36.4901C100.87 36.5182 101.426 36.8738 101.665 37.2574C101.936 37.7019 101.918 38.3241 102.049 39.0119V39.0166Z" fill="black"/>
<path d="M85.8325 29.9165C85.8606 30.5434 85.3225 30.8241 84.7283 30.5574C83.4979 30.0053 82.2159 29.6919 80.9387 30.1691C80.1386 30.4685 79.4742 31.1095 78.7163 31.5446C78.4075 31.7224 78.0145 31.7551 77.6589 31.8534C77.687 31.4838 77.57 30.9879 77.7666 30.7633C79.8018 28.4099 82.7961 28.1339 85.4488 29.5094C85.636 29.6077 85.7576 29.8276 85.8372 29.9165H85.8325Z" fill="black"/>
<path d="M84.2278 39.9102C84.0407 40.5277 83.9518 41.0564 83.7272 41.5243C83.3295 42.343 82.3657 42.3945 81.8838 41.6132C81.1446 40.4108 81.1633 39.1242 81.7481 37.8796C82.085 37.1591 83.1938 37.1591 83.5447 37.8843C83.8582 38.5346 84.0126 39.2598 84.2278 39.9148V39.9102Z" fill="black"/>
<path d="M121.629 42.5391C121.947 40.4665 122.915 39.0816 124.501 38.1412C124.679 38.0336 125.035 38.2207 125.306 38.2722C125.236 38.5436 125.25 38.96 125.081 39.0582C123.818 39.8068 123.182 40.939 122.836 42.3145C122.766 42.5906 122.466 42.9181 122.199 42.9976C122.045 43.0444 121.755 42.6514 121.629 42.5391Z" fill="black"/>
<path d="M19.574 95.5297C18.3857 95.5297 17.202 95.5297 16.0136 95.5297C15.1434 95.5297 14.6053 95.1133 14.4603 94.2618C14.0158 91.6699 13.562 89.0826 13.1643 86.486C12.9678 85.2087 13.417 84.6707 14.6662 84.6613C16.9774 84.6426 19.2933 84.6613 21.6092 84.7175C22.7368 84.7455 23.0502 85.0637 23.2514 86.1632C23.724 88.7738 24.1871 91.3892 24.6597 94.0045C24.8141 94.8747 24.5334 95.3566 23.6678 95.3987C22.3063 95.4642 20.9449 95.4175 19.5787 95.4175C19.5787 95.4549 19.5787 95.497 19.5787 95.5344L19.574 95.5297ZM23.3076 94.1496C23.3356 94.0279 23.3871 93.939 23.3731 93.8595C22.952 91.4172 22.5449 88.975 22.0818 86.5421C22.0397 86.3175 21.67 85.99 21.4455 85.9854C19.312 85.9479 17.1739 85.9667 15.0404 85.976C14.5211 85.976 14.2825 86.238 14.3761 86.7667C14.7784 89.0311 15.1995 91.2909 15.5738 93.56C15.6721 94.1496 15.9715 94.2572 16.4815 94.2525C18.5588 94.2291 20.6314 94.2338 22.7087 94.2197C22.9099 94.2197 23.1111 94.1683 23.3076 94.1402V94.1496Z" fill="black"/>
<path d="M37.0487 111.067C35.8603 111.067 34.6766 111.039 33.4882 111.077C32.604 111.105 32.1034 110.6 31.963 109.874C31.4343 107.123 30.9758 104.354 30.5267 101.589C30.405 100.831 30.8355 100.335 31.6589 100.321C34.1807 100.279 36.7024 100.269 39.2242 100.307C40.1085 100.321 40.5483 100.901 40.7261 101.991C41.1284 104.438 41.5448 106.88 41.9519 109.327C42.1156 110.314 41.6899 110.866 40.6839 110.88C39.4722 110.904 38.2557 110.885 37.044 110.885C37.044 110.946 37.044 111.007 37.044 111.067H37.0487ZM40.829 109.636C40.698 108.957 40.581 108.382 40.4781 107.806C40.174 106.061 39.8933 104.312 39.5658 102.571C39.4722 102.075 39.4441 101.444 38.6815 101.448C36.5434 101.453 34.4052 101.462 32.2718 101.481C31.8507 101.481 31.6449 101.654 31.7478 102.159C32.2063 104.447 32.6695 106.735 33.0391 109.037C33.1561 109.762 33.4836 109.902 34.1011 109.884C36.1784 109.823 38.2557 109.786 40.3331 109.729C40.4734 109.729 40.6138 109.678 40.8337 109.636H40.829Z" fill="black"/>
<path d="M32.7069 84.6803C33.8063 84.6803 34.9011 84.6897 36.0006 84.6803C37.1422 84.6663 37.4978 84.8815 37.713 86.0184C38.106 88.077 38.4288 90.1449 38.7891 92.2129C38.8873 92.765 39.0277 93.3077 39.1213 93.8598C39.2523 94.6598 38.9201 95.1791 38.1247 95.2072C35.6076 95.2961 33.0905 95.3476 30.5734 95.3616C29.7453 95.3663 29.4131 94.7159 29.2868 94.0048C28.8517 91.6281 28.44 89.2466 28.0329 86.8652C27.9768 86.5471 27.9908 86.2149 27.9955 85.8874C28.0049 84.961 28.2435 84.7224 29.1558 84.7224C30.3395 84.7224 31.5279 84.7224 32.7116 84.7224C32.7116 84.7084 32.7116 84.6943 32.7116 84.685L32.7069 84.6803ZM29.2119 85.9576C29.1979 86.2289 29.1605 86.3786 29.1839 86.519C29.6049 88.8677 30.012 91.2163 30.4986 93.5557C30.5547 93.8177 31.0413 94.1592 31.3454 94.1732C32.4074 94.234 33.4788 94.1826 34.5456 94.1498C35.6263 94.1171 36.7071 94.0516 37.8346 94.0001C37.8066 93.5931 37.8159 93.2983 37.7645 93.0083C37.4931 91.5017 37.1937 89.9999 36.927 88.4887C36.4778 85.9529 36.4872 85.9529 33.9186 85.9576C32.356 85.9576 30.7933 85.9576 29.2119 85.9576Z" fill="black"/>
<path d="M46.621 84.6143C47.7813 84.6143 48.9369 84.6237 50.0972 84.6143C50.8645 84.6096 51.3371 84.9465 51.4728 85.7091C51.9453 88.3572 52.4459 91.0006 52.8717 93.6534C53.0495 94.7529 52.8576 95.0383 51.7441 95.0897C49.3159 95.202 46.8784 95.2207 44.4502 95.1646C44.1086 95.1552 43.5846 94.533 43.4817 94.1166C43.1214 92.6288 42.8922 91.1035 42.6348 89.5924C42.429 88.3993 42.2231 87.2016 42.0734 85.9992C41.9377 84.9044 42.2185 84.619 43.332 84.6096C44.4314 84.6003 45.5309 84.6096 46.6257 84.6096C46.6257 84.6096 46.6257 84.6143 46.6257 84.619L46.621 84.6143ZM48.1135 94.0183C48.1135 93.9715 48.1135 93.9294 48.1135 93.8826C49.0913 93.8826 50.0738 93.9154 51.047 93.8592C51.2529 93.8452 51.6365 93.4896 51.6131 93.3446C51.2201 91.0193 50.7897 88.6987 50.3078 86.3875C50.261 86.1536 49.8399 85.8354 49.592 85.8307C47.6644 85.8167 45.7368 85.8588 43.8092 85.9384C43.622 85.9477 43.2711 86.3407 43.2992 86.5091C43.6735 88.7783 44.0993 91.0427 44.5157 93.3072C44.6092 93.8171 44.8853 94.0558 45.442 94.0324C46.331 93.9949 47.2199 94.023 48.1088 94.023L48.1135 94.0183Z" fill="black"/>
<path d="M163.151 70.897V63.6872C162.291 63.341 161.434 63.093 160.672 62.6766C158.983 61.7409 158.178 60.2671 158.37 58.3255C158.543 56.5804 159.46 55.364 161.074 54.6715C161.21 54.6154 161.341 54.5124 161.481 54.4984C162.81 54.3487 163.535 53.7077 163.381 52.2761C163.367 52.131 163.624 51.9065 163.802 51.8222C163.867 51.7895 164.082 52.0421 164.213 52.1778C164.27 52.2386 164.33 52.3462 164.316 52.4164C164.031 53.8434 164.976 54.1288 166.057 54.4797C167.297 54.8821 168.284 55.7148 168.859 56.936C168.972 57.1746 169.145 57.4366 169.126 57.6752C169.103 58.012 168.929 58.3396 168.822 58.6717C168.551 58.4565 168.228 58.2834 168.017 58.0214C167.521 57.4132 167.175 56.6459 166.59 56.1593C166.043 55.7055 165.257 55.5324 164.354 55.1347C164.354 56.4728 164.354 57.4974 164.354 58.5267C164.354 59.5654 164.387 60.6087 164.34 61.6427C164.312 62.3257 164.489 62.6158 165.243 62.7141C167.835 63.0416 169.584 65.0768 169.519 67.5517C169.463 69.7788 167.563 71.8701 165.332 72.0058C164.433 72.0619 164.227 72.3894 164.284 73.1942C164.312 73.6246 164.148 74.0644 164.068 74.5042C163.24 74.3919 163.048 73.9755 163.165 73.4047C163.371 72.3894 162.903 72.0058 161.944 71.8608C160.143 71.5894 158.941 70.518 158.37 68.8009C158.262 68.4781 158.323 67.8231 158.506 67.7389C159.011 67.5003 159.226 67.9307 159.427 68.3892C160.106 69.9378 161.331 70.7426 163.151 70.897ZM164.377 70.897C165.926 70.911 167.053 70.2934 167.83 69.0395C168.56 67.8605 168.522 66.6488 167.765 65.5353C166.988 64.403 165.828 63.9071 164.382 63.851V70.8923L164.377 70.897ZM163.236 62.1199V55.3686C161.214 55.4435 159.465 57.1184 159.525 58.8729C159.591 60.7023 161.177 62.1573 163.236 62.1199Z" fill="black"/>
<path d="M23.3076 94.1499C23.1111 94.178 22.9099 94.2247 22.7087 94.2294C20.6314 94.2435 18.5588 94.2388 16.4815 94.2622C15.9715 94.2668 15.6674 94.1546 15.5738 93.5697C15.2042 91.3006 14.7832 89.0408 14.3761 86.7764C14.2825 86.2477 14.5212 85.9857 15.0405 85.9857C17.1739 85.9763 19.3121 85.9576 21.4455 85.995C21.6701 85.995 22.035 86.3272 22.0818 86.5518C22.545 88.9847 22.9567 91.4269 23.3731 93.8692C23.3871 93.9487 23.3357 94.0376 23.3076 94.1592V94.1499Z" fill="white"/>
<path d="M40.829 109.636C40.6091 109.678 40.4687 109.725 40.3284 109.729C38.2511 109.781 36.1738 109.823 34.0964 109.884C33.4835 109.903 33.1514 109.757 33.0344 109.037C32.6648 106.735 32.2063 104.447 31.7431 102.159C31.6402 101.654 31.846 101.481 32.2671 101.481C34.4052 101.462 36.5387 101.453 38.6768 101.448C39.4394 101.448 39.4675 102.075 39.5611 102.571C39.8886 104.312 40.1693 106.061 40.4734 107.806C40.5763 108.382 40.6933 108.957 40.8243 109.636H40.829Z" fill="white"/>
<path d="M29.2119 85.957C30.7932 85.957 32.3559 85.957 33.9185 85.957C36.4871 85.957 36.4824 85.957 36.9269 88.4882C37.1936 89.9947 37.493 91.4965 37.7644 93.0077C37.8158 93.2931 37.8065 93.5925 37.8345 93.9996C36.707 94.051 35.6262 94.1165 34.5455 94.1493C33.4788 94.182 32.4073 94.2335 31.3453 94.1727C31.0412 94.154 30.5499 93.8171 30.4985 93.5551C30.0166 91.2205 29.6095 88.8671 29.1838 86.5185C29.1604 86.3781 29.1978 86.2284 29.2119 85.957Z" fill="white"/>
<path d="M48.1136 94.0187C47.2246 94.0187 46.331 93.9907 45.4468 94.0281C44.89 94.0515 44.614 93.8129 44.5204 93.3029C44.104 91.0385 43.6782 88.774 43.304 86.5049C43.2759 86.3411 43.6268 85.9434 43.8139 85.9341C45.7415 85.8592 47.6691 85.8171 49.5967 85.8265C49.8447 85.8265 50.2611 86.1493 50.3125 86.3832C50.7944 88.6945 51.2202 91.0151 51.6179 93.3403C51.6412 93.4854 51.2623 93.841 51.0517 93.855C50.0786 93.9111 49.0961 93.8784 48.1183 93.8784C48.1183 93.9252 48.1183 93.9673 48.1183 94.0141L48.1136 94.0187Z" fill="white"/>
</svg>
