<svg width="178" height="175" viewBox="0 0 178 175" fill="none" xmlns="http://www.w3.org/2000/svg">
<path fill-rule="evenodd" clip-rule="evenodd" d="M17.493 170.155C17.493 169.107 17.4895 168.892 17.493 168.443C17.534 163.966 17.5763 159.679 17.6199 155.262L17.6438 152.829L17.6443 152.786C17.6501 152.323 17.6551 151.913 17.0891 151.66C12.5044 149.612 9.72562 145.918 7.84435 141.418C6.44776 138.075 5.48917 134.596 4.7801 131.062C3.78562 126.102 2.90063 121.12 2.04975 116.134C1.55968 113.258 1.09834 110.366 0.857798 107.461C0.543655 103.654 0.245669 99.8232 0.331834 96.0122C0.450311 90.7812 1.72304 85.7944 4.76933 81.409C6.56264 78.8258 8.84063 76.7256 11.431 74.9574C15.4915 72.1858 19.8787 70.0227 24.3988 68.127C27.0179 67.0284 28.935 65.2513 30.3209 62.7902C31.6187 60.487 32.5647 58.0529 33.3295 55.5379C33.5736 54.7337 33.5018 54.6763 32.7137 54.5937C28.9243 54.1952 24.8171 51.2925 24.6537 46.7347C24.6106 45.5446 24.5945 44.3401 24.7309 43.1607C24.9266 41.4751 24.6358 39.9044 24.0218 38.3534C23.3756 36.7217 22.5768 35.1186 22.1926 33.424C21.0922 28.5611 22.1424 24.0931 25.3143 20.2426C27.2674 17.873 28.8973 15.3348 30.2634 12.599C33.4731 6.17435 38.7902 2.48181 45.6636 0.844679C49.6865 -0.113907 53.7398 -0.173146 57.847 0.252294C62.1158 0.69389 66.153 1.83737 69.9891 3.71146C71.0823 4.24461 72.0768 4.97701 73.1377 5.58376C73.5111 5.79737 73.9293 5.99304 74.3476 6.05407C80.3774 6.93727 85.856 11.4591 87.2795 17.2412C88.3835 21.7271 87.4052 25.7518 84.5223 29.3222C84.0968 29.8482 83.4901 30.2234 83 30.7027C82.8079 30.8911 82.6123 31.164 82.58 31.4189C81.9553 36.2675 81.4239 41.1304 80.7292 45.9682C80.1673 49.8798 79.1639 53.6908 77.1857 57.1607C74.1914 62.4132 69.7593 65.6175 63.7152 66.4791C62.3056 66.6797 62.3042 66.6909 62.1277 68.1227L62.1265 68.1324C61.9614 69.4662 62.0009 69.4895 63.3957 69.9221C66.0973 70.7604 68.8223 71.5431 71.4826 72.5017C74.6564 73.6452 77.7655 74.9682 80.5533 76.9194C84.8687 79.9406 87.7768 84.0083 89.3547 89.0095C90.5466 92.7882 91.6399 96.5974 92.7618 100.399C94.2822 105.55 96.1833 110.563 98.1489 115.557C98.3284 116.015 98.5061 116.069 98.937 115.902C101.265 114.992 103.61 114.119 105.936 113.202C106.166 113.111 106.426 112.841 106.485 112.608C107.97 106.691 109.424 100.766 110.896 94.8454C113.285 85.229 115.683 75.6162 118.075 65.9998C118.872 62.792 119.651 59.5805 120.453 56.3745C121.275 53.0876 123.435 51.7036 126.777 52.2152C130.428 52.7753 134.091 53.2635 137.745 53.8075C140.309 54.188 142.863 54.6278 145.427 55.0048C148.52 55.4608 151.62 55.8736 154.714 56.3188C158.094 56.8061 161.47 57.3055 164.847 57.8051L165.054 57.8357C168.059 58.2791 171.064 58.7153 174.066 59.1784C175.787 59.4441 177.141 60.2627 177.555 62.056C177.73 62.8117 177.724 63.677 177.55 64.4345C176.322 69.7749 175.01 75.0974 173.762 80.4343C172.475 85.9452 171.246 91.4688 169.967 96.9833C169.248 100.087 168.481 103.18 167.738 106.28C167.447 107.488 167.472 107.461 168.417 108.187C170.668 109.91 172.581 111.951 174.075 114.369C175.268 116.302 175.066 118.192 173.77 119.971C173.285 120.636 172.592 121.144 172.05 121.77C171.824 122.032 171.585 122.431 171.612 122.745C171.852 125.482 170.492 127.206 168.19 128.394C167.962 128.511 167.707 128.805 167.679 129.042C167.51 130.491 166.733 131.527 165.58 132.329C164.045 133.397 162.417 134.257 160.52 134.44C160.109 134.479 159.978 134.632 159.897 135.023C159.748 135.752 159.552 136.476 159.306 137.176C158.493 139.491 156.24 140.822 153.842 140.319C149.412 139.393 144.992 138.418 140.576 137.429C136.334 136.479 132.103 135.485 127.867 134.515C127.075 134.334 126.98 134.413 126.88 135.215C126.671 136.899 125.099 138.285 123.174 138.414C122.282 138.475 121.379 138.384 120.487 138.443C120.04 138.472 119.532 138.58 119.175 138.829C117.471 140.017 115.669 140.974 113.657 141.532C113.267 141.64 112.865 141.845 112.564 142.11C109.426 144.868 105.733 145.986 101.608 146.006C98.6013 146.02 95.6717 145.552 92.7421 144.975C90.105 144.457 87.4519 144.031 84.7449 144.16L84.6897 144.163C83.8203 144.203 83.8186 144.203 83.8204 145.141C83.8204 149.268 83.9909 153.446 83.9909 157.573C83.9909 161.426 84.1752 163.284 84.1563 169.492C84.1563 169.492 84.1748 170.603 83.9909 170.989C83.734 171.528 82.6356 171.695 82.6356 171.695C74.5061 173.035 63.1582 175 50.5566 175C39.4795 175 24.3891 172.679 18.6055 171.599C17.9057 171.469 17.493 171.203 17.493 170.155ZM82.6177 166.387C82.6231 167.146 83.1145 170.393 82.1217 170.553C78.0113 171.215 61.4628 173.819 50.5566 173.794C38.0946 173.765 19.1645 170.432 19.1645 170.432C18.6146 170.326 18.8384 169.449 18.8384 169.27C18.8492 163.825 18.8483 158.651 18.8609 153.206C18.8627 152.411 18.8789 152.387 19.631 152.592C22.2429 153.303 24.9212 153.54 27.6049 153.648C32.4534 153.843 37.2913 153.535 42.1129 153.079C45.7085 152.739 49.2915 152.255 52.862 151.709C58.1988 150.894 63.5213 149.984 68.8456 149.088C71.6388 148.62 74.423 148.088 77.2126 147.596C78.4279 147.383 78.5966 147.187 78.3363 146.006C78.2502 145.622 78.3058 145.489 78.7043 145.403C79.6952 145.189 80.67 144.904 81.6573 144.674C82.431 144.494 82.4417 144.512 82.4489 145.302C82.5082 152.33 82.5638 159.36 82.6177 166.387ZM84.0627 114.688C84.0627 110.132 84.0376 105.907 83.7881 101.34C83.6139 98.1519 83.2316 94.9728 82.9085 91.7937C82.8582 91.3 82.8887 90.6233 82.1222 90.591C81.6268 90.5694 81.5119 91.0792 81.6052 91.9822L81.6407 92.3289L81.6408 92.3293C81.6564 92.4821 81.6721 92.6348 81.6877 92.7876C81.7078 92.9841 81.7279 93.1805 81.748 93.377C81.9974 95.8221 82.2392 98.268 82.4202 100.719C82.8474 106.508 82.8959 112.31 82.7936 118.112C82.7433 120.979 82.5494 123.845 82.4399 126.712C82.4202 127.2 82.2461 127.502 81.7686 127.628C79.9555 128.103 78.1461 128.588 76.3294 129.051C76.1966 129.085 75.9237 129.015 75.8896 128.927C75.6347 128.265 75.08 128.412 74.5935 128.423C68.7038 128.547 62.8141 128.771 56.9243 128.784C49.778 128.8 42.6317 128.645 35.4854 128.55C33.9021 128.529 32.3188 128.439 30.7355 128.394C30.3101 128.382 30.0229 128.342 29.9654 127.786C29.5741 123.987 29.1738 120.187 28.7178 116.396C27.9298 109.852 27.2117 103.297 25.3269 96.942C24.4132 93.8652 23.1871 90.9302 21.5572 88.1658C21.3759 87.857 21.1999 87.5411 20.9791 87.261C20.7386 86.9559 20.4729 86.6381 20.0152 86.981C19.6131 87.2826 19.6974 87.559 19.9039 87.9665C21.024 90.1709 22.2447 92.3394 23.1548 94.6317C24.6681 98.441 25.4849 102.457 26.0826 106.503C26.6571 110.398 27.183 114.301 27.6533 118.21C28.0357 121.381 28.2906 124.567 28.6263 127.742C28.6801 128.25 28.5545 128.399 28.0357 128.452C25.9677 128.66 23.9734 129.146 22.2213 130.336C21.8533 130.586 21.4925 130.873 21.2161 131.214C21.094 131.367 21.0958 131.772 21.2161 131.925C21.3256 132.063 21.7079 132.108 21.9054 132.029C22.259 131.889 22.566 131.629 22.8891 131.412C24.6537 130.225 26.6463 129.658 28.7268 129.66C32.3134 129.663 35.8983 129.864 39.4849 129.94C43.9403 130.033 48.3976 130.182 52.8512 130.128C59.5775 130.047 66.3037 129.81 73.03 129.64C74.292 129.608 74.2543 129.599 73.9976 130.767C73.2221 134.298 73.5165 137.781 74.6869 141.173C75.2093 142.69 75.9255 144.143 76.5825 145.611C76.9182 146.363 76.9469 146.365 76.1768 146.503C73.7121 146.945 71.2457 147.379 68.7774 147.805C66.1332 148.261 63.4908 148.724 60.8412 149.145C57.102 149.741 53.3628 150.35 49.6129 150.867C46.2434 151.332 42.8686 151.809 39.4795 152.048C35.8749 152.303 32.2506 152.391 28.6371 152.343C26.1419 152.308 23.609 152.124 21.164 151.646C16.0605 150.648 12.4075 147.625 10.0344 143.01C8.37031 139.771 7.25914 136.334 6.51956 132.799C5.32941 127.111 4.2308 121.399 3.26324 115.669C2.63316 111.937 2.21849 108.161 1.86306 104.39C1.5166 100.699 1.38376 96.9833 1.82536 93.2872C2.73009 85.7208 6.31313 79.7862 12.736 75.6126C17.0873 72.7853 21.7744 70.6258 26.5188 68.5704C26.8886 68.4106 27.1112 68.4465 27.3643 68.7517C29.917 71.816 33.3115 73.7026 36.8138 75.4116C39.641 76.792 42.6191 77.7793 45.7444 78.2119C49.8067 78.7756 53.8008 78.5422 57.5903 76.801C59.9975 75.6934 62.0152 74.0742 63.489 71.8537C63.8193 71.3546 64.1424 71.4372 64.5445 71.5736C67.3952 72.5484 70.2619 73.4746 73.0839 74.523C75.8052 75.5336 78.3884 76.8476 80.7059 78.6302C84.7215 81.7214 87.1341 85.8447 88.5577 90.6448C90.184 96.1307 91.8194 101.615 93.5822 107.057C94.5372 110.005 95.7471 112.87 96.8869 115.755C97.1347 116.381 97.0718 116.658 96.422 116.945C93.4906 118.239 90.9829 120.158 88.6384 122.316C87.2329 123.61 85.7717 124.843 84.3284 126.098C84.2063 126.206 84.0322 126.253 83.8832 126.328C83.8617 126.157 83.8186 125.987 83.824 125.816C83.903 123.576 84.0035 121.336 84.0627 119.094C84.0941 117.919 84.0627 115.492 84.0627 114.688ZM52.9517 76.9141C52.1493 77.0431 51.3326 77.0863 50.516 77.1295C50.1397 77.1495 49.7634 77.1694 49.3885 77.1977L49.3849 77.1941C43.6046 77.169 38.4688 75.1764 33.6257 72.2145C31.721 71.0512 30.0283 69.6475 28.5168 68.0157C28.4941 67.9912 28.471 67.9673 28.4482 67.9437C28.2452 67.7332 28.0655 67.547 28.427 67.2259C31.2041 64.7648 32.6922 61.521 33.8824 58.1103C35.1156 54.5776 35.8193 50.9227 36.2339 47.2105C36.2562 47.0161 36.2551 46.8169 36.2541 46.6189C36.2539 46.5773 36.2537 46.5357 36.2537 46.4942C36.2501 45.5717 36.2449 45.5713 35.3505 45.5116L35.3077 45.5087C31.7569 45.2699 27.6928 42.5952 27.5546 37.8041C27.4631 34.6465 29.6531 31.9915 31.9329 31.5571C33.4515 31.2681 34.7476 31.6612 35.8013 32.6863C36.5104 33.3756 37.1476 33.4725 38.0326 33.1261C42.5096 31.3704 45.4303 28.22 46.6797 23.5653C46.8197 23.0412 47.0207 22.9101 47.5377 23.0376C55.9855 25.1217 63.936 23.8561 71.3659 19.3809C72.4887 18.7028 73.5128 17.8549 74.532 17.011C74.735 16.843 74.9377 16.6751 75.1411 16.5088C75.5467 16.1767 75.8375 16.1497 76.2397 16.428C80.1153 19.1171 82.5548 23.1471 81.7901 28.3098C81.4625 30.5196 81.1828 32.7367 80.9031 34.9541C80.7015 36.5517 80.4999 38.1494 80.2804 39.7446C80.1915 40.3911 80.1069 41.0384 80.0223 41.6858L80.0222 41.6865C79.6167 44.7889 79.211 47.8928 78.3274 50.912C77.3598 54.2168 75.9129 57.2702 73.6296 59.8785C71.138 62.7255 68.0091 64.4812 64.2807 65.0807C59.1179 65.9101 54.3986 64.5404 49.9791 61.9537C47.281 60.374 44.811 58.4963 42.9387 55.9383C42.6855 55.5918 42.3947 55.4266 42.0357 55.6439C41.6318 55.888 41.5959 56.3009 41.8813 56.6527C42.0097 56.8111 42.137 56.971 42.2644 57.131C42.2728 57.1416 42.2813 57.1522 42.2897 57.1628L42.2899 57.1631L42.2901 57.1633L42.2903 57.1635C42.824 57.8343 43.3596 58.5075 43.9762 59.094C47.5036 62.4527 51.6216 64.7953 56.3553 65.9765C57.4851 66.2586 58.6539 66.3964 59.8174 66.5337C59.8183 66.5338 59.8191 66.5339 59.8199 66.534C60.0476 66.5608 60.275 66.5877 60.502 66.6155C60.9705 66.673 61.0925 66.7376 60.9759 67.2546C60.6007 68.9258 60.5145 70.6312 60.7605 72.3276C60.8376 72.8607 60.6617 73.1605 60.3081 73.4782C58.2024 75.3685 55.718 76.4689 52.9517 76.9141ZM126.093 60.9538C126.219 60.2914 126.44 59.8462 127.002 60.0778V60.0742C127.952 60.2139 128.87 60.3483 129.768 60.4798C131.259 60.6979 132.693 60.9079 134.128 61.1207C134.649 61.1978 135.169 61.2747 135.69 61.3516C138.262 61.7318 140.832 62.1118 143.402 62.503C144.559 62.6794 145.715 62.862 146.872 63.0445C148.303 63.2705 149.735 63.4966 151.169 63.7111C152.897 63.9695 154.627 64.2137 156.356 64.4578C157.221 64.5799 158.086 64.7019 158.951 64.8258C159.816 64.9498 160.682 65.0735 161.547 65.1971C164.102 65.5622 166.657 65.9273 169.21 66.3014C170.133 66.436 170.129 66.4719 169.914 67.3838C169.083 70.8832 168.254 74.383 167.426 77.8826C167.425 77.8846 167.425 77.8867 167.424 77.8888C167.424 77.8908 167.423 77.8929 167.423 77.8949C167.422 77.8989 167.421 77.9028 167.42 77.9067C167.419 77.9107 167.418 77.9146 167.417 77.9185C167.416 77.9224 167.415 77.9264 167.415 77.9303C167.414 77.9342 167.413 77.9382 167.412 77.9421C167.411 77.9461 167.41 77.95 167.409 77.954C167.408 77.957 167.407 77.9601 167.407 77.9631C167.406 77.9651 167.406 77.967 167.405 77.969C167.405 77.9709 167.404 77.9729 167.404 77.9748C167.404 77.9768 167.403 77.9788 167.403 77.9807C167.402 77.9827 167.402 77.9846 167.401 77.9866C167.401 77.9885 167.4 77.9905 167.4 77.9924C167.399 77.9944 167.399 77.9964 167.398 77.9983C167.398 77.9992 167.398 78 167.398 78.0009C166.31 82.5978 165.221 87.1945 164.128 91.7901C162.509 98.5953 160.877 105.399 159.229 112.197C159.152 112.515 158.917 112.832 158.676 113.067C157.518 114.2 156.817 115.471 157.265 117.151C157.359 117.505 157.29 117.724 156.912 117.93C154.98 118.979 154.32 120.681 155.208 122.747C155.646 123.763 155.628 124.641 155.346 125.649C154.95 127.072 154.604 128.507 154.258 129.942C154.137 130.445 154.016 130.949 153.892 131.451C153.627 132.535 153.524 132.595 152.411 132.347C151.559 132.158 150.707 131.969 149.855 131.779C146.781 131.096 143.707 130.413 140.63 129.746C136.711 128.897 132.791 128.053 128.87 127.21C128.868 127.209 128.865 127.209 128.863 127.208C128.861 127.208 128.859 127.207 128.858 127.207C128.856 127.207 128.854 127.206 128.852 127.206C128.85 127.206 128.849 127.205 128.847 127.205C125.763 126.541 122.679 125.878 119.595 125.211C117.964 124.859 116.335 124.499 114.705 124.139C114.698 124.137 114.692 124.136 114.685 124.134C114.684 124.134 114.682 124.134 114.68 124.133C114.679 124.133 114.677 124.133 114.675 124.132C113.608 123.896 112.541 123.661 111.474 123.427C110.654 123.248 110.65 123.224 110.847 122.429C112.605 115.376 114.357 108.323 116.107 101.27C116.511 99.646 116.911 98.0212 117.311 96.3963C117.759 94.5799 118.206 92.7636 118.658 90.9482C119.805 86.3402 120.953 81.7326 122.102 77.125C123.25 72.5174 124.399 67.9098 125.546 63.3018C125.562 63.2384 125.578 63.1751 125.594 63.1117C125.594 63.1097 125.595 63.1077 125.595 63.1057C125.596 63.1037 125.596 63.1016 125.597 63.0996C125.597 63.0974 125.598 63.0953 125.598 63.0932C125.599 63.091 125.599 63.0888 125.6 63.0866L125.6 63.0864C125.778 62.3791 125.956 61.6709 126.093 60.9538ZM25.9372 47.3253C25.8403 46.846 25.8252 46.349 25.813 45.9461C25.8083 45.7892 25.804 45.6466 25.7954 45.5248L25.799 45.5266C25.8272 45.0912 25.8605 44.6819 25.8924 44.2905C25.9601 43.4604 26.0212 42.7106 26.0126 41.9616C25.9929 40.1736 25.4615 38.4934 24.7291 36.8724C23.9895 35.2353 23.3541 33.5694 23.1566 31.76C22.7096 27.6707 23.9608 24.111 26.4524 20.914C26.5141 20.8347 26.5757 20.7555 26.6374 20.6763C27.6211 19.4127 28.6066 18.1469 29.4951 16.8175C30.1557 15.8302 30.6853 14.7442 31.1933 13.6653C34.0834 7.53863 38.9553 3.88918 45.4249 2.22512C50.0455 1.03676 54.702 1.09061 59.389 1.78172C63.0582 2.32385 66.5622 3.34885 69.8311 5.10267C70.4322 5.42599 70.9979 5.8149 71.5638 6.20398C71.9342 6.45863 72.3047 6.71336 72.6853 6.94983C73.0228 7.15986 73.4142 7.36809 73.7983 7.40399C79.6988 7.94971 84.9333 12.4429 86.1038 17.9682C86.9151 21.7971 86.0302 25.2509 83.675 28.3493C83.6636 28.364 83.6522 28.3789 83.6408 28.3938C83.5607 28.4985 83.4794 28.6048 83.3788 28.685C83.3075 28.7415 83.2201 28.7796 83.1329 28.8175C83.0929 28.835 83.0528 28.8524 83.0144 28.8717C83.0173 28.8412 83.0199 28.8105 83.0224 28.7799C83.0292 28.6987 83.0359 28.6173 83.0503 28.5378C83.7055 24.9547 82.8941 21.7182 80.7328 18.8101C79.5785 17.2573 78.1586 15.9846 76.5053 14.9775C75.6311 14.4444 75.3493 14.4965 74.6169 15.1876C70.8454 18.7491 66.3755 20.957 61.3116 21.9892C58.1019 22.6426 54.8599 22.9496 51.5982 22.5134C50.1837 22.3249 48.7871 21.9767 47.4031 21.6176C45.976 21.2461 45.6223 21.4633 45.459 22.8958C45.3926 23.481 45.2561 24.0859 45.012 24.6173C43.4987 27.9238 41.1543 30.4119 37.7454 31.8192C37.3595 31.9772 37.083 32.0095 36.7096 31.6918C33.8913 29.2917 30.285 29.6992 27.9621 32.6468C24.7812 36.6804 26.0108 42.7873 30.5937 45.322C31.6278 45.8946 32.8104 46.2223 33.9651 46.5423C34.0412 46.5634 34.1171 46.5844 34.1929 46.6055C34.7458 46.7581 34.9486 46.9484 34.8571 47.4905C34.7412 48.1792 34.6268 48.8681 34.5124 49.5571L34.5124 49.5575L34.5123 49.5579C34.3238 50.6933 34.1353 51.8289 33.9398 52.9638C33.8806 53.3156 33.71 53.5615 33.2702 53.5077C29.9582 53.0984 26.6319 50.7666 25.9372 47.3253ZM105.976 127.346C104.667 126.92 104.626 126.787 104.642 124.833L104.644 124.834C104.687 124.642 104.738 124.405 104.796 124.138C104.942 123.461 105.13 122.586 105.353 121.72C105.843 119.813 106.342 117.909 106.841 116.004C106.841 116.003 106.841 116.003 106.842 116.002C106.842 116.002 106.842 116.001 106.842 116C106.842 116 106.842 115.999 106.842 115.999C106.843 115.998 106.843 115.998 106.843 115.997C106.843 115.996 106.843 115.996 106.843 115.995C106.844 115.995 106.844 115.994 106.844 115.993C106.844 115.993 106.844 115.992 106.844 115.992C106.844 115.991 106.845 115.991 106.845 115.99C107.553 113.289 108.26 110.588 108.943 107.881C110.771 100.629 112.579 93.3715 114.388 86.1143C114.388 86.1134 114.388 86.1126 114.388 86.1118C114.39 86.1072 114.391 86.1026 114.392 86.098C114.393 86.092 114.395 86.086 114.396 86.08C114.398 86.0741 114.399 86.0681 114.401 86.0621C114.402 86.0562 114.404 86.0502 114.405 86.0442C114.917 83.9893 115.429 81.9343 115.942 79.8796C117.874 72.1337 119.801 64.3878 121.72 56.6383C122.142 54.9384 122.99 53.6423 124.856 53.4197C125.487 53.3448 126.146 53.4436 126.791 53.5403C126.791 53.5403 126.792 53.5404 126.792 53.5404C126.793 53.5405 126.793 53.5405 126.793 53.5406C126.794 53.5407 126.794 53.5407 126.794 53.5408C126.841 53.5477 126.887 53.5547 126.934 53.5616C126.983 53.5688 127.032 53.576 127.081 53.5831C131.506 54.2168 135.93 54.863 140.354 55.52C141.357 55.6689 142.359 55.8288 143.36 55.9887C143.361 55.9888 143.361 55.9888 143.362 55.9889C144.509 56.1719 145.656 56.355 146.805 56.5217C148.193 56.7223 149.584 56.9103 150.975 57.0983L150.975 57.0984L150.975 57.0984L150.975 57.0984L150.975 57.0985L150.976 57.0985L150.976 57.0985L150.976 57.0986L150.976 57.0986L150.977 57.0986C151.063 57.1103 151.149 57.122 151.236 57.1337C152.533 57.3091 153.83 57.4852 155.126 57.6723C156.864 57.9223 158.601 58.1854 160.338 58.4485C161.607 58.6409 162.877 58.8332 164.148 59.0205C165.513 59.2218 166.88 59.4178 168.246 59.6136C168.337 59.6266 168.427 59.6396 168.518 59.6526L168.519 59.6527L168.519 59.6528L168.52 59.6529L168.521 59.653L168.521 59.653L168.522 59.6531L168.522 59.6532L168.523 59.6533L168.524 59.6534C168.526 59.6537 168.528 59.654 168.53 59.6543L168.531 59.6544L168.532 59.6546L168.533 59.6547L168.534 59.6548L168.534 59.6549L168.535 59.655C169.728 59.826 170.922 59.9969 172.114 60.1711C172.822 60.2752 173.533 60.3829 174.229 60.5391C175.902 60.9161 176.722 62.1062 176.345 63.7721C175.707 66.5981 175.044 69.419 174.38 72.2399C174.38 72.2411 174.379 72.2422 174.379 72.2434C174 73.8562 173.62 75.469 173.245 77.0828C172.37 80.8495 171.499 84.6174 170.628 88.3854C170.625 88.3945 170.623 88.4035 170.621 88.4126C170.012 91.0482 169.403 93.6838 168.792 96.3192C168.114 99.2396 167.431 102.16 166.748 105.079C166.618 105.64 166.487 106.2 166.356 106.759C166.352 106.777 166.348 106.795 166.344 106.813C166.343 106.815 166.343 106.816 166.343 106.817C166.339 106.837 166.334 106.856 166.33 106.875L166.33 106.875C166.267 107.173 166.207 107.457 165.792 107.56C163.706 108.081 162.889 109.641 162.721 111.592C162.658 112.324 162.448 112.488 161.76 112.439C161.723 112.437 161.687 112.434 161.651 112.432C161.651 112.432 161.651 112.432 161.65 112.432C160.528 112.354 160.523 112.354 160.802 111.19C161.638 107.69 162.476 104.191 163.314 100.692C164.488 95.7897 165.662 90.8878 166.83 85.9847C167.986 81.1298 169.133 76.2728 170.28 71.4161C170.28 71.4157 170.281 71.4152 170.281 71.4148C170.281 71.4143 170.281 71.4139 170.281 71.4135C170.281 71.413 170.281 71.4126 170.281 71.4121C170.281 71.4117 170.282 71.4112 170.282 71.4108C170.282 71.4104 170.282 71.4099 170.282 71.4095C170.282 71.409 170.282 71.4086 170.282 71.4081C170.282 71.4077 170.283 71.4072 170.283 71.4068C170.283 71.4064 170.283 71.4059 170.283 71.4055C170.288 71.386 170.292 71.3665 170.297 71.347C170.685 69.7045 171.073 68.0621 171.461 66.4199C171.657 65.5905 171.517 65.3267 170.668 65.1938C169.562 65.0218 168.454 64.8671 167.346 64.7135C167.272 64.7033 167.198 64.6931 167.124 64.6829L167.124 64.6828L167.124 64.6828L167.124 64.6828L167.123 64.6827L167.123 64.6827L167.123 64.6827L167.122 64.6826L167.122 64.6826L167.122 64.6826C167.121 64.6824 167.12 64.6823 167.119 64.6822C166.383 64.5803 165.648 64.4783 164.912 64.3717C163.038 64.0986 161.164 63.821 159.29 63.5434C159.289 63.5432 159.288 63.5431 159.287 63.543C158.538 63.4319 157.789 63.3209 157.039 63.2102C154.002 62.7614 150.965 62.3109 147.927 61.8585C146.452 61.6383 144.976 61.4163 143.5 61.1943C141.969 60.9639 140.437 60.7335 138.905 60.505C135.898 60.0544 132.89 59.6074 129.881 59.1623C129.492 59.1048 129.102 59.0532 128.712 59.0015C128.067 58.9161 127.423 58.8308 126.783 58.7189C125.49 58.4945 125.318 58.5842 124.997 59.8857C124.435 62.1539 123.875 64.4226 123.314 66.6915C122.797 68.7879 122.279 70.8844 121.76 72.981C121.135 75.5078 120.51 78.0346 119.884 80.5614C119.85 80.7003 119.816 80.8393 119.781 80.9782C119.779 80.9868 119.777 80.9955 119.775 81.0041C119.774 81.0093 119.772 81.0145 119.771 81.0197C119.77 81.0249 119.769 81.0301 119.767 81.0352C119.767 81.037 119.766 81.0387 119.766 81.0405C119.766 81.0422 119.765 81.044 119.765 81.0457C119.764 81.0474 119.764 81.0492 119.763 81.0509C119.763 81.0527 119.763 81.0544 119.762 81.0561C119.762 81.0579 119.761 81.0596 119.761 81.0614C117.616 89.729 115.472 98.3965 113.325 107.063C112.52 110.311 111.71 113.556 110.9 116.802C110.9 116.803 110.9 116.805 110.899 116.806C110.899 116.808 110.899 116.809 110.898 116.811C110.898 116.812 110.897 116.814 110.897 116.815C110.897 116.817 110.896 116.818 110.896 116.82C110.896 116.821 110.895 116.823 110.895 116.824C110.894 116.826 110.894 116.827 110.894 116.829C110.893 116.83 110.893 116.832 110.893 116.833C110.891 116.841 110.889 116.848 110.887 116.856C110.375 118.908 109.863 120.96 109.352 123.012C109.122 123.935 109.252 124.176 110.196 124.393C113.389 125.125 116.583 125.856 119.784 126.558C127.989 128.356 136.196 130.144 144.405 131.923C146.478 132.372 148.554 132.806 150.63 133.239C151.616 133.445 152.602 133.651 153.587 133.858C154.336 134.016 154.524 133.923 154.732 133.146C155.169 131.515 155.594 129.881 156.018 128.248C156.018 128.246 156.019 128.245 156.019 128.244C156.021 128.235 156.023 128.227 156.026 128.218C156.13 127.817 156.234 127.416 156.338 127.015C156.399 126.782 156.46 126.55 156.52 126.317C156.534 126.262 156.548 126.206 156.561 126.151C156.603 125.973 156.644 125.795 156.72 125.633C156.75 125.57 157.01 125.52 157.061 125.57C157.102 125.611 157.144 125.652 157.185 125.693C157.228 125.736 157.272 125.778 157.315 125.821L157.315 125.821C158.164 126.658 159.015 127.496 159.818 128.376C159.994 128.57 160.05 128.995 159.983 129.272C159.971 129.322 159.959 129.372 159.947 129.422C159.934 129.479 159.92 129.536 159.906 129.593C159.869 129.748 159.832 129.903 159.795 130.058L159.795 130.059C159.27 132.258 158.745 134.457 158.136 136.634C157.567 138.664 155.59 139.425 154.115 139.086C151.876 138.572 149.631 138.086 147.386 137.6C147.385 137.6 147.385 137.6 147.384 137.6C145.729 137.241 144.074 136.883 142.422 136.513C138.802 135.705 135.184 134.884 131.567 134.063C131.566 134.063 131.565 134.063 131.565 134.063C129.896 133.684 128.228 133.306 126.56 132.929C125.518 132.693 124.473 132.468 123.428 132.243L123.428 132.243L123.427 132.243L123.427 132.243L123.426 132.243L123.426 132.243L123.425 132.243L123.425 132.243L123.425 132.243C121.036 131.728 118.648 131.214 116.292 130.575C113.532 129.827 110.811 128.932 108.091 128.038L108.091 128.038L108.09 128.038L108.09 128.038L108.09 128.038L108.09 128.038L108.09 128.038L108.089 128.038L108.089 128.038C107.385 127.806 106.68 127.575 105.976 127.346ZM112.363 140.443C111.449 140.566 110.527 140.629 109.595 140.692C109.17 140.72 108.744 140.749 108.315 140.784L108.309 140.787C106.521 140.644 104.705 140.498 102.89 140.355L102.834 140.35C102.495 140.323 102.155 140.296 101.816 140.296C101.405 140.294 101.175 140.574 101.254 140.928C101.303 141.143 101.597 141.428 101.813 141.459C102.936 141.62 104.066 141.768 105.198 141.812C106.317 141.856 107.437 141.859 108.557 141.863C109.139 141.864 109.72 141.866 110.302 141.874C110.407 141.875 110.511 141.909 110.615 141.943C110.663 141.958 110.711 141.974 110.76 141.987C110.727 142.018 110.696 142.052 110.665 142.086C110.598 142.158 110.532 142.23 110.451 142.279C108.388 143.547 106.159 144.299 103.751 144.615C99.9745 145.112 96.3215 144.388 92.6577 143.661C89.6904 143.073 86.6908 142.638 83.6732 143.015C82.1892 143.201 80.7266 143.573 79.268 143.944C78.9339 144.029 78.6001 144.114 78.2663 144.196C77.6488 144.349 77.3329 144.272 77.0474 143.649C75.5432 140.371 74.6743 136.967 74.8449 133.336C74.8474 133.285 74.8483 133.234 74.8493 133.183C74.8518 133.053 74.8542 132.923 74.8826 132.799C74.9304 132.589 74.9626 132.363 74.9948 132.137C75.0738 131.584 75.1531 131.028 75.4642 130.683C75.7734 130.34 76.4195 130.269 77.0172 130.203C77.1585 130.187 77.2972 130.172 77.428 130.153C81.6142 129.561 85.059 127.601 88.0371 124.649C90.7854 121.926 93.7545 119.453 97.3591 117.916C99.1162 117.166 100.895 116.468 102.675 115.77C103.587 115.412 104.5 115.054 105.41 114.688C105.787 114.536 105.968 114.48 105.821 115.021C105.659 115.617 105.513 116.217 105.368 116.816C105.204 117.49 105.041 118.164 104.854 118.832C104.755 119.183 104.516 119.526 104.265 119.803C102.788 121.421 100.909 122.481 99.03 123.541L98.9585 123.581C98.8614 123.636 98.758 123.687 98.6537 123.738C98.1932 123.963 97.7181 124.196 97.7181 124.842C97.7165 125.568 98.2945 125.773 98.8068 125.955C98.874 125.979 98.94 126.002 99.0034 126.026L99.4881 126.21C102.529 127.365 105.57 128.519 108.643 129.582C113.66 131.318 118.773 132.715 124.02 133.577C124.054 133.583 124.088 133.586 124.123 133.59C124.178 133.596 124.234 133.601 124.286 133.618C124.386 133.649 124.492 133.676 124.597 133.702C125.072 133.821 125.552 133.94 125.661 134.56C125.792 135.309 125.454 135.907 124.905 136.373C123.919 137.208 122.724 137.323 121.516 137.185C118.613 136.85 115.713 136.501 112.813 136.152C110.915 135.923 109.018 135.695 107.119 135.47C106.448 135.39 105.773 135.342 105.098 135.294C104.88 135.278 104.661 135.263 104.443 135.246C104.062 135.215 103.701 135.257 103.653 135.745C103.602 136.251 104.026 136.343 104.355 136.395C105.279 136.54 106.209 136.648 107.139 136.755C107.276 136.771 107.414 136.786 107.552 136.802C110.544 137.151 113.537 137.497 116.531 137.838C116.706 137.858 116.883 137.864 117.06 137.87C117.212 137.875 117.364 137.88 117.515 137.894C117.584 137.9 117.65 137.939 117.716 137.977C117.745 137.995 117.775 138.012 117.805 138.027C117.786 138.055 117.768 138.085 117.75 138.116C117.711 138.184 117.671 138.251 117.613 138.29C116.016 139.378 114.287 140.181 112.363 140.443ZM158.816 114.823C159.375 113.845 160.274 113.576 161.489 113.62V113.619C162.281 113.556 163.078 113.96 163.78 114.538C165.815 116.213 167.596 118.135 169.165 120.253C169.377 120.539 169.558 120.849 169.736 121.16C170.946 123.271 170.309 125.674 168.226 126.953C167.849 127.182 167.67 127.222 167.418 126.75C165.58 123.289 162.965 120.506 159.787 118.243C158.398 117.252 158.066 116.139 158.816 114.823ZM166.569 128.444L166.569 128.443C166.499 128.624 166.439 128.821 166.378 129.023C166.241 129.478 166.097 129.955 165.81 130.32C164.586 131.88 162.891 132.729 160.958 133.103C160.513 133.189 160.224 133.171 160.43 132.532C160.656 131.835 160.833 131.123 161.01 130.41L161.01 130.41C161.098 130.054 161.186 129.698 161.281 129.344C161.473 128.627 161.344 128.071 160.775 127.502C159.513 126.24 158.328 124.895 157.156 123.547C156.813 123.152 156.567 122.648 156.366 122.158C155.953 121.149 156.203 120.156 156.949 119.562C157.718 118.95 158.515 118.939 159.493 119.639C161.299 120.93 162.918 122.434 164.241 124.222C164.948 125.175 165.569 126.195 166.183 127.211C166.311 127.422 166.373 127.673 166.444 127.968C166.48 128.116 166.518 128.274 166.569 128.443L166.569 128.443V128.444ZM173.54 116.442L173.54 116.442C173.415 118.382 172.645 119.544 171.544 120.541C171.249 120.806 171.124 120.65 170.954 120.438C170.942 120.424 170.931 120.41 170.919 120.395C170.638 120.05 170.361 119.702 170.084 119.355C169.28 118.347 168.476 117.339 167.598 116.401C166.966 115.725 166.268 115.111 165.57 114.497L165.57 114.497C165.146 114.124 164.722 113.751 164.313 113.364C164.105 113.166 163.913 112.854 163.887 112.579C163.78 111.369 164.06 110.264 164.99 109.404C165.753 108.698 166.734 108.583 167.63 109.118C167.987 109.332 168.357 109.565 168.63 109.87C168.847 110.112 169.064 110.352 169.281 110.593C170.424 111.86 171.568 113.128 172.621 114.466C172.99 114.936 173.202 115.529 173.367 115.989C173.429 116.164 173.485 116.32 173.54 116.442C173.54 116.442 173.54 116.441 173.54 116.44V116.442ZM103.875 122.05C103.873 122.08 103.872 122.108 103.871 122.136C103.87 122.156 103.869 122.176 103.868 122.195C103.865 122.273 103.863 122.342 103.854 122.411C103.809 122.773 103.762 123.136 103.716 123.498C103.716 123.499 103.716 123.5 103.715 123.501C103.715 123.501 103.715 123.502 103.715 123.502C103.608 124.341 103.5 125.18 103.412 126.021C103.373 126.384 103.231 126.41 102.953 126.303C102.684 126.2 102.415 126.097 102.146 125.994C101.305 125.673 100.463 125.352 99.6263 125.017C99.5599 124.992 99.5096 124.709 99.5437 124.687C100.897 123.826 102.261 122.978 103.626 122.133C103.656 122.115 103.692 122.105 103.748 122.089C103.765 122.084 103.783 122.079 103.803 122.073C103.821 122.067 103.84 122.062 103.86 122.055C103.865 122.053 103.87 122.052 103.875 122.05C103.875 122.05 103.875 122.049 103.875 122.048V122.05Z" fill="#1C1C1A"/>
<path d="M25.9372 47.3253C26.6319 50.7666 29.9582 53.0984 33.2702 53.5077C33.71 53.5615 33.8806 53.3156 33.9398 52.9638C34.1353 51.8289 34.3238 50.6933 34.5123 49.5579L34.5124 49.5575L34.5124 49.5571C34.6268 48.8681 34.7412 48.1792 34.8571 47.4905C34.9486 46.9484 34.7458 46.7581 34.1929 46.6055C34.1171 46.5844 34.0412 46.5634 33.9651 46.5423C32.8104 46.2223 31.6278 45.8946 30.5937 45.322C26.0108 42.7873 24.7812 36.6804 27.9621 32.6468C30.285 29.6992 33.8913 29.2917 36.7096 31.6918C37.083 32.0095 37.3595 31.9772 37.7454 31.8192C41.1543 30.4119 43.4987 27.9238 45.012 24.6173C45.2561 24.0859 45.3926 23.481 45.459 22.8958C45.6223 21.4633 45.976 21.2461 47.4031 21.6176C48.7871 21.9767 50.1837 22.3249 51.5982 22.5134C54.8599 22.9496 58.1019 22.6426 61.3116 21.9892C66.3755 20.957 70.8454 18.7491 74.6169 15.1876C75.3493 14.4965 75.6311 14.4444 76.5053 14.9775C78.1586 15.9846 79.5785 17.2573 80.7328 18.8101C82.8941 21.7182 83.7055 24.9547 83.0503 28.5378C83.0359 28.6173 83.0292 28.6987 83.0224 28.7799C83.0199 28.8105 83.0173 28.8412 83.0144 28.8717C83.0528 28.8524 83.0929 28.835 83.1329 28.8175C83.2201 28.7796 83.3075 28.7415 83.3788 28.685C83.4794 28.6048 83.5607 28.4985 83.6408 28.3938C83.6522 28.3789 83.6636 28.364 83.675 28.3493C86.0302 25.2509 86.9151 21.7971 86.1038 17.9682C84.9333 12.4429 79.6988 7.94971 73.7983 7.40399C73.4142 7.36809 73.0228 7.15986 72.6853 6.94983C72.3047 6.71336 71.9342 6.45863 71.5638 6.20398C70.9979 5.8149 70.4322 5.42599 69.8311 5.10267C66.5622 3.34885 63.0582 2.32385 59.389 1.78172C54.702 1.09061 50.0455 1.03676 45.4249 2.22512C38.9553 3.88918 34.0834 7.53863 31.1933 13.6653C30.6853 14.7442 30.1557 15.8302 29.4951 16.8175C28.6066 18.1469 27.6211 19.4127 26.6374 20.6763C26.5757 20.7555 26.5141 20.8347 26.4524 20.914C23.9608 24.111 22.7096 27.6707 23.1566 31.76C23.3541 33.5694 23.9895 35.2353 24.7291 36.8724C25.4615 38.4934 25.9929 40.1736 26.0126 41.9616C26.0212 42.7106 25.9601 43.4604 25.8924 44.2905C25.8605 44.6819 25.8272 45.0912 25.799 45.5266L25.7954 45.5248C25.804 45.6466 25.8083 45.7892 25.813 45.9461C25.8252 46.349 25.8403 46.846 25.9372 47.3253Z" fill="#F1B069"/>
<path d="M84.0627 119.094C84.0035 121.336 83.903 123.576 83.824 125.816C83.8186 125.987 83.8617 126.157 83.8832 126.328C84.0322 126.253 84.2063 126.206 84.3284 126.098C85.7717 124.843 87.2329 123.61 88.6384 122.316C90.9829 120.158 93.4906 118.239 96.422 116.945C97.0718 116.658 97.1347 116.381 96.8869 115.755C95.7471 112.87 94.5372 110.005 93.5822 107.057C91.8194 101.615 90.184 96.1307 88.5577 90.6448C87.1341 85.8447 84.7215 81.7214 80.7059 78.6302C78.3884 76.8476 75.8052 75.5336 73.0839 74.523C70.2619 73.4746 67.3952 72.5484 64.5445 71.5736C64.1424 71.4372 63.8193 71.3546 63.489 71.8537C62.0152 74.0742 59.9975 75.6934 57.5903 76.801C53.8008 78.5422 49.8067 78.7756 45.7444 78.2119C42.6191 77.7793 39.641 76.792 36.8138 75.4116C33.3115 73.7026 29.917 71.816 27.3643 68.7517C27.1112 68.4465 26.8886 68.4106 26.5188 68.5704C21.7744 70.6258 17.0873 72.7853 12.736 75.6126C6.31313 79.7862 2.73009 85.7208 1.82536 93.2872C1.38376 96.9833 1.5166 100.699 1.86306 104.39C2.21849 108.161 2.63316 111.937 3.26324 115.669C4.2308 121.399 5.32941 127.111 6.51956 132.799C7.25914 136.334 8.37031 139.771 10.0344 143.01C12.4075 147.625 16.0605 150.648 21.164 151.646C23.609 152.124 26.1419 152.308 28.6371 152.343C32.2506 152.391 35.8749 152.303 39.4795 152.048C42.8686 151.809 46.2434 151.332 49.6129 150.867C53.3628 150.35 57.102 149.741 60.8412 149.145C63.4908 148.724 66.1332 148.261 68.7774 147.805C71.2457 147.379 73.7121 146.945 76.1768 146.503C76.9469 146.365 76.9182 146.363 76.5825 145.611C75.9255 144.143 75.2093 142.69 74.6869 141.173C73.5165 137.781 73.2221 134.298 73.9976 130.767C74.2543 129.599 74.292 129.608 73.03 129.64C66.3037 129.81 59.5775 130.047 52.8512 130.128C48.3976 130.182 43.9403 130.033 39.4849 129.94C35.8983 129.864 32.3134 129.663 28.7268 129.66C26.6463 129.658 24.6537 130.225 22.8891 131.412C22.566 131.629 22.259 131.889 21.9054 132.029C21.7079 132.108 21.3256 132.063 21.2161 131.925C21.0958 131.772 21.094 131.367 21.2161 131.214C21.4925 130.873 21.8533 130.586 22.2213 130.336C23.9734 129.146 25.9677 128.66 28.0357 128.452C28.5545 128.399 28.6801 128.25 28.6263 127.742C28.2906 124.567 28.0357 121.381 27.6533 118.21C27.183 114.301 26.6571 110.398 26.0826 106.503C25.4849 102.457 24.6681 98.441 23.1548 94.6317C22.2447 92.3394 21.024 90.1709 19.9039 87.9665C19.6974 87.559 19.6131 87.2826 20.0152 86.981C20.4729 86.6381 20.7386 86.9559 20.9791 87.261C21.1999 87.5411 21.3759 87.857 21.5572 88.1658C23.1871 90.9302 24.4132 93.8652 25.3269 96.942C27.2117 103.297 27.9298 109.852 28.7178 116.396C29.1738 120.187 29.5741 123.987 29.9654 127.786C30.0229 128.342 30.3101 128.382 30.7355 128.394C32.3188 128.439 33.9021 128.529 35.4854 128.55C42.6317 128.645 49.778 128.8 56.9243 128.784C62.8141 128.771 68.7038 128.547 74.5935 128.423C75.08 128.412 75.6347 128.265 75.8896 128.927C75.9237 129.015 76.1966 129.085 76.3294 129.051C78.1461 128.588 79.9555 128.103 81.7686 127.628C82.2461 127.502 82.4202 127.2 82.4399 126.712C82.5494 123.845 82.7433 120.979 82.7936 118.112C82.8959 112.31 82.8474 106.508 82.4202 100.719C82.2392 98.268 81.9974 95.8221 81.748 93.377C81.7279 93.1805 81.7078 92.9841 81.6877 92.7876C81.6721 92.6348 81.6564 92.4821 81.6408 92.3293L81.6407 92.3289L81.6052 91.9822C81.5119 91.0792 81.6268 90.5694 82.1222 90.591C82.8887 90.6233 82.8582 91.3 82.9085 91.7937C83.2316 94.9728 83.6139 98.1519 83.7881 101.34C84.0376 105.907 84.0627 110.132 84.0627 114.688C84.0627 115.492 84.0941 117.919 84.0627 119.094Z" fill="#F1B069"/>
<path d="M82.6177 166.387C82.5638 159.36 82.5082 152.33 82.4489 145.302C82.4417 144.512 82.431 144.494 81.6573 144.674C80.67 144.904 79.6952 145.189 78.7043 145.403C78.3058 145.489 78.2502 145.622 78.3363 146.006C78.5966 147.187 78.4279 147.383 77.2126 147.596C74.423 148.088 71.6388 148.62 68.8456 149.088C63.5213 149.984 58.1988 150.894 52.862 151.709C49.2915 152.255 45.7085 152.739 42.1129 153.079C37.2913 153.535 32.4534 153.843 27.6049 153.648C24.9212 153.54 22.2429 153.303 19.631 152.592C18.8789 152.387 18.8627 152.411 18.8609 153.206C18.8483 158.651 18.8492 163.825 18.8384 169.27C18.8384 169.449 18.6146 170.326 19.1645 170.432C19.1645 170.432 38.0946 173.765 50.5566 173.794C61.4628 173.819 78.0113 171.215 82.1217 170.553C83.1145 170.393 82.6231 167.146 82.6177 166.387Z" fill="#F1B069"/>
<path fill-rule="evenodd" clip-rule="evenodd" d="M126.093 60.9538C126.219 60.2914 126.44 59.8462 127.002 60.0778V60.0742C127.952 60.2139 128.87 60.3483 129.768 60.4798C131.259 60.6979 132.693 60.9079 134.128 61.1207C134.649 61.1978 135.169 61.2747 135.69 61.3516C138.262 61.7318 140.832 62.1118 143.402 62.503C144.559 62.6794 145.715 62.862 146.872 63.0445C148.303 63.2705 149.735 63.4966 151.169 63.7111C152.897 63.9695 154.627 64.2137 156.356 64.4578C157.221 64.5799 158.086 64.7019 158.951 64.8258C159.816 64.9498 160.682 65.0735 161.547 65.1971C164.102 65.5622 166.657 65.9273 169.21 66.3014C170.133 66.436 170.129 66.4719 169.914 67.3838C169.083 70.8832 168.254 74.383 167.426 77.8826L167.424 77.8888L167.423 77.8949L167.42 77.9067L167.417 77.9185L167.415 77.9303L167.412 77.9421L167.409 77.954L167.407 77.9631L167.405 77.969L167.404 77.9748L167.403 77.9807L167.401 77.9866L167.4 77.9924L167.398 77.9983L167.398 78.0009C166.31 82.5978 165.221 87.1945 164.128 91.7901C162.509 98.5953 160.877 105.399 159.229 112.197C159.152 112.515 158.917 112.832 158.676 113.067C157.518 114.2 156.817 115.471 157.265 117.151C157.359 117.505 157.29 117.724 156.912 117.93C154.98 118.979 154.32 120.681 155.208 122.747C155.646 123.763 155.628 124.641 155.346 125.649C154.95 127.072 154.604 128.507 154.258 129.942C154.137 130.445 154.016 130.949 153.892 131.451C153.627 132.535 153.524 132.595 152.411 132.347C151.559 132.158 150.707 131.969 149.855 131.779C146.781 131.096 143.707 130.413 140.63 129.746C136.711 128.897 132.791 128.053 128.87 127.21L128.863 127.208L128.858 127.207L128.852 127.206L128.847 127.205C125.763 126.541 122.679 125.878 119.595 125.211C117.964 124.859 116.335 124.499 114.705 124.139L114.685 124.134L114.68 124.133L114.675 124.132C113.608 123.896 112.541 123.661 111.474 123.427C110.654 123.248 110.65 123.224 110.847 122.429C112.605 115.376 114.357 108.323 116.107 101.27C116.511 99.646 116.911 98.0212 117.311 96.3963C117.759 94.5799 118.206 92.7636 118.658 90.9482C119.805 86.3402 120.953 81.7326 122.102 77.125C123.25 72.5174 124.399 67.9098 125.546 63.3018C125.562 63.2384 125.578 63.1751 125.594 63.1117L125.595 63.1057L125.597 63.0996L125.598 63.0932L125.6 63.0866L125.6 63.0864C125.778 62.3791 125.956 61.6709 126.093 60.9538ZM167.346 64.7135C167.272 64.7033 167.198 64.6931 167.124 64.6829L167.124 64.6828C167.198 64.6931 167.272 64.7033 167.346 64.7135ZM168.246 59.6136C168.337 59.6266 168.427 59.6396 168.518 59.6526L168.519 59.6527C168.428 59.6397 168.337 59.6266 168.246 59.6136ZM150.976 57.0986L150.977 57.0986C151.063 57.1103 151.149 57.122 151.236 57.1337C151.149 57.122 151.063 57.1103 150.976 57.0986ZM166.569 128.443L166.569 128.444V128.443L166.569 128.443Z" fill="#1C1C1A"/>
<path d="M104.642 124.833C104.626 126.787 104.667 126.92 105.976 127.346C106.68 127.575 107.385 127.806 108.089 128.038L108.089 128.038L108.09 128.038L108.09 128.038L108.09 128.038L108.09 128.038L108.09 128.038L108.091 128.038L108.091 128.038C110.811 128.932 113.532 129.827 116.292 130.575C118.648 131.214 121.036 131.728 123.425 132.243L123.425 132.243L123.425 132.243L123.426 132.243L123.426 132.243L123.427 132.243L123.427 132.243L123.428 132.243L123.428 132.243C124.473 132.468 125.518 132.693 126.56 132.929C128.228 133.306 129.896 133.684 131.565 134.063L131.567 134.063C135.184 134.884 138.802 135.705 142.422 136.513C144.074 136.883 145.729 137.241 147.384 137.6L147.386 137.6C149.631 138.086 151.876 138.572 154.115 139.086C155.59 139.425 157.567 138.664 158.136 136.634C158.745 134.457 159.27 132.258 159.795 130.059L159.795 130.058C159.832 129.903 159.869 129.748 159.906 129.593L159.947 129.422L159.983 129.272C160.05 128.995 159.994 128.57 159.818 128.376C159.015 127.496 158.164 126.658 157.315 125.821L157.315 125.821L157.185 125.693L157.061 125.57C157.01 125.52 156.75 125.57 156.72 125.633C156.644 125.795 156.603 125.973 156.561 126.151C156.548 126.206 156.534 126.262 156.52 126.317C156.46 126.55 156.399 126.782 156.338 127.015C156.234 127.416 156.13 127.817 156.026 128.218L156.019 128.244L156.018 128.248C155.594 129.881 155.169 131.515 154.732 133.146C154.524 133.923 154.336 134.016 153.587 133.858C152.602 133.651 151.616 133.445 150.63 133.239C148.554 132.806 146.478 132.372 144.405 131.923C136.196 130.144 127.989 128.356 119.784 126.558C116.583 125.856 113.389 125.125 110.196 124.393C109.252 124.176 109.122 123.935 109.352 123.012C109.863 120.96 110.375 118.908 110.887 116.856L110.893 116.833L110.894 116.829L110.895 116.824L110.896 116.82L110.897 116.815L110.898 116.811L110.899 116.806L110.9 116.802C111.71 113.556 112.52 110.311 113.325 107.063C115.472 98.3965 117.616 89.729 119.761 81.0614L119.762 81.0561L119.763 81.0509L119.765 81.0457L119.766 81.0405L119.767 81.0352L119.771 81.0197L119.775 81.0041L119.781 80.9782L119.884 80.5614C120.51 78.0346 121.135 75.5078 121.76 72.981C122.279 70.8844 122.797 68.7879 123.314 66.6915C123.875 64.4226 124.435 62.1539 124.997 59.8857C125.318 58.5842 125.49 58.4945 126.783 58.7189C127.423 58.8308 128.067 58.9161 128.712 59.0015C129.102 59.0532 129.492 59.1048 129.881 59.1623C132.89 59.6074 135.898 60.0544 138.905 60.505C140.437 60.7335 141.969 60.9639 143.5 61.1943C144.976 61.4163 146.452 61.6383 147.927 61.8585C150.965 62.3109 154.002 62.7614 157.039 63.2102C157.789 63.3209 158.538 63.4319 159.287 63.543L159.29 63.5434C161.164 63.821 163.038 64.0986 164.912 64.3717C165.648 64.4783 166.383 64.5803 167.119 64.6822L167.122 64.6826L167.122 64.6826L167.122 64.6826L167.123 64.6827L167.123 64.6827L167.123 64.6827L167.124 64.6828L167.124 64.6828L167.124 64.6828L167.124 64.6829L167.346 64.7135C168.454 64.8671 169.562 65.0218 170.668 65.1938C171.517 65.3267 171.657 65.5905 171.461 66.4199C171.073 68.0621 170.685 69.7045 170.297 71.347L170.283 71.4055L170.283 71.4068L170.282 71.4081L170.282 71.4095L170.282 71.4108L170.281 71.4121L170.281 71.4135L170.281 71.4148L170.28 71.4161C169.133 76.2728 167.986 81.1298 166.83 85.9847C165.662 90.8878 164.488 95.7897 163.314 100.692C162.476 104.191 161.638 107.69 160.802 111.19C160.523 112.354 160.528 112.354 161.65 112.432L161.651 112.432L161.76 112.439C162.448 112.488 162.658 112.324 162.721 111.592C162.889 109.641 163.706 108.081 165.792 107.56C166.207 107.457 166.267 107.173 166.33 106.875L166.33 106.875C166.334 106.856 166.339 106.837 166.343 106.817L166.344 106.813C166.348 106.795 166.352 106.777 166.356 106.759C166.487 106.2 166.618 105.64 166.748 105.079C167.431 102.16 168.114 99.2396 168.792 96.3192C169.403 93.6838 170.012 91.0482 170.621 88.4126L170.628 88.3854C171.499 84.6174 172.37 80.8495 173.245 77.0828C173.62 75.469 174 73.8562 174.379 72.2434L174.38 72.2399C175.044 69.419 175.707 66.5981 176.345 63.7721C176.722 62.1062 175.902 60.9161 174.229 60.5391C173.533 60.3829 172.822 60.2752 172.114 60.1711C170.922 59.9969 169.728 59.826 168.535 59.655L168.534 59.6549L168.534 59.6548L168.533 59.6547L168.532 59.6546L168.531 59.6544L168.53 59.6543L168.524 59.6534L168.523 59.6533L168.522 59.6532L168.522 59.6531L168.521 59.653L168.521 59.653L168.52 59.6529L168.519 59.6528L168.519 59.6527L168.518 59.6526L168.246 59.6136C166.88 59.4178 165.513 59.2218 164.148 59.0205C162.877 58.8332 161.607 58.6409 160.338 58.4485C158.601 58.1854 156.864 57.9223 155.126 57.6723C153.83 57.4852 152.533 57.3091 151.236 57.1337L150.977 57.0986L150.976 57.0986L150.976 57.0986L150.976 57.0985L150.976 57.0985L150.975 57.0985L150.975 57.0984L150.975 57.0984L150.975 57.0984L150.975 57.0983C149.584 56.9103 148.193 56.7223 146.805 56.5217C145.656 56.355 144.509 56.1719 143.362 55.9889L143.36 55.9887C142.359 55.8288 141.357 55.6689 140.354 55.52C135.93 54.863 131.506 54.2168 127.081 53.5831C127.032 53.576 126.983 53.5688 126.934 53.5616C126.887 53.5547 126.841 53.5477 126.794 53.5408L126.793 53.5406L126.792 53.5404L126.791 53.5403C126.146 53.4436 125.487 53.3448 124.856 53.4197C122.99 53.6423 122.142 54.9384 121.72 56.6383C119.801 64.3878 117.874 72.1337 115.942 79.8796C115.429 81.9343 114.917 83.9893 114.405 86.0442L114.401 86.0621L114.396 86.08L114.392 86.098L114.388 86.1118L114.388 86.1143C112.579 93.3715 110.771 100.629 108.943 107.881C108.26 110.588 107.553 113.289 106.845 115.99L106.844 115.992L106.844 115.993L106.843 115.995L106.843 115.997L106.842 115.999L106.842 116L106.842 116.002L106.841 116.004C106.342 117.909 105.843 119.813 105.353 121.72C105.13 122.586 104.942 123.461 104.796 124.138C104.738 124.405 104.687 124.642 104.644 124.834L104.642 124.833Z" fill="#F1B069"/>
<path d="M127.002 60.0778C129.529 60.4493 131.829 60.7832 134.128 61.1243C137.219 61.582 140.311 62.0362 143.402 62.5065C145.992 62.8997 148.577 63.3269 151.169 63.7146C153.761 64.1024 156.357 64.4578 158.951 64.8294C162.371 65.3195 165.792 65.8041 169.21 66.305C170.134 66.4396 170.131 66.4755 169.914 67.3874C167.984 75.5228 166.063 83.66 164.128 91.7937C162.509 98.5989 160.877 105.402 159.229 112.2C159.152 112.518 158.917 112.836 158.676 113.071C157.518 114.204 156.818 115.475 157.265 117.155C157.36 117.509 157.29 117.729 156.912 117.934C154.98 118.982 154.32 120.682 155.208 122.75C155.644 123.766 155.626 124.642 155.346 125.653C154.811 127.572 154.368 129.518 153.892 131.455C153.627 132.539 153.524 132.598 152.411 132.35C148.485 131.48 144.561 130.602 140.63 129.749C133.62 128.229 126.607 126.73 119.595 125.215C116.886 124.63 114.181 124.023 111.474 123.431C110.654 123.251 110.648 123.228 110.847 122.433C112.605 115.381 114.357 108.328 116.107 101.274C116.96 97.8342 117.802 94.3912 118.658 90.9518C120.952 81.7357 123.25 72.5214 125.546 63.3053C125.74 62.5245 125.943 61.7454 126.093 60.9574C126.219 60.2968 126.44 59.8498 127.002 60.0813V60.0778ZM118.195 116.2C118.256 117.126 118.471 117.923 118.995 118.675C119.733 119.733 120.764 120.23 121.983 120.454C126.434 121.276 130.883 122.12 135.336 122.923C136.386 123.111 137.485 123.368 138.519 123.242C140.67 122.984 141.809 121.574 142.283 119.485C143.384 114.633 144.567 109.8 145.682 104.952C145.839 104.268 145.942 103.516 145.831 102.834C145.507 100.863 144.276 99.7621 142.131 99.3798C140.869 99.1554 139.598 98.9849 138.334 98.7623C134.518 98.0891 130.709 97.38 126.89 96.7266C124.445 96.3084 122.674 97.468 121.999 99.8447C121.868 100.302 121.722 100.758 121.615 101.222C120.855 104.501 120.099 107.781 119.349 111.062C118.958 112.773 118.577 114.486 118.193 116.198L118.195 116.2ZM133.021 69.1376C131.066 69.073 129.491 70.4283 128.974 72.1391C128.501 73.7044 128.147 75.3056 127.766 76.8979C126.921 80.4307 126.072 83.9634 125.264 87.5052C124.858 89.2841 125.068 90.9751 126.709 92.0522C127.474 92.553 128.452 92.8151 129.369 92.9749C134.299 93.8347 139.239 94.621 144.174 95.4503C146.522 95.8452 148.403 94.7017 148.974 92.3771C149.789 89.0508 150.537 85.7101 151.295 82.3694C151.756 80.3373 152.264 78.3106 152.598 76.2552C152.932 74.1963 151.641 72.306 149.697 71.7926C148.979 71.6023 148.232 71.518 147.496 71.4013C144.141 70.8699 140.786 70.3422 137.431 69.8162C135.961 69.5864 134.491 69.362 133.021 69.1359V69.1376Z" fill="#F8F6F3"/>
<path d="M104.642 124.833C104.796 124.152 105.04 122.926 105.351 121.718C106.538 117.103 107.776 112.5 108.941 107.88C111.293 98.5505 113.612 89.2142 115.94 79.8778C117.872 72.1319 119.8 64.3843 121.719 56.6366C122.139 54.9366 122.988 53.6406 124.855 53.418C125.58 53.3318 126.343 53.4754 127.079 53.5813C131.506 54.215 135.929 54.863 140.352 55.5182C142.504 55.8378 144.649 56.2076 146.804 56.5199C149.575 56.9202 152.352 57.2721 155.124 57.6706C158.134 58.105 161.137 58.5771 164.146 59.0187C166.801 59.41 169.458 59.7798 172.113 60.1694C172.82 60.2735 173.531 60.3812 174.227 60.5374C175.9 60.9143 176.721 62.1045 176.344 63.7703C175.34 68.2132 174.274 72.6436 173.244 77.0811C171.755 83.4914 170.278 89.9053 168.79 96.3174C167.982 99.7981 167.169 103.277 166.354 106.758C166.275 107.095 166.259 107.442 165.79 107.558C163.704 108.079 162.889 109.639 162.719 111.59C162.656 112.323 162.446 112.486 161.759 112.437C160.525 112.351 160.513 112.389 160.8 111.188C162.807 102.785 164.826 94.3859 166.828 85.983C168.381 79.4632 169.917 72.9397 171.459 66.4181C171.655 65.5888 171.517 65.3249 170.666 65.1921C168.752 64.8941 166.83 64.6482 164.911 64.3699C162.286 63.9876 159.662 63.5962 157.037 63.2085C154 62.7579 150.963 62.3091 147.925 61.8568C144.917 61.408 141.91 60.9538 138.903 60.5033C135.895 60.0545 132.888 59.6057 129.879 59.1605C128.847 59.0079 127.808 58.8966 126.781 58.7171C125.488 58.4909 125.316 58.5825 124.995 59.8839C123.916 64.2496 122.839 68.6153 121.758 72.9792C118.947 84.3405 116.138 95.7017 113.323 107.061C112.005 112.378 110.673 117.694 109.35 123.011C109.121 123.932 109.25 124.174 110.194 124.391C113.388 125.125 116.581 125.856 119.782 126.556C127.987 128.355 136.194 130.141 144.403 131.922C147.461 132.584 150.525 133.212 153.585 133.857C154.334 134.015 154.522 133.921 154.731 133.144C155.339 130.871 155.923 128.592 156.519 126.315C156.58 126.086 156.619 125.845 156.718 125.631C156.748 125.567 157.009 125.518 157.059 125.569C157.994 126.49 158.933 127.407 159.816 128.374C159.994 128.568 160.048 128.994 159.981 129.27C159.394 131.731 158.816 134.196 158.134 136.632C157.565 138.662 155.591 139.423 154.113 139.084C150.223 138.192 146.315 137.38 142.42 136.512C137.13 135.33 131.845 134.122 126.558 132.927C123.133 132.151 119.676 131.491 116.29 130.573C112.815 129.631 109.403 128.455 105.974 127.344C104.665 126.919 104.624 126.788 104.64 124.831L104.642 124.833Z" fill="#2F9E72"/>
<path d="M103.875 122.05C103.868 122.19 103.868 122.303 103.854 122.412C103.705 123.615 103.538 124.816 103.412 126.022C103.375 126.383 103.233 126.41 102.953 126.304C101.843 125.879 100.73 125.461 99.6263 125.019C99.5617 124.992 99.5114 124.708 99.5438 124.689C100.897 123.827 102.262 122.98 103.626 122.134C103.674 122.104 103.737 122.096 103.875 122.052V122.05Z" fill="white"/>
<path d="M69.6247 50.8369C69.0342 50.7687 68.4669 50.7346 67.9122 50.6305C67.4922 50.5515 67.0613 50.381 67.1924 49.8119C67.3144 49.2734 67.7399 49.2806 68.1869 49.3219C68.8977 49.3883 69.6122 49.4798 70.3212 49.4529C71.7178 49.4026 72.3102 48.6361 71.8704 47.3221C71.059 44.8987 70.1471 42.5094 69.2801 40.104C69.018 39.377 68.7523 38.65 68.5208 37.9122C68.3807 37.4634 68.3502 36.959 68.8995 36.783C69.456 36.6053 69.6804 37.038 69.842 37.4903C70.8885 40.4002 71.944 43.3065 72.9816 46.2181C73.1198 46.6077 73.1862 47.0241 73.2598 47.4334C73.5542 49.0885 72.7967 50.2751 71.1955 50.6251C70.6731 50.74 70.1328 50.7687 69.6229 50.8351L69.6247 50.8369Z" fill="#1C1C1A"/>
<path d="M67.5334 56.9203C64.0114 56.7444 61.0136 55.9976 58.452 53.9583C58.2653 53.8094 58.0714 53.6622 57.9206 53.4826C57.6208 53.1254 57.5275 52.7341 57.9098 52.3679C58.2814 52.0107 58.5758 52.2961 58.8379 52.533C60.2884 53.8453 62.0135 54.6477 63.8696 55.1611C65.706 55.6691 67.5837 55.7606 69.4542 55.3388C69.9317 55.2311 70.332 55.2185 70.4774 55.714C70.6336 56.2489 70.1902 56.4715 69.7719 56.5559C68.9264 56.7282 68.0684 56.8359 67.5334 56.9203Z" fill="#1C1C1A"/>
<path d="M57.7015 38.5917C57.811 37.459 58.0318 36.4322 58.8522 35.6226C59.6079 34.8759 60.3637 34.9638 60.9166 35.8488C61.7046 37.1072 61.4264 39.7298 60.3924 40.8033C59.6959 41.5267 58.6853 41.4406 58.2526 40.5323C57.9672 39.9345 57.8793 39.2416 57.7033 38.5917H57.7015Z" fill="#1C1C1A"/>
<path d="M58.7536 28.2845C60.6295 28.2665 62.1517 28.7243 63.5591 29.5608C63.9145 29.7726 64.4405 30.0078 64.1084 30.5804C63.7978 31.1154 63.3006 31.0364 62.8626 30.7635C60.2112 29.1084 57.5581 29.3256 54.8905 30.7097C54.8116 30.751 54.7236 30.8228 54.6464 30.8138C54.2964 30.7743 53.7901 30.8335 53.6358 30.6307C53.327 30.2286 53.6376 29.8624 54.0468 29.6344C55.5781 28.7745 57.1954 28.2342 58.7518 28.2845H58.7536Z" fill="#1C1C1A"/>
<path d="M76.2756 38.5616C76.0368 39.2671 75.8573 40.1556 75.4445 40.9186C74.9059 41.9148 73.8989 41.8341 73.3585 40.8432C72.7392 39.7087 73.0462 37.2996 73.9312 36.35C74.5415 35.6948 75.4804 35.8025 75.8286 36.6336C76.053 37.1704 76.1015 37.7789 76.2738 38.5616H76.2756Z" fill="#1C1C1A"/>
<path d="M79.505 30.5066C79.496 31.0847 79.0077 31.3611 78.5087 31.1942C78.0886 31.0524 77.683 30.8603 77.2575 30.74C75.7173 30.3056 74.2561 30.6933 72.8092 31.1996C72.531 31.2965 72.2402 31.4401 71.9602 31.4293C71.7412 31.4204 71.418 31.2516 71.3462 31.0739C71.2744 30.8926 71.4144 30.5874 71.5347 30.381C71.6137 30.2464 71.8183 30.1692 71.9799 30.0974C73.8504 29.2824 75.7837 28.909 77.8014 29.408C78.252 29.5193 78.6792 29.7689 79.0796 30.0148C79.286 30.1404 79.4116 30.3971 79.505 30.5102V30.5066Z" fill="#1C1C1A"/>
<path d="M118.195 116.2C118.581 114.488 118.96 112.775 119.351 111.064C120.101 107.783 120.855 104.503 121.616 101.223C121.724 100.76 121.869 100.304 122 99.8466C122.675 97.4699 124.445 96.3103 126.892 96.7285C130.71 97.382 134.521 98.0892 138.336 98.7642C139.598 98.9868 140.871 99.1573 142.133 99.3817C144.28 99.7641 145.511 100.864 145.832 102.835C145.944 103.518 145.841 104.27 145.683 104.954C144.569 109.802 143.386 114.635 142.285 119.487C141.811 121.576 140.671 122.986 138.521 123.244C137.487 123.368 136.388 123.113 135.338 122.925C130.883 122.122 126.434 121.278 121.984 120.456C120.765 120.232 119.737 119.733 118.997 118.677C118.471 117.925 118.256 117.128 118.197 116.202L118.195 116.2ZM119.692 115.712C119.681 117.514 120.3 118.46 121.51 118.909C121.983 119.083 122.485 119.187 122.982 119.277C127.233 120.042 131.486 120.794 135.738 121.551C136.178 121.63 136.614 121.727 137.054 121.803C139.162 122.158 140.434 121.336 140.93 119.245C142.116 114.227 143.287 109.206 144.457 104.185C144.825 102.602 144.078 101.304 142.51 100.891C141.707 100.68 140.871 100.599 140.048 100.457C135.672 99.7048 131.29 98.9814 126.919 98.1898C124.587 97.7679 123.528 98.8755 123.101 100.868C122.345 104.394 121.491 107.898 120.679 111.411C120.311 113.005 119.947 114.601 119.69 115.712H119.692Z" fill="#1C1C1A"/>
<path d="M133.021 69.1381C134.491 69.3643 135.961 69.5887 137.431 69.8185C140.786 70.3444 144.141 70.8722 147.496 71.4035C148.232 71.5202 148.979 71.6046 149.697 71.7949C151.641 72.3083 152.934 74.2003 152.598 76.2575C152.264 78.3111 151.756 80.3396 151.295 82.3716C150.537 85.7105 149.789 89.053 148.974 92.3794C148.403 94.704 146.522 95.8475 144.174 95.4526C139.239 94.6232 134.297 93.8388 129.369 92.9771C128.452 92.8174 127.472 92.5553 126.709 92.0544C125.067 90.9792 124.857 89.2864 125.264 87.5074C126.074 83.9657 126.921 80.4329 127.766 76.9002C128.147 75.3079 128.501 73.7067 128.974 72.1413C129.491 70.4306 131.068 69.0753 133.021 69.1399V69.1381ZM145.333 94.2139C145.558 94.1547 145.884 94.1044 146.181 93.986C147.213 93.5695 147.572 92.6881 147.798 91.6811C148.419 88.9184 149.09 86.1683 149.715 83.4074C150.248 81.0558 150.785 78.7024 151.243 76.3347C151.568 74.6581 150.55 73.3333 148.862 73.0748C148.362 72.9976 147.857 72.9437 147.356 72.863C142.768 72.1144 138.182 71.3605 133.593 70.6101C131.924 70.3372 130.665 71.1038 130.131 72.7212C130.046 72.9743 129.991 73.2381 129.928 73.4984C129.287 76.2252 128.642 78.9502 128.011 81.6787C127.499 83.8849 126.928 86.0803 126.524 88.3045C126.188 90.1462 127.036 91.1659 128.91 91.4836C132.73 92.1316 136.548 92.7832 140.368 93.4223C141.984 93.6934 143.605 93.9393 145.331 94.2121L145.333 94.2139Z" fill="#1C1C1A"/>
<path d="M119.692 115.712C119.947 114.6 120.313 113.005 120.681 111.411C121.493 107.898 122.349 104.394 123.103 100.868C123.53 98.8753 124.589 97.7678 126.921 98.1896C131.29 98.9813 135.672 99.7047 140.05 100.457C140.872 100.599 141.709 100.679 142.511 100.891C144.08 101.304 144.829 102.602 144.459 104.185C143.289 109.206 142.118 114.227 140.932 119.244C140.436 121.336 139.164 122.16 137.056 121.802C136.616 121.729 136.18 121.63 135.74 121.551C131.488 120.794 127.235 120.041 122.984 119.277C122.487 119.187 121.983 119.083 121.512 118.909C120.302 118.46 119.683 117.514 119.694 115.712H119.692ZM126.354 107.959C125.397 107.93 125.054 108.458 125.363 109.134C126.241 111.059 127.158 112.967 127.998 114.909C128.414 115.873 129.041 116.046 129.829 115.319C130.971 114.265 132.121 113.224 133.281 112.191C135.424 110.283 137.582 108.393 139.718 106.478C140.266 105.988 140.345 105.463 140.022 105.072C139.691 104.672 139.023 104.645 138.478 105.025C138.185 105.23 137.902 105.453 137.629 105.684C134.99 107.93 132.355 110.181 129.718 112.428C129.048 112.997 129.048 112.992 128.668 112.166C128.142 111.03 127.635 109.885 127.065 108.772C126.881 108.413 126.521 108.145 126.354 107.96V107.959Z" fill="#F1B069"/>
<path d="M145.333 94.2135C143.606 93.9388 141.985 93.6929 140.37 93.4236C136.55 92.7846 132.73 92.1329 128.912 91.4849C127.038 91.1672 126.19 90.1476 126.526 88.3058C126.932 86.0798 127.503 83.8844 128.012 81.68C128.644 78.9515 129.289 76.2265 129.93 73.4997C129.991 73.2395 130.048 72.9756 130.132 72.7225C130.667 71.1033 131.926 70.3368 133.595 70.6114C138.183 71.3618 142.77 72.1157 147.358 72.8643C147.859 72.9451 148.363 72.9989 148.864 73.0761C150.552 73.3346 151.57 74.6594 151.245 76.336C150.785 78.7038 150.25 81.0571 149.717 83.4087C149.092 86.1696 148.419 88.9197 147.8 91.6824C147.574 92.6912 147.215 93.5726 146.182 93.9873C145.884 94.1075 145.559 94.1578 145.335 94.2153L145.333 94.2135ZM139.345 75.4079C138.743 75.5587 138.113 75.6377 137.548 75.8729C136.521 76.3001 135.733 77.0146 135.39 78.1203C135.193 78.7558 135.502 79.122 136.063 79.3913C136.641 79.6677 137.044 79.49 137.367 79.0089C137.516 78.7881 137.604 78.526 137.749 78.3016C138.253 77.5244 139.181 77.1151 139.973 77.2856C140.795 77.4633 141.3 77.9713 141.465 78.772C141.664 79.7341 141.33 80.5473 140.578 81.1613C140.14 81.5185 139.596 81.7572 139.194 82.1468C138.514 82.802 137.824 83.4769 137.295 84.2506C136.814 84.9525 137.164 85.4857 138.013 85.6113C138.523 85.6867 138.869 85.4875 139.129 85.0548C139.668 84.1609 140.429 83.5182 141.352 83.0318C141.797 82.7966 142.213 82.4878 142.598 82.1593C144.475 80.5527 144.475 77.7811 142.589 76.4222C141.635 75.7346 140.524 75.5282 139.343 75.4061L139.345 75.4079ZM137.553 89.4008C138.363 89.4008 138.91 88.8623 138.909 88.0688C138.907 87.419 138.288 87.0384 137.205 87.0205C136.462 87.0079 135.97 87.4854 135.954 88.2304C135.94 88.9448 136.561 89.4008 137.553 89.4008Z" fill="#F1B069"/>
<path d="M126.354 107.959C126.522 108.146 126.881 108.413 127.065 108.77C127.635 109.883 128.142 111.029 128.668 112.165C129.05 112.991 129.05 112.996 129.718 112.427C132.357 110.181 134.99 107.93 137.629 105.683C137.902 105.451 138.185 105.229 138.478 105.024C139.024 104.643 139.691 104.67 140.022 105.071C140.345 105.46 140.264 105.986 139.718 106.476C137.582 108.392 135.424 110.282 133.281 112.19C132.121 113.222 130.969 114.265 129.829 115.317C129.041 116.044 128.414 115.872 127.998 114.908C127.158 112.967 126.241 111.059 125.363 109.133C125.054 108.456 125.397 107.929 126.354 107.957V107.959Z" fill="#1C1C1A"/>
<path d="M139.345 75.4082C140.526 75.5303 141.637 75.7367 142.59 76.4242C144.475 77.7849 144.477 80.5548 142.599 82.1614C142.215 82.4899 141.799 82.7987 141.354 83.0338C140.431 83.5203 139.67 84.1629 139.131 85.0569C138.871 85.4877 138.524 85.6888 138.015 85.6134C137.167 85.4877 136.817 84.9546 137.297 84.2527C137.826 83.479 138.515 82.804 139.196 82.1488C139.6 81.7611 140.142 81.5205 140.58 81.1633C141.332 80.5494 141.666 79.7362 141.467 78.774C141.301 77.9752 140.795 77.4654 139.975 77.2877C139.183 77.1171 138.255 77.5246 137.751 78.3037C137.605 78.5281 137.517 78.7884 137.368 79.011C137.045 79.4921 136.643 79.6698 136.065 79.3933C135.503 79.1241 135.194 78.7579 135.392 78.1224C135.735 77.0184 136.523 76.3022 137.55 75.8749C138.115 75.6398 138.745 75.559 139.347 75.41L139.345 75.4082Z" fill="#1C1C1A"/>
<path d="M137.553 89.4011C136.561 89.4011 135.939 88.9451 135.954 88.2307C135.97 87.4839 136.462 87.0082 137.205 87.0208C138.287 87.0387 138.907 87.4193 138.909 88.0691C138.912 88.8625 138.363 89.4029 137.553 89.4011Z" fill="#1C1C1A"/>
</svg>
