<svg width="170" height="175" viewBox="0 0 170 175" fill="none" xmlns="http://www.w3.org/2000/svg">
<path d="M130.688 168.971C130.741 169.905 130.806 171.62 130.093 171.62C127.222 172.075 121.69 172.986 98.6059 173.639C95.5744 174.028 50.0588 172.253 51.9064 168.981C51.9361 156.596 52.0121 144.211 51.9823 131.826C51.9592 122.317 51.4823 112.815 51.5087 103.304C51.5087 102.821 51.5219 102.337 51.5268 101.852C51.5301 101.558 51.4295 101.332 51.1093 101.349C50.8073 101.365 50.8073 101.623 50.799 101.855C50.766 102.793 50.7066 103.733 50.7033 104.672C50.6868 109.74 50.8518 114.804 50.9987 119.87C51.0103 120.28 50.9723 120.623 50.6521 120.941C45.8066 125.738 40.9148 130.479 35.3332 134.372C31.8773 136.782 28.2497 138.793 23.995 139.193C19.8443 139.583 15.5368 137.86 13.3764 133.572C12.0907 131.024 11.6666 128.278 11.5808 125.455C11.3959 119.415 12.4703 113.519 13.6223 107.647C14.9179 101.04 16.6112 94.5322 18.3424 88.0347C18.5537 87.24 18.7765 86.4487 19.0075 85.6045C20.8741 88.1287 23.353 89.3027 26.1867 89.677C28.9693 90.0444 31.6627 89.6274 34.1532 88.0637C34.1367 89.2976 33.899 90.4016 33.8346 91.5278C33.6713 94.3545 33.4171 97.176 33.1992 99.9993C32.7602 105.67 32.9698 111.361 32.7239 117.04C32.6134 119.581 32.4137 122.093 32.0027 124.595C31.9483 124.928 31.7535 125.325 32.2552 125.402C32.6876 125.468 32.6563 125.046 32.719 124.75C33.1926 122.524 33.4617 120.266 33.5112 117.991C33.6036 113.722 33.6399 109.452 33.6993 105.181C33.7043 104.844 33.6894 104.533 33.9535 104.238C37.5332 100.259 41.1013 96.272 44.6629 92.2764C44.9352 91.9705 45.1019 91.8765 45.4303 92.2319C45.9238 92.7634 46.4832 93.2317 47.0279 93.7085C50.1257 96.4207 53.6113 98.4919 57.2867 100.211C59.5263 101.259 61.85 102.108 64.1325 103.057C65.2581 103.525 66.2764 104.174 67.1643 105.039C67.4911 105.357 67.5587 105.584 67.2567 106.022C66.4266 107.22 66.4909 107.893 67.3211 109.088C70.0492 113.008 72.8284 116.887 75.6539 120.733C81.3543 128.486 87.3238 135.996 94.338 142.538C99.2149 147.085 104.674 150.695 110.852 153.041C116.084 155.029 120.982 154.406 125.403 150.724C129.07 147.67 129.082 143.914 131.178 139.604C131.26 139.433 133.881 139.085 134.193 139.026C131.318 140.368 131.374 141.593 131.308 142.81C131.086 146.92 130.833 151.032 130.741 155.147C130.638 159.754 130.699 164.367 130.688 168.976V168.971Z" fill="#F1B069"/>
<path d="M89.9528 81.3767C90.8787 81.5664 91.8045 81.5835 92.7304 81.3681C95.0393 81.2759 97.2822 80.8144 99.4293 79.9497C103.963 78.1211 107.642 75.2466 109.83 70.6015C109.99 70.2615 109.998 70.123 109.642 69.9333C108.454 69.3044 107.635 68.3115 107.087 67.052C106.11 64.8047 105.744 62.4241 105.59 59.9922C105.59 58.9104 105.59 57.8286 105.59 56.7468C105.636 54.8447 105.795 52.9546 106.148 51.0832C106.252 50.5295 106.531 50.251 107.072 50.4697C108.921 51.2131 110.398 50.4253 111.685 49.1828C114.334 46.6262 115.22 43.3603 114.819 39.7356C114.468 36.5603 111.73 35.687 109.672 36.5005C108.469 36.9756 107.587 37.842 107.11 39.1101C107.006 39.3887 106.871 39.6587 106.513 39.4775C106.188 39.3135 106.229 39.0315 106.344 38.7478C106.397 38.6179 106.445 38.4778 106.529 38.3684C106.874 37.9224 106.671 37.7651 106.245 37.543C101.882 35.258 99.3353 31.5427 98.3549 26.6311C98.2856 26.2808 98.2081 26.1799 97.8367 26.2107C95.0872 26.4346 92.3442 26.4687 89.6079 25.9851C86.5728 25.4485 83.6153 24.6453 80.8493 23.2319C77.867 21.7075 74.9788 19.9917 72.6584 17.4795C72.0048 16.772 71.6582 16.8523 71.0608 17.3889C65.8654 22.0613 63.7331 28.0068 64.309 35.0222C64.5698 38.206 65.022 41.3745 65.39 44.5498C65.6838 47.0859 66.07 49.6067 66.5569 52.112C66.674 52.7136 66.9315 52.876 67.4943 52.8435C68.4268 52.7905 69.3625 52.8196 70.2983 52.8179C71.7688 52.8161 72.4818 53.5237 72.4818 55.0259C72.4818 57.844 72.4768 60.6638 72.4356 63.4819C72.429 63.9809 72.5478 64.345 72.8795 64.6919C76.6853 68.6618 81.2833 70.3657 86.6289 69.6633C91.4134 69.0344 95.343 66.635 98.6157 63.0205C98.8154 62.8 98.9623 62.3318 99.3716 62.7522C99.7495 63.1384 99.3683 63.376 99.1669 63.5981C94.6498 68.5901 89.1491 71.0886 82.4897 70.5588C82.0441 70.5229 82.0656 70.634 82.0474 70.9502C81.9979 71.7722 81.9336 72.5942 81.8609 73.4162C81.8098 73.9768 81.7372 74.4912 81.2718 74.9321C80.4713 75.6892 80.3327 76.5676 80.9862 77.581C81.3757 78.1843 81.8279 78.6885 82.3907 79.0764C84.6782 80.6572 87.261 81.2212 89.9578 81.3801L89.9528 81.3767ZM73.2591 73.946C75.5812 77.9604 77.055 82.1491 77.9016 86.5788C78.2878 88.6023 78.707 90.5744 80.336 92.0237C80.8129 92.4492 81.2387 92.7038 81.851 92.6252C82.6267 92.5278 83.2258 92.8406 83.7374 93.4404C84.9736 94.8931 86.2411 96.3166 87.4789 97.7659C92.3624 103.489 97.373 109.074 103.303 113.683C106.574 116.225 109.828 118.79 113.161 121.399C113.309 120.919 113.435 120.553 113.539 120.181C115.25 113.991 116.428 107.664 118.009 101.44C119.288 96.4055 121.081 91.6186 124.266 87.5034C125.753 85.5825 127.413 83.8547 129.501 82.6243C129.755 82.4739 130.051 82.2517 130.259 82.6875C130.417 83.019 130.16 83.125 129.94 83.2549C127.72 84.5571 126.007 86.4387 124.472 88.4963C121.36 92.668 119.737 97.5266 118.498 102.561C117.126 108.129 116.022 113.764 114.549 119.306C114.319 120.171 113.619 121.184 113.992 121.866C114.38 122.575 115.54 122.667 116.4 122.944C119.685 124.002 122.304 126.02 124.307 128.902C124.484 129.155 124.845 129.473 124.456 129.777C124.043 130.096 123.898 129.62 123.721 129.367C123.111 128.485 122.428 127.67 121.652 126.94C120.178 125.554 118.511 124.518 116.379 123.811C117.211 124.547 117.82 125.157 118.386 125.817C120.16 127.883 121.224 130.368 122.269 132.86C122.386 133.14 122.461 133.603 122.048 133.742C121.657 133.873 121.571 133.475 121.47 133.183C121.424 133.05 121.378 132.916 121.332 132.783C120.031 129.056 117.971 125.913 114.831 123.568C112.359 121.722 109.918 119.831 107.47 117.951C102.832 114.389 98.2526 110.747 94.1927 106.477C90.4314 102.519 86.9541 98.2871 83.3298 94.1975C83.14 93.9822 82.9766 93.7139 82.6878 93.6335C80.1247 101.162 75.9228 106.858 67.8656 108.572C70.229 111.868 72.5742 115.158 74.9392 118.431C79.9135 125.313 85.1221 131.992 90.948 138.134C96.6666 144.163 103.08 149.128 110.769 152.168C113.88 153.398 117.057 153.769 120.277 152.746C123.568 151.7 126.03 149.401 128.247 146.79C132.104 142.249 134.616 136.915 136.276 131.204C139.22 121.073 141.556 110.79 142.604 100.232C142.864 97.612 143.049 95.0059 142.772 92.3757C142.102 86.0303 139.154 81.3271 133.492 78.6235C126.318 75.197 118.765 72.8694 111.226 70.5041C110.741 70.352 110.685 70.5879 110.532 70.916C109.589 72.9326 108.371 74.7629 106.741 76.2344C100.735 81.6553 93.7751 83.3266 86.043 81.6484C83.947 81.1938 82.0573 80.1958 80.6264 78.4646C79.4233 77.0102 79.425 75.7558 80.6529 74.3835C81.0572 73.9324 81.077 73.4675 81.0457 72.8865C78.443 73.2402 75.8997 73.5837 73.2591 73.9426V73.946ZM115.75 40.6738C116.74 39.2246 117.465 37.8147 117.968 36.2937C118.973 33.2551 119.44 30.1995 118.354 27.0481C117.656 25.0247 116.532 23.3088 115.108 21.7878C113.945 20.5471 113.042 19.1663 112.494 17.5085C111.903 15.7226 110.961 14.1179 109.802 12.655C106.452 8.42016 101.996 6.2019 96.9241 5.15942C93.2189 4.39721 89.494 4.40917 85.7872 5.15942C81.2354 6.08227 77.0699 7.84936 73.7179 11.3101C73.5413 11.4929 73.373 11.633 73.0924 11.6553C70.9931 11.8193 69.1249 12.6414 67.4002 13.8513C63.6753 16.4661 61.0792 19.8464 60.49 24.6299C60.0609 28.1145 61.2558 32.4963 63.3881 34.9624C63.3188 32.1204 63.3271 29.3125 64.21 26.5884C65.5501 22.4458 67.6874 18.8877 71.1384 16.2712C71.3199 16.1345 71.4371 16.0286 71.4783 15.7568C71.5642 15.1946 71.8959 15.1074 72.2326 15.5671C72.7343 16.249 73.2674 16.8984 73.8863 17.4641C76.5021 19.8601 79.4778 21.6614 82.6845 23.0593C85.7377 24.3906 88.9378 25.0845 92.2386 25.3323C94.9782 25.5391 97.708 25.657 100.362 24.7085C100.609 24.6196 100.845 24.488 100.986 24.8196C101.118 25.1323 100.991 25.3852 100.694 25.51C100.39 25.6382 100.08 25.7612 99.7594 25.8279C99.261 25.9304 99.0267 26.1064 99.1752 26.7183C100.241 31.0779 102.39 34.5591 106.419 36.5945C107.102 36.9397 107.533 36.8525 108.134 36.3586C110.916 34.0669 114.697 35.4563 115.567 39.0247C115.686 39.5134 115.715 40.009 115.748 40.6704L115.75 40.6738ZM41.8588 85.1023C41.7201 86.3447 41.938 86.9958 42.8573 88.1973C46.1316 92.48 50.3088 95.5989 54.9299 98.1111C57.1216 99.3022 59.4404 100.217 61.7427 101.158C64.3321 102.216 66.9464 103.176 68.8014 105.583C70.1815 107.375 70.309 107.304 72.2611 106.224C72.2675 106.22 72.274 106.217 72.2804 106.213C76.819 103.703 79.628 99.697 81.4401 94.8247C81.582 94.4419 81.3807 94.3496 81.1876 94.1411C80.336 93.2234 79.453 92.3262 78.6856 91.335C77.6013 89.937 77.4049 88.1784 77.0748 86.4934C76.1737 81.8962 74.6405 77.5639 72.1005 73.6538C71.1631 72.2097 70.4567 70.6528 69.8164 69.0566C69.0952 67.2553 68.5769 65.3669 67.6527 63.6545C67.3639 63.1196 67.0058 62.6513 66.3192 62.6924C65.6145 62.7351 65.2762 63.2324 65.0088 63.8203C64.6523 64.6064 64.583 65.4541 64.5599 66.2983C64.4889 68.884 65.3686 71.2373 66.2598 73.5871C66.8655 75.185 67.2913 76.8086 67.0668 78.5637C66.9612 79.3874 66.5668 79.842 65.8059 80.0129C64.38 80.3325 62.9673 80.177 61.5595 79.8933C58.4617 79.2695 55.5983 77.9639 52.72 76.6821C51.1983 76.0036 49.8186 74.9868 48.1699 74.6125C46.1811 74.1614 44.4383 73.2214 42.9827 71.7483C42.679 71.4407 42.377 71.3945 42.0189 71.4731C40.654 71.7722 40.248 73.23 41.2547 74.3562C42.0766 75.2756 43.0504 76.0276 44.0208 76.7744C46.6102 78.7705 49.3466 80.5137 52.2876 81.8996C53.7531 82.5901 55.2352 83.2446 56.704 83.9299C56.9466 84.0427 57.2454 84.2051 57.0803 84.5674C56.9417 84.8699 56.7073 84.8921 56.3987 84.7468C53.6376 83.4565 50.8336 82.2619 48.221 80.6538C45.3262 78.8713 42.5305 76.9538 40.1391 74.4621C40.1094 74.5066 40.0516 74.5681 40.0252 74.6416C39.9889 74.7475 39.9724 74.8603 39.9526 74.9714C39.6869 76.5488 40.3272 77.8032 41.3108 78.9072C42.7879 80.5649 44.4697 81.9851 46.1894 83.3608C48.9571 85.574 51.9988 87.3069 55.1609 88.8227C55.4828 88.9765 55.8112 89.1457 55.6329 89.5627C55.42 90.0652 55.0817 89.7148 54.8176 89.5867C53.1871 88.7937 51.5581 87.9922 50.015 87.0266C46.7142 84.9604 43.6346 82.5969 40.9461 79.7173C40.6342 79.384 40.5236 79.3669 40.2364 79.7429C39.6968 80.4504 40.0697 81.052 40.3866 81.6245C41.4297 83.5181 42.8259 85.1228 44.3608 86.6011C47.1301 89.2671 50.2477 91.4221 53.565 93.2798C53.8571 93.4438 54.3522 93.543 54.0816 94.0437C53.8109 94.541 53.4561 94.1462 53.1722 93.9907C51.6736 93.1636 50.2164 92.2646 48.8069 91.2803C46.2983 89.5285 43.9911 87.5342 41.8604 85.0989L41.8588 85.1023ZM27.7314 89.0244C29.3934 88.98 30.9266 88.7099 32.3954 88.1186C32.6793 88.0041 33.011 87.9324 33.0209 87.4538C33.0407 86.3738 33.1233 85.2954 33.1728 84.217C33.181 84.0205 33.2239 83.7077 33.1282 83.6428C32.1 82.9404 33.0176 82.7661 33.4203 82.5285C34.5872 81.8432 35.7424 81.1391 36.8152 80.3C37.4357 79.8147 37.9275 79.2165 38.284 78.5022C38.459 78.1501 38.4276 77.9621 37.9622 77.9741C36.8647 78.0032 35.7639 77.9895 34.6647 77.9878C33.8148 77.9878 33.0803 77.7297 32.7057 76.8701C32.6067 76.6445 32.5308 76.5505 32.303 76.5898C30.6444 76.8718 29.7763 75.8157 29.1095 74.4997C28.6342 73.5615 28.1292 72.6626 27.3386 71.967C26.5712 71.292 25.7559 70.8699 24.703 71.2202C24.4042 71.3193 24.0445 71.2851 23.7243 71.2322C23.5312 71.1997 23.2935 71.0476 23.3414 70.769C23.3826 70.5264 23.5378 70.3845 23.8084 70.3948C24.1088 70.4067 24.4306 70.446 24.7096 70.3572C25.9325 69.9709 26.8996 70.47 27.8139 71.2305C28.6656 71.9397 29.2745 72.8335 29.74 73.8469C30.0123 74.4382 30.339 74.9988 30.849 75.4106C31.8508 76.219 33.3279 75.6567 33.5045 74.3545C33.7207 72.7737 33.351 71.2834 32.4119 70.0427C31.4646 68.7917 30.3556 67.6741 29.2217 66.594C28.3569 65.7702 27.3947 65.1499 26.1834 65.0559C24.6947 64.9397 23.2985 65.3584 21.9485 65.9172C19.5521 66.9101 19.5752 66.541 19.7815 69.4873C20.001 72.6233 20.4466 75.7456 20.9995 78.8406C21.4055 81.1135 20.9995 83.3078 20.5737 85.5056C20.4747 86.0149 20.5918 86.2815 20.9549 86.5823C22.9668 88.2434 25.2905 88.9304 27.7298 89.0227L27.7314 89.0244ZM68.2898 62.9316V62.9297C68.2898 60.3106 68.2931 57.8998 68.2898 55.4873C68.2865 54.1714 67.897 53.7715 66.6047 53.7698C64.5979 53.7663 62.5893 53.7578 60.5825 53.7971C59.9916 53.8091 59.7077 53.6177 59.5477 53.0144C59.3249 52.177 58.9849 51.3738 58.7093 50.55C58.5673 50.1228 58.3412 49.9365 57.8659 49.9399C54.7038 49.9604 51.5416 49.9553 48.3795 49.9331C47.8827 49.9297 47.6005 50.133 47.442 50.5791C47.178 51.3259 46.8941 52.0676 46.6763 52.8298C46.4749 53.5373 46.1085 53.8091 45.3675 53.7988C42.509 53.7561 39.6472 53.7868 36.7888 53.7868C36.122 53.7868 35.4718 53.8347 34.9024 54.2602C34.0854 54.8721 34.1135 55.2292 34.8001 55.959C37.2278 58.5361 40.4246 60.604 40.3916 64.9243C40.6375 64.5381 40.5665 64.1894 40.5995 63.8613C40.9544 60.2622 42.448 57.3467 45.6382 55.6958C48.1913 54.3747 50.9293 53.7988 53.8439 54.1235C55.5075 54.3098 57.0737 54.6516 58.4617 55.612C62.0695 58.1072 63.6043 62.7932 62.2923 67.3869C61.1799 71.2783 58.8462 73.823 54.8127 74.4365C53.5831 74.6228 52.3751 74.9612 51.0977 74.9082C52.6144 75.6704 54.141 76.3591 55.6758 77.0273C55.8689 77.1111 56.1066 77.1025 56.3244 77.1025C58.2488 77.1008 60.1748 77.0871 62.0992 77.082C63.4937 77.0786 64.89 77.082 66.2928 77.082C66.1773 75.8891 65.8257 74.845 65.4396 73.811C65.4198 73.7581 65.4001 73.7052 65.3804 73.6523C64.8072 72.1158 64.2329 70.5763 63.9394 68.949C63.5977 67.052 63.4558 65.1482 64.2991 63.3486C65.1597 61.51 66.7564 61.2829 68.2898 62.9297C68.2914 62.9315 68.2931 62.9333 68.2947 62.935L68.2898 62.9316ZM33.7966 103.245C37.2789 99.3296 40.6309 95.5425 44.0142 91.7827C44.4119 91.3418 44.402 91.1316 43.9845 90.7334C43.0768 89.8669 42.306 88.8655 41.6426 87.7854C41.2448 87.1377 40.7613 86.3994 41.0253 85.6543C41.3884 84.634 41.0402 83.9504 40.446 83.2412C40.215 82.966 40.0433 82.6345 39.8585 82.3201C39.1686 81.1477 38.8336 79.9736 39.9493 78.8645C40.1721 78.6423 40.0268 78.5056 39.9295 78.3723C39.7908 78.1843 39.7034 77.9006 39.3749 77.9587C39.1538 77.998 39.167 78.1621 39.1208 78.3279C38.8617 79.2558 38.3319 80.0078 37.6222 80.6128C36.7393 81.3647 35.8414 82.1098 34.805 82.6243C34.1614 82.9438 33.7983 83.3318 34.0029 84.1111C34.1118 84.5298 33.7719 85.1074 34.2274 85.3723C34.9651 85.803 35.0427 86.4609 34.9915 87.1889C34.8875 88.7202 34.7802 90.2515 34.6334 91.7776C34.2703 95.5391 33.9683 99.3039 33.795 103.247L33.7966 103.245ZM59.0492 64.345C59.409 59.2864 55.0933 55.3642 50.3121 55.3711C45.0457 55.3796 41.2943 59.4761 41.3009 65.1841C41.3059 70.4665 45.351 73.8743 50.0563 73.9682C55.7633 74.0827 59.2853 69.0036 59.0492 64.345ZM20.0208 65.8437C20.4004 65.6677 20.7107 65.5122 21.0308 65.3806C26.4359 63.1367 28.3074 64.1467 31.1774 67.3681C32.1429 68.4516 33.0539 69.595 34.1977 70.5007C35.2209 71.3108 36.5412 71.1108 37.033 70.0307C37.4077 69.2087 37.0248 67.1819 36.3267 66.6333C35.749 66.1804 35.3001 65.6147 34.8182 65.073C33.5903 63.699 32.5506 62.1335 31.1065 60.9783C29.7334 59.8777 28.177 59.4846 26.4903 60.0503C25.5331 60.3716 24.6303 60.862 23.6748 61.185C21.5045 61.9148 20.4978 63.5896 20.0208 65.8454V65.8437ZM22.2241 60.8757L22.2259 60.875C22.8953 60.6018 23.5202 60.3337 24.1534 60.0879C25.2492 59.6623 26.2989 59.0574 27.4905 58.9651C29.5898 58.8027 31.2748 59.7085 32.6562 61.2773C33.8395 62.6223 34.9717 64.0151 36.1616 65.355C36.9439 66.2351 37.6321 66.3017 38.7296 65.7053C39.4789 65.2986 39.7413 64.4201 39.4987 63.4067C39.1653 62.0054 38.2692 60.968 37.4407 59.8743C36.4075 58.5105 35.0245 57.5312 33.8593 56.311C32.6001 54.9917 31.0256 54.2671 29.1904 54.9114C27.3337 55.5642 25.68 56.6682 24.1798 57.9311C24.1652 57.9434 24.1506 57.9557 24.136 57.968C23.2939 58.676 22.3469 59.4722 22.2259 60.875L22.2257 60.8774L22.2241 60.8757ZM27.1208 54.9336L27.1232 54.9322C28.4905 54.1349 29.8283 53.5956 31.2765 53.8843C31.935 54.0159 32.3014 53.9441 32.5786 53.3288C32.6809 53.1015 32.8608 52.9118 32.9879 52.6931C33.7537 51.3772 34.8545 50.779 36.3531 50.8696C37.5579 50.9414 38.7692 50.9038 39.9773 50.9209C40.4774 50.9277 40.9643 50.8423 41.4247 50.6543C42.1756 50.3484 42.2994 49.8511 41.7994 49.2034C41.3389 48.6069 40.7018 48.2873 40.0285 48.0259C38.2989 47.3559 36.5033 47.2312 34.6845 47.3577C32.2518 47.5268 30.3275 48.5266 29.2151 50.9192C28.5997 52.2415 27.8722 53.5075 27.1232 54.9322L27.1224 54.9336H27.1208ZM42.0535 70.6101C41.2168 69.2566 40.6655 67.8261 40.5005 66.2488C40.4741 65.989 40.5154 65.6096 40.1836 65.5327C39.8948 65.466 39.8453 65.8523 39.6572 65.9993C39.4822 66.136 39.3056 66.2744 39.1521 66.4333C38.7329 66.8674 37.8318 66.6213 37.7064 67.1426C37.5876 67.633 37.9787 68.2637 38.0002 68.8686C38.0777 71.0202 36.6419 72.3157 34.7852 71.7585C34.564 71.6919 34.3544 71.5842 34.0772 71.468C34.1614 71.8423 34.267 72.1345 34.2901 72.4353C34.3776 73.5581 34.5921 74.6963 33.8181 75.6994C33.3197 76.3437 33.4814 76.8223 34.2703 76.9282C35.9223 77.1521 37.5859 77.0051 39.266 77.0581C39.0184 75.7678 38.8831 74.592 39.7083 73.5547C39.7743 73.4726 39.8238 73.3513 39.8271 73.2453C39.8701 71.7585 40.6804 70.957 42.0552 70.6101H42.0535ZM72.3448 65.3755V65.3771C72.3448 67.1196 72.3398 68.6794 72.3464 70.2375C72.3497 70.9485 72.3415 71.6645 72.4075 72.3703C72.462 72.9411 72.6518 73.2949 73.3994 73.1702C75.8057 72.7651 78.2251 72.4455 80.6462 72.1499C81.1397 72.0901 81.3064 71.885 81.1777 71.48C81.0456 71.0613 81.6579 70.3982 80.7139 70.2187C79.4266 69.9743 78.1822 69.5556 77.0071 68.9148C75.326 68.0008 73.8329 66.8324 72.3448 65.3771L72.3431 65.3755H72.3448ZM53.06 54.8977C57.1793 56.4306 59.4849 58.9292 59.886 63.0273C60.3101 67.3613 58.8578 71.0014 55.156 73.4333C59.6186 72.8762 62.4837 67.5954 61.7724 62.3762C61.2228 58.3379 57.4797 54.8994 53.06 54.896V54.8977ZM71.4734 70.7673C71.4734 68.8362 71.4585 67.0554 71.4767 65.2763C71.5097 61.8926 71.5675 58.5105 71.5988 55.1267C71.6087 54.1133 71.3645 53.8808 70.3957 53.8757C69.922 53.8723 69.4467 53.8757 68.9367 53.8757C69.313 54.397 69.2239 54.978 69.2206 55.5386C69.2041 58.4097 69.176 61.2825 69.1579 64.1535C69.1562 64.4355 69.1249 64.7449 69.219 64.9961C69.9303 66.8811 70.5376 68.8122 71.4717 70.7673H71.4734ZM106.348 58.0508C108.498 56.0325 109.881 53.6621 110.946 50.8884C109.8 51.5566 108.695 51.8301 107.576 51.5481C106.937 51.3865 106.896 51.6827 106.838 52.0996C106.836 52.1105 106.835 52.1215 106.833 52.1325C106.567 54.0398 106.427 55.959 106.346 58.0508H106.348ZM58.3957 78.0425C58.3985 78.0436 58.4013 78.0447 58.4041 78.0459C60.5238 78.9036 62.6831 79.4573 64.9659 79.3105C65.3009 79.2883 65.6178 79.2268 65.9198 79.0935C66.2879 78.9311 66.2004 78.5774 66.1921 78.2783C66.1822 77.9724 65.9396 78.0459 65.7597 78.0459C63.3056 78.0442 60.8515 78.0459 58.3973 78.0459L58.3957 78.0425ZM62.9953 52.7649C62.5844 51.9514 62.185 51.1841 61.807 50.4065C61.6536 50.0903 61.4522 49.9502 61.1023 49.9673C60.5726 49.9946 60.0411 49.9741 59.4486 49.9741C59.5757 50.2681 59.6615 50.4731 59.7523 50.6731C60.0626 51.3601 60.0461 52.3889 60.6485 52.6948C61.2657 53.0075 62.1454 52.7649 62.9953 52.7649ZM37.269 51.9275C37.5199 52.1924 37.0528 52.7529 37.6717 52.7666C39.0713 52.7991 40.4724 52.7768 41.9215 52.7768C41.5716 51.9702 41.5551 51.9394 40.8669 51.9309C39.7215 51.9155 38.5745 51.9275 37.2707 51.9275H37.269ZM35.8893 51.7976C34.8 51.8164 33.2239 53.2348 32.9533 54.3252C32.8889 54.5815 33.0358 54.6123 33.1365 54.6994C33.4005 54.9285 33.3774 54.5815 33.4187 54.5012C33.96 53.4587 34.8809 53.0298 35.9339 52.8435C36.2821 52.782 36.5396 52.7939 36.4983 52.2864C36.457 51.772 36.1715 51.7788 35.8893 51.7976ZM69.1826 107.446C68.7865 107.011 68.4152 106.605 68.0191 106.172C67.8953 106.412 67.7617 106.624 67.6692 106.853C67.3606 107.615 67.4514 107.741 68.2254 107.63C68.5456 107.584 68.8625 107.509 69.1843 107.446H69.1826Z" fill="#1C1C1A"/>
<path fill-rule="evenodd" clip-rule="evenodd" d="M51.1719 168.666C51.1554 168.468 51.1686 168.268 51.1686 168.068C51.1983 157.305 51.2743 146.542 51.233 135.781C51.2148 131.122 51.2544 126.456 50.9656 121.733C49.5942 123.062 48.2755 124.368 46.9271 125.639C42.816 129.52 38.6092 133.279 33.8395 136.291C30.9926 138.089 27.9905 139.539 24.6452 139.896C19.326 140.463 14.8567 138.629 12.3349 133.244C11.4404 131.335 11.0641 129.213 10.9189 127.083C10.5377 121.509 11.3117 116.031 12.3003 110.578C13.7262 102.713 15.7116 94.987 17.7598 87.2778C17.9529 86.5515 18.0717 85.8098 18.3226 85.0954C18.5817 84.3537 18.9282 83.7505 19.7765 83.7334C20.1627 83.7265 20.1099 83.4822 20.1561 83.2309C20.4813 81.4673 20.2684 79.7309 19.996 77.9844C19.6231 75.6072 19.3161 73.218 18.9943 70.8323C18.6295 68.1372 18.8556 65.5036 20.166 63.1111C20.7503 62.0464 21.3246 61.0227 21.6976 59.8418C22.2076 58.2217 23.4767 57.2202 24.8531 56.3982C25.4423 56.0461 25.8615 55.583 26.1768 54.9592C26.86 53.6074 27.6473 52.3086 28.2843 50.9346C29.4874 48.3386 31.425 46.8313 34.1845 46.5476C36.5 46.3083 38.7874 46.4844 40.9346 47.5285C41.7383 47.9199 42.4348 48.4582 42.7863 49.3691C43.014 49.9621 42.9612 50.5056 42.5189 50.9346C42.2219 51.2251 42.1476 51.4438 42.4678 51.7344C42.7813 52.0163 42.5833 52.7085 43.0438 52.7649C43.8293 52.8589 44.6347 52.8127 45.4286 52.7615C45.7207 52.7427 45.8032 52.394 45.9022 52.1257C46.163 51.4131 46.437 50.7073 46.706 49.998C46.9651 49.3196 47.4041 49.0034 48.1517 49.0068C52.4955 49.0342 56.841 49.0325 61.1849 49.0154C61.7872 49.0137 62.1602 49.2529 62.421 49.7912C62.7742 50.5193 63.2066 51.2097 63.5119 51.9565C63.7809 52.6162 64.139 52.9529 64.857 52.8264C65.1738 52.77 65.5056 52.8179 65.8687 52.8179C64.7183 47.79 64.3239 42.728 63.6984 37.7002C63.6027 36.9363 63.3617 36.3142 62.8336 35.6904C61.1007 33.6396 60.0659 31.1907 59.7738 28.4922C58.8991 20.4189 63.7677 13.0498 71.3645 11.1221C72.8201 10.7529 73.8169 9.95141 74.9012 9.07128C77.7383 6.76586 80.9862 5.3269 84.49 4.54076C91.1906 3.03857 97.7261 3.46581 103.933 6.68896C108.44 9.03027 111.68 12.6243 113.403 17.5803C113.892 18.9851 114.765 20.0874 115.724 21.1453C117.825 23.4643 119.335 26.0996 119.729 29.3125C120.097 32.3049 119.381 35.1111 118.265 37.8266C117.699 39.2058 117.001 40.5286 116.024 41.6497C115.598 42.1384 115.682 42.7161 115.603 43.251C115.24 45.6828 114.214 47.7661 112.599 49.54C112.21 49.9673 111.962 50.4407 111.773 50.9722C110.713 53.9372 109.2 56.5981 106.848 58.6694C106.437 59.0317 106.348 59.3906 106.381 59.9153C106.516 62.0464 106.876 64.1228 107.6 66.1291C108.28 68.0124 109.503 69.1677 111.408 69.7539C118.772 72.0183 126.116 74.3579 133.165 77.5725C138.44 79.977 141.924 83.9265 143.14 89.8618C143.638 92.2954 143.805 94.7495 143.681 97.2309C143.315 104.569 141.745 111.703 140.209 118.838C139.176 123.633 138.077 128.415 136.487 133.056C136.16 134.013 135.857 134.988 135.434 135.898C135.005 136.825 132.728 142.195 132.153 143.205C131.741 148.577 131.555 150.565 131.391 155.343C131.218 160.407 131.116 165.476 131.172 170.544L131.042 171.485C131.042 171.485 130.737 171.858 130.477 172.012C130.24 172.152 129.81 172.245 129.81 172.245C129.81 172.245 108.466 174.425 94.5398 174.368C77.7812 174.3 63.323 172.763 52.0204 170.197C51.6982 170.124 51.3107 169.706 51.2133 169.381L51.1719 168.666ZM130.53 157.257C130.426 161.865 130.487 165.881 130.477 170.492L130.44 170.896C130.44 170.896 130.268 171.393 129.81 171.485C126.145 172.223 108.625 173.538 94.5398 173.533C78.0225 173.527 59.5208 171.293 52.7553 169.723C52.5399 169.673 52.1128 169.582 52.0204 169.381C51.9325 169.19 51.9064 168.976 51.9064 168.976C51.9361 156.591 52.012 144.206 51.9823 131.821C51.9592 122.312 51.4806 112.81 51.5086 103.3C51.5086 102.814 51.5218 102.331 51.5268 101.847C51.5301 101.555 51.4294 101.329 51.1092 101.344C50.8158 101.359 50.8074 101.603 50.7996 101.83L50.7989 101.85C50.7659 102.789 50.7065 103.729 50.7032 104.667C50.6867 109.734 50.8534 114.799 50.9986 119.865C51.0102 120.277 50.9722 120.62 50.6521 120.936C45.8065 125.733 40.9147 130.474 35.3331 134.367C31.8772 136.777 28.2497 138.788 23.9949 139.188C19.8442 139.578 15.5383 137.855 13.3763 133.567C12.0923 131.019 11.6665 128.273 11.5807 125.45C11.3975 119.41 12.4703 113.514 13.6222 107.642C14.9178 101.035 16.6111 94.5273 18.3424 88.0298C18.5536 87.2351 18.7764 86.4438 19.0075 85.5996C20.8724 88.1238 23.3513 89.2978 26.1867 89.6721C28.9692 90.0378 31.6627 89.6225 34.1531 88.0588C34.1366 89.2927 33.8989 90.3967 33.8346 91.5229C33.6728 94.3496 33.417 97.1711 33.1992 99.9944C32.7602 105.665 32.9698 111.356 32.7239 117.035C32.6149 119.576 32.4136 122.09 32.0026 124.59C31.9482 124.923 31.7534 125.32 32.2551 125.397C32.6876 125.463 32.6562 125.041 32.7189 124.746C33.1942 122.519 33.4616 120.261 33.5111 117.987C33.6035 113.716 33.6398 109.447 33.6992 105.176C33.7042 104.838 33.6893 104.527 33.9534 104.233C37.5331 100.254 41.1012 96.2671 44.6628 92.2715C44.9351 91.9656 45.1001 91.8716 45.4302 92.227C45.922 92.7585 46.4832 93.2268 47.0278 93.7036C50.1239 96.4158 53.6112 98.487 57.2866 100.206C59.5246 101.254 61.85 102.103 64.1324 103.052C65.2597 103.518 66.2763 104.168 67.1642 105.034C67.491 105.352 67.5603 105.579 67.2566 106.017C66.4265 107.217 66.4909 107.89 67.321 109.083C70.0491 113.003 72.8267 116.883 75.6538 120.728C81.3543 128.481 87.3237 135.991 94.3379 142.533C99.2148 147.08 104.674 150.69 110.852 153.036C116.083 155.022 120.982 154.402 125.403 150.719C129.07 147.665 129.559 146.358 131.19 144.261C130.968 148.373 130.621 153.142 130.53 157.257ZM92.7304 81.3681C91.8045 81.5835 90.8787 81.5664 89.9528 81.3767L89.9578 81.3801C87.261 81.2212 84.6782 80.6572 82.3907 79.0764C81.8279 78.6885 81.3757 78.1843 80.9862 77.581C80.3327 76.5676 80.4713 75.6892 81.2718 74.9321C81.7372 74.4912 81.8098 73.9768 81.8609 73.4162C81.9336 72.5942 81.9979 71.7722 82.0474 70.9502C82.0656 70.634 82.0441 70.5229 82.4897 70.5588C89.1491 71.0886 94.6498 68.5901 99.1669 63.5981C99.3683 63.376 99.7495 63.1384 99.3716 62.7522C98.9623 62.3318 98.8154 62.8 98.6157 63.0205C95.343 66.635 91.4134 69.0344 86.6289 69.6633C81.2833 70.3657 76.6853 68.6618 72.8795 64.6919C72.5478 64.345 72.429 63.9809 72.4356 63.4819C72.4768 60.6638 72.4818 57.844 72.4818 55.0259C72.4818 53.5237 71.7688 52.8161 70.2983 52.8179C69.3625 52.8196 68.4268 52.7905 67.4943 52.8435C66.9315 52.876 66.674 52.7136 66.5569 52.112C66.07 49.6067 65.6838 47.0859 65.39 44.5498C65.022 41.3745 64.5698 38.206 64.309 35.0222C63.7331 28.0068 65.8654 22.0613 71.0608 17.3889C71.6582 16.8523 72.0048 16.772 72.6584 17.4795C74.9788 19.9917 77.867 21.7075 80.8493 23.2319C83.6153 24.6453 86.5728 25.4485 89.6079 25.9851C92.3442 26.4687 95.0872 26.4346 97.8367 26.2107C98.2081 26.1799 98.2856 26.2808 98.3549 26.6311C99.3353 31.5427 101.882 35.258 106.245 37.543C106.671 37.7651 106.874 37.9224 106.529 38.3684C106.445 38.4778 106.397 38.6179 106.344 38.7478C106.229 39.0315 106.188 39.3135 106.513 39.4775C106.871 39.6587 107.006 39.3887 107.11 39.1101C107.587 37.842 108.469 36.9756 109.672 36.5005C111.73 35.687 114.468 36.5603 114.819 39.7356C115.22 43.3603 114.334 46.6262 111.685 49.1828C110.398 50.4253 108.921 51.2131 107.072 50.4697C106.531 50.251 106.252 50.5295 106.148 51.0832C105.795 52.9546 105.636 54.8447 105.59 56.7468V59.9922C105.744 62.4241 106.11 64.8047 107.087 67.052C107.635 68.3115 108.454 69.3044 109.642 69.9333C109.998 70.123 109.99 70.2615 109.83 70.6015C107.642 75.2466 103.963 78.1211 99.4293 79.9497C97.2822 80.8144 95.0393 81.2759 92.7304 81.3681ZM77.9016 86.5788C77.055 82.1491 75.5812 77.9604 73.2591 73.946V73.9426C75.8997 73.5837 78.443 73.2402 81.0457 72.8865C81.077 73.4675 81.0572 73.9324 80.6529 74.3835C79.425 75.7558 79.4233 77.0102 80.6264 78.4646C82.0573 80.1958 83.947 81.1938 86.043 81.6484C93.7751 83.3266 100.735 81.6553 106.741 76.2344C108.371 74.7629 109.589 72.9326 110.532 70.916C110.685 70.5879 110.741 70.352 111.226 70.5041C118.765 72.8694 126.318 75.197 133.492 78.6235C139.154 81.3271 142.102 86.0303 142.772 92.3757C143.049 95.0059 142.864 97.612 142.604 100.232C141.556 110.79 139.22 121.073 136.276 131.204C134.616 136.915 132.104 142.249 128.247 146.79C126.03 149.401 123.568 151.7 120.277 152.746C117.057 153.769 113.88 153.398 110.769 152.168C103.08 149.128 96.6666 144.163 90.948 138.134C85.1221 131.992 79.9135 125.313 74.9392 118.431C72.5742 115.158 70.229 111.868 67.8656 108.572C75.9228 106.858 80.1247 101.162 82.6878 93.6335C82.9766 93.7139 83.14 93.9822 83.3298 94.1975C86.9541 98.2871 90.4314 102.519 94.1927 106.477C98.2526 110.747 102.832 114.389 107.47 117.951C109.918 119.831 112.359 121.722 114.831 123.568C117.971 125.913 120.031 129.056 121.332 132.783L121.47 133.183C121.571 133.475 121.657 133.873 122.048 133.742C122.461 133.603 122.386 133.14 122.269 132.86C121.224 130.368 120.16 127.883 118.386 125.817C117.82 125.157 117.211 124.547 116.379 123.811C118.511 124.518 120.178 125.554 121.652 126.94C122.428 127.67 123.111 128.485 123.721 129.367C123.898 129.62 124.043 130.096 124.456 129.777C124.845 129.473 124.484 129.155 124.307 128.902C122.304 126.02 119.685 124.002 116.4 122.944C115.54 122.667 114.38 122.575 113.992 121.866C113.619 121.184 114.319 120.171 114.549 119.306C116.022 113.764 117.126 108.129 118.498 102.561C119.737 97.5266 121.36 92.668 124.472 88.4963C126.007 86.4387 127.72 84.5571 129.94 83.2549C130.16 83.125 130.417 83.019 130.259 82.6875C130.051 82.2517 129.755 82.4739 129.501 82.6243C127.413 83.8547 125.753 85.5825 124.266 87.5034C121.081 91.6186 119.288 96.4055 118.009 101.44C116.428 107.664 115.25 113.991 113.539 120.181C113.435 120.553 113.309 120.919 113.161 121.399C109.828 118.79 106.574 116.225 103.303 113.683C97.373 109.074 92.3624 103.489 87.4789 97.7659C86.2411 96.3166 84.9736 94.8931 83.7374 93.4404C83.2258 92.8406 82.6267 92.5278 81.851 92.6252C81.2387 92.7038 80.8129 92.4492 80.336 92.0237C78.707 90.5744 78.2878 88.6023 77.9016 86.5788ZM117.968 36.2937C117.465 37.8147 116.74 39.2246 115.75 40.6738L115.748 40.6704C115.715 40.009 115.686 39.5134 115.567 39.0247C114.697 35.4563 110.916 34.0669 108.134 36.3586C107.533 36.8525 107.102 36.9397 106.419 36.5945C102.39 34.5591 100.241 31.0779 99.1752 26.7183C99.0267 26.1064 99.261 25.9304 99.7594 25.8279C100.08 25.7612 100.39 25.6382 100.694 25.51C100.991 25.3852 101.118 25.1323 100.986 24.8196C100.845 24.488 100.609 24.6196 100.362 24.7085C97.708 25.657 94.9782 25.5391 92.2386 25.3323C88.9378 25.0845 85.7377 24.3906 82.6845 23.0593C79.4778 21.6614 76.5021 19.8601 73.8863 17.4641C73.2674 16.8984 72.7343 16.249 72.2326 15.5671C71.8959 15.1074 71.5642 15.1946 71.4783 15.7568C71.4371 16.0286 71.3199 16.1345 71.1384 16.2712C67.6874 18.8877 65.5501 22.4458 64.21 26.5884C63.3271 29.3125 63.3188 32.1204 63.3881 34.9624C61.2558 32.4963 60.0609 28.1145 60.49 24.6299C61.0792 19.8464 63.6753 16.4661 67.4002 13.8513C69.1249 12.6414 70.9931 11.8193 73.0924 11.6553C73.373 11.633 73.5413 11.4929 73.7179 11.3101C77.0699 7.84936 81.2354 6.08227 85.7872 5.15942C89.494 4.40917 93.2189 4.39721 96.9241 5.15942C101.996 6.2019 106.452 8.42016 109.802 12.655C110.961 14.1179 111.903 15.7226 112.494 17.5085C113.042 19.1663 113.945 20.5471 115.108 21.7878C116.532 23.3088 117.656 25.0247 118.354 27.0481C119.44 30.1995 118.973 33.2551 117.968 36.2937ZM42.8573 88.1973C41.938 86.9958 41.7201 86.3447 41.8588 85.1023L41.8604 85.0989C43.9911 87.5342 46.2983 89.5285 48.8069 91.2803C50.2164 92.2646 51.6736 93.1636 53.1722 93.9907C53.4561 94.1462 53.8109 94.541 54.0816 94.0437C54.3522 93.543 53.8571 93.4438 53.565 93.2798C50.2477 91.4221 47.1301 89.2671 44.3608 86.6011C42.8259 85.1228 41.4297 83.5181 40.3866 81.6245C40.0697 81.052 39.6968 80.4504 40.2364 79.7429C40.5236 79.3669 40.6342 79.384 40.9461 79.7173C43.6346 82.5969 46.7142 84.9604 50.015 87.0266C51.5581 87.9922 53.1871 88.7937 54.8176 89.5867C55.0817 89.7148 55.42 90.0652 55.6329 89.5627C55.8112 89.1457 55.4828 88.9765 55.1609 88.8227C51.9988 87.3069 48.9571 85.574 46.1894 83.3608C44.4697 81.9851 42.7879 80.5649 41.3108 78.9072C40.3272 77.8032 39.6869 76.5488 39.9526 74.9714C39.9724 74.8603 39.9889 74.7475 40.0252 74.6416C40.0516 74.5681 40.1094 74.5066 40.1391 74.4621C42.5305 76.9538 45.3262 78.8713 48.221 80.6538C50.8336 82.2619 53.6376 83.4565 56.3987 84.7468C56.7073 84.8921 56.9417 84.8699 57.0803 84.5674C57.2454 84.2051 56.9466 84.0427 56.704 83.9299C55.2352 83.2446 53.7531 82.5901 52.2876 81.8996C49.3466 80.5137 46.6102 78.7705 44.0208 76.7744C43.0504 76.0276 42.0766 75.2756 41.2547 74.3562C40.248 73.23 40.654 71.7722 42.0189 71.4731C42.377 71.3945 42.679 71.4407 42.9827 71.7483C44.4383 73.2214 46.1811 74.1614 48.1699 74.6125C49.8186 74.9868 51.1983 76.0036 52.72 76.6821C55.5983 77.9639 58.4617 79.2695 61.5595 79.8933C62.9673 80.177 64.38 80.3325 65.8059 80.0129C66.5668 79.842 66.9612 79.3874 67.0668 78.5637C67.2913 76.8086 66.8655 75.185 66.2598 73.5871C65.3686 71.2373 64.4889 68.884 64.5599 66.2983C64.583 65.4541 64.6523 64.6064 65.0088 63.8203C65.2762 63.2324 65.6145 62.7351 66.3192 62.6924C67.0058 62.6513 67.3639 63.1196 67.6527 63.6545C68.5769 65.3669 69.0952 67.2553 69.8164 69.0566C70.4567 70.6528 71.1631 72.2097 72.1005 73.6538C74.6405 77.5639 76.1737 81.8962 77.0748 86.4934C77.4049 88.1784 77.6013 89.937 78.6856 91.335C79.453 92.3262 80.336 93.2234 81.1876 94.1411C81.3807 94.3496 81.582 94.4419 81.4401 94.8247C79.628 99.697 76.819 103.703 72.2804 106.213L72.2611 106.224C70.309 107.304 70.1815 107.375 68.8014 105.583C66.9464 103.176 64.3321 102.216 61.7427 101.158C59.4404 100.217 57.1216 99.3022 54.9299 98.1111C50.3088 95.5989 46.1316 92.48 42.8573 88.1973ZM32.3954 88.1186C30.9266 88.7099 29.3934 88.98 27.7314 89.0244L27.7298 89.0227C25.2905 88.9304 22.9668 88.2434 20.9549 86.5823C20.5918 86.2815 20.4747 86.0149 20.5737 85.5056C20.9995 83.3078 21.4055 81.1135 20.9995 78.8406C20.4466 75.7456 20.001 72.6233 19.7815 69.4873C19.5752 66.541 19.5521 66.9101 21.9485 65.9172C23.2985 65.3584 24.6947 64.9397 26.1834 65.0559C27.3947 65.1499 28.3569 65.7702 29.2217 66.594C30.3556 67.6741 31.4646 68.7917 32.4119 70.0427C33.351 71.2834 33.7207 72.7737 33.5045 74.3545C33.3279 75.6567 31.8508 76.219 30.849 75.4106C30.339 74.9988 30.0123 74.4382 29.74 73.8469C29.2745 72.8335 28.6656 71.9397 27.8139 71.2305C26.8996 70.47 25.9325 69.9709 24.7096 70.3572C24.4306 70.446 24.1088 70.4067 23.8084 70.3948C23.5378 70.3845 23.3826 70.5264 23.3414 70.769C23.2935 71.0476 23.5312 71.1997 23.7243 71.2322C24.0445 71.2851 24.4042 71.3193 24.703 71.2202C25.7559 70.8699 26.5712 71.292 27.3386 71.967C28.1292 72.6626 28.6342 73.5615 29.1095 74.4997C29.7763 75.8157 30.6444 76.8718 32.303 76.5898C32.5308 76.5505 32.6067 76.6445 32.7057 76.8701C33.0803 77.7297 33.8148 77.9878 34.6647 77.9878C35.7639 77.9895 36.8647 78.0032 37.9622 77.9741C38.4276 77.9621 38.459 78.1501 38.284 78.5022C37.9275 79.2165 37.4357 79.8147 36.8152 80.3C35.7424 81.1391 34.5872 81.8432 33.4203 82.5285C33.0176 82.7661 32.1 82.9404 33.1282 83.6428C33.2239 83.7077 33.181 84.0205 33.1728 84.217C33.1233 85.2954 33.0407 86.3738 33.0209 87.4538C33.011 87.9324 32.6793 88.0041 32.3954 88.1186ZM68.2898 62.9316V62.9297C66.7564 61.2829 65.1597 61.51 64.2991 63.3486C63.4558 65.1482 63.5977 67.052 63.9394 68.949C64.2329 70.5763 64.8072 72.1158 65.3804 73.6523L65.4396 73.811C65.8257 74.845 66.1773 75.8891 66.2928 77.082C64.89 77.082 63.4937 77.0786 62.0992 77.082C60.1748 77.0871 58.2488 77.1008 56.3244 77.1025C56.1066 77.1025 55.8689 77.1111 55.6758 77.0273C54.141 76.3591 52.6144 75.6704 51.0977 74.9082C52.3751 74.9612 53.5831 74.6228 54.8127 74.4365C58.8462 73.823 61.1799 71.2783 62.2923 67.3869C63.6043 62.7932 62.0695 58.1072 58.4617 55.612C57.0737 54.6516 55.5075 54.3098 53.8439 54.1235C50.9293 53.7988 48.1913 54.3747 45.6382 55.6958C42.448 57.3467 40.9544 60.2622 40.5995 63.8613C40.5665 64.1894 40.6375 64.5381 40.3916 64.9243C40.4246 60.604 37.2278 58.5361 34.8001 55.959C34.1135 55.2292 34.0854 54.8721 34.9024 54.2602C35.4718 53.8347 36.122 53.7868 36.7888 53.7868C39.6472 53.7868 42.509 53.7561 45.3675 53.7988C46.1085 53.8091 46.4749 53.5373 46.6763 52.8298C46.8941 52.0676 47.178 51.3259 47.442 50.5791C47.6005 50.133 47.8827 49.9297 48.3795 49.9331C51.5416 49.9553 54.7038 49.9604 57.8659 49.9399C58.3412 49.9365 58.5673 50.1228 58.7093 50.55C58.9849 51.3738 59.3249 52.177 59.5477 53.0144C59.7077 53.6177 59.9916 53.8091 60.5825 53.7971C62.5893 53.7578 64.5979 53.7663 66.6047 53.7698C67.897 53.7715 68.2865 54.1714 68.2898 55.4873C68.2931 57.8998 68.2898 60.3106 68.2898 62.9297C68.2914 62.9315 68.2931 62.9333 68.2947 62.935L68.2898 62.9316ZM44.0142 91.7827C40.6309 95.5425 37.2789 99.3296 33.7966 103.245L33.795 103.247C33.9683 99.3039 34.2703 95.5391 34.6334 91.7776C34.7802 90.2515 34.8875 88.7202 34.9915 87.1889C35.0427 86.4609 34.9651 85.803 34.2274 85.3723C33.7719 85.1074 34.1118 84.5298 34.0029 84.1111C33.7983 83.3318 34.1614 82.9438 34.805 82.6243C35.8414 82.1098 36.7393 81.3647 37.6222 80.6128C38.3319 80.0078 38.8617 79.2558 39.1208 78.3279C39.167 78.1621 39.1538 77.998 39.3749 77.9587C39.7034 77.9006 39.7908 78.1843 39.9295 78.3723C40.0268 78.5056 40.1721 78.6423 39.9493 78.8645C38.8336 79.9736 39.1686 81.1477 39.8585 82.3201C40.0433 82.6345 40.215 82.966 40.446 83.2412C41.0402 83.9504 41.3884 84.634 41.0253 85.6543C40.7613 86.3994 41.2448 87.1377 41.6426 87.7854C42.306 88.8655 43.0768 89.8669 43.9845 90.7334C44.402 91.1316 44.4119 91.3418 44.0142 91.7827ZM50.3121 55.3711C55.0933 55.3642 59.409 59.2864 59.0492 64.345C59.2853 69.0036 55.7633 74.0827 50.0563 73.9682C45.351 73.8743 41.3059 70.4665 41.3009 65.1841C41.2943 59.4761 45.0457 55.3796 50.3121 55.3711ZM20.0208 65.8437C20.4979 63.5888 21.5051 61.9146 23.6748 61.185C24.6303 60.862 25.5331 60.3716 26.4903 60.0503C28.177 59.4846 29.7334 59.8777 31.1065 60.9783C32.5506 62.1335 33.5903 63.699 34.8182 65.073C35.3001 65.6147 35.749 66.1804 36.3267 66.6333C37.0248 67.1819 37.4077 69.2087 37.033 70.0307C36.5412 71.1108 35.2209 71.3108 34.1977 70.5007C33.0539 69.595 32.1429 68.4516 31.1774 67.3681C28.3074 64.1467 26.4359 63.1367 21.0308 65.3806C20.7107 65.5122 20.4004 65.6677 20.0208 65.8437ZM22.2241 60.8757L22.2259 60.875C22.3469 59.4722 23.2939 58.676 24.136 57.968L24.1798 57.9311C25.68 56.6682 27.3337 55.5642 29.1904 54.9114C31.0256 54.2671 32.6001 54.9917 33.8593 56.311C35.0245 57.5312 36.4075 58.5105 37.4407 59.8743C38.2692 60.968 39.1653 62.0054 39.4987 63.4067C39.7413 64.4201 39.4789 65.2986 38.7296 65.7053C37.6321 66.3017 36.9439 66.2351 36.1616 65.355C34.9717 64.0151 33.8395 62.6223 32.6562 61.2773C31.2748 59.7085 29.5898 58.8027 27.4905 58.9651C26.2989 59.0574 25.2492 59.6623 24.1534 60.0879C23.5202 60.3337 22.8953 60.6018 22.2259 60.875L22.2257 60.8774L22.2241 60.8757ZM27.1208 54.9336L27.1232 54.9322C27.8722 53.5075 28.5997 52.2415 29.2151 50.9192C30.3275 48.5266 32.2518 47.5268 34.6845 47.3577C36.5033 47.2312 38.2989 47.3559 40.0285 48.0259C40.7018 48.2873 41.3389 48.6069 41.7994 49.2034C42.2994 49.8511 42.1756 50.3484 41.4247 50.6543C40.9643 50.8423 40.4774 50.9277 39.9773 50.9209C38.7692 50.9038 37.5579 50.9414 36.3531 50.8696C34.8545 50.779 33.7537 51.3772 32.9879 52.6931C32.8608 52.9118 32.6809 53.1015 32.5786 53.3288C32.3014 53.9441 31.935 54.0159 31.2765 53.8843C29.8283 53.5956 28.4905 54.1349 27.1232 54.9322L27.1224 54.9336H27.1208ZM40.5005 66.2488C40.6655 67.8261 41.2168 69.2566 42.0535 70.6101H42.0552C40.6804 70.957 39.8701 71.7585 39.8271 73.2453C39.8238 73.3513 39.7743 73.4726 39.7083 73.5547C38.8831 74.592 39.0184 75.7678 39.266 77.0581C37.5859 77.0051 35.9223 77.1521 34.2703 76.9282C33.4814 76.8223 33.3197 76.3437 33.8181 75.6994C34.5921 74.6963 34.3776 73.5581 34.2901 72.4353C34.267 72.1345 34.1614 71.8423 34.0772 71.468C34.3544 71.5842 34.564 71.6919 34.7852 71.7585C36.6419 72.3157 38.0777 71.0202 38.0002 68.8686C37.9787 68.2637 37.5876 67.633 37.7064 67.1426C37.8318 66.6213 38.7329 66.8674 39.1521 66.4333C39.3056 66.2744 39.4822 66.136 39.6572 65.9993C39.8453 65.8523 39.8948 65.466 40.1836 65.5327C40.5154 65.6096 40.4741 65.989 40.5005 66.2488ZM72.3448 65.3755V65.3771C73.8329 66.8324 75.326 68.0008 77.0071 68.9148C78.1822 69.5556 79.4266 69.9743 80.7139 70.2187C81.6579 70.3982 81.0456 71.0613 81.1777 71.48C81.3064 71.885 81.1397 72.0901 80.6462 72.1499C78.2251 72.4455 75.8057 72.7651 73.3994 73.1702C72.6518 73.2949 72.462 72.9411 72.4075 72.3703C72.3415 71.6645 72.3497 70.9485 72.3464 70.2375C72.3398 68.6794 72.3448 67.1196 72.3448 65.3771L72.3431 65.3755H72.3448ZM59.886 63.0273C59.4849 58.9292 57.1793 56.4306 53.06 54.8977V54.896C57.4797 54.8994 61.2228 58.3379 61.7724 62.3762C62.4837 67.5954 59.6186 72.8762 55.156 73.4333C58.8578 71.0014 60.3101 67.3613 59.886 63.0273ZM71.4767 65.2763C71.4585 67.0554 71.4734 68.8362 71.4734 70.7673H71.4717C70.5376 68.8122 69.9303 66.8811 69.219 64.9961C69.1249 64.7449 69.1562 64.4355 69.1579 64.1535C69.176 61.2825 69.2041 58.4097 69.2206 55.5386C69.2239 54.978 69.313 54.397 68.9367 53.8757C69.4467 53.8757 69.922 53.8723 70.3957 53.8757C71.3645 53.8808 71.6087 54.1133 71.5988 55.1267C71.5675 58.5105 71.5097 61.8926 71.4767 65.2763ZM110.946 50.8884C109.881 53.6621 108.498 56.0325 106.348 58.0508H106.346C106.427 55.959 106.567 54.0398 106.833 52.1325L106.838 52.0996C106.896 51.6827 106.937 51.3865 107.576 51.5481C108.695 51.8301 109.8 51.5566 110.946 50.8884ZM58.3957 78.0425C58.3985 78.0436 58.4013 78.0447 58.4041 78.0459C60.856 78.0459 63.3079 78.0442 65.7597 78.0459C65.9396 78.0459 66.1822 77.9724 66.1921 78.2783C66.2004 78.5774 66.2879 78.9311 65.9198 79.0935C65.6178 79.2268 65.3009 79.2883 64.9659 79.3105C62.6831 79.4573 60.5238 78.9036 58.4041 78.0459C58.4019 78.0459 58.3996 78.0459 58.3973 78.0459L58.3957 78.0425ZM61.807 50.4065C62.185 51.1841 62.5844 51.9514 62.9953 52.7649C62.1454 52.7649 61.2657 53.0075 60.6485 52.6948C60.0461 52.3889 60.0626 51.3601 59.7523 50.6731C59.6615 50.4731 59.5757 50.2681 59.4486 49.9741C60.0411 49.9741 60.5726 49.9946 61.1023 49.9673C61.4522 49.9502 61.6536 50.0903 61.807 50.4065ZM37.6717 52.7666C37.0528 52.7529 37.5199 52.1924 37.269 51.9275H37.2707C38.5745 51.9275 39.7215 51.9155 40.8669 51.9309C41.5551 51.9394 41.5716 51.9702 41.9215 52.7768C40.4724 52.7768 39.0713 52.7991 37.6717 52.7666ZM32.9533 54.3252C33.2239 53.2348 34.8 51.8164 35.8893 51.7976C36.1715 51.7788 36.457 51.772 36.4983 52.2864C36.5396 52.7939 36.2821 52.782 35.9339 52.8435C34.8809 53.0298 33.96 53.4587 33.4187 54.5012C33.3774 54.5815 33.4005 54.9285 33.1365 54.6994C33.0358 54.6123 32.8889 54.5815 32.9533 54.3252ZM68.0191 106.172C68.4152 106.605 68.7865 107.011 69.1826 107.446H69.1843C68.8625 107.509 68.5456 107.584 68.2254 107.63C67.4514 107.741 67.3606 107.615 67.6692 106.853C67.7617 106.624 67.8953 106.412 68.0191 106.172Z" fill="#1C1C1A"/>
<path d="M73.2591 73.9457C75.8997 73.5868 78.443 73.2416 81.0456 72.8895C81.077 73.4723 81.0572 73.9354 80.6528 74.3866C79.4249 75.7589 79.4216 77.0133 80.6264 78.4677C82.0573 80.1989 83.9487 81.1969 86.043 81.6515C93.7751 83.3297 100.733 81.6583 106.741 76.2374C108.371 74.766 109.589 72.9357 110.532 70.9191C110.685 70.5909 110.743 70.3551 111.226 70.5072C118.765 72.8707 126.317 75.1984 133.492 78.6266C139.154 81.3319 142.102 86.0333 142.772 92.3788C143.049 95.0089 142.863 97.6151 142.604 100.235C141.556 110.793 139.22 121.076 136.276 131.207C134.616 136.918 132.104 142.252 128.247 146.793C126.03 149.402 123.568 151.703 120.277 152.749C117.057 153.772 113.88 153.401 110.769 152.171C103.082 149.129 96.6666 144.166 90.948 138.137C85.1221 131.995 79.9135 125.316 74.9392 118.434C72.5725 115.161 70.229 111.87 67.8656 108.575C75.9228 106.861 80.1247 101.166 82.6878 93.6366C82.9782 93.7152 83.14 93.9852 83.3298 94.2006C86.954 98.2902 90.4314 102.522 94.1926 106.48C98.2526 110.752 102.832 114.392 107.47 117.954C109.918 119.834 112.358 121.725 114.831 123.571C117.97 125.916 120.031 129.059 121.332 132.786C121.378 132.919 121.424 133.053 121.47 133.186C121.573 133.478 121.657 133.876 122.048 133.745C122.461 133.606 122.386 133.145 122.269 132.863C121.223 130.37 120.16 127.886 118.386 125.82C117.82 125.161 117.212 124.55 116.379 123.814C118.511 124.521 120.18 125.557 121.652 126.943C122.428 127.673 123.111 128.488 123.721 129.37C123.898 129.624 124.043 130.101 124.456 129.78C124.845 129.477 124.482 129.158 124.307 128.905C122.302 126.024 119.685 124.005 116.4 122.947C115.54 122.671 114.38 122.577 113.992 121.869C113.619 121.187 114.319 120.174 114.549 119.309C116.022 113.767 117.126 108.132 118.498 102.564C119.737 97.5297 121.36 92.6693 124.472 88.4994C126.007 86.4435 127.72 84.5602 129.94 83.2579C130.16 83.1298 130.417 83.0238 130.259 82.6906C130.051 82.2548 129.755 82.4769 129.501 82.6273C127.413 83.8578 125.755 85.5856 124.266 87.5065C121.081 91.6217 119.288 96.4086 118.009 101.443C116.428 107.667 115.25 113.994 113.539 120.184C113.436 120.557 113.311 120.924 113.161 121.402C109.827 118.793 106.572 116.229 103.303 113.686C97.3729 109.077 92.3624 103.492 87.4788 97.7689C86.2411 96.318 84.9736 94.8944 83.7374 93.4435C83.2274 92.8436 82.6267 92.5292 81.851 92.6283C81.2371 92.7052 80.8129 92.4506 80.336 92.0267C78.707 90.5775 78.2895 88.6036 77.9016 86.5819C77.055 82.1522 75.5812 77.9635 73.2591 73.9491V73.9457Z" fill="#F1B069"/>
<path d="M105.589 59.9918C105.742 62.4237 106.108 64.8043 107.085 67.0516C107.633 68.3112 108.452 69.3058 109.64 69.933C109.997 70.121 109.99 70.2594 109.828 70.6012C107.64 75.2462 103.961 78.1207 99.4277 79.9493C97.2805 80.8158 95.0376 81.2772 92.7304 81.3678C91.8045 81.3712 90.8786 81.3729 89.9528 81.3764C87.2577 81.2174 84.6732 80.6535 82.3857 79.0726C81.8229 78.6847 81.3707 78.1805 80.9812 77.5773C80.3277 76.5639 80.4663 75.6854 81.2668 74.9284C81.7322 74.4874 81.8048 73.973 81.856 73.4125C81.9302 72.5922 81.9929 71.7702 82.0424 70.9464C82.0622 70.6303 82.0391 70.5209 82.4848 70.5551C89.1441 71.0848 94.6448 68.5863 99.1619 63.5944C99.3633 63.3722 99.7445 63.1347 99.3666 62.7484C98.9556 62.3297 98.8104 62.798 98.6107 63.0167C95.338 66.6312 91.4068 69.0306 86.6239 69.6595C81.2783 70.3637 76.6803 68.6581 72.8745 64.6881C72.5428 64.3429 72.424 63.9772 72.4306 63.4782C72.4702 60.66 72.4751 57.8419 72.4768 55.0221C72.4768 53.5199 71.7638 52.8124 70.2933 52.8141C69.3592 52.8141 68.4218 52.7868 67.4893 52.8397C66.9265 52.8722 66.6691 52.7081 66.5519 52.1083C66.065 49.6029 65.6788 47.0822 65.3851 44.546C65.017 41.3707 64.5648 38.204 64.304 35.0184C63.7281 28.0031 65.862 22.0575 71.0558 17.3851C71.6532 16.8485 71.9998 16.7682 72.6534 17.4757C74.9738 19.9879 77.862 21.7037 80.8443 23.2282C83.6103 24.6415 86.5678 25.4447 89.6029 25.9813C92.3392 26.465 95.0822 26.4308 97.8317 26.2069C98.2031 26.1762 98.2806 26.277 98.35 26.6273C99.3303 31.5389 101.877 35.2543 106.24 37.5392C106.665 37.7614 106.869 37.9186 106.524 38.3646C106.44 38.4723 106.392 38.6124 106.339 38.744C106.226 39.0277 106.184 39.3097 106.508 39.4738C106.868 39.6549 107.001 39.3849 107.105 39.1063C107.581 37.8383 108.464 36.9718 109.667 36.4967C111.725 35.6832 114.461 36.5565 114.814 39.7318C115.217 43.3566 114.331 46.6224 111.68 49.1791C110.393 50.4215 108.916 51.2094 107.067 50.466C106.526 50.2489 106.247 50.5258 106.143 51.0795C105.79 52.9508 105.631 54.841 105.585 56.743C105.377 57.8248 105.376 58.9066 105.585 59.9901L105.589 59.9918ZM77.5451 39.766C77.5072 39.1713 77.4709 38.5765 77.4313 37.9818C77.4098 37.6588 77.2134 37.5358 76.9312 37.5546C76.6622 37.5717 76.5615 37.7597 76.5681 38.0245C76.5731 38.2228 76.5681 38.4227 76.5747 38.621C76.677 41.5724 76.002 44.3461 74.7774 46.9916C74.4259 47.7504 74.0067 48.4818 73.7212 49.2662C73.2558 50.5411 73.7806 51.5512 75.0299 51.9716C76.5202 52.4723 78.0287 52.4689 79.5454 52.1322C79.8804 52.0587 80.3293 52.0263 80.2287 51.4896C80.1263 50.9496 79.7385 51.1017 79.3787 51.1837C78.0997 51.4743 76.8223 51.4794 75.5564 51.1C74.5596 50.8009 74.3071 50.2301 74.7395 49.256C74.9458 48.7946 75.1834 48.3468 75.4013 47.8905C76.6259 45.3287 77.428 42.6473 77.5418 39.766H77.5451ZM80.8872 59.4911C81.7437 59.5236 82.5871 59.3971 83.4189 59.2262C85.9159 58.7135 88.2248 57.7599 90.2498 56.1073C90.9364 55.5468 91.5421 54.9384 92.0108 54.1796C92.1742 53.9164 92.2303 53.6652 91.9514 53.4345C91.6395 53.1764 91.5173 53.455 91.3738 53.6498C89.9891 55.5433 88.1076 56.7242 86.005 57.5206C82.9782 58.6674 79.9068 59.1168 76.8124 57.7377C76.5186 57.6061 76.1968 57.3104 75.9806 57.7719C75.7446 58.276 76.21 58.4076 76.5054 58.5494C77.8934 59.2142 79.3688 59.4638 80.8872 59.4894V59.4911ZM69.275 40.8204C69.2618 41.8612 69.3559 42.6696 69.8807 43.3463C70.3527 43.9564 71.0508 43.9752 71.5773 43.4181C72.5213 42.4183 72.5411 40.036 71.6136 39.0209C71.036 38.3903 70.2323 38.4774 69.7553 39.1901C69.3806 39.7506 69.2486 40.3607 69.275 40.8187V40.8204ZM89.6441 41.14C89.6788 40.2821 89.5732 39.5729 89.0863 38.9594C88.5367 38.2672 87.8469 38.2365 87.261 38.8995C86.4028 39.872 86.4176 42.2474 87.289 43.1891C87.8634 43.8095 88.6787 43.7548 89.0896 43.0182C89.4263 42.4149 89.7762 41.7911 89.6441 41.1383V41.14ZM93.7586 33.0975C93.7553 32.8087 93.544 32.6447 93.3592 32.4891C91.5817 31.0023 89.5996 30.0966 87.2626 30.2538C86.18 30.3273 85.1716 30.6588 84.254 31.2689C83.9833 31.4484 83.8678 31.6996 84.0576 31.9884C84.2276 32.2448 84.4636 32.2089 84.7062 32.0482C86.0512 31.1527 87.5349 31.0946 89.0368 31.3817C90.4875 31.6586 91.7665 32.3473 92.869 33.3744C93.0258 33.5214 93.171 33.7299 93.4301 33.5573C93.5952 33.4479 93.7454 33.33 93.7586 33.0975ZM73.7443 31.8295C73.6733 31.5133 73.4571 31.3629 73.2063 31.2279C70.7274 29.8864 67.6626 30.7033 65.8637 32.9865C65.6656 33.2377 65.6029 33.4855 65.8637 33.7316C66.1442 33.9965 66.3439 33.8256 66.5568 33.6034C68.4317 31.6466 70.564 30.9203 73.0858 32.1935C73.5215 32.4139 73.5957 32.0875 73.7459 31.8312L73.7443 31.8295ZM112.047 40.6051C111.979 40.4308 111.89 40.1967 111.7 40.1847C111.279 40.1591 110.802 39.9933 110.454 40.3624C109.845 41.0084 109.224 41.6527 108.828 42.4764C108.663 42.8182 108.313 43.1994 108.797 43.5053C109.289 43.8163 109.386 43.2506 109.554 42.9891C110.102 42.1347 110.586 41.2272 111.705 41.058C111.926 41.0238 111.997 40.829 112.045 40.6051H112.047Z" fill="#F6F0E8"/>
<path d="M115.75 40.6739C115.715 40.0108 115.687 39.5169 115.569 39.0281C114.7 35.4598 110.918 34.0704 108.135 36.3621C107.534 36.8577 107.104 36.9432 106.42 36.5979C102.392 34.5625 100.243 31.0813 99.1769 26.7217C99.0267 26.1099 99.261 25.9356 99.7611 25.8313C100.08 25.7647 100.392 25.6416 100.695 25.5135C100.992 25.3887 101.119 25.1375 100.987 24.823C100.847 24.4915 100.613 24.6231 100.364 24.712C97.7097 25.6604 94.9816 25.5408 92.2403 25.3357C88.9395 25.0879 85.741 24.3924 82.6862 23.0628C79.4795 21.6648 76.5038 19.8653 73.8879 17.4676C73.269 16.9002 72.736 16.2525 72.2342 15.5706C71.8976 15.1109 71.5658 15.198 71.48 15.7603C71.4388 16.032 71.3199 16.138 71.14 16.2747C67.6891 18.8912 65.5518 22.4493 64.2117 26.5918C63.3304 29.316 63.3205 32.1238 63.3898 34.9659C61.2575 32.5015 60.0626 28.118 60.4917 24.6333C61.0809 19.8499 63.677 16.4712 67.4019 13.8548C69.1266 12.6431 70.9948 11.8211 73.0941 11.6587C73.3747 11.6365 73.543 11.4964 73.7196 11.3135C77.0715 7.85111 81.2355 6.08402 85.7889 5.16288C89.4957 4.41264 93.2206 4.40067 96.9257 5.16288C101.997 6.20536 106.453 8.42362 109.804 12.6585C110.962 14.1214 111.905 15.7261 112.496 17.512C113.043 19.1697 113.946 20.5506 115.11 21.7913C116.536 23.3123 117.66 25.0264 118.356 27.0515C119.442 30.2029 118.975 33.2603 117.97 36.2972C117.467 37.8182 116.742 39.2281 115.752 40.6773L115.75 40.6739Z" fill="#F1B069"/>
<path d="M41.8588 85.1024C43.9895 87.536 46.2967 89.5321 48.8053 91.2838C50.2148 92.2681 51.6721 93.1671 53.1706 93.9942C53.4545 94.1514 53.811 94.5462 54.08 94.0472C54.3506 93.5465 53.8555 93.4473 53.5634 93.2833C50.2445 91.4256 47.1285 89.2706 44.3592 86.6046C42.8243 85.1263 41.4297 83.5216 40.385 81.628C40.0698 81.0555 39.6968 80.4539 40.2348 79.7464C40.522 79.3704 40.6326 79.3875 40.9445 79.7208C43.633 82.5987 46.7126 84.9639 50.0134 87.0301C51.5582 87.9957 53.1855 88.7972 54.816 89.5902C55.0801 89.7183 55.4184 90.0687 55.6313 89.5662C55.8079 89.1492 55.4795 88.98 55.1593 88.8262C51.9972 87.3087 48.9555 85.5775 46.1878 83.3643C44.4681 81.9886 42.7863 80.5684 41.3092 78.9107C40.3256 77.8067 39.6853 76.5523 39.951 74.9749C39.9691 74.8638 39.9856 74.751 40.0236 74.6451C40.05 74.5716 40.1078 74.5101 40.1375 74.4656C42.5289 76.9573 45.3246 78.8748 48.2194 80.6573C50.832 82.2654 53.636 83.46 56.3971 84.7503C56.7074 84.8956 56.9417 84.8734 57.0787 84.5709C57.2438 84.2086 56.9467 84.0462 56.7024 83.9334C55.2336 83.2481 53.7515 82.5936 52.286 81.9031C49.345 80.5172 46.6087 78.774 44.0192 76.7779C43.0488 76.0294 42.075 75.2774 41.2531 74.3597C40.2464 73.2335 40.6524 71.7757 42.0173 71.4766C42.3737 71.398 42.6758 71.4442 42.9811 71.7518C44.4367 73.2249 46.1795 74.1632 48.1683 74.616C49.817 74.9903 51.1951 76.0071 52.7184 76.6856C55.5967 77.9674 58.4601 79.2747 61.5579 79.8968C62.964 80.1805 64.3784 80.336 65.8043 80.0164C66.5635 79.8455 66.9596 79.3909 67.0652 78.5672C67.2897 76.8138 66.8639 75.1885 66.2582 73.5906C65.3686 71.2408 64.489 68.8875 64.5583 66.3018C64.5814 65.4576 64.6507 64.6099 65.0072 63.8238C65.2746 63.2342 65.6129 62.7369 66.3176 62.6959C67.0058 62.6549 67.364 63.1231 67.6511 63.658C68.5754 65.3704 69.0936 67.2589 69.8148 69.0601C70.4551 70.6563 71.1615 72.2149 72.0989 73.6573C74.6389 77.5675 76.1721 81.8997 77.0732 86.4969C77.4033 88.1802 77.6013 89.9405 78.684 91.3384C79.4514 92.3297 80.3344 93.2269 81.186 94.1446C81.3791 94.3531 81.5804 94.4454 81.4385 94.8282C79.628 99.7005 76.8174 103.706 72.2788 106.217C70.3066 107.307 70.1845 107.384 68.7998 105.586C66.9448 103.178 64.3289 102.22 61.7411 101.162C59.4388 100.22 57.12 99.3057 54.9283 98.1146C50.3055 95.6024 46.13 92.4835 42.8557 88.2007C41.9364 86.9993 41.7185 86.3482 41.8572 85.1058L41.8588 85.1024Z" fill="#F6F0E8"/>
<path d="M27.7314 89.0244C25.2921 88.9304 22.9667 88.2451 20.9566 86.5839C20.5935 86.2831 20.4747 86.0183 20.5753 85.5073C21.0028 83.3095 21.4088 81.1152 21.0011 78.8422C20.4482 75.7473 20.0026 72.6267 19.7831 69.489C19.5768 66.5427 19.5554 66.9118 21.9501 65.9189C23.3001 65.3601 24.6964 64.9413 26.185 65.0576C27.3964 65.1533 28.3586 65.7736 29.2234 66.5956C30.3572 67.6757 31.4663 68.7934 32.4136 70.0444C33.3543 71.2851 33.7223 72.777 33.5061 74.3561C33.3279 75.6567 31.8524 76.2206 30.8507 75.4123C30.339 75.0004 30.0139 74.4416 29.7416 73.8486C29.2745 72.8351 28.6672 71.9396 27.8156 71.2321C26.9013 70.4716 25.9341 69.9726 24.7112 70.3588C24.4323 70.4477 24.1105 70.4067 23.8101 70.3964C23.5378 70.3862 23.3843 70.528 23.343 70.7707C23.2952 71.051 23.5328 71.2031 23.7259 71.2338C24.0461 71.2868 24.4059 71.321 24.7046 71.2219C25.7576 70.8698 26.5728 71.2919 27.3403 71.9687C28.1308 72.6643 28.6358 73.5632 29.1111 74.5014C29.7779 75.8173 30.646 76.8718 32.3047 76.5915C32.5324 76.5522 32.6083 76.6462 32.7073 76.8718C33.0836 77.7314 33.8181 77.9877 34.6664 77.9894C35.7655 77.9912 36.8647 78.0048 37.9638 77.9758C38.4309 77.9638 38.4623 78.1518 38.2857 78.5038C37.9292 79.2199 37.4374 79.8181 36.8168 80.3017C35.7441 81.1408 34.5888 81.8432 33.422 82.5302C33.0193 82.7678 32.1 82.9421 33.1299 83.6445C33.2256 83.7094 33.1843 84.0222 33.1744 84.2187C33.1249 85.2988 33.0424 86.3754 33.0226 87.4555C33.0143 87.9323 32.6809 88.0058 32.3971 88.1203C30.9266 88.7116 29.395 88.9816 27.7331 89.0261L27.7314 89.0244Z" fill="#F6F0E8"/>
<path d="M68.2898 62.9317C66.7549 61.2791 65.1557 61.5064 64.2942 63.3453C63.4509 65.1465 63.5928 67.0503 63.9344 68.9456C64.2381 70.6289 64.8421 72.2166 65.4346 73.8077C65.8208 74.8416 66.1707 75.8858 66.2879 77.0787C64.885 77.0787 63.4905 77.0752 62.0942 77.0787C60.1699 77.0838 58.2439 77.0957 56.3195 77.0992C56.1017 77.0992 55.864 77.1077 55.6709 77.024C54.1361 76.3575 52.6111 75.6687 51.0927 74.9048C52.3701 74.9578 53.5782 74.6211 54.8078 74.4331C58.8413 73.8196 61.175 71.2749 62.2873 67.3836C63.5994 62.7915 62.0645 58.1038 58.4568 55.6087C57.0704 54.6499 55.5026 54.3064 53.839 54.1202C50.9244 53.7955 48.1864 54.3714 45.6332 55.6924C42.443 57.3433 40.9494 60.2571 40.5946 63.858C40.5616 64.1861 40.6326 64.5347 40.3866 64.9209C40.4213 60.6023 37.2229 58.5328 34.7951 55.9556C34.1069 55.2259 34.0805 54.8687 34.8974 54.2569C35.4668 53.8296 36.1171 53.7835 36.7838 53.7835C39.644 53.7835 42.5041 53.7527 45.3626 53.7955C46.1036 53.8057 46.47 53.5357 46.6713 52.8265C46.8875 52.0642 47.1731 51.3226 47.4371 50.5757C47.5956 50.1297 47.8778 49.9263 48.3745 49.9297C51.5367 49.9537 54.6988 49.9588 57.861 49.9366C58.3363 49.9331 58.5608 50.1211 58.7043 50.5467C58.98 51.3704 59.3199 52.1736 59.5427 53.011C59.7028 53.6143 59.9867 53.8057 60.5775 53.7937C62.5844 53.7544 64.5929 53.763 66.5998 53.7664C67.8921 53.7681 68.2832 54.168 68.2849 55.4839C68.2898 57.8953 68.2849 60.3067 68.2849 62.9283L68.2898 62.9317Z" fill="#2F9E72"/>
<path d="M33.7966 103.245C33.9683 99.3021 34.2719 95.5372 34.635 91.7758C34.7819 90.2496 34.8892 88.7184 34.9932 87.1871C35.0427 86.4574 34.9651 85.8012 34.229 85.3705C33.7752 85.1056 34.1152 84.5263 34.0046 84.1093C33.7999 83.33 34.1614 82.942 34.8067 82.6224C35.8415 82.1098 36.7409 81.3646 37.6239 80.611C38.3336 80.006 38.865 79.254 39.1224 78.3261C39.1687 78.1603 39.1554 77.9962 39.3766 77.9569C39.705 77.8988 39.7925 78.1825 39.9311 78.3705C40.0302 78.5038 40.1754 78.6405 39.9509 78.8627C38.8353 79.9718 39.1703 81.1476 39.8602 82.3182C40.045 82.6327 40.2167 82.9642 40.4477 83.2394C41.0418 83.9486 41.3901 84.6322 41.027 85.6525C40.7629 86.3976 41.2448 87.1359 41.6442 87.7836C42.3077 88.8637 43.0784 89.8651 43.9861 90.7316C44.4037 91.1298 44.4136 91.34 44.0159 91.7809C40.6342 95.5407 37.2806 99.3278 33.7983 103.243L33.7966 103.245Z" fill="#F6F0E8"/>
<path d="M59.0492 64.345C59.2852 69.0037 55.7633 74.0828 50.0562 73.9683C45.351 73.8743 41.3075 70.4666 41.3009 65.1841C41.2943 59.4744 45.0456 55.3779 50.312 55.3711C55.0932 55.3643 59.409 59.2864 59.0492 64.345ZM50.2015 57.0596C45.9567 57.0408 42.9298 60.3425 42.9249 65.0012C42.9199 69.1797 45.9748 72.2627 50.1288 72.3106C54.0122 72.355 57.4054 68.7507 57.4582 64.4885C57.5094 60.3648 54.2746 57.0784 50.2015 57.0596Z" fill="#2F9E72"/>
<path d="M20.0209 65.8434C20.4978 63.5875 21.5046 61.9144 23.6748 61.183C24.6304 60.8617 25.5348 60.3695 26.4904 60.0482C28.1755 59.4825 29.7318 59.8756 31.1065 60.9762C32.5506 62.1331 33.5904 63.6969 34.8183 65.0709C35.3018 65.6126 35.7507 66.1766 36.3267 66.6312C37.0248 67.1798 37.4077 69.2066 37.0331 70.0287C36.5413 71.1087 35.221 71.307 34.1977 70.4986C33.0524 69.5929 32.143 68.4478 31.1775 67.3661C28.3075 64.1446 26.4359 63.1363 21.0309 65.3785C20.7124 65.5101 20.4021 65.6673 20.0209 65.8416V65.8434Z" fill="#F6F0E8"/>
<path d="M22.2241 60.8757C22.3462 59.4469 23.3249 58.6471 24.1781 57.9294C25.6783 56.6664 27.332 55.5624 29.1887 54.9096C31.0239 54.2653 32.5984 54.9899 33.8577 56.3092C35.0228 57.5295 36.4059 58.5087 37.439 59.8725C38.2675 60.9662 39.1637 62.0036 39.4971 63.405C39.7397 64.4184 39.4772 65.2951 38.728 65.7035C37.6305 66.3017 36.9422 66.235 36.16 65.3532C34.97 64.0133 33.8379 62.6205 32.6545 61.2756C31.2748 59.7067 29.5881 58.8027 27.4888 58.9633C26.2989 59.0556 25.2492 59.6606 24.1517 60.0861C23.518 60.3322 22.8908 60.6005 22.2224 60.8739L22.2241 60.8757Z" fill="#F6F0E8"/>
<path d="M27.1208 54.9335C27.8684 53.5082 28.5979 52.2418 29.2135 50.9191C30.3259 48.5248 32.2519 47.5267 34.6829 47.3575C36.5016 47.2311 38.2972 47.3541 40.0268 48.0258C40.7002 48.2872 41.3389 48.6068 41.7977 49.2032C42.2978 49.8527 42.174 50.3483 41.4231 50.6542C40.9626 50.8422 40.4758 50.9276 39.9757 50.9208C38.7676 50.9037 37.5562 50.943 36.3514 50.8695C34.8529 50.7789 33.7521 51.3771 32.9863 52.693C32.8592 52.9117 32.6793 53.0997 32.577 53.3287C32.2997 53.944 31.9333 54.014 31.2748 53.8842C29.8258 53.5953 28.489 54.1354 27.1191 54.9335H27.1208Z" fill="#F6F0E8"/>
<path d="M42.0535 70.6104C40.6787 70.9574 39.8684 71.7589 39.8255 73.2457C39.8222 73.3499 39.7726 73.4713 39.7066 73.555C38.8814 74.5924 39.0184 75.7682 39.2643 77.0584C37.5842 77.0055 35.9223 77.1524 34.2686 76.9286C33.4797 76.8209 33.318 76.3441 33.8164 75.6998C34.5904 74.6983 34.3759 73.5584 34.2884 72.4356C34.2653 72.1366 34.1613 71.8426 34.0755 71.4684C34.3528 71.5829 34.5624 71.6922 34.7835 71.7589C36.6402 72.316 38.076 71.0189 37.9985 68.869C37.977 68.2657 37.5842 67.6334 37.7047 67.1429C37.8318 66.6217 38.7312 66.8678 39.1504 66.4337C39.3039 66.2748 39.4805 66.1346 39.6555 65.9996C39.8453 65.8526 39.8931 65.4664 40.1819 65.533C40.5153 65.61 40.4724 65.9911 40.4988 66.2491C40.6639 67.8265 41.2151 69.2552 42.0518 70.6104H42.0535Z" fill="#2F9E72"/>
<path d="M72.3448 65.375C73.8335 66.8311 75.3287 67.9983 77.0088 68.9143C78.1856 69.5535 79.4283 69.9722 80.7156 70.2183C81.6597 70.3977 81.0474 71.0625 81.1794 71.4795C81.3065 71.8845 81.1414 72.0896 80.648 72.1494C78.2268 72.4451 75.8074 72.7664 73.4011 73.1697C72.6535 73.2961 72.462 72.9407 72.4092 72.3699C72.3432 71.6641 72.3514 70.948 72.3481 70.2371C72.3399 68.6768 72.3465 67.1182 72.3465 65.375H72.3448Z" fill="#F6F0E8"/>
<path d="M53.06 54.8975C57.4797 54.9009 61.2228 58.3394 61.7724 62.3777C62.4821 67.5969 59.6187 72.8777 55.156 73.4348C58.8578 71.0029 60.3085 67.3628 59.8844 63.0288C59.4833 58.9307 57.1794 56.4321 53.0583 54.8992L53.06 54.8975Z" fill="#2F9E72"/>
<path d="M71.4734 70.7674C70.5392 68.8106 69.9319 66.8811 69.2206 64.9961C69.1265 64.7449 69.1579 64.4356 69.1595 64.1536C69.1777 61.2825 69.2057 58.4097 69.2222 55.5386C69.2255 54.9781 69.313 54.397 68.9384 53.8758C69.4483 53.8758 69.9236 53.8741 70.3973 53.8758C71.3661 53.8809 71.6103 54.1133 71.6004 55.1267C71.5674 58.5105 71.5113 61.8926 71.4783 65.2764C71.4618 67.0572 71.475 68.8379 71.475 70.7674H71.4734Z" fill="#2F9E72"/>
<path d="M106.348 58.051C106.427 55.9592 106.569 54.04 106.835 52.1328C106.896 51.6987 106.922 51.3826 107.577 51.5483C108.696 51.832 109.802 51.5586 110.947 50.8887C109.881 53.6624 108.5 56.0327 106.349 58.051H106.348Z" fill="#F1B069"/>
<path d="M58.3957 78.0429C60.8498 78.0429 63.304 78.0429 65.7581 78.0429C65.938 78.0429 66.1822 77.9694 66.1905 78.2753C66.1987 78.5761 66.2862 78.9282 65.9182 79.0905C65.6162 79.2238 65.3009 79.2853 64.9642 79.3075C62.6801 79.4545 60.5181 78.9008 58.394 78.0395L58.3957 78.0429Z" fill="#F1B069"/>
<path d="M62.9953 52.7651C62.1453 52.7651 61.2657 53.0077 60.6484 52.695C60.0461 52.3891 60.0626 51.3603 59.7523 50.6733C59.6615 50.4716 59.5757 50.2683 59.4486 49.9743C60.0411 49.9743 60.5725 49.9948 61.1023 49.9675C61.4538 49.9487 61.6552 50.0905 61.807 50.4067C62.185 51.186 62.5844 51.9516 62.9953 52.7651Z" fill="#2F9E72"/>
<path d="M37.2691 51.9275C38.5746 51.9275 39.7199 51.9173 40.8653 51.9309C41.5535 51.9395 41.57 51.9702 41.9199 52.7769C40.4725 52.7769 39.0697 52.7991 37.6702 52.7666C37.0513 52.753 37.52 52.1924 37.2675 51.9275H37.2691Z" fill="#2F9E72"/>
<path d="M35.8893 51.798C36.1715 51.7792 36.4571 51.7724 36.4983 52.2868C36.5379 52.7944 36.2821 52.7824 35.9339 52.8439C34.8809 53.0302 33.96 53.4592 33.4187 54.5017C33.3774 54.5803 33.4005 54.9289 33.1365 54.6999C33.0358 54.6127 32.8889 54.582 32.9533 54.3256C33.2256 53.2353 34.8017 51.8168 35.8893 51.798Z" fill="#F6F0E8"/>
<path d="M69.1827 107.445C68.8608 107.508 68.544 107.583 68.2238 107.63C67.4497 107.741 67.359 107.614 67.6676 106.852C67.76 106.623 67.8937 106.411 68.0175 106.172C68.4136 106.606 68.7849 107.011 69.181 107.445H69.1827Z" fill="#F1B069"/>
<path d="M105.589 59.9922C105.377 58.9104 105.379 57.8286 105.589 56.7451C105.589 57.8269 105.589 58.9087 105.589 59.9922Z" fill="#F1B069"/>
<path d="M89.9529 81.3767C90.8788 81.3733 91.8063 81.3716 92.7305 81.3682C91.8046 81.5818 90.8788 81.5664 89.9529 81.3767Z" fill="#F1B069"/>
<path d="M77.5452 39.766C77.4313 42.6473 76.6293 45.3287 75.4047 47.8905C75.1868 48.3468 74.9492 48.7928 74.7429 49.256C74.3088 50.2301 74.563 50.8009 75.5598 51.1C76.8256 51.4811 78.1031 51.4742 79.3821 51.1837C79.7419 51.1017 80.1297 50.9496 80.2321 51.4896C80.3327 52.0245 79.8838 52.057 79.5488 52.1322C78.0321 52.4689 76.5236 52.4723 75.0333 51.9716C73.784 51.5511 73.2592 50.5411 73.7246 49.2662C74.0101 48.4818 74.4293 47.7504 74.7808 46.9916C76.0054 44.3461 76.6804 41.5724 76.5781 38.621C76.5715 38.4227 76.5781 38.2228 76.5715 38.0245C76.5649 37.7596 76.6656 37.5717 76.9346 37.5546C77.2151 37.5358 77.4132 37.6605 77.4346 37.9818C77.4743 38.5765 77.5106 39.1713 77.5485 39.766H77.5452Z" fill="#1C1C1A"/>
<path d="M80.8872 59.4915C79.3688 59.4659 77.8934 59.2164 76.5054 58.5516C76.2083 58.4097 75.7429 58.2781 75.9806 57.774C76.1968 57.3126 76.517 57.6082 76.8124 57.7398C79.9069 59.1172 82.9782 58.6695 86.0051 57.5228C88.1077 56.7264 89.9891 55.5455 91.3738 53.6519C91.5174 53.4554 91.6395 53.1785 91.9514 53.4366C92.2303 53.6673 92.1742 53.9185 92.0108 54.1817C91.5421 54.9405 90.9364 55.5489 90.2499 56.1094C88.2248 57.7603 85.9176 58.7139 83.4189 59.2283C82.5871 59.3992 81.7437 59.5257 80.8872 59.4932V59.4915Z" fill="#1C1C1A"/>
<path d="M69.2751 40.8208C69.2487 40.3628 69.3807 39.7509 69.7554 39.1921C70.234 38.4777 71.0377 38.3923 71.6137 39.0229C72.5412 40.0363 72.5214 42.4204 71.5774 43.4201C71.0509 43.9773 70.3528 43.9585 69.8808 43.3484C69.356 42.6716 69.2619 41.8615 69.2751 40.8225V40.8208Z" fill="#1C1C1A"/>
<path d="M89.6442 41.1402C89.7762 41.793 89.428 42.4151 89.0897 43.0201C88.6787 43.7566 87.8634 43.8113 87.2891 43.191C86.4177 42.2493 86.4012 39.8738 87.261 38.9014C87.8486 38.2366 88.5368 38.2691 89.0864 38.9612C89.5732 39.573 89.6789 40.284 89.6442 41.1419V41.1402Z" fill="#1C1C1A"/>
<path d="M93.7586 33.0977C93.7454 33.3301 93.5952 33.4481 93.4302 33.5574C93.1694 33.73 93.0258 33.5215 92.869 33.3746C91.7666 32.3475 90.4875 31.6588 89.0368 31.3819C87.535 31.0948 86.0513 31.1529 84.7062 32.0484C84.4636 32.209 84.2276 32.2466 84.0576 31.9886C83.8678 31.6998 83.9833 31.4486 84.254 31.2691C85.1716 30.659 86.18 30.3275 87.2627 30.254C89.6013 30.0967 91.5834 31.0025 93.3592 32.4893C93.544 32.6448 93.7553 32.8089 93.7586 33.0977Z" fill="#1C1C1A"/>
<path d="M73.7444 31.8295C73.5942 32.0858 73.5199 32.4105 73.0842 32.1918C70.5624 30.9186 68.4301 31.6449 66.5553 33.6017C66.3424 33.8239 66.1427 33.9948 65.8621 33.7299C65.603 33.4855 65.6641 33.2377 65.8621 32.9848C67.6611 30.7016 70.7258 29.8864 73.2047 31.2262C73.4556 31.3629 73.6718 31.5133 73.7427 31.8278L73.7444 31.8295Z" fill="#1C1C1A"/>
<path d="M112.047 40.6056C111.999 40.8278 111.928 41.0243 111.707 41.0585C110.586 41.2277 110.104 42.1351 109.556 42.9896C109.388 43.2511 109.29 43.8168 108.799 43.5057C108.315 43.1998 108.665 42.8187 108.83 42.4769C109.228 41.6532 109.847 41.0089 110.456 40.3629C110.804 39.9938 111.281 40.1596 111.702 40.1852C111.891 40.1971 111.981 40.4313 112.048 40.6056H112.047Z" fill="#1C1C1A"/>
<path d="M50.2015 57.0597C54.273 57.0767 57.5094 60.3648 57.4583 64.4886C57.4055 68.7508 54.0123 72.3551 50.1289 72.3106C45.9749 72.2628 42.92 69.1798 42.9249 65.0013C42.9299 60.3426 45.9567 57.0409 50.2015 57.0597ZM50.2147 57.9449C46.4469 57.9312 43.8211 60.7887 43.7699 64.9056C43.7287 68.3031 45.9963 71.4237 49.9738 71.4254C53.6294 71.4254 56.605 68.3116 56.6265 64.4527C56.6496 60.0264 53.0682 57.9534 50.2147 57.9432V57.9449Z" fill="#1C1C1A"/>
<path d="M50.2147 57.9453C53.0683 57.9556 56.6496 60.0286 56.6265 64.4548C56.6067 68.3137 53.6294 71.4292 49.9738 71.4275C45.9963 71.4258 43.7287 68.3052 43.77 64.9077C43.8211 60.7908 46.4452 57.9334 50.2147 57.947V57.9453ZM45.1612 64.7214C45.1843 67.6523 47.2143 69.7322 50.015 69.6946C52.8224 69.657 54.9844 67.3071 54.9646 64.3147C54.9464 61.6572 52.6557 59.3877 50.0282 59.427C47.3711 59.4663 45.1381 61.8948 45.1612 64.7214Z" fill="#2F9E72"/>
<path d="M45.1612 64.7207C45.1381 61.8941 47.3711 59.4639 50.0282 59.4263C52.6556 59.387 54.9464 61.6565 54.9645 64.314C54.9843 67.3064 52.8223 69.6563 50.015 69.6939C47.2143 69.7315 45.1843 67.6516 45.1612 64.7207Z" fill="#F8F6F3"/>
</svg>
