<svg width="127" height="175" viewBox="0 0 127 175" fill="none" xmlns="http://www.w3.org/2000/svg">
<path d="M43.7194 30.9988C43.7194 30.0774 43.6982 29.2351 43.7247 28.3945C43.7529 27.5469 43.8041 26.6993 43.8906 25.857C44.2542 22.3365 45.6785 19.2856 48.0578 16.6742C49.1733 15.4503 50.4441 14.4128 51.9479 13.6936C52.3168 13.5178 52.4121 13.3577 52.2268 12.9656C52.082 12.6596 52.0591 12.2921 52.0167 11.9474C51.985 11.6942 52.0891 11.4427 52.3733 11.441C52.5815 11.4392 52.8198 11.5342 52.9893 11.6608C53.111 11.7522 53.1516 11.9633 53.2081 12.1285C53.5841 13.2276 54.2159 14.1701 54.9802 15.0353C56.7399 17.0294 58.9162 18.445 61.3149 19.5458C65.8227 21.6121 70.5759 22.4702 75.5162 22.37C78.3102 22.3137 80.9913 21.7615 83.4712 20.418C83.5223 20.3899 83.5735 20.3583 83.6247 20.3319C83.9053 20.1894 84.2107 20.1103 84.4225 20.3987C84.6714 20.7381 84.4419 21.0247 84.1807 21.2252C83.8806 21.4555 83.5506 21.656 83.2135 21.8283C82.8563 22.0119 82.4948 22.1783 82.1294 22.3288C82.1205 22.3325 82.1115 22.3362 82.1026 22.3398C82.0845 22.3472 82.0665 22.3546 82.0484 22.3619C82.2021 22.9654 82.331 23.6009 82.361 23.9104C82.5163 25.544 83.1182 27.0317 83.8912 28.4508C84.9767 30.4449 86.4399 32.0856 88.4856 33.1741C89.3222 33.619 90.09 33.9091 90.8613 33.1037C90.8807 33.0826 90.9125 33.0738 90.9372 33.0598C92.6104 32.0715 94.2554 32.1612 95.7698 33.3816C97 34.3734 97.7537 35.6799 98.0891 37.2151C98.2197 37.8112 98.2867 38.4214 98.382 39.0246C99.1181 38.0504 99.7605 37.0691 100.281 36.0299C101.466 33.6665 101.893 31.1395 101.57 28.5264C101.27 26.0874 100.251 23.9104 98.668 22.0429C96.85 19.8975 95.4309 17.5412 94.2978 14.9738C91.7032 9.09516 87.1477 5.29684 81.2155 3.03719C78.8186 2.12453 76.3228 1.61985 73.7671 1.39476C70.9731 1.14858 68.1826 1.15913 65.4274 1.70426C60.5012 2.68021 56.1504 4.7904 52.6098 8.41111C52.1791 8.85249 51.6726 9.11099 51.0707 9.18309C48.2872 9.51896 46.1163 10.9873 44.3301 13.0008C41.6331 16.0429 40.2811 19.6039 40.5476 23.717C40.7294 26.5077 41.7355 28.9256 43.7158 30.9988H43.7194Z" fill="#F1B069"/>
<path d="M92.622 48.8393C91.4617 49.1134 90.4475 49.4363 89.3769 49.1429C89.3134 49.1253 89.1316 49.2836 89.1192 49.3732C88.9394 50.7889 88.7772 52.2063 88.615 53.6238L88.6144 53.6288C88.5827 53.9101 88.6709 54.0297 88.948 53.8433C89.1422 53.7132 89.3557 53.6042 89.5287 53.4512C90.9278 52.2084 92.0024 50.7443 92.622 48.8393Z" fill="#F1B069"/>
<path d="M41.1266 114.636C41.3154 114.65 41.4266 114.669 41.5378 114.666C43.6523 114.595 45.7686 114.539 47.8813 114.442C49.025 114.39 50.1652 114.275 51.3037 114.168C51.9038 114.112 51.9073 114.091 51.6831 113.579C50.6559 111.245 49.7187 108.879 49.1009 106.299C47.1082 109.761 44.4571 112.476 41.1248 114.636H41.1266Z" fill="#F1B069"/>
<path d="M15.8621 130.533C15.8056 130.547 15.7491 130.562 15.6926 130.577C15.8038 131.793 16.035 132.991 16.418 134.151C17.6536 137.885 19.6427 141.147 22.5956 143.792C24.5618 145.552 26.7646 146.899 29.3203 147.639C30.9989 148.124 32.7039 148.327 34.4512 148.256C34.8519 148.24 35.0619 148.138 35.0461 147.711C35.0372 147.477 35.0637 147.243 35.0672 147.01C35.0902 145.399 35.0919 143.786 35.1396 142.177C35.2261 139.251 35.3373 136.325 35.4432 133.399C35.4838 132.258 35.4961 131.115 35.6038 129.98C35.6744 129.237 35.595 128.63 34.9525 128.141C34.6578 127.918 34.3701 127.592 34.2483 127.255C33.7311 125.82 32.6456 124.925 31.4295 124.135C31.3836 124.105 31.3236 124.095 31.2742 124.077C31.193 124.645 31.1277 125.217 31.0289 125.783C30.5453 128.556 29.3345 130.93 27.107 132.72C25.3596 134.123 23.3599 134.804 21.1201 134.501C19.0832 134.225 17.5582 133.081 16.4216 131.401C16.2292 131.116 16.0474 130.824 15.8603 130.536L15.8621 130.533Z" fill="#F1B069"/>
<path fill-rule="evenodd" clip-rule="evenodd" d="M34.4212 166.919C34.4354 166.072 34.5024 165.224 34.5271 164.375C34.6648 159.69 34.7972 155.005 34.9313 150.323C34.9366 150.147 34.9172 149.969 34.9419 149.795C34.9984 149.38 34.7795 149.301 34.4265 149.315C33.9275 149.336 33.4284 149.332 32.9293 149.329H32.928C29.6575 149.31 26.7063 148.267 24.05 146.429C19.5192 143.294 16.5522 139.03 15.0784 133.737C14.796 132.724 14.5295 131.698 14.6301 130.631C14.6813 130.089 14.4659 129.785 13.9894 129.525C12.6974 128.822 11.4989 127.981 10.4558 126.933C9.70213 126.177 9.06143 125.343 8.75785 124.308C8.61665 123.829 8.32189 123.625 7.87887 123.448C5.99736 122.697 4.60476 121.438 4.29941 119.366C4.17762 118.54 3.88463 118.067 3.21568 117.578C1.17709 116.09 0.742892 114.012 1.3024 111.648C1.53539 110.663 2.04548 109.812 2.5891 108.981C2.78326 108.685 2.79032 108.518 2.50085 108.258C1.33947 107.212 0.787017 105.826 0.538149 104.333C0.363412 103.288 0.663466 102.267 1.26357 101.419C1.84956 100.591 2.75678 100.188 3.79285 100.287C4.21645 100.327 4.24646 100.171 4.20057 99.8663C4.00994 98.5985 3.7346 97.3359 3.63929 96.061C3.54222 94.7562 3.57045 93.4373 3.63223 92.1273C3.71166 90.4338 4.04701 88.7773 4.52004 87.1455C5.25782 84.5922 6.40155 82.2305 7.98477 80.1098C9.01378 78.7294 10.1204 77.3718 11.3754 76.1989C14.4871 73.2921 18.146 71.3332 22.3203 70.3449C24.3906 69.8543 26.4839 69.5993 28.6002 69.6785C33.6287 69.8684 38.2019 71.4316 42.2403 74.4351C43.414 75.3074 44.4907 76.3132 45.5815 77.2909C45.8833 77.5617 46.0704 77.5758 46.4004 77.3525C50.9736 74.2505 56.0445 72.2494 61.3131 70.6913L61.3415 70.6829C62.0811 70.4646 62.0899 70.4619 62.1091 69.7048C62.1197 69.2652 62.1179 68.8256 62.1021 68.3877C62.0706 67.549 62.0634 67.5471 61.2836 67.3483L61.2637 67.3432C60.6424 67.1849 60.0158 67.0337 59.4051 66.8367C55.4779 65.5654 52.315 63.2477 49.9622 59.8714C48.2396 57.399 47.1665 54.6241 46.404 51.7278C45.7209 49.1306 45.2338 46.4981 44.9549 43.8235C44.7749 42.1107 44.5154 40.405 44.3248 38.694C44.2153 37.7075 44.1677 36.7122 44.0988 35.7204C44.0318 34.7585 43.9647 33.7948 43.917 32.8312C43.9012 32.5094 43.7988 32.2825 43.497 32.126C42.4115 31.5598 41.7178 30.6102 41.1177 29.5973C40.2458 28.1255 39.7287 26.5305 39.4869 24.8301C38.8479 20.3073 40.1152 16.3507 42.9534 12.8302C44.7095 10.6532 46.8646 9.05999 49.5669 8.24757C49.6516 8.22296 49.731 8.15613 49.814 8.15789C51.09 8.18241 51.9092 7.43275 52.7927 6.62426L52.8039 6.61394C56.0657 3.6298 59.9223 1.73943 64.2254 0.730056C66.8747 0.107553 69.5646 -0.112258 72.2703 0.0530396C78.3367 0.422321 83.9636 2.08936 88.8227 5.88417C91.555 8.01897 93.56 10.727 95.0938 13.8026C95.3674 14.3513 95.648 14.8999 95.8757 15.4679C96.7706 17.6977 98.2161 19.5705 99.7005 21.4204C101.285 23.3969 102.348 25.5985 102.69 28.1272C103.335 32.8769 101.907 36.9337 98.6133 40.3804C98.4456 40.5562 98.3238 40.7971 98.2444 41.0292C97.8367 42.2109 97.6319 43.4647 96.9947 44.5655C96.317 45.7349 95.5792 46.8586 94.4778 47.6886C94.0842 47.9858 93.8618 48.3604 93.7524 48.8439C93.3147 50.7871 92.3068 52.4154 90.8437 53.7431C90.2682 54.2653 89.5711 54.661 88.911 55.0848C88.6321 55.2642 88.3656 55.3855 88.3726 55.7935C88.4132 58.6545 88.7592 61.44 90.2894 63.9563C91.1384 65.3543 92.2927 66.3918 93.8089 67.0161C97.3778 68.4844 100.963 69.9141 104.517 71.4176C108.109 72.9387 111.63 74.6092 114.919 76.7194C117.656 78.4762 120.085 80.5793 121.915 83.3032C123.465 85.6103 124.487 88.1337 125.087 90.84C125.562 92.9819 125.844 95.1413 126.005 97.3306C126.28 101.05 126.156 104.767 126.109 108.485C126.082 110.532 125.939 112.58 125.773 114.622C125.6 116.746 125.341 118.861 125.112 120.98C124.926 122.693 124.787 124.413 124.524 126.113C124.105 128.82 123.661 131.526 123.119 134.211C122.429 137.639 121.544 141.02 120.332 144.31C119.296 147.119 118.013 149.79 116.175 152.179C114.859 153.892 113.342 155.383 111.478 156.497C111.134 156.702 110.988 156.949 111.002 157.348C111.099 160.01 111.184 162.672 111.272 165.333C111.291 165.919 111.32 166.504 111.318 167.09C111.318 167.09 111.448 167.916 111.318 168.418C111.197 168.886 110.771 169.344 110.326 169.532C106.331 171.219 88.0612 175.517 77.144 174.949C58.0378 173.954 51.5258 171.786 35.4926 168.62C35.0878 168.54 34.6748 168.187 34.5271 167.802C34.4029 167.478 34.4212 166.919 34.4212 166.919ZM106.741 158.345C107.793 158.118 108.817 157.773 109.876 157.476L109.879 157.465C109.888 157.56 109.913 157.703 109.916 157.845C109.984 160.905 110.397 164.254 110.397 167.241C110.397 167.241 110.47 168.094 110.215 168.481C110.073 168.696 109.919 168.829 109.681 168.931C104.738 171.054 87.4748 174.409 77.3392 173.934C58.8652 173.069 49.4056 170.629 36.9721 167.964L36.2184 167.802C36.0952 167.776 35.7519 167.714 35.6656 167.594C35.6063 167.512 35.584 167.391 35.5782 167.277C35.57 167.116 35.595 166.968 35.595 166.968C35.6303 166.061 35.6338 165.152 35.6656 164.244C35.8209 159.678 35.9956 155.113 36.1368 150.546C36.2586 146.593 36.3451 142.64 36.4492 138.687C36.5234 135.875 36.5975 133.065 36.6734 130.253C36.6769 130.119 36.6981 129.986 36.7158 129.812C37.5594 130.244 38.2143 130.814 38.802 131.473C39.9087 132.715 41.2342 133.659 42.7363 134.378C46.4993 136.179 50.5394 136.791 54.636 137.164C55.6015 137.252 56.5723 137.292 57.5359 137.387C58.1466 137.447 58.7503 137.586 59.361 137.654C59.6928 137.691 59.7705 137.843 59.8111 138.157C59.9699 139.371 60.7253 140.136 61.7914 140.656C62.1832 140.848 62.5786 141.05 62.9246 141.31C66.2163 143.774 69.6705 145.981 73.2729 147.959C77.0994 150.061 81.0248 151.96 85.0526 153.644C90.3759 155.871 95.7716 157.877 101.57 158.521C103.303 158.712 105.034 158.712 106.741 158.345ZM70.2 131.004C70.8336 129.398 71.2837 127.738 71.3102 125.99C71.3313 124.659 71.1821 123.938 70.5752 122.868L70.5653 122.866L70.5706 122.86L70.5752 122.868C71.0172 122.993 71.378 123.067 71.7161 123.198C73.2711 123.799 74.812 124.439 76.3722 125.025C82.2586 127.232 88.1944 129.293 94.1954 131.171L94.5032 131.267C96.9388 132.029 99.3738 132.791 101.716 133.817C103.118 134.431 104.471 135.127 105.645 136.112C106.18 136.561 106.641 137.099 107.131 137.6C107.234 137.705 107.31 137.834 107.408 137.941C107.691 138.249 108.081 138.335 108.339 138.156C108.572 137.994 108.612 137.637 108.316 137.296C107.705 136.591 107.099 135.863 106.388 135.263C104.62 133.772 102.516 132.877 100.354 132.11C100.082 132.013 99.8029 131.934 99.3422 131.788C99.667 131.756 99.8223 131.7 99.9547 131.735C101.709 132.193 103.471 132.622 105.206 133.144C106.561 133.552 107.788 134.25 108.914 135.112L108.915 135.112C109.077 135.237 109.239 135.362 109.408 135.477C109.71 135.683 109.998 135.574 110.192 135.342C110.384 135.113 110.31 134.825 110.084 134.639C109.657 134.287 109.225 133.932 108.759 133.633C106.662 132.286 104.334 131.516 101.91 131.034C100.449 130.742 98.9663 130.548 97.4889 130.334C97.1977 130.292 97.1024 130.26 97.1677 129.921C97.4589 128.405 97.7166 126.882 97.9726 125.359C98.2532 123.69 98.525 122.021 98.7845 120.349C98.9839 119.053 99.1534 117.75 99.3475 116.452C99.5593 115.04 99.7817 113.628 100.002 112.216C100.359 109.941 100.738 107.669 101.07 105.39C101.462 102.705 102.046 100.062 102.867 97.4783C103.862 94.3377 105.285 91.3992 107.428 88.86C108.123 88.0353 108.949 87.3178 109.721 86.5581C109.908 86.3735 110.179 86.2469 110.301 86.0324C110.411 85.8389 110.457 85.5189 110.37 85.3254C110.247 85.0441 109.931 85.0757 109.678 85.2094C109.498 85.3043 109.338 85.438 109.177 85.5646C107.403 86.9608 106.023 88.6965 104.828 90.5921C103.051 93.4109 101.871 96.4813 101.111 99.7046C100.628 101.753 100.253 103.831 99.8782 105.904L99.8523 106.047C99.4834 108.084 99.164 110.129 98.8498 112.176C98.5744 113.962 98.3485 115.758 98.0838 117.546C97.8331 119.248 97.5684 120.949 97.2913 122.647C96.9171 124.949 96.527 127.248 96.144 129.548C96.1281 129.634 96.1264 129.722 96.1087 129.808C95.9657 130.489 95.9446 130.503 95.2703 130.302C88.3761 128.243 81.6179 125.797 74.8896 123.265C73.6312 122.792 72.3727 122.324 71.1142 121.851C70.5053 121.624 69.8858 121.629 69.3157 121.905C69.0209 122.05 68.8427 121.988 68.6044 121.844C67.683 121.285 66.9347 120.558 66.3893 119.628C65.798 118.619 65.2261 117.599 64.6243 116.597C63.1258 114.103 61.2425 111.893 59.4263 109.633C58.4732 108.448 57.543 107.241 56.657 106.005C55.688 104.653 55.2291 103.081 54.8478 101.482C54.719 100.948 54.5513 100.415 54.3307 99.9103C53.9512 99.0381 53.2911 98.5053 52.2956 98.4912C51.9479 98.4859 51.8861 98.4103 51.9532 98.0252C52.3433 95.7919 52.315 93.5481 52.0626 91.2955C51.7008 88.0564 50.693 85.0283 49.0815 82.2094C48.4161 81.0453 47.583 79.9779 46.8135 78.8736C46.644 78.6291 46.5646 78.506 46.9017 78.2933C51.2842 75.5149 56.0039 73.5014 60.9795 72.0559C61.4402 71.9223 61.4561 71.9328 61.3908 72.3637C61.0872 74.3824 61.9485 75.8841 63.5052 77.0641C65.0338 78.2212 66.8023 78.8384 68.6732 79.1233C70.004 79.3255 71.3649 79.5101 72.7028 79.4556C77.1012 79.2745 81.2419 78.1508 85.0579 75.8912C87.9949 74.1503 90.3971 71.8941 92.1851 68.9909C92.4092 68.6269 92.5822 68.0941 92.907 67.971C93.1805 67.8655 93.6359 68.2488 94.0136 68.4053C97.8208 69.9862 101.635 71.553 105.437 73.1497C108.711 74.5248 111.849 76.1673 114.839 78.0823C119.841 81.2862 122.859 85.8319 124.047 91.6155C124.547 94.0528 124.887 96.5059 124.931 98.9977C124.972 101.28 125.099 103.563 125.074 105.843C125.052 107.978 124.896 110.111 124.769 112.244C124.663 114.026 124.536 115.805 124.377 117.581C124.257 118.92 124.068 120.249 123.913 121.584C123.767 122.83 123.648 124.081 123.474 125.324C123.271 126.768 123.064 128.213 122.782 129.641C122.227 132.442 121.682 135.247 121.018 138.024C120.108 141.833 118.84 145.524 116.932 148.967C115.582 151.402 113.897 153.558 111.553 155.137C109.622 156.437 107.502 157.177 105.176 157.416C102.415 157.699 99.7429 157.26 97.0848 156.611C91.5444 155.257 86.3287 153.032 81.1607 150.687C75.9222 148.309 70.9272 145.492 66.1669 142.265C65.2932 141.673 64.4354 141.059 63.5688 140.457C63.3482 140.304 63.3076 140.178 63.5706 140.018C67.0176 137.916 68.7897 134.586 70.2 131.004ZM43.7247 28.3945C43.6982 29.2351 43.7194 30.0774 43.7194 30.9988H43.7158C41.7355 28.9256 40.7294 26.5077 40.5476 23.717C40.2811 19.6039 41.6331 16.0429 44.3301 13.0008C46.1163 10.9873 48.2872 9.51896 51.0707 9.18309C51.6726 9.11099 52.1791 8.85249 52.6098 8.41111C56.1504 4.7904 60.5012 2.68021 65.4274 1.70426C68.1826 1.15913 70.9731 1.14858 73.7671 1.39476C76.3228 1.61985 78.8186 2.12453 81.2155 3.03719C87.1477 5.29684 91.7032 9.09516 94.2978 14.9738C95.4309 17.5412 96.85 19.8975 98.668 22.0429C100.251 23.9104 101.27 26.0874 101.57 28.5264C101.893 31.1395 101.466 33.6665 100.281 36.0299C99.7605 37.0691 99.1181 38.0504 98.382 39.0246C98.2867 38.4214 98.2197 37.8112 98.0891 37.2151C97.7537 35.6799 97 34.3734 95.7698 33.3816C94.2554 32.1612 92.6104 32.0715 90.9372 33.0598C90.9125 33.0738 90.8807 33.0826 90.8613 33.1037C90.09 33.9091 89.3222 33.619 88.4856 33.1741C86.4399 32.0856 84.9767 30.4449 83.8912 28.4508C83.1182 27.0317 82.5163 25.544 82.361 23.9104C82.331 23.6009 82.2021 22.9654 82.0484 22.3619C81.6797 22.5112 81.3071 22.6444 80.9308 22.7629C80.9238 22.8772 81.226 24.2234 81.2402 24.3377C81.3902 25.5018 81.722 26.6167 82.2021 27.6859C83.3264 30.1952 84.9096 32.3335 87.2712 33.8282C87.6172 34.0463 87.9755 34.252 88.3514 34.4121C89.1165 34.738 89.0053 34.8474 88.568 35.2778L88.5632 35.2825C88.3991 35.4443 88.2791 35.6518 88.1432 35.8417C87.9331 36.1336 88.0002 36.3851 88.2561 36.6137C88.5421 36.8704 88.745 36.6735 88.9321 36.4853C89.1175 36.2989 89.2798 36.0896 89.4457 35.8839C90.0017 35.1946 90.6301 34.5879 91.3908 34.1201C93.0552 33.0985 94.6508 33.6823 95.6021 34.7796C96.8341 36.2004 97.2348 37.8921 97.0918 39.7578C96.9647 41.4179 96.5288 42.9671 95.7257 44.4196C95.2085 45.3516 94.5572 46.1816 93.7189 46.8445C92.3492 47.9278 90.8419 48.3727 89.1157 47.7906C88.422 47.5567 88.1961 47.7132 88.0637 48.4993L88.0557 48.5474C87.9189 49.365 87.7815 50.186 87.7019 51.0104L87.6924 51.1084C87.5385 52.7042 87.3843 54.3016 87.3048 55.9025C87.2059 57.8667 87.3683 59.8151 87.9737 61.7055C88.6462 63.8034 89.6258 65.706 91.4508 67.0548C91.765 67.2852 91.765 67.505 91.5726 67.7934C91.0025 68.6427 90.4853 69.5343 89.857 70.3396C87.9102 72.8367 85.3968 74.6268 82.5551 75.9879C79.9958 77.2136 77.2918 77.9697 74.4801 78.2212C72.941 78.3583 71.3737 78.193 69.8205 78.1332C68.5179 78.084 67.2841 77.72 66.091 77.2188C65.1396 76.8197 64.2466 76.322 63.5158 75.5729C62.4233 74.4527 62.1444 73.1444 62.7904 71.7165C63.2829 70.6316 63.3217 69.5167 63.2123 68.3719C63.1981 68.2277 63.1646 68.0835 63.1452 67.9393C63.1117 67.6896 63.1787 67.5454 63.4752 67.5929C64.9437 67.832 66.4105 67.6949 67.8701 67.5331C69.5363 67.3485 71.1531 66.9352 72.7081 66.3162C76.021 64.9956 78.9439 63.0824 81.4061 60.4974C81.8685 60.0121 82.2621 59.4599 82.6734 58.9288C82.8605 58.6862 82.9893 58.4154 82.6592 58.1762C82.3186 57.9283 82.0662 58.0883 81.8262 58.3556C81.279 58.9658 80.7548 59.6023 80.1635 60.1686C77.4136 62.7957 74.2913 64.8075 70.5883 65.8414C69.0862 66.2617 67.5613 66.4886 65.9992 66.5378C62.6104 66.6433 59.4192 65.9786 56.4752 64.2588C53.4252 62.4775 51.1536 59.9663 49.5634 56.8433C48.2308 54.2249 47.44 51.4254 46.9035 48.552C46.5928 46.8903 46.2998 45.2232 46.0633 43.5491C45.8762 42.2197 45.7915 40.878 45.6574 39.5416C45.495 37.915 45.2602 36.2901 45.1755 34.6582C45.0484 32.2333 44.992 29.8031 44.969 27.3746C44.9478 25.0305 45.5391 22.8061 46.6105 20.7275C47.959 18.1127 49.8846 16.0324 52.5251 14.652C52.8604 14.4761 53.0757 14.441 53.3193 14.8032C54.8655 17.1068 57.0841 18.6244 59.4722 19.9274C62.4533 21.554 65.6586 22.5106 68.998 23.0892C71.2943 23.4866 73.6012 23.6677 75.9239 23.5763C77.6379 23.5086 79.3174 23.2712 80.9308 22.7629C80.9608 22.2547 81.6601 22.3514 82.0484 22.3619C82.0665 22.3546 82.0845 22.3472 82.1026 22.3398C82.1115 22.3362 82.1205 22.3325 82.1294 22.3288C82.4948 22.1783 82.8563 22.0119 83.2135 21.8283C83.5506 21.656 83.8806 21.4555 84.1807 21.2252C84.4419 21.0247 84.6714 20.7381 84.4225 20.3987C84.2107 20.1103 83.9053 20.1894 83.6247 20.3319C83.5735 20.3583 83.5223 20.3899 83.4712 20.418C80.9913 21.7615 78.3102 22.3137 75.5162 22.37C70.5759 22.4702 65.8227 21.6121 61.3149 19.5458C58.9162 18.445 56.7399 17.0294 54.9802 15.0353C54.2159 14.1701 53.5841 13.2276 53.2081 12.1285C53.1516 11.9633 53.111 11.7522 52.9893 11.6608C52.8198 11.5342 52.5815 11.4392 52.3733 11.441C52.0891 11.4427 51.985 11.6942 52.0167 11.9474C52.0591 12.2921 52.082 12.6596 52.2268 12.9656C52.4121 13.3577 52.3168 13.5178 51.9479 13.6936C50.4441 14.4128 49.1733 15.4503 48.0578 16.6742C45.6785 19.2856 44.2542 22.3365 43.8906 25.857C43.8041 26.6993 43.7529 27.5469 43.7247 28.3945ZM53.0793 135.924C49.8158 135.544 46.6052 134.911 43.564 133.617C42.624 133.217 41.7506 132.686 40.9913 131.954L40.9836 131.952L40.9854 131.948L40.9913 131.954C42.2401 132.315 43.4872 132.687 44.7431 133.03C45.0149 133.103 45.3291 133.119 45.5991 133.059C45.7562 133.024 45.9574 132.789 45.968 132.632C45.9786 132.476 45.8127 132.238 45.6591 132.156C45.4085 132.022 45.1049 131.98 44.8225 131.906C42.8351 131.394 40.8883 130.768 39.0721 129.805C37.5277 128.985 36.1527 127.951 35.1537 126.485C35.0937 126.398 35.0408 126.307 34.9049 126.092C36.8799 126.882 38.7897 127.404 40.7383 127.745C42.3215 128.021 43.9276 128.18 45.5232 128.387C45.668 128.407 45.8162 128.398 45.9627 128.398C46.2963 128.396 46.5434 128.282 46.5452 127.9C46.5469 127.538 46.3139 127.38 45.9909 127.343C45.4085 127.276 44.8243 127.234 44.2418 127.165C41.183 126.801 38.1737 126.207 35.3179 125.03C34.243 124.589 33.2246 123.986 32.2361 123.37C31.0659 122.64 30.8277 122.064 30.6847 120.33C32.3368 121.371 34.2024 121.745 36.0715 122.039C38.3192 122.391 40.5844 122.64 42.8461 122.889L42.8704 122.892C43.9788 123.013 45.0978 123.038 46.2116 123.096C46.4446 123.108 46.7111 123.14 46.9052 123.047C47.0817 122.962 47.2512 122.737 47.2988 122.544C47.3694 122.268 47.2176 122.03 46.9105 121.955C46.7693 121.919 46.6211 121.9 46.4763 121.9C44.0071 121.923 41.5607 121.638 39.1091 121.376C36.9452 121.144 34.829 120.74 32.7551 120.101C32.3668 119.982 31.9908 119.795 31.6396 119.588C30.547 118.944 30.4888 117.414 31.5813 116.762C32.1426 116.426 32.8133 116.176 33.4611 116.099C34.7972 115.941 36.151 115.891 37.4994 115.856C40.1452 115.786 42.791 115.784 45.435 115.698C47.5177 115.631 49.5987 115.483 51.6796 115.359C52.0308 115.337 52.3768 115.264 52.7245 115.204C53.194 115.123 53.3246 114.973 53.2487 114.49C53.2046 114.209 53.0863 113.932 52.9716 113.667L52.904 113.51C52.0156 111.449 51.1272 109.388 50.5729 107.203C50.4159 106.584 50.2605 105.963 50.1017 105.344C49.9764 104.85 50.0576 104.401 50.2411 103.916C50.7036 102.692 51.1007 101.444 51.4872 100.193C51.6973 99.5164 52.0609 99.3142 52.6768 99.6835C52.9116 99.8241 53.1357 100.067 53.2434 100.317C53.4729 100.849 53.6706 101.403 53.7941 101.968C54.3413 104.445 55.5274 106.6 57.0929 108.566C58.4979 110.329 59.9258 112.075 61.3431 113.829C62.7092 115.519 63.8936 117.325 64.8943 119.25C65.648 120.699 66.5552 122.011 68.0414 122.815C68.3238 122.966 68.6132 123.191 68.9115 123.208C69.591 123.249 69.854 123.711 69.967 124.218C70.1152 124.893 70.2406 125.616 70.1647 126.295C69.7675 129.884 68.3873 133.107 66.2746 136.017C65.7274 136.77 65.0355 137.419 64.3895 138.096C64.1071 138.393 63.8618 138.439 63.4329 138.133C62.1038 137.185 60.5612 136.682 58.9462 136.489C56.9959 136.255 55.0296 136.151 53.0793 135.924ZM36.1969 114.724C36.1951 114.711 36.1933 114.697 36.1916 114.683L36.1951 114.678C35.1449 114.787 34.0824 114.826 33.0498 115.023C31.6043 115.297 30.2664 115.798 29.7528 117.407C29.7139 117.53 29.4315 117.641 29.2603 117.645C28.5843 117.659 27.9066 117.653 27.2323 117.609C24.0606 117.405 20.9894 116.709 17.9695 115.745C17.5706 115.617 17.5529 115.355 17.5053 115.111C17.3817 114.476 17.0905 113.959 16.5998 113.551C15.9574 113.016 15.2302 112.786 14.3918 112.967C13.917 113.069 13.9399 113.067 14.0406 112.541C14.1482 111.975 14.3441 111.432 14.1623 110.818C13.7246 109.339 12.3797 108.451 10.8635 108.717C10.274 108.821 10.2634 108.821 10.2652 108.198C10.2687 107.248 10.0022 106.415 9.30147 105.74C8.89023 105.344 8.43485 105.019 7.85063 104.989C7.32642 104.962 7.06873 104.663 6.87987 104.233C5.8791 101.95 5.12367 99.592 4.91187 97.1002C4.78126 95.5581 4.65771 93.9948 4.76537 92.4578C5.00012 89.1062 5.89146 85.9163 7.55764 82.9656C10.0993 78.4656 13.6911 75.084 18.4055 72.9316C20.7317 71.8695 23.1781 71.2488 25.7479 71.0237C31.5496 70.5173 36.804 71.975 41.4954 75.3355C46.178 78.6907 49.1044 83.261 50.4565 88.8459C50.8906 90.6466 51.1254 92.4737 51.1025 94.313C51.0654 97.3429 50.4829 100.288 49.341 103.1C47.3306 108.045 43.9612 111.822 39.3068 114.456C39.0191 114.62 38.6502 114.694 38.3131 114.711C37.6089 114.75 36.9029 114.724 36.1969 114.724ZM15.6926 130.577C15.7491 130.562 15.8056 130.547 15.8621 130.533L15.8603 130.536C16.0474 130.824 16.2292 131.116 16.4216 131.401C17.5582 133.081 19.0832 134.225 21.1201 134.501C23.3599 134.804 25.3596 134.123 27.107 132.72C29.3345 130.93 30.5453 128.556 31.0289 125.783C31.1277 125.217 31.193 124.645 31.2742 124.077C31.3236 124.095 31.3836 124.105 31.4295 124.135C32.6456 124.925 33.7311 125.82 34.2483 127.255C34.3701 127.592 34.6578 127.918 34.9525 128.141C35.595 128.63 35.6744 129.237 35.6038 129.98C35.4961 131.115 35.4838 132.258 35.4432 133.399C35.3373 136.325 35.2261 139.251 35.1396 142.177C35.0919 143.786 35.0902 145.399 35.0672 147.01C35.0637 147.243 35.0372 147.477 35.0461 147.711C35.0619 148.138 34.8519 148.24 34.4512 148.256C32.7039 148.327 30.9989 148.124 29.3203 147.639C26.7646 146.899 24.5618 145.552 22.5956 143.792C19.6427 141.147 17.6536 137.885 16.418 134.151C16.035 132.991 15.8038 131.793 15.6926 130.577ZM18.5643 132.152C18.3666 132.004 18.2025 131.814 18.0224 131.644C18.0399 131.611 18.059 131.58 18.0765 131.547L18.0719 131.545H18.0772L18.0765 131.547C18.3732 131.633 18.6682 131.737 18.9703 131.797L18.9823 131.799C19.263 131.855 19.5619 131.914 19.8351 131.871C20.0346 131.839 20.2058 131.637 20.3893 131.512C20.2481 131.387 20.1246 131.224 19.9604 131.143C18.2801 130.323 16.5804 129.539 14.9072 128.702C13.4546 127.974 12.1537 127.021 11.0594 125.816C10.0445 124.698 9.48151 123.416 9.46562 121.858C9.43562 119.155 10.6182 117.026 12.4397 115.169C12.9357 114.664 13.5446 114.289 14.2506 114.143C14.9372 114.001 15.6132 114.001 16.0915 114.639C16.5575 115.262 16.5698 115.96 16.268 116.628C16.0421 117.128 15.7156 117.588 15.3855 118.031C14.4853 119.238 13.7387 120.511 13.4722 122.016C13.4422 122.187 13.4016 122.359 13.3857 122.531C13.3593 122.829 13.4581 123.057 13.7899 123.099C14.0917 123.138 14.3124 122.997 14.3989 122.713C14.5506 122.211 14.6671 121.701 14.8136 121.199C14.886 120.952 15.0148 120.903 15.269 121.047C16.5645 121.784 17.8601 122.526 19.1838 123.21C20.3434 123.81 21.4148 124.499 22.2267 125.542C22.4279 125.8 22.6592 126.062 23.0316 125.781C23.3546 125.537 23.351 125.199 23.1463 124.927C22.7986 124.464 22.4562 123.951 21.9902 123.638C20.9506 122.938 19.8422 122.336 18.7496 121.716C17.8848 121.225 16.9934 120.782 16.1339 120.284C15.5602 119.954 15.5567 119.88 15.8921 119.331C16.3492 118.584 16.8346 117.854 17.2741 117.096C17.4506 116.792 17.62 116.813 17.9165 116.897C19.2615 117.282 20.6064 117.687 21.9726 117.988C24.0323 118.441 26.1186 118.747 28.2401 118.738C29.0485 118.735 29.0556 118.765 29.2109 119.519C29.4686 120.773 29.811 122.02 29.9452 123.288C30.1605 125.34 29.691 127.297 28.6885 129.101C27.4159 131.394 25.5485 132.905 22.8992 133.378C21.2383 133.673 19.8528 133.103 18.5643 132.152ZM8.276 121.789C8.26894 121.96 8.276 122.131 8.276 122.389L8.27423 122.387C6.59746 121.568 5.50315 120.462 5.38843 118.573C5.309 117.252 5.60023 116.027 6.14915 114.847C7.03695 112.935 8.19304 111.242 10.0834 110.164C10.627 109.855 11.1848 109.615 11.829 109.819C12.9392 110.173 13.4069 111.237 12.9145 112.454C12.7115 112.956 12.3744 113.417 12.0426 113.853C11.2836 114.852 10.4205 115.777 9.72508 116.816C8.72961 118.306 8.36778 120.019 8.276 121.789ZM41.5378 114.666C41.4266 114.669 41.3154 114.65 41.1266 114.636H41.1248C44.4571 112.476 47.1082 109.761 49.1009 106.299C49.7187 108.879 50.6559 111.245 51.6831 113.579C51.9073 114.091 51.9038 114.112 51.3037 114.168C50.1652 114.275 49.025 114.39 47.8813 114.442C45.7686 114.539 43.6523 114.595 41.5378 114.666ZM3.95876 116.783C2.85033 115.842 2.24316 114.668 2.24845 113.074H2.24669C2.27846 112.032 2.63499 110.957 3.29335 110.009C3.97464 109.032 4.68242 108.059 5.48727 107.183C5.90205 106.733 6.54451 106.48 7.10226 106.171C7.54175 105.926 7.95123 106.076 8.31836 106.373C9.14439 107.041 9.41797 108.602 8.86198 109.494C8.80197 109.591 8.71549 109.675 8.62724 109.747C6.50215 111.457 5.16956 113.662 4.50592 116.285C4.47768 116.398 4.4159 116.503 4.40178 116.618C4.35765 116.966 4.22528 117.008 3.95876 116.783ZM2.43378 101.943C2.72678 101.693 3.12037 101.56 3.46985 101.373H3.47161C4.27823 101.463 4.58358 101.66 4.87304 102.326C5.2437 103.179 5.60552 104.037 6.00618 104.876C6.12797 105.133 6.14738 105.244 5.89675 105.439C5.23134 105.959 4.5924 106.513 3.96935 107.083C3.42572 107.579 3.341 107.6 2.88386 107.002C2.11431 105.998 1.71189 104.859 1.7366 103.589C1.74895 102.954 1.94487 102.362 2.43378 101.943ZM89.1192 49.3732C89.1316 49.2836 89.3134 49.1253 89.3769 49.1429C90.4475 49.4363 91.4617 49.1134 92.622 48.8393L92.6228 48.8369L92.6245 48.8387L92.622 48.8393C92.0024 50.7443 90.9278 52.2084 89.5287 53.4512C89.3557 53.6042 89.1422 53.7132 88.948 53.8433C88.6709 54.0297 88.5827 53.9101 88.6144 53.6288L88.615 53.6238C88.7772 52.2063 88.9394 50.7889 89.1192 49.3732Z" fill="#1C1C1A"/>
<path d="M109.876 157.476C108.817 157.773 107.793 158.118 106.741 158.345C105.034 158.712 103.303 158.712 101.57 158.521C95.7716 157.877 90.3759 155.871 85.0526 153.644C81.0248 151.96 77.0994 150.061 73.2729 147.959C69.6705 145.981 66.2163 143.774 62.9246 141.31C62.5786 141.05 62.1832 140.848 61.7914 140.656C60.7253 140.136 59.9699 139.371 59.8111 138.157C59.7705 137.843 59.6928 137.691 59.361 137.654C58.7503 137.586 58.1466 137.447 57.5359 137.387C56.5723 137.292 55.6015 137.252 54.636 137.164C50.5394 136.791 46.4993 136.179 42.7363 134.378C41.2342 133.659 39.9087 132.715 38.802 131.473C38.2143 130.814 37.5594 130.244 36.7158 129.812C36.6981 129.986 36.6769 130.119 36.6734 130.253C36.5975 133.065 36.5234 135.875 36.4492 138.687C36.3451 142.64 36.2586 146.593 36.1368 150.546C35.9956 155.113 35.8209 159.678 35.6656 164.244C35.6338 165.152 35.6303 166.061 35.595 166.968C35.5911 167.068 35.5943 167.178 35.5782 167.277C35.584 167.391 35.6063 167.512 35.6656 167.594C35.7519 167.714 36.0952 167.776 36.2184 167.802L36.9721 167.964C49.4056 170.629 58.8652 173.069 77.3392 173.934C87.4748 174.409 104.738 171.054 109.681 168.931C109.919 168.829 110.073 168.696 110.215 168.481C110.47 168.094 110.397 167.241 110.397 167.241C110.397 164.254 109.984 160.905 109.916 157.845C109.913 157.703 109.888 157.56 109.879 157.465L109.876 157.476Z" fill="#F1B069"/>
<path d="M71.3102 125.99C71.2837 127.738 70.8336 129.398 70.2 131.004C68.7897 134.586 67.0176 137.916 63.5706 140.018C63.3076 140.178 63.3482 140.304 63.5688 140.457C64.4354 141.059 65.2932 141.673 66.1669 142.265C70.9272 145.492 75.9222 148.309 81.1607 150.687C86.3287 153.032 91.5444 155.257 97.0848 156.611C99.7429 157.26 102.415 157.699 105.176 157.416C107.502 157.177 109.622 156.437 111.553 155.137C113.897 153.558 115.582 151.402 116.932 148.967C118.84 145.524 120.108 141.833 121.018 138.024C121.682 135.247 122.227 132.442 122.782 129.641C123.064 128.213 123.271 126.768 123.474 125.324C123.648 124.081 123.767 122.83 123.913 121.584C124.068 120.249 124.257 118.92 124.377 117.581C124.536 115.805 124.663 114.026 124.769 112.244C124.896 110.111 125.052 107.978 125.074 105.843C125.099 103.563 124.972 101.28 124.931 98.9977C124.887 96.5059 124.547 94.0528 124.047 91.6155C122.859 85.8319 119.841 81.2862 114.839 78.0823C111.849 76.1673 108.711 74.5248 105.437 73.1497C101.635 71.553 97.8208 69.9862 94.0136 68.4053C93.6359 68.2488 93.1805 67.8655 92.907 67.971C92.5822 68.0941 92.4092 68.6269 92.1851 68.9909C90.3971 71.8941 87.9949 74.1503 85.0579 75.8912C81.2419 78.1508 77.1012 79.2745 72.7028 79.4556C71.3649 79.5101 70.004 79.3255 68.6732 79.1233C66.8023 78.8384 65.0338 78.2212 63.5052 77.0641C61.9485 75.8841 61.0872 74.3824 61.3908 72.3637C61.4561 71.9328 61.4402 71.9223 60.9795 72.0559C56.0039 73.5014 51.2842 75.5149 46.9017 78.2933C46.5646 78.506 46.644 78.6291 46.8135 78.8736C47.583 79.9779 48.4161 81.0453 49.0815 82.2094C50.693 85.0283 51.7008 88.0564 52.0626 91.2955C52.315 93.5481 52.3433 95.7919 51.9532 98.0252C51.8861 98.4103 51.9479 98.4859 52.2956 98.4912C53.2911 98.5053 53.9512 99.0381 54.3307 99.9103C54.5513 100.415 54.719 100.948 54.8478 101.482C55.2291 103.081 55.688 104.653 56.657 106.005C57.543 107.241 58.4732 108.448 59.4263 109.633C61.2425 111.893 63.1258 114.103 64.6243 116.597C65.2261 117.599 65.798 118.619 66.3893 119.628C66.9347 120.558 67.683 121.285 68.6044 121.844C68.8427 121.988 69.0209 122.05 69.3157 121.905C69.8858 121.629 70.5053 121.624 71.1142 121.851C72.3727 122.324 73.6312 122.792 74.8896 123.265C81.6179 125.797 88.3761 128.243 95.2703 130.302C95.9446 130.503 95.9657 130.489 96.1087 129.808C96.1264 129.722 96.1281 129.634 96.144 129.548C96.527 127.248 96.9171 124.949 97.2913 122.647C97.5684 120.949 97.8331 119.248 98.0838 117.546C98.3485 115.758 98.5744 113.962 98.8498 112.176C99.164 110.129 99.4834 108.084 99.8523 106.047L99.8782 105.904C100.253 103.831 100.628 101.753 101.111 99.7046C101.871 96.4813 103.051 93.4109 104.828 90.5921C106.023 88.6965 107.403 86.9608 109.177 85.5646C109.338 85.438 109.498 85.3043 109.678 85.2094C109.931 85.0757 110.247 85.0441 110.37 85.3254C110.457 85.5189 110.411 85.8389 110.301 86.0324C110.179 86.2469 109.908 86.3735 109.721 86.5581C108.949 87.3178 108.123 88.0353 107.428 88.86C105.285 91.3992 103.862 94.3377 102.867 97.4783C102.046 100.062 101.462 102.705 101.07 105.39C100.738 107.669 100.359 109.941 100.002 112.216C99.7817 113.628 99.5593 115.04 99.3475 116.452C99.1534 117.75 98.9839 119.053 98.7845 120.349C98.525 122.021 98.2532 123.69 97.9726 125.359C97.7166 126.882 97.4589 128.405 97.1677 129.921C97.1024 130.26 97.1977 130.292 97.4889 130.334C98.9663 130.548 100.449 130.742 101.91 131.034C104.334 131.516 106.662 132.286 108.759 133.633C109.225 133.932 109.657 134.287 110.084 134.639C110.31 134.825 110.384 135.113 110.192 135.342C109.998 135.574 109.71 135.683 109.408 135.477C109.239 135.362 109.077 135.237 108.915 135.112L108.914 135.112C107.788 134.25 106.561 133.552 105.206 133.144C103.471 132.622 101.709 132.193 99.9547 131.735C99.8223 131.7 99.667 131.756 99.3422 131.788C99.8029 131.934 100.082 132.013 100.354 132.11C102.516 132.877 104.62 133.772 106.388 135.263C107.099 135.863 107.705 136.591 108.316 137.296C108.612 137.637 108.572 137.994 108.339 138.156C108.081 138.335 107.691 138.249 107.408 137.941C107.31 137.834 107.234 137.705 107.131 137.6C106.641 137.099 106.18 136.561 105.645 136.112C104.471 135.127 103.118 134.431 101.716 133.817C99.3738 132.791 96.9388 132.029 94.5032 131.267L94.1954 131.171C88.1944 129.293 82.2586 127.232 76.3722 125.025C74.812 124.439 73.2711 123.799 71.7161 123.198C71.378 123.067 71.0172 122.993 70.5752 122.868C71.1821 123.938 71.3313 124.659 71.3102 125.99Z" fill="#F1B069"/>
<path d="M36.1916 114.683C36.1933 114.697 36.1951 114.711 36.1969 114.724C36.9029 114.724 37.6089 114.75 38.3131 114.711C38.6502 114.694 39.0191 114.62 39.3068 114.456C43.9612 111.822 47.3306 108.045 49.341 103.1C50.4829 100.288 51.0654 97.3429 51.1025 94.313C51.1254 92.4737 50.8906 90.6466 50.4565 88.8459C49.1044 83.261 46.178 78.6907 41.4954 75.3355C36.804 71.975 31.5496 70.5173 25.7479 71.0237C23.1781 71.2488 20.7317 71.8695 18.4055 72.9316C13.6911 75.084 10.0993 78.4656 7.55764 82.9656C5.89146 85.9163 5.00012 89.1062 4.76537 92.4578C4.65771 93.9948 4.78126 95.5581 4.91187 97.1002C5.12367 99.592 5.8791 101.95 6.87987 104.233C7.06873 104.663 7.32642 104.962 7.85063 104.989C8.43485 105.019 8.89023 105.344 9.30147 105.74C10.0022 106.415 10.2687 107.248 10.2652 108.198C10.2634 108.821 10.274 108.821 10.8635 108.717C12.3797 108.451 13.7246 109.339 14.1623 110.818C14.3441 111.432 14.1482 111.975 14.0406 112.541C13.9399 113.067 13.917 113.069 14.3918 112.967C15.2302 112.786 15.9574 113.016 16.5998 113.551C17.0905 113.959 17.3817 114.476 17.5053 115.111C17.5529 115.355 17.5706 115.617 17.9695 115.745C20.9894 116.709 24.0606 117.405 27.2323 117.609C27.9066 117.653 28.5843 117.659 29.2603 117.645C29.4315 117.641 29.7139 117.53 29.7528 117.407C30.2664 115.798 31.6043 115.297 33.0498 115.023C34.0824 114.826 35.1449 114.787 36.1951 114.678L36.1916 114.683Z" fill="#2F9E72"/>
<path d="M59.6679 36.8849C59.6537 36.5842 59.6414 36.1147 59.6061 35.6487C59.5937 35.4763 59.5337 35.3075 59.4878 35.1405C59.4102 34.8626 59.2566 34.6657 58.9354 34.6797C58.5806 34.6938 58.5118 34.9629 58.4888 35.2284C58.4659 35.4886 58.4888 35.7542 58.51 36.0162C58.6036 37.1029 58.48 38.1668 58.2647 39.236C57.9011 41.0454 57.2092 42.7424 56.5791 44.4639C56.4202 44.9 56.2402 45.3467 56.1925 45.8004C56.0072 47.5712 56.6744 48.9147 58.3353 49.4475C59.6432 49.8678 60.9281 49.8062 62.2007 49.3332C62.5519 49.2013 62.8961 49.0254 63.2067 48.8144C63.6445 48.5172 63.7998 48.1058 63.595 47.8684C63.2809 47.5008 62.9561 47.7312 62.6525 47.9053C61.7329 48.4293 60.7463 48.614 59.6961 48.5665C58.1023 48.4926 57.2145 47.529 57.3274 45.9534C57.3416 45.7547 57.3945 45.5524 57.4634 45.3625C57.7334 44.6257 58.0229 43.8942 58.2929 43.1574C59.0166 41.1826 59.6943 39.1973 59.6696 36.8866L59.6679 36.8849ZM62.5501 56.5834C64.4122 56.5465 66.2584 56.1579 67.9899 55.2927C69.3525 54.6121 70.491 53.6678 71.3841 52.4316C71.64 52.0764 71.7353 51.7019 71.6259 51.2745C71.5465 50.9633 71.3099 50.9193 71.084 51.0231C70.9128 51.1005 70.7822 51.2869 70.6569 51.4416C70.3462 51.8302 70.0868 52.2663 69.7391 52.6163C67.2875 55.0799 64.2428 55.6989 60.9193 55.3243C59.479 55.1626 58.127 54.6895 56.9215 53.8542C56.7044 53.7048 56.4644 53.543 56.2137 53.798C56.009 54.0037 56.0372 54.3871 56.3161 54.6579C56.5438 54.8777 56.8121 55.0694 57.0892 55.2276C58.7589 56.1825 60.5892 56.5166 62.5501 56.5834ZM50.5003 37.5197C50.5992 38.4816 50.7386 39.039 51.0987 39.5455C51.6441 40.3122 52.5866 40.3561 53.1867 39.6439C53.9686 38.7172 53.9969 36.7389 53.2432 35.7823C52.5566 34.9136 51.4535 34.9699 50.954 35.9546C50.7122 36.4312 50.6451 36.9939 50.5003 37.5197ZM72.5949 37.5795C72.5349 36.8708 72.4413 36.2149 71.9912 35.6592C71.2711 34.7694 70.3515 34.8257 69.7903 35.8192C69.1743 36.9113 69.1549 38.0402 69.7055 39.1744C69.9756 39.7336 70.3957 39.9921 71.0381 39.971C71.67 39.9517 72.0212 39.5877 72.2172 39.0847C72.4043 38.6064 72.4731 38.0824 72.5931 37.5777L72.5949 37.5795ZM70.8987 27.1112C69.5449 27.0989 68.5724 27.3011 67.6334 27.6546C67.3651 27.7566 67.0933 27.9025 66.8868 28.096C66.7685 28.2068 66.6962 28.4916 66.7562 28.6323C66.8127 28.7624 67.0774 28.875 67.2451 28.868C67.531 28.8539 67.8152 28.7501 68.0941 28.6657C70.3798 27.9729 72.5472 28.1734 74.5682 29.5098C74.7147 29.6065 74.8717 29.6856 75.0147 29.7859C75.2989 29.9846 75.4983 29.8562 75.7013 29.6452C75.9113 29.4272 75.869 29.2091 75.6978 29.0209C75.523 28.8293 75.3218 28.6534 75.1083 28.5039C73.7439 27.5456 72.1995 27.1657 70.8987 27.1095V27.1112ZM54.1451 28.4336C54.1292 28.0661 53.8574 27.9113 53.545 27.7918C52.3395 27.331 51.1058 27.2378 49.8526 27.5473C48.8765 27.7882 47.9658 28.1681 47.2704 28.9295C47.1203 29.0948 46.9827 29.3005 46.9262 29.5098C46.8909 29.6399 46.9756 29.8738 47.085 29.9529C47.1839 30.025 47.3974 29.9776 47.5439 29.9301C47.6781 29.8879 47.7893 29.7753 47.9111 29.6944C49.5208 28.627 51.2117 28.0977 53.109 28.9031C53.2661 28.9699 53.4462 29.0245 53.6121 29.0174C53.9527 29.0034 54.1363 28.7994 54.1451 28.4319V28.4336ZM93.3356 38.4464C93.3445 37.998 93.085 37.7536 92.7602 37.8503C92.5237 37.9206 92.289 38.0806 92.1125 38.2583C91.2176 39.1568 90.5381 40.1943 90.1445 41.4059C89.9521 42.0003 90.0192 42.3239 90.3669 42.4505C90.6916 42.5683 90.9864 42.3625 91.2052 41.7541C91.5971 40.6674 92.1954 39.7248 93.0197 38.9159C93.1768 38.7612 93.2721 38.5449 93.3356 38.4464Z" fill="white"/>
<path d="M59.6679 36.8842C59.6926 39.1931 59.0131 41.1802 58.2912 43.155C58.0211 43.8918 57.7317 44.6233 57.4616 45.3601C57.3928 45.5482 57.3398 45.7505 57.3257 45.9509C57.211 47.5265 58.1006 48.4902 59.6944 48.564C60.7446 48.6133 61.733 48.4269 62.6508 47.9029C62.9544 47.7305 63.2791 47.4984 63.5933 47.8659C63.798 48.1051 63.641 48.5148 63.205 48.812C62.8943 49.023 62.5519 49.1989 62.1989 49.3307C60.9281 49.8038 59.6432 49.8653 58.3335 49.445C56.6727 48.9122 56.0055 47.567 56.1908 45.798C56.2385 45.3443 56.4167 44.8959 56.5773 44.4615C57.2075 42.74 57.8993 41.043 58.2629 39.2335C58.4783 38.1644 58.6018 37.1005 58.5083 36.0138C58.4853 35.7517 58.4641 35.4862 58.4871 35.226C58.51 34.9604 58.5789 34.6914 58.9336 34.6773C59.2549 34.665 59.4084 34.8619 59.4861 35.138C59.5337 35.3051 59.592 35.4757 59.6044 35.6462C59.6397 36.1122 59.652 36.5817 59.6661 36.8824L59.6679 36.8842Z" fill="black"/>
<path d="M62.5502 56.5823C60.5892 56.5155 58.7589 56.1814 57.0892 55.2266C56.8121 55.0683 56.5456 54.8766 56.3161 54.6568C56.0355 54.386 56.009 54.0027 56.2138 53.7969C56.4662 53.5419 56.7062 53.7037 56.9215 53.8532C58.127 54.6885 59.4808 55.1615 60.9193 55.3233C64.2446 55.6978 67.2875 55.0788 69.7391 52.6152C70.0868 52.2653 70.3463 51.8292 70.6569 51.4405C70.7822 51.284 70.9128 51.0994 71.0841 51.022C71.31 50.9183 71.5465 50.9622 71.6259 51.2735C71.7353 51.7008 71.64 52.0753 71.3841 52.4306C70.491 53.6668 69.3526 54.6093 67.99 55.2916C66.2585 56.1568 64.4123 56.5454 62.5502 56.5823Z" fill="black"/>
<path d="M50.5004 37.5195C50.6469 36.9955 50.7122 36.431 50.954 35.9545C51.4535 34.9697 52.5584 34.9117 53.2432 35.7821C53.9969 36.7388 53.9686 38.7153 53.1867 39.6438C52.5866 40.356 51.6423 40.312 51.0987 39.5453C50.7386 39.0388 50.5992 38.4814 50.5004 37.5195Z" fill="black"/>
<path d="M72.595 37.5786C72.475 38.0833 72.4079 38.6073 72.2191 39.0856C72.0232 39.5868 71.6719 39.9526 71.04 39.9719C70.3976 39.9912 69.9775 39.7327 69.7075 39.1753C69.1585 38.0411 69.1762 36.9121 69.7922 35.8201C70.3535 34.8266 71.2713 34.7721 71.9932 35.6601C72.4415 36.214 72.5368 36.8717 72.5968 37.5804L72.595 37.5786Z" fill="black"/>
<path d="M70.8987 27.1113C72.1995 27.1676 73.7439 27.5474 75.1082 28.5058C75.3218 28.6553 75.523 28.8294 75.6978 29.0228C75.869 29.211 75.9096 29.429 75.7013 29.6471C75.4983 29.8581 75.2989 29.9864 75.0147 29.7877C74.8717 29.6875 74.7129 29.6084 74.5682 29.5117C72.549 28.1752 70.3815 27.9747 68.0941 28.6676C67.8152 28.752 67.531 28.8557 67.2451 28.8698C67.0774 28.8786 66.8127 28.7643 66.7562 28.6342C66.6944 28.4953 66.7685 28.2104 66.8868 28.0978C67.0933 27.9044 67.3651 27.7585 67.6334 27.6565C68.5724 27.303 69.5449 27.1008 70.8987 27.1131V27.1113Z" fill="black"/>
<path d="M54.145 28.4331C54.1362 28.8006 53.9526 29.0046 53.612 29.0187C53.4461 29.0257 53.266 28.9712 53.109 28.9044C51.2098 28.099 49.5207 28.6283 47.911 29.6957C47.7892 29.7766 47.678 29.8892 47.5438 29.9314C47.3973 29.9771 47.182 30.0246 47.0849 29.9542C46.9755 29.8751 46.8908 29.643 46.9261 29.5111C46.9826 29.3018 47.1202 29.0961 47.2703 28.9308C47.9639 28.1694 48.8764 27.7895 49.8525 27.5486C51.1057 27.2391 52.3394 27.3323 53.5449 27.793C53.8573 27.9126 54.1291 28.0674 54.145 28.4349V28.4331Z" fill="black"/>
<path d="M93.3358 38.4463C93.2705 38.5448 93.1769 38.7628 93.0198 38.9158C92.1956 39.7247 91.5955 40.6673 91.2054 41.754C90.9865 42.3624 90.6918 42.5682 90.367 42.4504C90.0193 42.3238 89.9522 42.002 90.1446 41.4058C90.5382 40.1942 91.2178 39.1567 92.1126 38.2581C92.2891 38.0805 92.5239 37.9223 92.7604 37.8502C93.0852 37.7535 93.3429 37.9961 93.3358 38.4463Z" fill="black"/>
<path d="M28.4009 113.856C23.2417 113.791 19.0286 112.349 15.3768 109.368C11.7338 106.393 9.57343 102.551 8.77211 97.9418C7.80488 92.3833 8.83741 87.2467 12.1821 82.6571C14.9003 78.9273 18.515 76.4092 23.0282 75.3488C28.8421 73.9825 34.2166 75.1325 39.0281 78.6337C43.2059 81.6741 45.8075 85.7678 46.743 90.8569C47.8391 96.8164 46.4112 102.19 42.6005 106.85C39.6794 110.424 35.8793 112.725 31.2779 113.564C30.1853 113.763 29.0628 113.791 28.4009 113.854V113.856ZM27.4743 75.9397C25.0332 75.8834 22.6999 76.4602 21.1114 77.095C17.8778 78.3893 15.2338 80.4748 13.1299 83.2356C11.1514 85.8329 10.0517 88.7977 9.69874 92.0087C9.47105 94.0732 9.57166 96.1464 9.99526 98.2056C10.9254 102.72 13.1299 106.427 16.9088 109.119C21.5208 112.404 26.6112 113.531 32.1639 112.207C36.3223 111.213 39.6547 108.897 42.2051 105.526C45.5234 101.137 46.6124 96.1482 45.6098 90.7813C45.0009 87.5193 43.513 84.6125 41.2291 82.1436C37.519 78.136 32.9511 76.0382 27.4725 75.9397H27.4743Z" fill="black"/>
<path d="M27.4743 75.9397C25.0332 75.8834 22.6999 76.4602 21.1114 77.095C17.8778 78.3893 15.2338 80.4748 13.1299 83.2356C11.1514 85.8329 10.0517 88.7977 9.69874 92.0087C9.47105 94.0732 9.57166 96.1464 9.99526 98.2056C10.9254 102.72 13.1299 106.427 16.9088 109.119C21.5208 112.404 26.6112 113.531 32.1639 112.207C36.3223 111.213 39.6547 108.897 42.2051 105.526C45.5234 101.137 46.6124 96.1482 45.6098 90.7813C45.0009 87.5193 43.513 84.6125 41.2291 82.1436C37.519 78.136 32.9511 76.0382 27.4725 75.9397H27.4743Z" fill="#F8F6F3"/>
<path d="M36.7859 89.0763C36.7665 91.2322 36.5776 93.3529 35.7922 95.3699C34.396 98.9519 31.8897 101.347 28.0878 102.263C26.9176 102.546 25.7139 102.696 24.5172 102.409C24.0777 102.304 23.9012 102.478 23.8447 102.843C23.6965 103.823 23.5641 104.806 23.4423 105.791C23.4105 106.051 23.4353 106.316 23.437 106.58C23.437 106.837 23.3594 107.099 23.0805 107.085C22.8916 107.076 22.6639 106.913 22.5404 106.751C22.4274 106.605 22.3815 106.367 22.3939 106.176C22.4574 105.158 22.5492 104.141 22.6339 103.125C22.6392 103.069 22.671 103.014 22.6869 102.958C22.8846 102.249 22.7981 101.778 22.1097 101.22C19.7905 99.3458 18.7721 96.8242 19.058 93.8506C19.1904 92.4737 19.7164 91.2093 20.5018 90.0435C21.7497 88.1918 23.4758 86.9169 25.405 85.8706C27.9484 84.4902 30.7142 83.7428 33.4959 83.0359C34.1189 82.8776 34.7437 82.7247 35.3668 82.5717C36.1099 82.3888 36.2687 82.4943 36.327 83.2223C36.4823 85.1742 36.6341 87.1261 36.7876 89.078L36.7859 89.0763ZM35.2715 83.7569C34.7808 83.88 34.3854 83.9837 33.9883 84.0769C31.3037 84.7065 28.6703 85.4784 26.1957 86.7234C24.0548 87.7996 22.2333 89.224 21.0172 91.3307C20.3853 92.4244 20.0817 93.622 20.1329 94.8564C20.2176 96.8857 20.9713 98.6618 22.4786 100.084C23.1423 100.71 23.1299 100.723 23.4088 99.905C23.4741 99.7116 23.5376 99.5164 23.5994 99.3212C24.4749 96.5059 25.7492 93.884 27.5848 91.5681C28.455 90.469 29.4663 89.4807 30.4194 88.4485C30.6454 88.2041 30.8995 87.972 31.2437 88.2762C31.5508 88.5487 31.4643 88.8635 31.2702 89.1431C31.1219 89.3576 30.9207 89.5388 30.7318 89.7234C29.1451 91.2674 27.8266 93.0171 26.72 94.9285C25.6574 96.7626 24.9902 98.755 24.3548 100.76C24.2225 101.176 24.3036 101.289 24.752 101.3C25.5445 101.317 26.3546 101.393 27.1259 101.263C31.099 100.598 33.6229 98.2204 34.9026 94.4854C35.5062 92.7234 35.6333 90.877 35.5804 89.0306C35.5309 87.3073 35.3827 85.5857 35.2732 83.7586L35.2715 83.7569Z" fill="black"/>
<path d="M35.2715 83.7569C34.7808 83.88 34.3854 83.9837 33.9883 84.0769C31.3037 84.7065 28.6703 85.4784 26.1957 86.7234C24.0548 87.7996 22.2333 89.224 21.0172 91.3307C20.3853 92.4244 20.0817 93.622 20.1329 94.8564C20.2176 96.8857 20.9713 98.6618 22.4786 100.084C23.1423 100.71 23.1299 100.723 23.4088 99.905C23.4741 99.7116 23.5376 99.5164 23.5994 99.3212C24.4749 96.5059 25.7492 93.884 27.5848 91.5681C28.455 90.469 29.4663 89.4807 30.4194 88.4485C30.6454 88.2041 30.8995 87.972 31.2437 88.2762C31.5508 88.5487 31.4643 88.8635 31.2702 89.1431C31.1219 89.3576 30.9207 89.5388 30.7318 89.7234C29.1451 91.2674 27.8266 93.0171 26.72 94.9285C25.6574 96.7626 24.9902 98.755 24.3548 100.76C24.2225 101.176 24.3036 101.289 24.752 101.3C25.5445 101.317 26.3546 101.393 27.1259 101.263C31.099 100.598 33.6229 98.2204 34.9026 94.4854C35.5062 92.7234 35.6333 90.877 35.5804 89.0306C35.5309 87.3073 35.3827 85.5857 35.2732 83.7586L35.2715 83.7569Z" fill="#2F9E72"/>
</svg>
