<svg width="117" height="175" viewBox="0 0 117 175" fill="none" xmlns="http://www.w3.org/2000/svg">
<g clip-path="url(#clip0_423_5625)">
<path d="M16.6106 117.418C16.7309 115.755 16.6224 114.08 16.8253 112.421C16.8913 111.881 16.0797 111.046 15.4687 111.064C14.5887 111.09 13.7087 111.175 12.8263 111.185C10.8893 111.204 9.4053 109.838 9.22835 107.894C9.16701 107.231 9.11982 106.568 9.09151 105.905C9.07264 105.475 8.924 105.147 8.62201 104.826C5.74603 101.774 3.24989 98.4351 1.22325 94.7594C0.668818 93.7543 0.149772 92.702 0.196958 91.513C0.239426 90.4418 0.69713 89.5689 1.72814 89.1065C2.06552 88.9555 2.12922 88.821 1.7942 88.6252C-0.404662 87.3441 -0.00594115 84.0552 2.12686 83.2979C2.61288 83.1257 2.15282 83.003 2.07024 82.9275C0.701849 81.6511 0.496589 79.8628 1.61254 78.5014C2.07968 77.9329 2.6813 77.4917 3.42684 77.3595C3.78781 77.2958 3.75478 77.2746 3.54008 77.0245C2.6176 75.9487 1.94284 74.7785 1.96407 73.278C1.98059 72.1667 2.34392 71.3056 3.33954 70.7842C4.39887 70.2297 5.37562 70.5766 6.30282 71.1499C6.58358 71.3245 6.83838 71.5391 7.10498 71.735C7.11678 71.3834 7.15453 71.0295 7.13565 70.678C6.97522 67.8256 6.80535 64.9756 6.63548 62.1256C6.55998 60.861 6.43966 59.5964 6.40191 58.3318C6.32641 55.7507 8.06286 53.9506 10.6321 53.8539C14.9732 53.6911 19.3143 53.5259 23.6554 53.3277C25.9746 53.2216 28.2962 53.1555 30.613 53.0635C32.9487 52.9715 34.6757 54.7315 34.8102 57.1309C35.0391 61.2243 35.3151 65.313 35.5581 69.4063C35.7115 71.9992 35.8176 74.5944 35.9875 77.185C36.0512 78.1688 36.1291 79.1502 36.1291 80.1364C36.1291 80.2143 36.155 80.3322 36.2046 80.3582C36.3579 80.4337 36.3626 80.2638 36.4004 80.1907C39.3117 74.4765 44.2616 71.282 50.0465 69.0949C52.0755 68.3281 54.1706 67.7171 56.0911 66.6719C56.2775 66.5705 56.4686 66.4714 56.6502 66.3605C57.7654 65.6779 58.2325 64.6972 58.0516 63.4185C58.0068 63.0976 57.9101 62.9112 57.4996 62.8829C53.0499 62.5927 49.2869 60.8303 46.2788 57.5249C44.0374 55.0642 42.6171 52.1481 41.6427 48.9937C40.6589 45.8039 40.0549 42.5434 39.6916 39.2262C39.3613 36.2087 38.9036 33.2053 38.5992 30.1854C38.5143 29.3549 38.2524 28.8194 37.6768 28.1871C35.3363 25.6084 34.5412 22.4705 35.0414 19.0684C35.9497 12.8799 39.7223 8.93048 45.2713 6.50984C47.0904 5.71712 48.8881 4.93147 50.5703 3.85092C53.9724 1.67093 57.7473 0.505432 61.7652 0.146819C66.9509 -0.315603 71.9809 0.27422 76.7467 2.4896C80.8425 4.39355 84.254 7.13977 86.6605 10.9901C88.2577 13.5453 90.0437 15.9258 92.0279 18.1931C94.2716 20.7576 95.4819 23.7728 95.2672 27.2622C95.1492 29.1874 94.5476 30.971 93.7643 32.7146C93.0447 34.3212 92.0609 35.8194 91.7212 37.5865C91.5725 38.3556 91.5702 39.1436 91.674 39.8986C92.2402 44.0297 90.3292 46.9034 87.0639 49.0834C86.2287 49.6402 85.4289 50.1167 84.9877 51.1265C84.5489 52.1245 83.5344 52.5893 82.5459 52.9927C82.3312 53.08 82.0457 53.1036 82.0858 53.4882C82.3217 55.7814 82.56 58.0676 83.6807 60.1508C84.4852 61.6466 85.6389 62.7602 87.1323 63.5671C91.1148 65.7188 95.3451 67.3231 99.4432 69.2223C107.187 72.8051 113.547 77.7923 115.418 86.5443C115.989 89.215 116.175 91.9211 116.34 94.639C116.522 97.6283 116.48 100.617 116.425 103.602C116.369 106.563 116.105 109.519 115.984 112.48C115.885 114.882 115.633 117.272 115.404 119.662C115.13 122.514 114.826 125.364 114.432 128.207C114.047 130.958 113.651 133.702 113.094 136.422C112.346 140.074 111.428 143.679 109.904 147.096C108.786 149.599 107.38 151.911 105.195 153.652C104.919 153.872 104.945 154.119 104.947 154.391C105.006 159.081 105.07 163.769 105.127 168.459C105.157 170.92 105.212 171.038 102.642 171.816C99.4314 172.788 96.1142 173.267 92.7876 173.718C89.2533 174.197 85.705 174.492 82.1566 174.69C76.5533 175.001 70.9405 175.098 65.323 174.888C63.0675 174.803 60.812 174.704 58.5589 174.572C55.756 174.409 52.9556 174.183 50.1645 173.831C47.0054 173.432 43.8558 173.015 40.7863 172.137C39.7459 171.84 38.7054 171.547 37.7452 171.019C37.1129 170.67 36.7826 170.158 36.8133 169.462C36.9336 166.888 37.0681 164.314 37.2261 161.742C37.2969 160.586 37.2922 159.428 37.3488 158.272C37.547 154.176 37.6437 150.073 37.7806 145.973C37.816 144.92 37.8631 143.868 37.9032 142.814C37.908 142.712 37.9174 142.547 37.8655 142.519C37.7192 142.436 37.6673 142.615 37.5824 142.691C35.0627 144.958 32.1065 146.098 28.7232 145.904C25.1182 145.697 22.339 143.939 20.402 140.931C18.7387 138.345 17.9318 135.429 17.493 132.409C16.9244 128.495 16.7521 124.553 16.6837 120.605C16.6601 119.546 16.6342 118.484 16.6106 117.423V117.418ZM47.4631 57.2512L47.4372 57.23C50.9662 60.7047 57.0603 62.9803 63.8744 61.2644C66.9826 60.482 71.4292 57.9082 73.4295 55.2411C73.6372 54.9651 73.899 54.5593 74.3072 54.9368C74.7154 55.3143 74.3001 55.6162 74.0736 55.8475C73.2431 56.6968 72.474 57.6075 71.5067 58.3247C67.9796 60.9435 64.1316 62.6989 59.656 62.7578C59.0449 62.7649 58.9151 62.9513 58.9718 63.5175C59.1813 65.6625 59.714 68.0959 59.4696 70.2533L59.4861 70.2345C59.1511 70.2746 58.8161 70.3194 58.5966 69.9702L58.6155 69.9891C58.5798 69.6141 58.5069 66.4101 58.2357 66.3581C57.9747 66.31 56.0459 67.7968 55.9637 67.894L55.9566 67.8893C55.6903 68.0167 55.8866 69.1055 55.9778 69.437C56.3813 70.8856 57.3132 71.9544 58.4928 72.7613C60.0877 73.8536 61.9185 74.4387 63.8414 74.6345C67.6516 75.0191 71.3062 74.3349 74.7956 72.8179C76.6453 72.0134 78.4714 71.1593 80.0639 69.8452C81.1279 68.967 82.2703 68.1754 82.8856 67.5472L82.8691 67.5567C83.4166 67.0002 83.9223 66.6 84.4074 65.9995C84.7495 65.5914 85.1482 65.2162 85.4148 64.7609C86.028 63.7122 84.172 62.5963 83.7397 62.0076C82.2274 59.9479 81.5243 57.6028 81.3261 55.0878C81.0878 52.0608 81.2058 49.0267 81.1987 45.9974C81.1987 45.4382 81.2341 44.9522 80.4532 44.9758C80.1559 44.9853 79.9601 44.7942 80.0497 44.4639C80.13 44.1619 80.288 43.9944 80.6631 44.0982C81.1633 44.2374 81.6776 44.1925 82.192 44.1029C84.2634 43.749 85.5375 42.3358 86.5897 40.7031C87.5688 39.1837 87.9958 37.4473 88.0147 35.6495C88.0363 33.6325 87.1165 31.9671 86.3116 31.2872C85.4351 30.5467 84.6695 30.3225 83.6547 30.3789C82.9328 30.4284 82.3005 30.7068 81.7413 31.1551C80.9958 31.752 80.4343 32.5093 79.9176 33.2997C79.7265 33.5946 79.526 33.8683 79.1626 33.6536C78.7946 33.4365 79.0282 33.1109 79.1603 32.8656C79.3702 32.4715 79.6274 32.1059 79.8728 31.7307C79.9766 31.5727 80.1936 31.4264 79.7808 31.3816C75.7372 30.9507 72.5654 26.7577 72.3867 22.7583C72.3796 22.6125 72.3065 21.8524 72.322 21.2652C72.332 20.8837 72.3795 20.5752 72.5068 20.5557C72.6184 20.5387 72.7331 20.7446 72.8381 21.0341C73.0394 21.5894 73.2052 22.4519 73.2455 22.638C73.3186 22.9707 73.3564 23.3128 73.4484 23.6407C74.3591 26.906 76.105 29.4233 79.5614 30.3836C80.3069 30.5912 81.0076 30.5723 81.7154 30.1311C82.6662 29.5389 83.7255 29.3219 84.8603 29.5012C87.0026 29.8362 88.4488 32.0492 88.8122 34.1042C89.2651 36.6593 88.6588 39.0351 87.3683 41.2269C86.2476 43.1261 84.7589 44.629 82.4373 44.9782C82.0551 45.0372 82.0929 45.266 82.0952 45.5255C82.1 47.1818 82.0882 48.838 82.1118 50.4942C82.1188 51.0156 81.9348 51.924 82.2132 51.9782C82.7889 52.0915 83.3244 51.5559 83.7538 51.0911C83.827 51.0109 83.9379 50.9496 83.9732 50.8576C84.589 49.2839 86.0282 48.6044 87.3187 47.7574C87.5334 47.6159 87.7198 47.4319 87.9086 47.2573C89.9305 45.3793 91.0299 43.145 90.7775 40.3044C90.6784 39.1861 90.6241 38.0418 90.9143 36.9235C91.3626 35.1871 92.2426 33.6394 92.9975 32.0374C94.2409 29.3974 94.6231 26.6559 93.9625 23.8082C93.4364 21.5409 92.2237 19.6205 90.5911 18.0114C89.1543 16.5958 87.9439 15.034 86.9861 13.2787C85.193 9.98981 82.7606 7.29313 79.6487 5.20987C74.3945 1.69452 68.5623 0.550259 62.3408 1.02684C58.0045 1.35714 53.996 2.67599 50.3792 5.10606C49.511 5.68881 48.6593 6.28571 47.6448 6.5877C45.1109 7.34032 42.846 8.60962 40.8736 10.3343C38.0189 12.8328 36.2069 15.9352 35.912 19.795C35.7138 22.3808 36.3461 24.7566 37.8914 26.8541C38.0377 27.0522 38.0967 27.3684 38.3963 27.451C38.4081 27.1844 38.4317 26.9178 38.4317 26.6512C38.4152 23.6383 38.8824 20.7317 40.3546 18.0562C41.579 15.8291 43.2423 14.0124 45.4601 12.7313C45.6606 12.6157 45.8965 12.5119 45.571 12.2429C45.2454 11.974 45.0731 11.5587 45.4554 11.2898C45.8376 11.0208 46.1514 11.3299 46.3802 11.6956C47.5575 13.5877 49.1193 15.159 50.9384 16.3717C55.9707 19.7313 61.5505 21.4489 67.6233 21.2767C69.9213 21.2106 72.1414 20.6232 74.0901 19.2925C74.4134 19.0707 74.6871 19.0354 74.9088 19.3845C75.1448 19.7549 74.864 19.946 74.5927 20.09C74.005 20.4031 73.4356 20.7452 72.8381 21.0341C72.6686 21.1161 72.497 21.1937 72.322 21.2652C71.9842 21.4033 71.6339 21.5186 71.2637 21.5976C70.0888 21.85 68.9256 22.152 67.7271 22.2015C63.9098 22.3596 60.2387 21.6235 56.6597 20.3424C53.3224 19.1485 49.9621 17.3198 47.4985 14.7155C46.7199 13.6664 45.8116 13.5217 44.7735 14.2814C42.5954 15.9023 41.1245 18.0677 40.2319 20.6538C39.0617 24.0276 39.2882 27.4911 39.6326 30.9427C39.8992 33.6064 40.3121 36.2559 40.6589 38.9124C40.8359 40.5875 41.119 42.2485 41.4257 43.9047C41.5224 44.3907 41.6191 44.8767 41.7159 45.3651C42.1877 47.2431 42.5888 49.1447 43.4547 50.8977L43.4287 50.8859C43.4971 51.1147 43.5349 51.3577 43.7189 51.537L43.6906 51.53C44.7205 54.0273 46.0443 55.7649 47.4631 57.2512ZM36.5089 142.181L36.4924 142.198C36.6269 142.238 36.6858 142.2 36.641 142.054L36.6316 142.085C36.8463 142.101 36.9053 141.91 37.0185 141.79L37.0091 141.799C37.0987 141.733 37.2214 141.688 37.1719 141.537L37.1506 141.563C37.4337 141.485 37.5706 141.266 37.6838 141.023L37.6579 141.042C37.7051 140.99 37.7523 140.936 37.7994 140.884L37.7876 140.902C38.0354 140.697 38.0071 140.409 38.0141 140.136C38.0637 138.074 38.1203 136.012 38.1557 133.95C38.1816 132.341 38.1698 132.343 36.6693 131.803C34.7698 131.122 33.5149 130.488 31.8894 129.54C29.8651 128.299 28.1004 126.744 26.43 125.072C24.7596 123.399 24.1157 120.623 23.7003 119.301C23.6201 119.221 23.5398 119.143 23.4596 119.062C22.5675 118.213 21.5962 116.599 21.249 115.13C21.1805 114.839 20.947 114.733 20.7346 114.596C19.8523 114.03 18.9628 113.476 18.0922 112.893C17.8233 112.711 17.7478 112.707 17.7383 113.056C17.7147 113.851 17.6345 114.644 17.6298 115.439C17.6039 119.754 17.5873 124.064 17.9884 128.37C18.2031 130.673 18.4909 132.959 19.043 135.205C19.6612 137.729 20.6285 140.107 22.4593 142.004C24.8304 144.46 27.796 145.34 31.1391 144.868C32.701 144.647 34.1921 144.128 35.4496 143.101C35.6784 143.033 35.8554 142.901 35.9781 142.696L35.9639 142.707C36.1574 142.637 36.3579 142.573 36.3862 142.323L36.3579 142.33C36.4947 142.37 36.5467 142.323 36.5042 142.184L36.5089 142.181ZM83.348 68.5759L83.3763 68.5499C83.3655 68.5448 83.3552 68.5407 83.3454 68.5375C83.2064 68.4919 83.1708 68.6307 83.1003 68.7056C82.5506 69.1397 82.0127 69.588 81.4488 70.0056C77.4404 72.9689 73.0497 74.9837 68.0244 75.4579C65.1932 75.7245 62.4022 75.6137 59.7527 74.4836C57.5727 73.554 55.7867 72.1856 55.1002 69.7508C54.968 69.286 55.1945 68.5523 54.7769 68.4107C54.3971 68.281 53.8309 68.6702 53.3543 68.8519C48.624 70.6451 42.5398 72.8414 39.6798 77.0505C39.6409 77.1023 39.6001 77.156 39.5609 77.2082C39.5573 77.213 39.5536 77.2179 39.55 77.2227L39.5689 77.2015C39.5663 77.2037 39.5636 77.2059 39.5609 77.2082C39.3422 77.3926 39.1382 77.5894 39.031 77.8644L39.0593 77.8456C39.0151 77.8942 38.9729 77.9429 38.9289 77.9916C38.926 77.9948 38.923 77.998 38.9201 78.0013L38.9289 77.9916C38.7556 78.2481 38.5801 78.5068 38.4067 78.7633C38.404 78.7672 38.4014 78.7712 38.3987 78.7751L38.4067 78.7633L38.4105 78.7562C38.4092 78.7586 38.408 78.7609 38.4067 78.7633C38.3597 78.8505 38.3128 78.9377 38.2658 79.025C38.2645 79.0274 38.2632 79.0298 38.2619 79.0323L38.2831 79.004C38.2774 79.011 38.2716 79.018 38.2658 79.025C38.2286 79.0699 38.1901 79.1148 38.1533 79.1597C37.3512 80.2308 36.8581 81.4529 36.4216 82.701C36.4201 82.7055 36.4185 82.71 36.4169 82.7147C36.3912 82.7889 36.3575 82.886 36.3886 82.9393C36.4712 83.0855 36.5726 82.9487 36.6528 82.9157C37.3299 82.6302 38.0118 82.5288 38.7125 82.8213C39.9393 83.3333 40.6542 84.9635 40.2979 86.6174C39.8261 88.8186 38.7927 90.8217 37.9882 92.9049C37.5541 94.028 36.9548 95.1203 36.9926 96.3802C37.035 97.7981 37.1034 99.2137 37.1624 100.632C37.1627 100.638 37.1629 100.644 37.1632 100.651C37.1888 101.284 37.2141 101.91 38.1368 101.854C38.3326 101.842 38.5709 101.936 38.7361 102.057C39.2811 102.46 39.3943 102.137 39.4415 101.672C39.458 101.502 39.4486 101.328 39.4698 101.158C39.7034 99.2066 39.9181 97.2555 40.1776 95.3091C40.4867 92.9993 40.7957 90.6896 41.1803 88.3916C41.4634 86.6953 41.8197 85.0084 42.3741 83.3734C42.5015 82.9935 42.6832 82.6184 43.2046 82.9251C43.24 82.9747 43.273 83.0242 43.3084 83.0714L43.2942 83.0549C43.2942 83.1752 43.2942 83.2955 43.2942 83.4158L43.3178 83.4041C43.2848 83.4536 43.2329 83.4961 43.2164 83.5503C42.5157 85.9073 42.0627 88.3137 41.7112 90.7438C41.0706 94.7399 40.6665 98.7716 40.154 102.786C40.1257 103 40.2106 103.097 40.3404 103.208L40.3239 103.196C40.7214 103.615 41.8501 104.928 41.5035 104.465C42.8957 106.067 43.9202 106.662 46.2221 108.479C46.2573 108.503 46.4415 108.628 46.4038 108.611C49.5855 110.822 51.1916 113.316 52.7008 116.595C53.3189 117.937 53.7884 119.364 54.8265 120.478C55.1629 121.029 56.4499 122.096 57.1339 121.868C58.0068 121.636 58.8656 121.684 59.7244 121.96C62.1568 122.743 64.5916 123.514 67.024 124.295C74.1656 126.584 81.3591 128.672 88.7272 130.111C89.2486 130.213 89.4539 130.142 89.4893 129.568C89.619 127.525 90.0666 125.611 90.3315 123.573C90.558 121.849 90.7586 120.122 90.9709 118.395C91.372 115.476 91.6292 112.541 91.9052 109.609C92.0137 108.448 92.1411 107.287 92.2591 106.126L92.2593 106.124C92.3064 105.679 92.3535 105.234 92.4054 104.791C92.6437 102.677 92.8702 100.563 93.125 98.4517C93.2972 97.0219 93.5072 95.5946 93.6983 94.1672L93.7195 94.1318C93.8823 93.8959 93.9389 93.6292 93.9436 93.3509C93.9837 93.2518 94.0356 93.155 94.0592 93.0512C94.9369 88.9012 96.5412 85.098 99.3912 81.8894C99.4809 81.7974 99.5706 81.7054 99.6602 81.6133L99.6508 81.6204C99.7255 81.5564 99.8543 81.5232 99.8222 81.3969C99.8188 81.3836 99.8137 81.3693 99.8065 81.3538L99.7805 81.3821C99.7955 81.3888 99.8093 81.3937 99.8222 81.3969C99.9497 81.4286 99.9829 81.2991 100.047 81.2241L100.038 81.2335C100.127 81.1438 100.217 81.0565 100.307 80.9669L100.293 80.9763C100.34 80.9291 100.387 80.8796 100.436 80.8324L100.423 80.8479C100.473 80.8011 100.522 80.7542 100.571 80.705L100.55 80.7192C100.609 80.6791 100.668 80.6413 100.727 80.6012C101.158 80.462 101.522 79.6693 102.01 80.2685C102.425 80.7758 101.706 80.9669 101.449 81.276L100.915 81.736C100.88 81.7714 100.845 81.8045 100.809 81.8398C100.76 81.8917 100.71 81.9437 100.661 81.9956L100.677 81.9767C100.63 82.0262 100.58 82.0758 100.533 82.1253L100.55 82.1088C100.5 82.1583 100.453 82.2055 100.403 82.2551L100.42 82.2386C100.373 82.2881 100.323 82.3377 100.276 82.3848L100.293 82.3683C100.245 82.4155 100.196 82.4651 100.149 82.5122L100.158 82.4981C99.9929 82.6798 99.8277 82.8591 99.6626 83.0407C98.2069 84.5884 97.2136 86.4169 96.4138 88.3633C95.2389 91.2204 94.5995 94.2144 94.2102 97.2649C93.9012 99.6879 93.5874 102.109 93.3208 104.536C93.0235 107.242 92.7947 109.956 92.5045 112.662C92.1883 115.625 91.8651 118.586 91.4947 121.542C91.1715 124.123 90.8034 126.697 90.4118 129.269C90.249 130.347 90.1994 130.338 91.2493 130.26C92.4573 130.08 93.6511 130.213 94.8402 130.422C94.9133 130.463 94.9817 130.517 95.0572 130.538C97.1664 131.104 99.0916 132.062 100.882 133.294C101.111 133.452 101.505 133.624 101.213 134.053C100.922 134.48 100.651 134.204 100.403 134.023C99.5352 133.388 98.5797 132.902 97.6147 132.44C96.0057 131.668 94.3447 131.069 92.5281 131.055C92.4431 131.055 92.3086 130.975 92.278 131.126C92.2733 131.149 92.403 131.215 92.4762 131.241C95.997 132.908 97.1424 134.177 98.8528 136.878L98.8462 136.863C98.8484 136.868 98.8506 136.873 98.8528 136.878C98.855 136.883 98.8573 136.887 98.8595 136.892C98.9643 137.122 99.0575 137.325 98.8486 137.505C98.5199 137.788 98.1893 137.557 97.9639 137.361L97.9851 137.378C96.4047 134.524 93.1944 132.081 89.9659 131.326C87.5193 130.75 85.0538 130.257 82.6143 129.658C79.8869 128.988 77.1808 128.24 74.4629 127.528V127.561C72.3537 126.905 70.2421 126.249 68.1306 125.595L68.14 125.621C67.989 125.48 67.8168 125.409 67.6068 125.475L67.6233 125.487C66.2785 124.93 64.896 124.501 63.4757 124.185L63.4898 124.194C62.1733 123.552 60.7412 123.253 59.3634 122.8C59.0024 122.682 58.6202 122.623 58.2451 122.547C58.1696 122.533 58.087 122.568 58.0068 122.58C58.0823 122.611 58.1555 122.66 58.2333 122.667C58.842 122.734 59.0048 123.116 58.9458 123.656C58.9128 123.97 58.8798 124.284 58.8444 124.597C58.7146 126.041 58.4268 127.457 58.0658 128.858C57.8723 129.455 57.6812 130.054 57.4878 130.651L57.5137 130.642C57.4193 130.861 57.3273 131.081 57.233 131.298L57.2542 131.281C57.1598 131.501 57.0655 131.72 56.9711 131.94L56.9829 131.921C56.9357 132.015 56.8909 132.109 56.8437 132.204L56.8626 132.18C56.813 132.275 56.7658 132.369 56.7163 132.461L56.7375 132.442L56.4568 132.971L56.4733 132.952C56.4001 133.081 56.3294 133.209 56.2562 133.339C55.2512 134.91 54.1446 136.382 52.5309 137.404C51.691 137.934 51.7146 137.97 52.6229 138.423C52.7031 138.475 52.7857 138.524 52.8659 138.576L52.8494 138.56C52.9886 138.645 53.1254 138.73 53.2646 138.815L53.2505 138.805C53.3354 138.862 53.4203 138.918 53.5053 138.975C54.9492 139.947 56.4709 140.785 58.0469 141.523C58.1489 141.618 58.2551 141.707 58.4055 141.682C58.4117 141.681 58.418 141.68 58.4244 141.679L58.4126 141.648C58.4089 141.661 58.4065 141.672 58.4055 141.682C58.395 141.78 58.5009 141.76 58.5565 141.792L58.5447 141.778C58.6344 141.83 58.7264 141.879 58.8161 141.931L58.7948 141.917C58.8868 141.967 58.9788 142.016 59.0709 142.066L59.0496 142.049C59.5309 142.306 60.0122 142.563 60.4935 142.821L60.4817 142.806C60.5737 142.856 60.6634 142.906 60.7554 142.953L60.7365 142.941C60.8262 142.99 60.9135 143.04 61.0031 143.09L60.9913 143.078C61.0833 143.127 61.1754 143.174 61.2674 143.224L61.2438 143.208C61.3358 143.257 61.4278 143.307 61.5198 143.356L61.5009 143.34C61.5953 143.387 61.6897 143.434 61.784 143.484L61.7581 143.469C61.8525 143.517 61.9468 143.566 62.0412 143.613L62.02 143.594C62.1144 143.642 62.2111 143.689 62.3055 143.736L62.2795 143.727C62.933 144.142 63.6243 144.479 64.3415 144.772C64.3722 144.8 64.3958 144.84 64.4312 144.857C72.0847 148.61 79.92 151.904 88.2483 153.86C92.0279 154.747 95.8311 155.589 99.7829 154.966C102.343 154.563 104.443 153.402 106.094 151.456C108.687 148.398 109.956 144.703 111.013 140.921C111.917 137.691 112.554 134.405 113.061 131.093C113.545 127.941 113.969 124.779 114.255 121.601C114.399 120.009 114.467 118.404 114.654 116.824C114.951 114.311 115.116 111.791 115.26 109.271C115.538 104.482 115.659 99.6879 115.411 94.8891C115.253 91.8291 114.977 88.7833 114.236 85.8011C113.05 81.0309 110.412 77.206 106.686 74.4411C105.068 73.2402 103.336 72.221 101.545 71.3103C100.679 70.8691 99.8419 70.3501 98.884 70.1094C98.8425 69.971 98.7129 70.0018 98.6168 69.9701C98.6146 69.9694 98.6125 69.9686 98.6103 69.9679L98.6221 69.9773C98.6204 69.9749 98.6186 69.9725 98.6168 69.9701C98.4936 69.8068 98.3111 69.7513 98.1267 69.6952C98.1204 69.6933 98.1141 69.6914 98.1078 69.6895L98.1196 69.706L96.9565 69.1421C93.6558 67.6156 90.2749 66.2614 87.0545 64.5627C86.8421 64.4495 86.7501 64.4778 86.6086 64.6807C86.1933 65.2729 85.7427 65.8391 85.3063 66.4171C85.0006 66.8603 83.4033 68.2192 83.3454 68.5375C83.3427 68.5527 83.3434 68.5656 83.348 68.5759ZM53.3095 135.594L53.2882 135.62C54.6085 134.237 55.648 132.949 56.294 131.088L56.268 131.097C56.36 130.875 56.4544 130.654 56.5464 130.434L56.5252 130.453C57.4642 128.323 57.8535 126.072 57.9832 123.767C58.0068 123.342 57.6647 123.441 57.4146 123.432L57.4335 123.441C57.1551 123.128 56.7635 123.033 56.3931 122.901L56.4119 122.92C55.2276 122.313 54.5783 121.906 53.5595 120.454L53.5737 120.476C53.4392 120.254 53.3047 120.032 53.1703 119.81L53.1891 119.822C53.1514 119.761 53.1726 119.631 53.0334 119.685L53.0523 119.707C52.9485 119.173 52.6418 118.732 52.3964 118.263L52.42 118.277C52.3044 117.961 52.236 117.623 52.0095 117.359L52.0354 117.371C50.2489 113.572 48.6136 112.086 44.7641 108.592L44.7759 108.601C44.6438 108.507 44.5116 108.413 44.3795 108.316L44.4008 108.342C44.3489 108.295 44.2969 108.25 44.245 108.203L44.2592 108.214C44.2073 108.111 44.1294 108.049 44.0067 108.059C42.7487 106.952 41.244 105.629 40.1139 104.461C40.593 105.059 39.1494 103.005 38.4364 102.887L38.2767 102.786C37.5689 102.441 37.3952 102.753 37.4031 103.477C37.4078 103.864 37.3512 104.263 37.4243 104.635C37.5895 105.487 37.3205 106.395 37.7688 107.207H37.7405C37.8726 107.577 38.0188 107.943 38.2854 108.243L38.2713 108.229C38.6365 108.762 39.1493 109.516 39.576 110.022C40.4277 111.031 41.3101 112.018 42.1146 113.065C42.426 113.471 42.6879 113.709 43.2282 113.662C43.5679 113.631 44.0256 113.681 43.9832 114.214C43.9431 114.731 43.4971 114.568 43.2258 114.54C40.8382 114.299 38.4553 114.021 36.0701 113.773C32.3613 113.391 28.7586 112.525 25.1843 111.494C23.9928 111.149 22.8722 110.489 21.5392 110.673C20.4987 110.817 19.4417 110.833 18.3942 110.921C17.979 110.956 17.5519 110.829 17.1461 111.003C17.4245 111.352 17.7737 111.619 18.1347 111.881C21.3622 114.212 24.9554 115.847 28.5958 117.385C30.2615 118.088 31.9531 118.744 33.699 119.232C33.9774 119.31 34.2534 119.431 34.1496 119.806C34.0434 120.19 33.732 120.098 33.4607 120.06C33.3356 120.042 33.213 119.994 33.0926 119.954C29.4782 118.777 25.9746 117.333 22.5985 115.587C22.5136 115.542 22.3696 115.465 22.3366 115.493C22.2281 115.59 22.3673 115.677 22.405 115.764C23.0585 117.3 24.1273 118.51 25.3754 119.582C26.1199 120.078 27.0199 120.772 27.7064 121.276C27.7583 121.344 27.7937 121.436 27.8597 121.474C29.5042 122.41 31.1132 123.42 32.8897 124.107C33.1776 124.218 33.5857 124.352 33.4395 124.744C33.3026 125.102 32.9416 125.01 32.6043 124.904C31.7856 124.647 31.0566 124.201 30.2733 123.868C29.0179 123.335 28.0339 122.744 26.8051 121.887L26.8193 121.898C26.7438 121.721 26.5928 121.655 26.4182 121.622C26.1587 121.238 25.7293 121.068 25.3848 120.787C25.2952 120.714 25.2456 120.535 25.0946 120.66C25.0616 120.686 25.1277 120.848 25.1678 120.94C25.7812 122.354 26.5338 123.644 27.6261 124.788C28.6831 125.893 29.7566 126.959 30.9858 127.851C34.0812 130.097 37.6178 131.324 41.2888 132.237C44.1577 132.952 47.1139 133.362 49.8224 134.65C50.3721 134.931 50.9218 135.21 51.4716 135.49L51.4527 135.471C52.2961 136.131 52.6947 136.209 53.3095 135.594ZM8.34833 86.2682C8.29879 86.2211 8.24924 86.1739 8.19969 86.1267L8.21149 86.1385C8.08409 86.0441 7.95433 85.9497 7.82693 85.8554L7.83636 85.8695C7.65706 85.669 7.43056 85.5439 7.17576 85.4661L7.18992 85.485L6.40191 85.0744L6.41843 85.091C6.24148 84.9989 6.06453 84.9069 5.88758 84.8149L5.90174 84.8291C5.72243 84.7418 5.54313 84.6545 5.36382 84.5672L5.37797 84.5813C4.8377 84.2251 4.21484 84.0741 3.59671 83.9774C3.05643 83.8924 2.4666 83.8641 2.09619 84.4398L2.11507 84.4256C1.95699 84.3666 1.91689 84.4988 1.85083 84.5861L1.86262 84.5743C1.09113 85.3576 1.15012 86.6646 1.99474 87.5729L1.98531 87.5635C2.11035 87.764 2.29437 87.8867 2.50671 87.9764L2.4902 87.9622C2.70489 88.1864 2.98801 88.2807 3.27348 88.3727L3.26404 88.3491C4.66075 89.0168 6.1707 89.366 7.62167 89.885C8.00859 90.0242 8.36485 90.0101 8.71166 89.7836L8.74233 89.7576C8.81311 89.7128 8.88153 89.6656 8.95231 89.6208C9.76155 88.7432 9.65774 87.4856 8.69279 86.523C8.61729 86.4711 8.53943 86.4192 8.46394 86.3673L8.48045 86.3933C8.43091 86.3437 8.379 86.2942 8.32946 86.247L8.34833 86.2659V86.2682ZM57.3179 142.278C57.2636 142.245 57.2094 142.21 57.1528 142.177C55.0294 140.9 52.7645 139.855 50.8062 138.307C50.6435 138.126 50.4807 137.944 50.3202 137.762L50.3344 137.774C50.0843 137.253 49.905 136.705 50.0607 136.134C50.174 135.719 49.964 135.693 49.6691 135.688L49.6832 135.703C49.3175 135.353 48.8433 135.221 48.3927 135.035V135.056C48.2653 134.99 48.1426 134.905 48.0058 134.86C45.177 133.898 42.2113 133.464 39.3495 132.626C39.0098 132.527 39.0805 132.763 39.0758 132.942C39.0757 132.947 39.0757 132.951 39.0756 132.955C39.0285 135.423 38.9814 137.892 38.9366 140.36C38.8328 141.098 38.8069 141.841 38.8446 142.587C38.7502 145.885 38.6653 149.184 38.5544 152.482C38.4978 154.169 38.3963 155.856 38.3138 157.543C38.1321 161.369 37.9764 165.196 37.7523 169.018C37.7051 169.813 37.9787 170.219 38.696 170.413C38.821 170.42 38.9154 170.58 39.0593 170.488L39.0499 170.462C39.2127 170.722 39.5052 170.738 39.7553 170.818C42.0863 171.566 44.4668 172.095 46.8922 172.423C50.0466 173.022 53.2434 173.291 56.4355 173.522C60.1656 173.791 63.9098 173.933 67.6493 174.025C72.9624 174.154 78.2708 173.968 83.5745 173.664C85.2897 173.565 87.0073 173.444 88.7154 173.26C91.7778 172.93 94.8425 172.583 97.8671 171.993C99.6885 171.639 101.522 171.319 103.242 170.58C103.614 170.42 104.089 170.344 104.155 169.806C104.183 167.548 104.138 165.293 104.086 163.035C104.023 160.327 104.049 157.616 104.02 154.907C104.02 154.811 104.19 154.428 103.85 154.589C103.383 154.808 102.871 154.964 102.48 155.327L102.496 155.308C102.323 155.246 102.198 155.305 102.104 155.449C102.102 155.452 102.1 155.456 102.097 155.459L102.109 155.448L102.104 155.449C99.8879 156.038 97.6413 156.214 95.3592 155.997C94.4249 155.908 93.4906 155.813 92.5564 155.721C92.5115 155.683 92.4691 155.617 92.4195 155.61C90.7704 155.372 89.1519 154.99 87.5334 154.605C81.9773 153.291 76.6594 151.283 71.4218 149.052C67.3591 147.32 63.386 145.397 59.4625 143.375C58.9104 143.097 58.3607 142.816 57.8086 142.537L57.8228 142.552C57.7308 142.502 57.6411 142.45 57.5491 142.401L57.568 142.42L57.2943 142.266L57.3155 142.278H57.3179ZM36.214 109.245L36.2187 109.241C35.5723 109.687 34.8409 109.958 34.0741 110.01C33.5905 110.043 33.6188 110.274 33.6542 110.569C33.7226 111.138 33.8358 111.699 33.8972 112.268C33.9208 112.499 33.9703 112.586 34.2227 112.619C35.7044 112.813 37.1837 113.03 38.6629 113.242C38.8517 113.268 38.9461 113.202 38.9343 113.001C38.8824 112.216 39.0334 111.425 38.8517 110.645C38.4081 110.133 37.9622 109.623 37.5187 109.111C37.5234 108.927 37.4078 108.814 37.2757 108.712L37.2898 108.724C37.2096 108.578 37.127 108.431 37.0468 108.285C36.6576 108.944 36.6809 108.759 36.214 109.245ZM7.046 73.4856C7.02948 73.4077 7.01297 73.3275 6.99645 73.2496C6.62132 72.4569 5.98903 71.9308 5.19395 71.6076C4.1417 71.1782 3.2145 71.6241 2.99509 72.7259C2.65771 74.4128 3.41976 75.7175 4.62772 76.8004C5.43224 77.52 6.51516 77.7913 7.3881 78.4118C7.49426 78.4873 7.60515 78.5156 7.57212 78.341C7.48011 77.8456 7.7066 77.3194 7.42584 76.8428C7.33855 76.4583 7.56269 76.0383 7.29844 75.6703L7.30552 75.6821C7.19699 74.9483 7.47539 74.1674 7.03892 73.4738L7.046 73.4832V73.4856ZM1.58423 90.3876L1.59838 90.3781C1.03451 91.1119 1.15483 91.9117 1.37425 92.7186C1.52524 93.1126 1.64085 93.5278 1.83195 93.9006C3.61086 97.364 5.97488 100.415 8.53472 103.326C8.61493 103.418 8.74941 103.59 8.77772 103.576C8.94287 103.489 8.8485 103.312 8.84378 103.18C8.7211 100.693 8.58898 98.2086 8.46158 95.7219C8.45214 95.5238 8.45214 95.3303 8.19262 95.5615C6.6921 95.7408 5.32135 95.2312 3.94352 94.757L3.96711 94.7711C3.87746 94.6909 3.79017 94.6107 3.70052 94.5329C3.61558 93.9194 3.87274 93.7519 4.44369 93.9383C5.38741 94.2474 6.29338 94.698 7.32911 94.6791C8.37664 94.6579 8.94051 94.271 9.10095 93.3933C9.28497 92.3812 8.7966 91.2393 7.98972 90.9632C6.64492 90.5032 5.28832 90.0691 3.91993 89.6845C3.13192 89.4627 2.38403 89.635 1.79656 90.2673C1.65972 90.1965 1.62197 90.2932 1.58423 90.3899V90.3876ZM32.8496 111.963C32.852 111.515 32.8308 111.062 32.8661 110.616C32.8968 110.215 32.76 110.121 32.366 110.142C30.3181 110.246 28.2679 110.321 26.2271 110.541C25.9227 110.574 25.616 110.567 25.3093 110.578C25.5901 110.687 25.8708 110.798 26.1516 110.906C28.2632 111.501 30.403 111.966 32.5547 112.386C33.2719 112.527 32.8874 112.195 32.8496 111.963ZM14.4141 106.676C14.4141 106.676 14.4141 106.688 14.4141 106.693C17.6959 106.513 20.9776 106.334 24.2594 106.152C27.3926 105.98 30.5234 105.81 33.6565 105.629C34.5082 105.579 34.9565 105.107 34.9235 104.253C34.8527 102.342 34.7536 100.433 34.6498 98.5224C34.4492 94.8561 34.2298 91.1921 34.0293 87.5281C33.8783 84.7819 33.7532 82.0357 33.6046 79.2894C33.4088 75.6868 33.1988 72.0865 32.9912 68.4839C32.819 65.4592 32.6585 62.4346 32.458 59.4124C32.3801 58.2256 31.9271 57.867 30.7168 57.8717C30.2874 57.8717 29.8557 57.8717 29.4263 57.8883C24.4199 58.0982 19.4134 58.2964 14.4094 58.5394C13.2911 58.5937 12.1751 58.6173 11.0592 58.6645C9.80166 58.7187 9.46428 59.0821 9.49023 60.3183C9.50675 61.0922 9.56809 61.8637 9.61055 62.6352C9.82289 66.5799 10.0329 70.5247 10.2523 74.4694C10.5519 79.8321 10.8704 85.1948 11.1583 90.5574C11.3564 94.2474 11.5145 97.9397 11.7033 101.632C11.767 102.875 11.8566 104.116 11.9463 105.36C12.0029 106.134 12.6069 106.709 13.3854 106.726C13.7275 106.733 14.072 106.693 14.4164 106.674L14.4141 106.676ZM6.99645 84.251C8.33417 84.2392 9.01601 83.6423 9.05376 82.6137C9.08443 81.7856 8.88153 81.0117 8.3035 80.3653C7.42585 79.3814 6.33585 78.7208 5.10666 78.2985C3.97183 77.9092 2.8842 78.2561 2.30381 79.1125C1.68096 80.0303 1.64321 81.1698 2.45009 81.9366C3.79253 83.2106 5.65401 83.5149 6.99645 84.2487V84.251ZM36.7637 91.7796C36.7637 92.0462 36.7613 92.2396 36.7637 92.4331C36.7708 92.7445 36.7826 93.0583 36.792 93.3697C37.0822 93.1456 37.0893 92.7775 37.1978 92.4779C37.915 90.4961 38.9744 88.6393 39.3943 86.5537C39.5807 85.6242 39.5453 84.704 38.8187 83.9703C38.3421 83.4913 37.7711 83.4371 37.1601 83.6801C36.575 83.9137 36.3438 84.2794 36.3957 84.9683C36.5679 87.2591 36.6505 89.5571 36.7661 91.7819L36.7637 91.7796ZM39.8426 112.636C39.8426 112.926 39.5453 113.32 40.1304 113.405C40.456 113.452 40.8925 113.671 41.0812 113.419C41.2063 113.252 40.8099 112.905 40.6164 112.659C40.4843 112.492 40.364 112.313 40.2201 112.154C40.1281 112.053 40.062 111.871 39.8945 111.919C39.8473 111.933 39.852 112.143 39.8426 112.263C39.8355 112.369 39.8426 112.478 39.8426 112.636ZM51.4126 137.012C51.4621 136.986 51.5919 136.918 51.7193 136.852C51.5282 136.729 51.3418 136.599 51.146 136.486C51.0799 136.448 50.9242 136.455 51.0115 136.564C51.1295 136.708 50.9502 137.054 51.4102 137.012H51.4126Z" fill="#1C1C1A"/>
<path d="M73.2455 22.638C73.3186 22.9707 73.3564 23.3128 73.4484 23.6407C74.3591 26.906 76.105 29.4233 79.5614 30.3836C80.3069 30.5912 81.0076 30.5723 81.7154 30.1311C82.6662 29.5389 83.7255 29.3219 84.8603 29.5012C87.0026 29.8362 88.4488 32.0492 88.8122 34.1042C89.2651 36.6593 88.6588 39.0351 87.3683 41.2269C86.2476 43.1261 84.7589 44.629 82.4373 44.9782C82.0551 45.0372 82.0929 45.266 82.0952 45.5255C82.1 47.1818 82.0882 48.838 82.1118 50.4942C82.1188 51.0156 81.9348 51.924 82.2132 51.9782C82.7889 52.0915 83.3244 51.5559 83.7538 51.0911C83.827 51.0109 83.9379 50.9496 83.9732 50.8576C84.589 49.2839 86.0282 48.6044 87.3187 47.7574C87.5334 47.6159 87.7198 47.4319 87.9086 47.2573C89.9305 45.3793 91.0299 43.145 90.7775 40.3044C90.6784 39.1861 90.6241 38.0418 90.9143 36.9235C91.3626 35.1871 92.2426 33.6394 92.9975 32.0374C94.2409 29.3974 94.6231 26.6559 93.9625 23.8082C93.4364 21.5409 92.2237 19.6205 90.5911 18.0114C89.1543 16.5958 87.9439 15.034 86.9861 13.2787C85.193 9.98981 82.7606 7.29313 79.6487 5.20987C74.3945 1.69452 68.5623 0.550259 62.3408 1.02684C58.0045 1.35714 53.996 2.67599 50.3792 5.10606C49.511 5.68881 48.6593 6.28571 47.6448 6.5877C45.1109 7.34032 42.846 8.60962 40.8736 10.3343C38.0189 12.8328 36.2069 15.9352 35.912 19.795C35.7138 22.3808 36.3461 24.7566 37.8914 26.8541C38.0377 27.0522 38.0967 27.3684 38.3963 27.451C38.4081 27.1844 38.4317 26.9178 38.4317 26.6512C38.4152 23.6383 38.8824 20.7317 40.3546 18.0562C41.579 15.8291 43.2423 14.0124 45.4601 12.7313C45.6606 12.6157 45.8965 12.5119 45.571 12.2429C45.2454 11.974 45.0731 11.5587 45.4554 11.2898C45.8376 11.0208 46.1514 11.3299 46.3802 11.6956C47.5575 13.5877 49.1193 15.159 50.9384 16.3717C55.9707 19.7313 61.5505 21.4489 67.6233 21.2767C69.9213 21.2106 72.1414 20.6232 74.0901 19.2925C74.4134 19.0707 74.6871 19.0354 74.9088 19.3845C75.1448 19.7549 74.864 19.946 74.5927 20.09C74.005 20.4031 73.4356 20.7452 72.8381 21.0341C73.0394 21.5894 73.2052 22.4519 73.2455 22.638Z" fill="#F1B069"/>
<path d="M83.3763 68.5499L83.348 68.5759C83.3434 68.5656 83.3427 68.5527 83.3454 68.5375C83.2064 68.4919 83.1708 68.6307 83.1003 68.7056C82.5506 69.1397 82.0127 69.588 81.4488 70.0056C77.4404 72.9689 73.0497 74.9837 68.0244 75.4579C65.1932 75.7245 62.4022 75.6137 59.7527 74.4836C57.5727 73.554 55.7867 72.1856 55.1002 69.7508C54.968 69.286 55.1945 68.5523 54.7769 68.4107C54.3971 68.281 53.8309 68.6702 53.3543 68.8519C48.624 70.6451 42.5398 72.8414 39.6798 77.0505C39.6409 77.1023 39.6001 77.156 39.5609 77.2082C39.5636 77.2059 39.5663 77.2037 39.5689 77.2015L39.55 77.2227C39.5536 77.2179 39.5573 77.213 39.5609 77.2082C39.3422 77.3926 39.1382 77.5894 39.031 77.8644L39.0593 77.8456C39.0151 77.8942 38.9729 77.9429 38.9289 77.9916C38.7556 78.2481 38.5801 78.5068 38.4067 78.7633L38.2658 79.025C38.2716 79.018 38.2774 79.011 38.2831 79.004L38.2619 79.0323L38.2658 79.025C38.2286 79.0699 38.1901 79.1148 38.1533 79.1597C37.3512 80.2308 36.8581 81.4529 36.4216 82.701L36.4169 82.7147C36.3912 82.7889 36.3575 82.886 36.3886 82.9393C36.4712 83.0855 36.5726 82.9487 36.6528 82.9157C37.3299 82.6302 38.0118 82.5288 38.7125 82.8213C39.9393 83.3333 40.6542 84.9635 40.2979 86.6174C39.8261 88.8186 38.7927 90.8217 37.9882 92.9049C37.5541 94.028 36.9548 95.1203 36.9926 96.3802C37.035 97.7981 37.1034 99.2137 37.1624 100.632L37.1632 100.651C37.1888 101.284 37.2141 101.91 38.1368 101.854C38.3326 101.842 38.5709 101.936 38.7361 102.057C39.2811 102.46 39.3943 102.137 39.4415 101.672C39.458 101.502 39.4486 101.328 39.4698 101.158C39.7034 99.2066 39.9181 97.2555 40.1776 95.3091C40.4867 92.9993 40.7957 90.6896 41.1803 88.3916C41.4634 86.6953 41.8197 85.0084 42.3741 83.3734C42.5015 82.9935 42.6832 82.6184 43.2046 82.9251C43.24 82.9747 43.273 83.0242 43.3084 83.0714L43.2942 83.0549V83.4158L43.3178 83.4041C43.2848 83.4536 43.2329 83.4961 43.2164 83.5503C42.5157 85.9073 42.0627 88.3137 41.7112 90.7438C41.0706 94.7399 40.6665 98.7716 40.154 102.786C40.1257 103 40.2106 103.097 40.3404 103.208L40.3239 103.196C40.7214 103.615 41.8501 104.928 41.5035 104.465C42.8957 106.067 43.9202 106.662 46.2221 108.479C46.2573 108.503 46.4415 108.628 46.4038 108.611C49.5855 110.822 51.1916 113.316 52.7008 116.595C53.3189 117.937 53.7884 119.364 54.8265 120.478C55.1629 121.029 56.4499 122.096 57.1339 121.868C58.0068 121.636 58.8656 121.684 59.7244 121.96C62.1568 122.743 64.5916 123.514 67.024 124.295C74.1656 126.584 81.3591 128.672 88.7272 130.111C89.2486 130.213 89.4539 130.142 89.4893 129.568C89.619 127.525 90.0666 125.611 90.3315 123.573C90.558 121.849 90.7586 120.122 90.9709 118.395C91.372 115.476 91.6292 112.541 91.9052 109.609C92.0137 108.448 92.1411 107.287 92.2591 106.126L92.2593 106.124C92.3064 105.679 92.3535 105.234 92.4054 104.791C92.6437 102.677 92.8702 100.563 93.125 98.4517C93.2972 97.0219 93.5072 95.5946 93.6983 94.1672L93.7195 94.1318C93.8823 93.8959 93.9389 93.6292 93.9436 93.3509C93.9837 93.2518 94.0356 93.155 94.0592 93.0512C94.9369 88.9012 96.5412 85.098 99.3912 81.8894L99.6602 81.6133L99.6508 81.6204C99.7255 81.5564 99.8543 81.5232 99.8222 81.3969C99.8093 81.3937 99.7955 81.3888 99.7805 81.3821L99.8065 81.3538C99.8137 81.3693 99.8188 81.3836 99.8222 81.3969C99.9497 81.4286 99.9829 81.2991 100.047 81.2241C100.044 81.2272 100.041 81.2304 100.038 81.2335L100.047 81.2241C100.134 81.1377 100.22 81.0534 100.307 80.9669L100.293 80.9763C100.34 80.9291 100.387 80.8796 100.436 80.8324L100.423 80.8479C100.473 80.8011 100.522 80.7542 100.571 80.705L100.55 80.7192C100.609 80.6791 100.668 80.6413 100.727 80.6012C101.158 80.462 101.522 79.6693 102.01 80.2685C102.425 80.7758 101.706 80.9669 101.449 81.276L100.915 81.736C100.88 81.7714 100.845 81.8045 100.809 81.8398L100.661 81.9956L100.677 81.9767C100.63 82.0262 100.58 82.0758 100.533 82.1253L100.42 82.2386C100.373 82.2881 100.323 82.3377 100.276 82.3848L100.149 82.5122L100.158 82.4981C99.9929 82.6798 99.8277 82.8591 99.6626 83.0407C98.2069 84.5884 97.2136 86.4169 96.4138 88.3633C95.2389 91.2204 94.5995 94.2144 94.2102 97.2649C93.9012 99.6879 93.5874 102.109 93.3208 104.536C93.0235 107.242 92.7947 109.956 92.5045 112.662C92.1883 115.625 91.8651 118.586 91.4947 121.542C91.1715 124.123 90.8034 126.697 90.4118 129.269C90.249 130.347 90.1994 130.338 91.2493 130.26C92.4573 130.08 93.6511 130.213 94.8402 130.422C94.9133 130.463 94.9817 130.517 95.0572 130.538C97.1664 131.104 99.0916 132.062 100.882 133.294C101.111 133.452 101.505 133.624 101.213 134.053C100.922 134.48 100.651 134.204 100.403 134.023C99.5352 133.388 98.5797 132.902 97.6147 132.44C96.0057 131.668 94.3447 131.069 92.5281 131.055C92.4431 131.055 92.3086 130.975 92.278 131.126C92.2733 131.149 92.403 131.215 92.4762 131.241C95.997 132.908 97.1424 134.177 98.8528 136.878L98.8462 136.863L98.8557 136.882L98.8528 136.878L98.8595 136.892C98.9643 137.122 99.0575 137.325 98.8486 137.505C98.5199 137.788 98.1893 137.557 97.9639 137.361L97.9851 137.378C96.4047 134.524 93.1944 132.081 89.9659 131.326C87.5193 130.75 85.0538 130.257 82.6143 129.658C79.8869 128.988 77.1808 128.24 74.4629 127.528V127.561C72.3537 126.905 70.2421 126.249 68.1306 125.595L68.14 125.621C67.989 125.48 67.8168 125.409 67.6068 125.475L67.6233 125.487C66.2785 124.93 64.896 124.501 63.4757 124.185L63.4898 124.194C62.1733 123.552 60.7412 123.253 59.3634 122.8C59.0024 122.682 58.6202 122.623 58.2451 122.547C58.1696 122.533 58.087 122.568 58.0068 122.58C58.0823 122.611 58.1555 122.66 58.2333 122.667C58.842 122.734 59.0048 123.116 58.9458 123.656C58.9128 123.97 58.8798 124.284 58.8444 124.597C58.7146 126.041 58.4268 127.457 58.0658 128.858C57.8723 129.455 57.6812 130.054 57.4878 130.651L57.5137 130.642C57.4193 130.861 57.3273 131.081 57.233 131.298L57.2542 131.281L56.9711 131.94L56.9829 131.921C56.9357 132.015 56.8909 132.109 56.8437 132.204L56.8626 132.18C56.813 132.275 56.7658 132.369 56.7163 132.461L56.7375 132.442L56.4568 132.971L56.4733 132.952C56.4001 133.081 56.3294 133.209 56.2562 133.339C55.2512 134.91 54.1446 136.382 52.5309 137.404C51.691 137.934 51.7146 137.97 52.6229 138.423C52.7031 138.475 52.7857 138.524 52.8659 138.576L52.8494 138.56C52.9886 138.645 53.1254 138.73 53.2646 138.815L53.5053 138.975C54.9492 139.947 56.4709 140.785 58.0469 141.523C58.1489 141.618 58.2551 141.707 58.4055 141.682C58.4065 141.672 58.4089 141.661 58.4126 141.648L58.4244 141.679C58.418 141.68 58.4117 141.681 58.4055 141.682C58.395 141.78 58.5009 141.76 58.5565 141.792L58.5447 141.778C58.6344 141.83 58.7264 141.879 58.8161 141.931L58.7948 141.917L59.0709 142.066L59.0496 142.049L60.4935 142.821L60.4817 142.806C60.5737 142.856 60.6634 142.906 60.7554 142.953L60.7365 142.941C60.8262 142.99 60.9135 143.04 61.0031 143.09L60.9913 143.078C61.0833 143.127 61.1754 143.174 61.2674 143.224L61.2438 143.208L61.5198 143.356L61.5009 143.34C61.5953 143.387 61.6897 143.434 61.784 143.484L61.7581 143.469C61.8525 143.517 61.9468 143.566 62.0412 143.613L62.02 143.594C62.1144 143.642 62.2111 143.689 62.3055 143.736L62.2795 143.727C62.933 144.142 63.6243 144.479 64.3415 144.772C64.3722 144.8 64.3958 144.84 64.4312 144.857C72.0847 148.61 79.92 151.904 88.2483 153.86C92.0279 154.747 95.8311 155.589 99.7829 154.966C102.343 154.563 104.443 153.402 106.094 151.456C108.687 148.398 109.956 144.703 111.013 140.921C111.917 137.691 112.554 134.405 113.061 131.093C113.545 127.941 113.969 124.779 114.255 121.601C114.399 120.009 114.467 118.404 114.654 116.824C114.951 114.311 115.116 111.791 115.26 109.271C115.538 104.482 115.659 99.6879 115.411 94.8891C115.253 91.8291 114.977 88.7833 114.236 85.8011C113.05 81.0309 110.412 77.206 106.686 74.4411C105.068 73.2402 103.336 72.221 101.545 71.3103C100.679 70.8691 99.8419 70.3501 98.884 70.1094C98.8425 69.971 98.7129 70.0018 98.6168 69.9701C98.6186 69.9725 98.6204 69.9749 98.6221 69.9773L98.6103 69.9679C98.6125 69.9686 98.6146 69.9694 98.6168 69.9701C98.4936 69.8068 98.3111 69.7513 98.1267 69.6952L98.1078 69.6895L98.1196 69.706L96.9565 69.1421C93.6558 67.6156 90.2749 66.2614 87.0545 64.5627C86.8421 64.4495 86.7501 64.4778 86.6086 64.6807C86.1933 65.2729 85.7427 65.8391 85.3063 66.4171C85.0006 66.8603 83.4033 68.2192 83.3454 68.5375C83.3552 68.5407 83.3655 68.5448 83.3763 68.5499Z" fill="#F1B069"/>
<path d="M57.3179 142.278C57.2636 142.245 57.2094 142.21 57.1528 142.177C55.0294 140.9 52.7645 139.855 50.8062 138.307C50.6435 138.126 50.4807 137.944 50.3202 137.762L50.3344 137.774C50.0843 137.253 49.905 136.705 50.0607 136.134C50.174 135.719 49.964 135.693 49.6691 135.688L49.6832 135.703C49.3175 135.353 48.8433 135.221 48.3927 135.035V135.056C48.2653 134.99 48.1426 134.905 48.0058 134.86C45.177 133.898 42.2113 133.464 39.3495 132.626C39.0098 132.527 39.0805 132.763 39.0758 132.942L39.0756 132.955C39.0285 135.423 38.9814 137.892 38.9366 140.36C38.8328 141.098 38.8069 141.841 38.8446 142.587C38.7502 145.885 38.6653 149.184 38.5544 152.482C38.4978 154.169 38.3963 155.856 38.3138 157.543C38.1321 161.369 37.9764 165.196 37.7523 169.018C37.7051 169.813 37.9787 170.219 38.696 170.413C38.821 170.42 38.9154 170.58 39.0593 170.488L39.0499 170.462C39.2127 170.722 39.5052 170.738 39.7553 170.818C42.0863 171.566 44.4668 172.095 46.8922 172.423C50.0466 173.022 53.2434 173.291 56.4355 173.522C60.1656 173.791 63.9098 173.933 67.6493 174.025C72.9624 174.154 78.2708 173.968 83.5745 173.664C85.2897 173.565 87.0073 173.444 88.7154 173.26C91.7778 172.93 94.8425 172.583 97.8671 171.993C99.6885 171.639 101.522 171.319 103.242 170.58C103.614 170.42 104.089 170.344 104.155 169.806C104.183 167.548 104.138 165.293 104.086 163.035C104.023 160.327 104.049 157.616 104.02 154.907C104.02 154.811 104.19 154.428 103.85 154.589C103.383 154.808 102.871 154.964 102.48 155.327L102.496 155.308C102.323 155.246 102.198 155.305 102.104 155.449L102.109 155.448L102.097 155.459C102.1 155.456 102.102 155.452 102.104 155.449C99.8879 156.038 97.6413 156.214 95.3592 155.997C94.4249 155.908 93.4906 155.813 92.5564 155.721C92.5115 155.683 92.4691 155.617 92.4195 155.61C90.7704 155.372 89.1519 154.99 87.5334 154.605C81.9773 153.291 76.6594 151.283 71.4218 149.052C67.3591 147.32 63.386 145.397 59.4625 143.375C58.9104 143.097 58.3607 142.816 57.8086 142.537L57.8228 142.552C57.7308 142.502 57.6411 142.45 57.5491 142.401L57.568 142.42L57.3155 142.278H57.3179Z" fill="#F1B069"/>
<path d="M26.4256 125.067C28.0959 126.737 29.8607 128.295 31.885 129.536C31.9676 129.587 32.0242 129.684 32.095 129.76C32.1516 129.887 32.2601 129.906 32.3804 129.894L32.3545 129.88C32.4017 130.014 32.5125 130.033 32.6329 130.026L32.6187 130.012C32.9467 130.548 33.5388 130.6 34.0508 130.798L34.0343 130.779C34.0886 130.897 34.19 130.928 34.308 130.925L34.2867 130.913C34.3929 131.057 34.5392 131.076 34.702 131.05L34.6855 131.031C34.8129 131.347 35.0818 131.319 35.3484 131.307L35.3531 131.296C35.5726 131.706 36.0208 131.711 36.3842 131.843C37.9861 132.433 37.9908 132.421 37.9436 134.082C37.9389 134.212 37.9389 134.339 37.9366 134.469C37.9083 136.613 37.9672 138.76 37.7856 140.9C37.7856 140.9 37.7974 140.881 37.7974 140.884C37.7502 140.936 37.703 140.99 37.6558 141.042L37.6818 141.023C37.4293 141.129 37.25 141.308 37.1486 141.563L37.1698 141.537C37.04 141.577 37.0023 141.677 37.007 141.799L37.0164 141.79C36.8088 141.785 36.6838 141.886 36.6295 142.085L36.639 142.054C36.5894 142.101 36.5399 142.151 36.4903 142.198L36.5068 142.181C36.4573 142.231 36.4101 142.278 36.3606 142.328L36.3889 142.321C36.186 142.382 36.0562 142.523 35.9666 142.705L35.9807 142.693C35.7259 142.726 35.5584 142.873 35.4522 143.099C34.1947 144.128 32.7036 144.645 31.1418 144.866C27.7987 145.34 24.833 144.458 22.4619 142.002C20.6311 140.105 19.6638 137.727 19.0457 135.203C18.496 132.957 18.2081 130.67 17.9911 128.368C17.5876 124.062 17.6041 119.752 17.6325 115.436C17.6372 114.641 17.7174 113.849 17.741 113.054C17.7504 112.704 17.8259 112.709 18.0949 112.891C18.9655 113.473 19.8573 114.028 20.7373 114.594C20.9496 114.731 21.1832 114.837 21.2516 115.127C21.5465 116.373 22.1812 117.451 22.9291 118.475C22.9763 118.544 23.0211 118.61 23.0683 118.678L23.0541 118.657C23.1037 118.706 23.1532 118.754 23.2028 118.803L23.1839 118.787C23.2311 118.836 23.2783 118.888 23.3278 118.938C23.3278 118.938 23.3113 118.919 23.3136 118.919C23.3632 118.966 23.4151 119.013 23.4646 119.06C23.5449 119.14 23.6251 119.218 23.7053 119.299C23.7902 120.221 23.894 121.139 24.5169 121.891L24.4933 121.88C24.4768 122.04 24.4721 122.196 24.6396 122.288L24.6207 122.269C24.6207 122.458 24.6702 122.616 24.8826 122.67L24.8708 122.661C24.8873 122.769 24.8708 122.896 25.0218 122.934L25.0053 122.913C24.9958 123.038 25.0218 123.147 25.161 123.187L25.1468 123.161C25.1185 123.373 25.2129 123.508 25.4134 123.574L25.3969 123.552C25.3828 123.758 25.4748 123.897 25.6706 123.963L25.6564 123.942C25.6376 124.156 25.7296 124.291 25.9419 124.343L25.9089 124.329C25.9561 124.381 26.0032 124.432 26.0504 124.484L26.0386 124.468C26.0528 124.746 26.2392 124.911 26.435 125.067H26.4256Z" fill="#F1B069"/>
<path d="M1.79711 90.2648C2.38457 89.6325 3.13011 89.4603 3.92048 89.682C5.28887 90.0666 6.64547 90.5007 7.99026 90.9608C8.7995 91.2368 9.28788 92.3787 9.10149 93.3909C8.94106 94.2685 8.37719 94.6554 7.32966 94.6767C6.29393 94.6979 5.39032 94.2473 4.44424 93.9359C3.87329 93.7495 3.61613 93.9146 3.70106 94.5304C3.70106 94.7121 3.786 94.7923 3.96766 94.7687L3.94407 94.7545C4.25078 95.2146 4.7887 95.2099 5.23225 95.3349C6.19484 95.6062 7.17159 95.9413 8.1908 95.5614C8.45033 95.3302 8.45033 95.526 8.45977 95.7218C8.58717 98.2085 8.71929 100.693 8.84197 103.18C8.84905 103.312 8.94106 103.489 8.77591 103.576C8.7476 103.59 8.61312 103.418 8.5329 103.326C5.97307 100.414 3.61141 97.3639 1.83014 93.9005C1.63904 93.5253 1.52343 93.1125 1.37244 92.7185C1.31581 91.9257 1.3512 91.1425 1.59657 90.378L1.58241 90.3875C1.69094 90.4087 1.77352 90.3875 1.79475 90.2648H1.79711Z" fill="#F8F6F3"/>
<path d="M6.99584 84.251C5.6534 83.5173 3.79192 83.2129 2.44948 81.9389C1.6426 81.1721 1.68271 80.0326 2.3032 79.1148C2.88595 78.256 3.97358 77.9116 5.10605 78.3009C6.33524 78.7232 7.42524 79.3814 8.30289 80.3676C8.87856 81.0141 9.08382 81.7903 9.05315 82.616C9.0154 83.6447 8.33357 84.2416 6.99584 84.2534V84.251Z" fill="#F8F6F3"/>
<path d="M8.69057 86.5257C9.65316 87.4883 9.75933 88.7458 8.95009 89.6235C8.75899 89.4819 8.74719 89.6211 8.74011 89.7603C8.74011 89.7603 8.70944 89.7863 8.70944 89.7839C7.99457 89.8358 7.33397 89.6329 6.65685 89.4206C5.52675 89.0643 4.43911 88.5618 3.26418 88.3518L3.27362 88.3754C3.11791 88.0357 2.81356 87.9814 2.49033 87.9649L2.50685 87.9791C2.41012 87.7455 2.25676 87.5803 1.98544 87.5662L1.99488 87.5756C1.43809 86.5989 1.32484 85.6009 1.86276 84.577L1.85096 84.5887C1.97837 84.6005 2.0751 84.5581 2.11521 84.4283C2.11521 84.4283 2.09633 84.4425 2.09397 84.4425C2.79704 84.1098 3.50719 84.0343 4.25981 84.3056C4.61606 84.4354 4.96996 84.6312 5.37575 84.584L5.3616 84.5699C5.45361 84.8365 5.66359 84.8601 5.89952 84.8318L5.88536 84.8176C5.96558 85.0936 6.17556 85.122 6.4162 85.0936L6.39969 85.0771C6.56248 85.4051 6.85739 85.4829 7.18769 85.4876L7.17354 85.4688C7.29386 85.766 7.55103 85.8415 7.83414 85.8722L7.82471 85.8581C7.82471 86.1247 8.01581 86.1365 8.20927 86.1412L8.19747 86.1294C8.24702 86.1766 8.29656 86.2237 8.34611 86.2709L8.32723 86.2521C8.37678 86.3016 8.42868 86.3511 8.47823 86.3983L8.46171 86.3724C8.51126 86.4644 8.49003 86.6579 8.69057 86.5281V86.5257Z" fill="#F8F6F3"/>
<path d="M7.42367 76.8452C7.70442 77.3218 7.47793 77.8479 7.56994 78.3434C7.60297 78.5203 7.49209 78.4897 7.38592 78.4142C6.51298 77.7937 5.43006 77.5224 4.62554 76.8028C3.41758 75.7222 2.65553 74.4175 2.99291 72.7283C3.21232 71.6241 4.13952 71.1806 5.19177 71.61C5.9845 71.9332 6.61679 72.4569 6.99427 73.252C6.87631 73.3606 6.92585 73.4313 7.04382 73.488L7.03674 73.4785C7.14291 74.2123 7.09336 74.9649 7.30334 75.6868L7.29626 75.675C7.3057 76.0997 7.31514 76.5244 7.32458 76.949C7.35053 76.9349 7.37884 76.9255 7.40007 76.9066C7.41423 76.8948 7.41423 76.8665 7.42131 76.8476L7.42367 76.8452Z" fill="#F8F6F3"/>
<path d="M36.7636 91.7799C36.6504 89.5574 36.5654 87.2594 36.3932 84.9662C36.3413 84.2773 36.5725 83.9116 37.1576 83.678C37.771 83.435 38.3396 83.4869 38.8162 83.9682C39.5452 84.7043 39.5782 85.6221 39.3919 86.5517C38.9743 88.6396 37.9126 90.4964 37.1954 92.4758C37.0868 92.7778 37.0797 93.1435 36.7896 93.3677C36.7801 93.0562 36.7683 92.7424 36.7612 92.431C36.7565 92.2376 36.7612 92.0441 36.7612 91.7775L36.7636 91.7799Z" fill="#F8F6F3"/>
<path d="M49.1215 43.2608C48.744 44.2163 48.9162 44.6787 49.8104 45.1081C50.8862 45.6248 52.0045 45.5941 53.1252 45.3134C53.4413 45.2332 53.748 45.1223 53.8896 45.4856C54.05 45.9009 53.7079 46.0566 53.3918 46.1557C52.1909 46.5331 50.9853 46.4553 49.7844 46.1509C49.1922 45.9141 48.3501 45.3146 48.2509 45.009C47.9135 44.2328 47.9725 43.4661 48.324 42.7182C49.4697 40.2733 50.0159 38.6768 50.4238 35.4067C50.4592 34.4813 50.3365 33.4316 50.9064 33.4316C52.2429 33.4316 50.7253 39.1221 50.5606 39.6794C50.1949 40.918 49.6075 42.067 49.1309 43.2608H49.1215Z" fill="#1C1C1A"/>
<path d="M51.1879 50.6451C52.1839 51.8087 55.0925 51.8389 57.1663 51.3741C58.4781 51.0816 59.7219 50.47 60.7973 49.7698C62.1356 48.8984 62.7997 47.8621 63.1283 48.2079C64.0257 49.6646 58.6708 52.0655 57.3692 52.2919C55.4299 52.6293 53.5 52.7 51.6078 52.0206L51.622 52.03C49.7608 51.0903 50.5374 50.5307 51.0218 50.5832L51.1879 50.6451Z" fill="#1C1C1A"/>
<path d="M61.2932 37.9847C60.0616 37.1212 59.6983 35.3046 60.4981 34.0046C61.0714 33.0703 62.2723 33.0798 62.8527 34.014C63.2726 34.6888 63.2207 35.4391 63.249 36.1799C63.1704 37.2733 62.6033 38.4077 61.2955 37.9871L61.2932 37.9847Z" fill="#1C1C1A"/>
<path d="M47.0671 36.3804C47.0671 37.0877 46.9916 37.5459 46.6661 38.039C46.1565 38.8082 45.2481 38.8294 44.6795 38.1051C43.9906 37.2251 43.9835 35.4202 44.6677 34.5378C45.2528 33.7829 46.3924 33.9763 46.7982 34.913C47.0011 35.3825 47.0671 35.7554 47.0671 36.3828V36.3804Z" fill="#1C1C1A"/>
<path d="M67.0127 28.4368C66.8924 28.5807 66.8216 28.7341 66.7037 28.7907C66.4748 28.8969 66.2483 28.8332 66.0548 28.6562C65.3754 28.0428 64.585 27.6323 63.7026 27.4011C61.8671 26.9198 60.0976 27.1133 58.4013 27.9555C58.1064 28.1018 57.8303 28.2245 57.6392 27.8588C57.4599 27.5143 57.7572 27.3586 57.9837 27.2053C60.2014 25.7142 64.3892 25.9879 66.3875 27.7597C66.6069 27.9555 66.7909 28.1938 67.0151 28.4368H67.0127Z" fill="#1C1C1A"/>
<path d="M47.8523 27.9366C47.7297 28.2669 47.5645 28.5382 47.1587 28.2881C45.2453 27.1226 43.4475 27.2029 41.7795 28.7647C41.5625 28.9676 41.3053 29.0337 41.1 28.7977C40.9066 28.5736 40.9844 28.2976 41.1708 28.097C41.855 27.3539 42.6831 26.8088 43.6882 26.6673C45.007 26.4809 46.2881 26.6437 47.4418 27.394C47.6494 27.5284 47.8217 27.6676 47.8523 27.9366Z" fill="#1C1C1A"/>
<path d="M84.308 33.7711C84.5817 33.6697 84.9049 33.6838 85.0417 33.9717C85.1975 34.2996 85.0111 34.5403 84.6737 34.6488C83.5177 34.9181 83.1163 35.7958 82.5739 36.5551L82.5857 36.5362C82.371 36.8854 82.154 37.2369 81.9393 37.5861C81.9393 37.5861 81.9581 37.572 81.9581 37.5743C81.6656 37.6946 81.4981 37.5059 81.3282 37.3219C80.8303 36.3797 83.6668 34.0148 84.308 33.7711Z" fill="#1C1C1A"/>
<path fill-rule="evenodd" clip-rule="evenodd" d="M27.9843 73.5946C28.2634 73.5946 28.5428 73.594 28.8222 73.5935C29.3814 73.5925 29.9409 73.5914 30.4993 73.5946C31.2991 73.6016 31.5398 73.873 31.5846 74.6869C31.811 78.8008 32.0435 82.9146 32.276 87.0284L32.4505 90.1167C32.4882 90.7726 32.3042 91.2138 31.5445 91.3294C30.8003 91.4438 30.0539 91.4658 29.3083 91.4877C28.9619 91.4979 28.6156 91.5081 28.2698 91.5276C26.1518 91.6478 24.0328 91.7358 21.9135 91.8238C20.7891 91.8705 19.6646 91.9172 18.54 91.9688C17.9463 91.9961 17.3529 92.031 16.7596 92.066C15.9172 92.1156 15.075 92.1652 14.232 92.1929C13.234 92.2259 12.9815 91.9216 12.9273 90.9283C12.7982 88.6312 12.6623 86.3348 12.5265 84.0387C12.4215 82.2645 12.3166 80.4906 12.2148 78.7166C12.1712 77.9676 12.142 77.2186 12.1127 76.4696C12.0992 76.1239 12.0857 75.7782 12.0708 75.4325C12.0425 74.7577 12.3327 74.392 13.0382 74.3613C15.723 74.2457 18.4079 74.1207 21.0904 73.9933C22.6476 73.9197 24.2047 73.844 25.761 73.7684C26.5015 73.7324 27.2419 73.6964 27.9819 73.6606V73.5898L27.9843 73.5946ZM23.8626 90.8741L23.4026 90.8882H23.4049C23.2865 90.8904 23.1663 90.8859 23.046 90.8814C22.7735 90.8713 22.501 90.8612 22.2489 90.9283L20.9739 91.0242C20.6424 91.0191 20.3308 91.0535 20.0153 91.0882C19.6931 91.1237 19.367 91.1596 19.0118 91.1544C18.7253 91.1503 18.4356 91.1461 18.1767 91.1808L17.9066 91.1959C17.7493 91.1808 16.6615 91.2315 15.982 91.2632C15.7176 91.2755 15.515 91.285 15.453 91.2865C15.3517 91.2891 15.2505 91.2916 15.1497 91.2916V91.2893C14.4728 91.3035 14.136 91.3105 13.9604 91.1458C13.7866 90.9827 13.7709 90.6512 13.7395 89.9914L13.7389 89.9775C13.7206 89.6188 13.6914 89.26 13.6622 88.9013C13.6463 88.7056 13.6303 88.5099 13.6162 88.3142L13.5187 86.8992L13.4911 86.4999L13.4676 84.9475C13.4014 83.3297 13.3044 81.7139 13.2073 80.0963L13.1868 79.7547L12.9839 77.0698C12.9826 76.9004 12.9667 76.717 12.9506 76.5325C12.9083 76.0464 12.8654 75.5523 13.0877 75.2838C13.2436 75.0965 13.6266 75.118 14.0338 75.141C14.2985 75.1559 14.5734 75.1714 14.8029 75.1305L16.9994 75.0408C17.7709 75.0219 18.5424 74.97 19.3115 74.9134L19.3604 74.9111L21.9432 74.7864L22.197 74.7742L24.431 74.6721L24.778 74.6562C24.9963 74.6823 25.2192 74.6758 25.4418 74.6692C25.5416 74.6663 25.6413 74.6633 25.7406 74.6633L25.7453 74.668L25.8302 74.6671L28.0339 74.6421C28.5605 74.4294 29.1717 74.4232 29.7818 74.4171C30.0245 74.4146 30.267 74.4122 30.504 74.3967C30.7092 74.384 30.7153 74.525 30.7211 74.6614C30.7218 74.6771 30.7225 74.6928 30.7235 74.7081C30.7435 74.9972 30.763 75.2868 30.7824 75.5764L30.7826 75.5793L30.7828 75.5821C30.8022 75.8698 30.8215 76.1575 30.8414 76.4446L30.9554 79.0256L30.9641 79.2215C30.9547 79.9411 30.9735 80.6677 31.075 81.3779L31.0892 81.6543L31.16 83.0265L31.2098 83.9904C31.2095 84.0355 31.2114 84.0794 31.2165 84.1217C31.2611 84.4782 31.2777 84.8378 31.2944 85.1977C31.3095 85.5238 31.3246 85.8502 31.3605 86.1743L31.3652 86.2507L31.365 86.2614L31.4879 88.2482C31.5071 88.4948 31.5172 88.7423 31.5273 88.9898C31.5408 89.3199 31.5543 89.6498 31.5893 89.9775C31.6365 90.4211 31.5067 90.6027 31.0443 90.5461C30.8385 90.5216 30.6304 90.5276 30.4224 90.5337C30.33 90.5364 30.2376 90.539 30.1454 90.539L27.5761 90.7136C27.3156 90.7733 27.0589 90.7667 26.8237 90.7606C26.6499 90.7561 26.4879 90.7519 26.3446 90.775L24.076 90.8655L23.8626 90.8741Z" fill="#1C1C1A"/>
<path d="M23.4026 90.8882L23.8626 90.8741L24.076 90.8655L26.3446 90.775C26.4879 90.7519 26.6499 90.7561 26.8237 90.7606C27.0589 90.7667 27.3156 90.7733 27.5761 90.7136L30.1454 90.539C30.2376 90.539 30.33 90.5364 30.4224 90.5337C30.6304 90.5276 30.8385 90.5216 31.0443 90.5461C31.5067 90.6027 31.6365 90.4211 31.5893 89.9775C31.5543 89.6498 31.5408 89.3199 31.5273 88.9898C31.5172 88.7423 31.5071 88.4948 31.4879 88.2482L31.365 86.2614L31.3652 86.2507L31.3605 86.1743C31.3246 85.8502 31.3095 85.5238 31.2944 85.1977C31.2777 84.8378 31.2611 84.4782 31.2165 84.1217C31.2114 84.0794 31.2095 84.0355 31.2098 83.9904L31.16 83.0265L31.0892 81.6543L31.075 81.3779C30.9735 80.6677 30.9547 79.9411 30.9641 79.2215L30.9554 79.0256L30.8414 76.4446C30.8215 76.1575 30.8022 75.8698 30.7828 75.5821L30.7826 75.5793L30.7824 75.5764C30.763 75.2868 30.7435 74.9972 30.7235 74.7081C30.7225 74.6928 30.7218 74.6771 30.7211 74.6614C30.7153 74.525 30.7092 74.384 30.504 74.3967C30.267 74.4122 30.0245 74.4146 29.7818 74.4171C29.1717 74.4232 28.5605 74.4294 28.0339 74.6421L25.8302 74.6671L25.7453 74.668L25.7406 74.6633C25.6413 74.6633 25.5416 74.6663 25.4418 74.6692C25.2192 74.6758 24.9963 74.6823 24.778 74.6562L24.431 74.6721L22.197 74.7742L21.9432 74.7864L19.3604 74.9111L19.3115 74.9134C18.5424 74.97 17.7709 75.0219 16.9994 75.0408L14.8029 75.1305C14.5734 75.1714 14.2985 75.1559 14.0338 75.141C13.6266 75.118 13.2436 75.0965 13.0877 75.2838C12.8654 75.5523 12.9083 76.0464 12.9506 76.5325C12.9667 76.717 12.9826 76.9004 12.9839 77.0698L13.1868 79.7547L13.2073 80.0963C13.3044 81.7139 13.4014 83.3297 13.4676 84.9475L13.4911 86.4999L13.5187 86.8992L13.6162 88.3142C13.6303 88.5099 13.6463 88.7056 13.6622 88.9013C13.6914 89.26 13.7206 89.6188 13.7389 89.9775L13.7395 89.9914C13.7709 90.6512 13.7866 90.9827 13.9604 91.1458C14.136 91.3105 14.4728 91.3035 15.1497 91.2893V91.2916C15.2505 91.2916 15.3517 91.2891 15.453 91.2865C15.515 91.285 15.7176 91.2755 15.982 91.2632C16.6615 91.2315 17.7493 91.1808 17.9066 91.1959L18.1767 91.1808C18.4356 91.1461 18.7253 91.1503 19.0118 91.1544C19.367 91.1596 19.6931 91.1237 20.0153 91.0882C20.3308 91.0535 20.6424 91.0191 20.9739 91.0242L22.2489 90.9283C22.501 90.8612 22.7735 90.8713 23.046 90.8814C23.1663 90.8859 23.2865 90.8904 23.4049 90.8882H23.4026Z" fill="#2F9E72"/>
<path d="M17.7739 68.0594C18.1891 68.0594 18.3826 68.0642 18.5761 68.0594C18.8686 68.0524 19.1541 68.0453 19.1824 68.4464C19.2084 68.8286 18.9323 68.897 18.6516 68.9607C18.4156 69.015 17.991 68.8498 17.9721 69.0621C17.9485 69.324 18.3401 69.475 18.5926 69.6354C21.0109 71.1619 23.5117 70.7962 24.9462 68.7082C25.3732 68.0877 25.5383 67.3918 25.6256 66.6627C25.661 66.3584 25.7271 66.0163 26.1164 66.0328C26.5009 66.0493 26.541 66.3749 26.5552 66.6981C26.6567 68.8663 24.8494 70.9826 22.5586 71.438C20.9448 71.7588 19.5103 71.3648 18.1679 70.5013C17.8282 70.2819 17.5899 70.1333 17.5922 70.7467C17.5922 71.0888 17.4082 71.3955 17.0236 71.4144C16.6249 71.4332 16.5636 71.0463 16.5022 70.7821C16.3678 70.2229 16.3088 69.6425 16.2144 69.0739C16.1177 68.4794 16.4055 68.175 16.9647 68.1066C17.3044 68.0642 17.6512 68.0689 17.7739 68.0642V68.0594Z" fill="#1C1C1A"/>
<path d="M24.5261 64.5795C24.1604 64.5795 23.7947 64.5818 23.4314 64.5795C23.1388 64.5771 23.002 64.3695 22.9689 64.1312C22.9265 63.8363 23.1577 63.7301 23.403 63.6806C23.7003 63.6216 24.2524 63.6735 24.2406 63.4848C24.2194 63.1568 23.7758 62.9751 23.4667 62.7935C20.6592 61.1467 17.6346 62.4821 16.9928 65.66C16.915 66.0493 16.7239 66.2027 16.3841 66.1295C15.9878 66.0446 15.9406 65.6907 15.9831 65.3651C16.2379 63.4093 18.0616 61.5596 20.0175 61.2151C21.7987 60.9037 23.3511 61.3449 24.7007 62.5363C24.8045 62.6283 24.9036 62.8171 25.064 62.7038C25.1301 62.6567 25.1135 62.4726 25.1135 62.3499C25.1135 62.0715 25.1041 61.7931 25.0852 61.5147C25.0664 61.2246 25.2386 61.0547 25.4722 60.9981C25.7505 60.9296 25.9322 61.1491 25.9888 61.3779C26.2106 62.2792 26.1799 63.2087 26.2271 64.1265C26.2436 64.4474 25.9275 64.5677 25.6255 64.5771C25.2598 64.5865 24.8941 64.5795 24.5308 64.5795H24.5261Z" fill="#1C1C1A"/>
<path fill-rule="evenodd" clip-rule="evenodd" d="M30.8447 100.141C30.9846 100.719 30.8017 100.923 30.307 100.7C30.1453 100.627 30.0487 100.639 29.906 100.707C29.3303 100.979 28.851 100.827 28.5116 100.311C28.3379 99.7898 28.387 99.5802 28.4976 99.1035C28.6598 98.6618 29.0577 98.3387 29.4912 98.4373C30.1332 98.5842 30.1114 98.2778 30.0521 97.8565C30.017 97.6046 30.152 97.4961 30.3662 97.464C30.6603 97.4188 30.6691 97.6498 30.6841 97.836C30.7451 98.6254 30.7967 99.4174 30.8447 100.141ZM29.5025 98.9491C29.984 98.9573 30.0994 99.3517 30.0979 99.8071L30.0956 99.8095C30.1478 100.229 29.8774 100.422 29.495 100.41C29.0936 100.396 28.9117 100.116 28.9141 99.7098C28.9163 99.2968 29.054 98.9405 29.5025 98.9491Z" fill="#1C1C1A"/>
<path fill-rule="evenodd" clip-rule="evenodd" d="M27.0364 100.96C27.3536 100.987 27.7537 100.91 27.9895 100.5C28.2254 100.09 27.5681 100.146 27.553 100.366C27.538 100.586 27.258 100.546 27.0292 100.553C26.784 100.559 26.5776 100.351 26.5843 100.193C26.5919 100.012 26.6986 100.075 26.91 100.081C26.9637 100.082 27.023 100.084 27.0876 100.083C27.1594 100.081 27.239 100.088 27.3205 100.095C27.6009 100.119 27.9207 100.085 28.0094 99.7955C28.0841 99.5517 28.0464 99.3974 27.9654 99.1128C27.8843 98.8283 27.2678 98.5203 26.7358 98.7278C26.0468 98.9971 26.0231 99.5526 26.0927 100.163C26.1541 100.707 26.5685 100.921 27.0364 100.96ZM27.015 99.7358C26.8226 99.7518 26.7401 99.7695 26.6095 99.6162C26.4984 99.4858 26.5355 99.3194 26.6689 99.2119C26.7869 99.1168 26.9608 99.0777 27.1318 99.0798C27.3028 99.0819 27.5368 99.0953 27.593 99.3597C27.6606 99.6776 27.5865 99.7354 27.2989 99.7329C27.2593 99.7325 27.2193 99.7322 27.1796 99.7329C27.1243 99.7339 27.069 99.7313 27.015 99.7358Z" fill="#1C1C1A"/>
<path d="M16.9046 101.42C16.301 101.476 16.2083 101.237 16.1973 100.607C16.187 100.019 16.179 99.6579 16.1238 99.0642C16.0947 98.7509 16.1575 98.3136 16.4018 98.3004C16.7225 98.283 17.0422 98.216 17.3586 98.227C17.7647 98.2412 18.1691 98.3372 18.2465 98.8062C18.3001 99.1314 18.1885 99.4445 18.0011 99.625C18.4425 99.759 18.4672 100.237 18.4566 100.568C18.4294 101.443 17.6499 101.398 16.9023 101.421L16.9046 101.42ZM16.6158 99.2027C16.6651 99.4578 16.6218 99.5471 16.8719 99.5428C17.2153 99.5368 17.6988 99.5909 17.6643 99.116C17.6407 98.7908 17.3589 98.7093 17.1303 98.7275C16.8501 98.7583 16.5537 98.6888 16.6158 99.2004L16.6158 99.2027ZM17.2 100.903C17.5303 100.898 18.0664 100.891 18.0145 100.391C17.9506 99.7765 17.3888 99.9591 17.0065 100.01C16.7751 100.041 16.63 100.017 16.6828 100.471C16.7311 100.808 16.8583 100.912 17.1977 100.906L17.2 100.903Z" fill="#1C1C1A"/>
<path d="M23.9984 99.3359C23.9924 98.9915 23.9864 98.6471 23.9804 98.305C23.9771 98.114 24.0143 97.9481 24.2432 97.9465C24.4743 97.9425 24.5128 98.1164 24.5113 98.3028C24.5291 99.3243 24.4558 99.7086 25.2348 98.7905C25.3435 98.6635 25.5049 98.5825 25.6244 98.67C25.7989 98.7991 25.6797 98.9974 25.5775 99.0936C24.9793 99.6568 24.853 99.5994 25.5586 100.246C25.7178 100.392 26.0218 100.677 25.8317 100.854C25.509 101.155 25.3526 100.811 25.1364 100.59C24.9923 100.444 24.8528 100.296 24.7111 100.149C24.4413 99.7408 24.5621 100.539 24.5989 100.755C24.6252 100.906 24.5867 101.001 24.4147 101.016C24.2027 101.036 24.0662 100.978 24.0625 100.765C24.0142 100.296 24.0475 99.9052 24.0031 99.3335L23.9984 99.3359Z" fill="#1C1C1A"/>
<path d="M21.0777 100.097C21.085 100.786 20.5405 101.362 19.8984 101.342C19.3011 101.324 18.8252 100.83 18.8097 100.214C18.7922 99.4808 19.2642 98.9417 19.9434 98.9204C20.6344 98.8989 21.0718 99.3514 21.0777 100.097ZM20.5448 100.12C20.5479 99.757 20.4177 99.4596 20.0259 99.457C19.6176 99.4546 19.3528 99.6952 19.3724 100.139C19.3904 100.492 19.534 100.747 19.9448 100.756C20.3909 100.767 20.5399 100.515 20.5425 100.12L20.5448 100.12Z" fill="#1C1C1A"/>
<path d="M23.6376 99.975C23.6438 100.603 23.1226 101.161 22.5373 101.155C21.86 101.148 21.3424 100.695 21.32 100.089C21.2966 99.4212 21.8435 98.8501 22.5111 98.8431C23.1481 98.8367 23.6309 99.3215 23.6376 99.975ZM23.1309 100.01C23.1492 99.5729 22.9074 99.3766 22.5017 99.3836C22.0511 99.3915 21.9316 99.7051 21.9311 100.083C21.9307 100.47 22.1328 100.693 22.5289 100.669C22.9249 100.646 23.1764 100.455 23.1309 100.01Z" fill="#1C1C1A"/>
<path d="M23.6336 102.021C23.6478 102.05 23.6667 102.078 23.6737 102.109C23.6737 102.121 23.6478 102.137 23.6336 102.151C23.6195 102.123 23.6006 102.095 23.5935 102.064C23.5912 102.052 23.6195 102.036 23.6336 102.021Z" fill="#F1B069"/>
<path d="M26.624 79.4209C26.5476 79.5832 26.4664 79.7838 26.3566 79.9652C25.1582 81.875 23.9693 83.7897 22.7375 85.6756C22.1836 86.5207 21.4817 86.5112 20.7799 85.8236C19.9443 85.0024 19.1135 84.1716 18.2827 83.3456C17.896 82.9637 17.7527 82.4719 18.0917 82.066C18.4451 81.6411 18.9607 81.7796 19.3857 82.066C19.5623 82.1854 19.7103 82.3525 19.8631 82.5053C21.0441 83.6735 22.0833 83.5302 22.981 82.0756C23.6399 81.0108 24.3083 79.9509 25.0102 78.9148C25.225 78.5949 25.5449 78.3275 26.0081 78.5662C26.3471 78.7429 26.5046 79.0341 26.624 79.4257V79.4209Z" fill="#1C1C1A"/>
</g>
<defs>
<clipPath id="clip0_423_5625">
<rect width="116.667" height="175" fill="white" transform="translate(-0.000366211)"/>
</clipPath>
</defs>
</svg>
