<svg width="1440" height="422" viewBox="0 0 1440 422" fill="none" xmlns="http://www.w3.org/2000/svg">
<g clip-path="url(#clip0_388_3363)">
<path d="M0.0742188 496.515V347.002C4.7841 344.838 9.56758 345.689 14.3327 346.763C15.6665 347.06 16.9452 347.564 18.1778 348.118C21.1215 349.439 22.6669 348.696 23.3661 345.78C25.583 336.502 28.3243 327.315 29.9893 317.938C31.2496 310.866 33.4482 303.975 34.9384 296.953C35.3615 294.97 36.4286 293.557 38.8296 293.599C41.4605 293.648 41.2121 295.672 41.5801 297.234C44.7261 310.552 46.0692 324.167 49.85 337.369C51.8001 344.16 53.6767 350.968 55.6177 357.759C55.7649 358.28 55.9305 359.188 56.3812 359.147C57.2184 359.081 57.2092 358.156 57.3563 357.536C60.116 345.697 63.3633 333.949 65.2491 321.953C65.6446 319.416 65.5434 315.434 68.3859 315.269C71.9735 315.062 72.4427 319.111 73.2522 321.804C74.77 326.86 75.368 332.082 76.4718 337.212C78.7256 347.746 82.2028 358.032 84.5486 368.557C85.7076 373.77 88.5961 377.901 93.8119 380.793C97.0408 382.586 100.086 384.841 100.352 388.749C98.8346 393.243 93.9223 395.119 90.9143 398.481C89.4056 400.166 87.4554 401.546 86.1952 403.446C84.337 406.247 84.8521 407.866 88.1454 409.312C90.997 410.568 94.0787 410.237 97.1052 410.32C99.8281 410.403 102.579 409.998 105.265 410.775C105.688 410.965 106.028 411.229 106.295 411.568C107.316 414.154 105.623 416.128 104.216 418.028C98.0343 426.43 91.3006 434.411 82.488 440.814C79.3971 443.061 75.8187 445.589 77.4561 449.72C79.2131 454.165 83.8862 454.719 88.4857 454.942C92.2021 455.123 95.7805 454.182 99.4509 453.983C103.747 453.744 104.501 454.57 102.836 458.213C100.417 463.517 96.2589 467.805 92.0641 471.994C88.4857 475.563 84.6957 478.992 80.1514 481.652C77.033 483.478 75.1104 486.452 72.2587 488.526C71.4032 489.054 70.4741 489.5 69.8854 490.327C69.6646 490.665 69.4438 490.988 69.2322 491.335C66.9969 494.135 64.412 492.747 61.8546 491.863C56.2157 476.703 53.8883 460.931 50.963 445.259C50.8618 444.722 50.7423 444.168 50.5307 443.656C50.2455 442.97 50.5859 441.69 49.39 441.797C48.4149 441.888 48.4793 443.094 48.3505 443.871C46.2072 456.677 42.6839 469.234 39.9518 481.933C38.894 486.832 38.296 492.053 33.8989 495.87C25.5554 498.183 16.9728 497.696 8.4545 497.795C5.62121 497.828 2.59474 498.39 0.0926167 496.506L0.0742188 496.515Z" fill="#B5844D"/>
<path d="M1123.98 341.192C1146.59 341.184 1153.6 345 1150.6 365.5C1148.18 372.696 1147.33 380.181 1145.74 387.526C1135.71 433.657 1164.62 425 1092.02 422.356C1091.48 425.727 1020.51 441.939 1044.31 422.356C1001.26 419.602 1066.2 410.159 976.948 397.231C969.249 396.116 961.549 395 953.849 393.885C951.871 393.599 950.576 393.442 948.33 393.075C950.986 389.723 972.325 383.559 977.804 382.368C991.004 379.493 1003.06 374.379 1015.3 369.472C1028.1 364.341 1040.72 358.484 1054.29 355.435C1074.76 350.833 1094.46 343.29 1115.83 342.001C1118.55 341.836 1121.26 341.464 1123.98 341.184V341.192Z" fill="#EDC89E"/>
<path d="M1130.43 415.058C1127.1 395.296 1138.58 365.77 1135.25 346.008C1135.58 341.572 1138.5 340.936 1142.85 341.175C1149.26 341.522 1155.77 341.638 1162.14 341.092C1177.96 339.73 1200.21 337.874 1213.58 329.262C1421.52 356.679 1214.33 329.262 1214.71 329.262C1214.56 330.038 1214.71 331.03 1214.23 331.558C1209.98 336.169 1440.03 364.5 1440.03 369.816C1440.03 381 1440.03 413 1440.03 422C1435.49 422 1276.27 422 1276.27 422C1276.27 422 1171.63 422 1130.43 422V415.058Z" fill="#EDC89E"/>
<path d="M122.496 292.488C122.285 294.471 124.833 296.826 121.512 298.395C121.815 296.421 120.601 294.248 122.496 292.488Z" fill="#FDC686"/>
<path d="M105.503 411.103C105.835 411.07 106.166 411.037 106.497 411.004C106.35 411.21 106.212 411.417 106.064 411.624C105.871 411.458 105.678 411.285 105.494 411.103H105.503Z" fill="#B5844D"/>
<path d="M145.186 410.781C145.039 410.591 144.901 410.393 144.754 410.203C145.076 410.236 145.398 410.261 145.72 410.294C145.545 410.459 145.37 410.624 145.186 410.781Z" fill="#B5844D"/>
<path d="M93.628 382.097C96.5808 383.535 76.1017 417.84 76.1017 421.5H180.323L184.353 396.702C186.827 398.726 188.676 397.462 189.964 394.951C193.892 387.259 195.943 379.055 198.123 370.909C200.561 361.813 202.235 352.56 204.406 343.414C204.609 342.547 204.627 341.175 205.989 341.274C206.78 341.332 206.945 342.58 207.148 343.381L207.309 344.009C209.942 354.243 212.574 364.477 214.792 374.776C217.377 386.796 220.109 398.768 223.678 410.582C224.377 412.887 225.481 415.332 228.646 415.299C231.985 415.266 233.282 412.813 233.806 410.285C235.37 402.708 238.194 395.372 239.031 387.664C239.225 385.896 239.712 384.144 240.209 382.409C240.43 381.633 240.365 380.328 241.211 380.286C242.205 380.237 242.021 381.517 242.233 382.253C242.463 383.054 242.509 383.888 242.683 384.698C243.539 388.755 243.861 392.91 245.507 396.801C247.016 400.37 248.828 401.147 252.563 399.652C256.206 398.198 259.931 396.95 263.547 395.43C277.906 389.382 300.72 391.258 311.74 402.618C316.432 407.459 320.314 412.738 323.221 418.48C324.451 422 327.071 422 327.071 422H330.459C330.459 422 344.478 422 348.484 422C349.68 417.737 350.247 415.209 351.701 411.003C351.995 410.128 352.161 408.814 353.402 408.839C354.755 408.872 354.58 410.26 354.837 411.127C356.171 415.646 356.433 417.53 357.997 422C363.004 422 368.011 422 368.011 422C571.624 422 940.807 421.5 1043.45 421.5C1054.21 407.431 1028.93 392.5 1008.43 388.251C1004.39 387.413 794.255 387.846 790.125 388.251C787.015 388.556 783.704 388.664 780.705 388.027C769.123 385.59 757.073 384.822 745.942 380.823C732.116 375.858 717.213 372.958 704.712 365.448C696.065 360.252 686.204 356.881 678.789 349.577C673.868 344.72 666.039 342.299 659.729 338.507C648.488 331.749 636.575 326.188 623.503 323.115C605.243 318.827 586.808 316.134 567.73 318.827C549.185 321.446 530.557 323.66 512.306 327.692C502.454 329.873 492.556 330.964 482.483 329.898C467.626 328.328 453.552 323.644 438.971 320.86C416.434 316.564 394.126 318.191 371.773 321.041C355.288 323.14 339.88 322.438 325.732 313.011C311.989 303.857 297.427 295.711 283.352 286.97C263.859 274.858 242.049 269.48 218.656 269.488C205.685 269.488 192.963 272.297 180.323 274.792C165.301 277.758 150.491 281.666 135.037 282.567C130.677 282.5 123.157 280.866 120.149 279.908C114.602 278.14 108.944 276.645 103.443 274.794C93.0116 271.283 82.8744 267.069 72.4335 263.583C49.0589 255.767 24.5343 252.322 0.0742188 248.695V346.993C7.17584 346.58 14.1395 346.787 20.4408 350.339C22.9797 351.777 23.5224 350.24 23.9824 348.373C25.767 341.152 27.754 333.973 29.4558 326.736C31.8383 316.615 34.0921 306.47 36.2447 296.308C36.5482 294.837 37.3106 294.033 38.4144 293.736C39.224 293.513 40.0622 294.424 40.2186 295.316C41.7181 303.652 43.3371 311.98 44.7537 320.333C47.0903 334.08 51.423 347.406 55.3694 360.807C55.5901 361.559 56.0434 362.362 56.6204 362.922C57.204 362.4 57.7243 361.608 57.8899 360.881C60.8704 347.778 63.8692 334.683 66.6197 321.547C67.0613 319.44 67.5525 315.923 68.7355 315.648C70.174 315.096 71.4676 319.193 71.8724 321.44C74.678 336.988 79.112 352.223 82.9295 367.581C84.4474 373.695 87.0231 378.892 93.628 382.097Z" fill="#EDC89E"/>
<path d="M900.223 397.943C784.412 393.074 760.094 385.391 760.094 385.391C760.094 385.391 738.182 378.583 727.088 375.783C706.451 370.569 690.567 357.597 672.749 347.387C663.716 342.199 654.719 336.994 645.318 332.359C633.221 326.394 620.122 323.321 606.645 320.983C589.489 318 572.425 318.529 555.517 321.577C539.042 324.543 522.364 326.402 505.999 330.145C493.047 333.103 479.598 331.83 466.554 328.311C445.497 322.635 424.091 318.496 401.922 319.388C389.383 319.892 376.937 321.61 364.491 322.998C350.03 324.609 337.354 321.536 325.386 314.266C308.138 303.79 291.433 292.571 273.467 283.045C262.474 277.22 250.451 274.345 238.06 272.148C215.78 268.207 194.475 273.312 173.17 277.609C161.957 279.872 150.752 282.029 139.401 283.598C130.677 284.805 121.164 281.447 117.682 280.451C105.153 276.865 93.0194 272.321 80.8124 267.967C67.8694 263.357 54.7332 259.4 41.1279 256.665C29.482 254.319 17.6521 252.914 5.98778 250.692C3.89961 250.295 1.71945 250.155 0.0820312 248.701V214.01C31.9381 210.342 64.5578 212.696 95.8067 204.088C109.89 200.205 123.349 195.132 136.503 189.208C152.353 182.078 168.552 175.601 185.203 170.057C218.163 159.078 249.476 162.944 280.145 177.361C303.207 188.2 325.073 200.874 347.988 211.903C366.358 220.743 385.897 225.791 406.926 224.659C416.502 224.147 425.913 222.214 435.452 221.189C454.641 219.14 472.883 221.842 490.48 228.526C507.324 234.928 522.171 244.537 537.791 252.898C551.626 260.308 565.848 266.695 581.854 269.628C595.036 272.048 607.252 269.314 619.45 265.456C630.71 261.895 642.199 259.276 654.167 258.541C673.559 257.343 690.899 263.613 707.687 270.991C742.165 286.135 776.265 301.972 810.716 317.182C837.089 328.823 864.944 332.789 894.38 330.682C926.154 328.402 953.889 317.133 980.612 302.832C1000.18 292.356 1018.87 280.484 1039.95 272.437C1061.87 264.068 1084.42 261.159 1108.4 263.927C1134.09 266.893 1157.34 276.328 1181.58 283.185C1189.71 285.49 1431.41 338.657 1440 339.5C1440 348 1440 364 1440 369.5C1406.71 397.205 1153.88 343.058 1143.51 342.521C1141.03 342.392 1129.57 341.014 1123.84 341.835C1119.05 342.521 1114.16 343.058 1109.32 343.661C1094.55 345.52 1080.72 350.692 1066.25 353.625C1044.29 358.069 1024.39 367.356 1003.99 375.419C998.237 377.691 992.515 379.938 986.435 381.425C976.537 383.846 966.97 386.977 958.461 392.298C956.403 393.583 950.673 393.343 948.314 393.074C930.351 391.03 919.023 398.733 900.223 397.943Z" fill="#F3D9BB"/>
<path d="M186.728 494.82C189.524 487.326 187.096 486.319 178.265 480.643C166.932 473.364 157.392 464.805 149.334 454.75C148.672 453.924 147.476 452.825 148.414 451.809C149.601 450.529 150.475 452.198 151.431 452.561C159.554 455.709 167.585 458.766 176.784 456.122C181.402 454.792 185.339 452.85 186.489 448.447C187.583 444.266 183.775 442.325 180.564 440.532C167.27 433.083 61.3907 447.033 53.0742 434C53.7983 433.339 94.8326 398.828 87.1215 380.998C102.142 375 176.508 388.401 184.962 395.902C187.031 397.736 187.74 396.77 188.816 394.448C196.598 377.578 198.907 359.518 203.433 341.945C203.783 340.59 204.329 338.359 205.632 338.359C207.156 338.357 207.83 340.474 208.217 342.077C211.832 357.237 215.852 372.323 219.044 387.55C220.644 395.2 223.211 402.603 224.94 410.195C225.382 412.137 226.644 414.674 228.905 414.466C231.508 414.227 232.235 411.922 232.695 409.832C234.848 400.165 236.964 390.491 239.171 380.841C239.53 379.28 239.668 376.636 241.232 376.661C242.503 376.681 243.026 379.445 243.412 380.998C244.608 385.806 245.417 390.681 246.402 395.53C247.156 399.265 248.913 400.132 253.071 398.315C262.38 394.25 271.791 390.507 282.655 390.714C300.317 391.044 312.809 398.381 321.088 412.07C321.889 413.401 322.836 414.706 323.314 416.135C326.442 425.463 335.475 425.611 343.791 426.884C346.505 427.297 346.211 425.083 346.588 423.893C348.152 419.027 349.366 414.062 350.884 409.179C351.298 407.84 351.325 405.701 353.533 405.8C355.943 405.907 355.722 408.196 356.063 409.633C357.369 415.259 358.611 420.886 360.506 426.396C361.067 428.032 361.343 428.42 363.468 428.131C383.825 425.322 400.549 431.072 412.627 446.191C417.365 452.123 421.845 447.29 425.736 446.315C440.013 442.73 457.27 446.563 466.276 458.534C469.026 462.186 471.096 462.112 474.573 459.724C483.607 453.528 494.02 453.825 503.9 456.684C509.603 458.336 514.396 462.591 518.186 467.176C519.262 468.473 519.961 468.911 522.325 468.655C532.684 467.515 542.03 470.175 549.453 477.016C551.919 479.288 554.568 480.197 558.018 480.031C562.148 479.833 566.315 480.23 570.418 479.899C579.893 479.131 588.393 481.618 596.432 485.748C598.006 486.558 599.238 486.244 600.756 485.897C613.533 482.989 624.581 485.682 633.744 494.283C634.654 495.134 635.639 495.638 636.936 495.696C636.522 495.985 636.099 496.274 635.685 496.563C634.525 497.744 633.09 498.546 631.324 498.546C618.372 498.595 605.411 499.413 592.495 498.05C588.558 497.348 584.584 497.769 580.619 497.769C579.745 497.901 578.89 497.893 578.025 497.753C561.559 497.654 545.093 497.678 528.636 497.753C527.201 497.968 525.766 497.934 524.322 497.802C519.557 497.587 514.782 497.703 510.017 497.744C508.619 497.918 507.23 497.893 505.832 497.769C501.913 497.637 498.003 497.654 494.085 497.769C493.505 497.827 492.935 497.819 492.364 497.744C472.743 497.645 453.131 497.736 433.528 497.703C432.7 497.703 431.853 497.728 431.025 497.769C429.701 497.67 428.358 497.645 427.024 497.72C426.233 497.794 425.451 497.786 424.66 497.711C422.286 497.662 419.922 497.612 417.54 497.778C416.427 497.91 415.341 497.703 414.237 497.711C407.034 497.786 399.841 497.505 392.647 497.885C384.708 498.009 376.77 498.1 368.84 497.901C350.065 497.439 331.336 498.802 312.57 498.761C309.516 498.761 306.462 498.802 303.472 498.141C295.984 497.199 288.45 497.877 280.935 497.761C280.061 497.91 279.178 497.91 278.304 497.761C260.347 497.645 242.382 497.662 224.444 497.769C213.359 498.761 202.256 499.859 191.263 497.117C190.775 496.984 190.297 496.811 189.828 496.629C188.724 496.142 187.482 495.828 186.755 494.812L186.728 494.82Z" fill="#B5844D"/>
</g>
<defs>
<clipPath id="clip0_388_3363">
<rect width="1440" height="422" fill="white"/>
</clipPath>
</defs>
</svg>
