<svg width="52" height="52" viewBox="0 0 52 52" fill="none" xmlns="http://www.w3.org/2000/svg">
<ellipse cx="25.8977" cy="25.9999" rx="25.2317" ry="25.5251" fill="#F8F6F3"/>
<path d="M24.7434 38.7502V35.4866C23.6184 35.4659 22.5423 35.3623 21.5151 35.1758C20.4977 34.9893 19.6662 34.7459 19.0205 34.4454V31.9278C19.6955 32.2593 20.5613 32.5494 21.6178 32.7981C22.6743 33.0467 23.7162 33.1814 24.7434 33.2021V26.3641C23.4521 25.9808 22.3809 25.5456 21.5298 25.0587C20.6885 24.5614 20.0575 23.9553 19.6368 23.2404C19.2162 22.5255 19.0059 21.6604 19.0059 20.645C19.0059 19.5883 19.2406 18.6869 19.7102 17.9409C20.1896 17.1846 20.8597 16.594 21.7205 16.1693C22.5814 15.7445 23.589 15.501 24.7434 15.4388V12.7502H26.5336V15.4077C27.5803 15.4388 28.5341 15.5632 29.395 15.7807C30.2559 15.9879 31.0531 16.2573 31.7868 16.5889L31.0238 18.749C30.3586 18.4693 29.6396 18.231 28.8667 18.0342C28.0939 17.8373 27.3162 17.7026 26.5336 17.6301V24.4215C27.8444 24.8256 28.9401 25.2555 29.8205 25.7114C30.7108 26.1673 31.3809 26.7319 31.8309 27.4054C32.2809 28.0788 32.5059 28.9491 32.5059 30.0162C32.5059 31.5289 31.9825 32.7514 30.9358 33.6839C29.889 34.606 28.4216 35.1655 26.5336 35.3623V38.7502H24.7434ZM26.5336 33.0623C27.7368 32.9379 28.6319 32.6323 29.2189 32.1453C29.8156 31.648 30.114 30.9953 30.114 30.1872C30.114 29.607 29.9966 29.1304 29.7618 28.7574C29.5368 28.3844 29.1651 28.0633 28.6466 27.7939C28.1281 27.5141 27.4238 27.2499 26.5336 27.0013V33.0623ZM24.7434 23.7688V17.6923C24.0097 17.7441 23.3934 17.8891 22.8944 18.1274C22.3955 18.3657 22.0189 18.6765 21.7646 19.0599C21.52 19.4432 21.3977 19.8991 21.3977 20.4275C21.3977 21.0387 21.5053 21.5516 21.7205 21.966C21.9455 22.3701 22.3026 22.7172 22.7917 23.0073C23.2906 23.287 23.9412 23.5408 24.7434 23.7688Z" fill="#2F9E72"/>
<path d="M48.1952 26.2941C48.1952 32.7071 45.4878 38.4878 41.1538 42.5556C37.1653 46.2991 31.7991 48.5919 25.8974 48.5919C13.5827 48.5919 3.59961 38.6088 3.59961 26.2941C3.59961 13.9794 13.5827 3.99634 25.8974 3.99634C38.2121 3.99634 48.1952 13.9794 48.1952 26.2941Z" stroke="#2F9E72" stroke-width="1.5"/>
</svg>
