<svg width="51" height="52" viewBox="0 0 51 52" fill="none" xmlns="http://www.w3.org/2000/svg">
<ellipse cx="25.2317" cy="25.9999" rx="25.2317" ry="25.5251" fill="#F8F6F3"/>
<path d="M47.5291 26.2941C47.5291 32.7071 44.8218 38.4878 40.4877 42.5556C36.4992 46.2991 31.1331 48.5919 25.2314 48.5919C12.9166 48.5919 2.93359 38.6088 2.93359 26.2941C2.93359 13.9794 12.9166 3.99634 25.2314 3.99634C37.5461 3.99634 47.5291 13.9794 47.5291 26.2941Z" stroke="#2F9E72" stroke-width="1.5"/>
<path d="M33.4753 22.6511L26.3854 16.6068C25.6378 15.9694 24.538 15.9694 23.7904 16.6068L16.7005 22.6511V34.0006C16.7005 35.1052 17.596 36.0006 18.7005 36.0006H22.8434V29.3183C22.8434 28.2137 23.7388 27.3183 24.8434 27.3183H25.0961C26.2007 27.3183 27.0961 28.2137 27.0961 29.3183V36.0006H31.4753C32.5798 36.0006 33.4753 35.1052 33.4753 34.0006V22.6511Z" fill="#2F9E72"/>
<path d="M14.3379 24.6653L16.7005 22.6511M35.8379 24.6653L33.4753 22.6511M33.4753 22.6511L26.3854 16.6068C25.6378 15.9694 24.538 15.9694 23.7904 16.6068L16.7005 22.6511M33.4753 22.6511V34.0006C33.4753 35.1052 32.5798 36.0006 31.4753 36.0006H27.0961M16.7005 22.6511V34.0006C16.7005 35.1052 17.596 36.0006 18.7005 36.0006H22.8434M27.0961 36.0006H25.0879H22.8434M27.0961 36.0006V29.3183C27.0961 28.2137 26.2007 27.3183 25.0961 27.3183H24.8434C23.7388 27.3183 22.8434 28.2137 22.8434 29.3183V36.0006" stroke="#2F9E72" stroke-width="2" stroke-linecap="round"/>
</svg>
