<svg width="51" height="52" viewBox="0 0 51 52" fill="none" xmlns="http://www.w3.org/2000/svg">
<ellipse cx="25.5657" cy="25.9999" rx="25.2317" ry="25.5251" fill="#F8F6F3"/>
<path d="M31.3564 13.9143C31.8736 13.6587 32.2654 13.5722 32.5957 13.6458C32.9225 13.7185 33.224 13.9561 33.542 14.4319C34.3737 15.6762 34.7993 17.1071 35.0322 18.5764V18.5774C35.6379 22.3657 35.2367 26.0443 33.4277 29.4456C31.6203 32.8418 28.674 34.6141 24.9238 35.1057C24.3223 35.184 23.7179 35.2079 23.1016 35.2551L23.0352 35.2219H23C22.8805 35.2219 22.7468 35.2327 22.6387 35.2366C22.5234 35.2407 22.4186 35.2387 22.3213 35.219C21.9223 35.1386 21.6057 35.2025 21.3584 35.3918C21.118 35.576 20.9629 35.8635 20.8496 36.1868C20.7632 36.4352 20.6726 36.6836 20.5811 36.9329C20.4896 37.1818 20.397 37.4325 20.3096 37.6838C20.2111 37.9665 20.0896 38.1407 19.9482 38.2346C19.8111 38.3255 19.6325 38.3563 19.3848 38.302H19.3838C19.1356 38.2481 18.977 38.1368 18.8857 37.9944C18.7936 37.8502 18.7569 37.6534 18.793 37.4045C18.903 36.6625 19.0115 35.9235 19.1982 35.2073H19.1992C19.2566 34.985 19.2694 34.7838 19.2334 34.5901C19.1974 34.3965 19.1141 34.22 18.9912 34.0442C18.5082 33.355 17.9865 32.7134 17.584 32.01L17.4189 31.7043C15.6001 28.0965 15.5415 24.5437 17.8848 21.1418C18.6061 20.0953 19.6596 19.3743 20.6914 18.5764L20.6924 18.5774C21.9243 17.6276 23.2973 17.0003 24.7207 16.467C25.4327 16.2003 26.1551 15.9579 26.8789 15.7092C27.6016 15.461 28.3254 15.2068 29.0352 14.9182C29.8111 14.6041 30.5974 14.2906 31.3564 13.9143ZM29.0742 19.3401L29.0303 19.3557C27.1392 20.3125 25.8657 21.9741 24.5264 23.4641C24.0527 23.9904 23.6747 24.6187 23.3018 25.2229L22.9268 25.8147C21.759 27.5846 20.9561 29.5095 20.3408 31.5149L20.0879 32.3792C20.0302 32.5879 19.9517 32.8239 19.9482 33.0588C19.9446 33.308 20.0234 33.5554 20.2568 33.802L20.376 33.928L20.4795 33.7893C20.5484 33.6969 20.6152 33.6224 20.6895 33.5295C20.7595 33.442 20.8296 33.3455 20.8799 33.2346V33.2336C21.7604 31.247 22.7653 29.335 23.877 27.467L24.3594 26.6692C25.5896 24.6773 26.9787 22.8343 28.458 21.0354C28.8149 20.602 29.0939 20.0881 29.4316 19.5754L29.5713 19.3625L29.3174 19.3489C29.2303 19.3443 29.1815 19.3411 29.1504 19.3391C29.1367 19.3382 29.1205 19.3369 29.1064 19.3372C29.0991 19.3373 29.0876 19.3376 29.0742 19.3401Z" fill="#2F9E72" stroke="#2F9E72" stroke-width="0.291938"/>
<path d="M47.9998 25.7726C47.9998 32.1857 45.2925 37.9664 40.9584 42.0341C36.9699 45.7776 31.6038 48.0704 25.7021 48.0704C13.3874 48.0704 3.4043 38.0874 3.4043 25.7726C3.4043 13.4579 13.3874 3.47485 25.7021 3.47485C38.0168 3.47485 47.9998 13.4579 47.9998 25.7726Z" stroke="#2F9E72" stroke-width="1.5"/>
</svg>
