<svg width="40" height="40" viewBox="0 0 40 40" fill="none" xmlns="http://www.w3.org/2000/svg">
<path d="M36 0H4C1.8 0 0 1.8 0 4V36C0 38.2 1.8 40 4 40H36C38.2 40 40 38.2 40 36V4C40 1.8 38.2 0 36 0ZM12.2 32H6V14.8H12.2V32ZM9 12.8C7.2 12.8 6 11.6 6 10C6 8.4 7.2 7.2 9.2 7.2C11 7.2 12.2 8.4 12.2 10C12.2 11.6 11 12.8 9 12.8ZM34 32H27.8V22.6C27.8 20 26.2 19.4 25.6 19.4C25 19.4 23 19.8 23 22.6C23 23 23 32 23 32H16.8V14.8H23V17.2C23.8 15.8 25.4 14.8 28.4 14.8C31.4 14.8 33.8 17.2 33.8 22.6L34 32Z" fill="#2F9E72"/>
</svg>
