<svg width="131" height="35" viewBox="0 0 131 35" fill="none" xmlns="http://www.w3.org/2000/svg">
<g clip-path="url(#clip0_265_2864)">
<rect x="0.867188" width="35" height="35" rx="17.5" fill="white"/>
<circle cx="18.3671" cy="17.5" r="19.8333" fill="url(#paint0_radial_265_2864)"/>
<path fill-rule="evenodd" clip-rule="evenodd" d="M25.9887 35.5194C25.5176 35.7661 22.8123 37.7591 22.4973 38.2093C22.2604 37.879 17.6931 38.5731 16.8402 38.495C12.6255 38.1132 8.54183 36.0894 5.70975 32.941C4.4066 31.4915 3.40311 29.819 2.69509 28.0072C2.01355 26.265 1.43655 25.5974 2.63098 24.4601C4.14597 23.019 6.0317 21.9764 7.52997 20.4559C8.20454 19.7701 8.8596 18.7667 9.64706 18.2301C10.645 17.5513 10.507 17.9109 11.6415 17.9374C12.5433 17.9583 12.3189 18.2496 13.0464 17.8496C13.7893 17.4412 14.5335 16.3206 15.13 15.706C15.891 14.9213 18.3607 11.4147 19.5496 11.3548C20.6548 11.3004 22.2116 14.2286 22.8764 15.09C23.5942 16.0196 24.4708 16.8574 25.2276 17.7564C25.9094 18.5662 26.6906 18.9619 27.2569 19.1092C27.9426 19.2876 27.9023 18.9506 28.7023 19.3757C29.4075 19.7492 30.0974 20.7736 30.6633 21.3395C31.6751 22.3528 34.5574 24.3012 34.7748 25.7242C34.9936 27.157 33.3281 29.7354 32.5518 30.8796C31.2319 32.8239 30.4584 33.6392 28.1573 33.8009C27.1915 33.8692 22.1977 33.6741 22.0095 34.6525C21.6932 36.2957 25.2082 35.1417 25.9887 35.5194ZM21.2276 20.0545C21.3127 19.9318 21.3336 19.7938 21.2918 19.6405C21.0646 17.9583 19.8186 15.1861 19.9705 13.5373C20.7761 13.6001 22.1415 16.7629 23.3041 17.7564C24.4878 19.1092 26.8615 20.5877 26.7918 20.8637C26.7026 21.2163 25.4945 20.7438 25.3621 20.8637C24.8283 21.3445 28.3706 24.1507 28.3218 24.6817C28.28 25.136 26.6019 25.805 26.5977 25.7883C25.8242 26.1203 24.2612 26.7665 23.7127 26.5883C23.1641 26.4101 22.4685 26.2019 21.7531 25.7172C20.7663 25.0482 18.1182 23.7256 17.5565 22.6552C17.0116 21.6155 17.9398 21.3088 18.5196 20.1506C18.6869 19.8161 19.2667 17.5179 19.3586 17.5067C19.8632 17.4426 20.4555 20.152 21.2276 20.0545ZM14.0889 22.0057C14.0784 22.0573 14.0323 22.1286 13.9578 22.2162C13.3158 23.2325 11.0857 26.6115 10.429 26.4169C9.43784 26.1231 11.2331 24.6016 12.6428 23.4069C13.2159 22.9211 13.7254 22.4894 13.9578 22.2162C14.0147 22.1261 14.0592 22.0545 14.0889 22.0057Z" fill="#9D4B1D"/>
<path fill-rule="evenodd" clip-rule="evenodd" d="M14.0889 22.0057C14.0784 22.0573 14.0323 22.1286 13.9578 22.2162C14.0147 22.1261 14.0592 22.0545 14.0889 22.0057Z" fill="#9D4B1D"/>
</g>
<path d="M65.5845 7.82374L63.1454 8.11258V30.0326H58.8448L49.1846 14.4671L47.1948 10.1345L47.2268 27.8182L50.3079 28.3638V30.0326H41.8672V28.3638L44.4668 27.8182V8.14467L41.9635 7.85583V5.70555H48.4143L58.4918 22.5548L60.3853 26.6307V8.14467L57.7536 7.82374V5.70555H65.5845V7.82374Z" fill="#2F9E72"/>
<path d="M75.8974 12.1243C77.9728 12.1243 79.5775 12.5843 80.7114 13.5043C81.8454 14.4244 82.4124 15.9649 82.4124 18.1258V28.3959H84.4022V29.6796C84.0171 29.915 83.5143 30.0968 82.8938 30.2252C82.2733 30.375 81.6636 30.4499 81.0645 30.4499C80.2942 30.4499 79.7379 30.3001 79.3956 30.0005C79.0533 29.6796 78.8714 29.1661 78.85 28.46C77.6732 29.7866 76.0151 30.4499 73.8755 30.4499C72.7843 30.4499 71.8108 30.2466 70.9549 29.8401C70.0991 29.4122 69.4358 28.8238 68.9651 28.0749C68.4944 27.3261 68.2591 26.4809 68.2591 25.5395C68.2591 24.1274 68.7833 22.9613 69.8317 22.0413C70.8801 21.1213 72.1852 20.458 73.7471 20.0515C75.309 19.6236 76.8816 19.4096 78.4649 19.4096V18.4468C78.4649 16.9919 78.1332 15.9756 77.47 15.3979C76.8067 14.8202 75.8225 14.5313 74.5173 14.5313C73.8113 14.5313 73.0089 14.649 72.1103 14.8844C71.2117 15.1197 70.4307 15.4193 69.7675 15.783L69.0293 14.0178C69.7568 13.4188 70.7945 12.9587 72.1424 12.6378C73.5117 12.2955 74.7634 12.1243 75.8974 12.1243ZM78.4649 21.3352C76.8602 21.3352 75.416 21.6241 74.1322 22.2018C72.8699 22.7794 72.2387 23.6995 72.2387 24.9618C72.2387 27.0372 73.3406 28.0749 75.5443 28.0749C76.0578 28.0749 76.582 27.9679 77.1169 27.754C77.6732 27.54 78.1118 27.2833 78.4328 26.9837L78.4649 21.3352Z" fill="#2F9E72"/>
<path d="M92.4976 12.5094H97.761V14.7881H92.5939V21.945C92.5939 23.5925 92.626 24.8013 92.6902 25.5716C92.7758 26.3419 92.9363 26.9195 93.1716 27.3047C93.4284 27.6684 93.8456 27.8503 94.4233 27.8503C94.8726 27.8503 95.4182 27.7754 96.06 27.6256C96.7233 27.4758 97.1833 27.3154 97.4401 27.1442L98.082 28.6847C97.5471 29.2196 96.7447 29.6475 95.6749 29.9684C94.6265 30.268 93.6209 30.4178 92.6581 30.4178C91.2888 30.4178 90.2939 30.0219 89.6734 29.2303C89.0529 28.4386 88.7427 27.187 88.7427 25.4753V14.7881H86.3677V13.4081C87.3733 13.1513 88.0366 12.9587 88.3575 12.8304C88.6999 12.6806 88.9994 12.4024 89.2562 11.9959C89.5771 11.4396 90.0157 10.2094 90.572 8.30514H92.4976V12.5094Z" fill="#2F9E72"/>
<path d="M106.832 12.4452V28.0428L109.271 28.3959V30.0326H101.217V28.3959L103.689 28.0428V16.3286L101.57 14.7881V13.6327L105.901 12.1243L106.832 12.4452Z" fill="#2F9E72"/>
<path d="M114.59 28.0749V7.85583L111.862 7.08558V5.38461L117.062 4.55017L117.832 4.9353V18.9924L117.672 21.3031L123.962 14.7239L121.427 14.4671V12.4131H129.739V14.4671L127.075 14.7239L122.325 19.4738L128.487 28.0749L130.445 28.3959V30.0326H122.197V28.3959L124.09 28.0107L119.854 21.6241L117.704 23.8706L117.8 26.2777V28.0749L119.918 28.3959V30.0326L112.183 30.0968V28.46L114.59 28.0749Z" fill="#2F9E72"/>
<circle cx="104.265" cy="4.55029" r="3.8667" fill="#F2A14E"/>
<defs>
<radialGradient id="paint0_radial_265_2864" cx="0" cy="0" r="1" gradientUnits="userSpaceOnUse" gradientTransform="translate(18.102 17.5) rotate(121.43) scale(29.0856 24.8788)">
<stop stop-color="#FFE9A3"/>
<stop offset="1" stop-color="#EA7418"/>
</radialGradient>
<clipPath id="clip0_265_2864">
<rect x="0.867188" width="35" height="35" rx="17.5" fill="white"/>
</clipPath>
</defs>
</svg>
