<svg width="157" height="100" viewBox="0 0 157 100" fill="none" xmlns="http://www.w3.org/2000/svg">
<path d="M120.906 44.8453C120.906 40.3895 118.925 36.1643 115.5 33.3144L84.8975 7.85335C80.8205 4.46136 74.9038 4.46135 70.8268 7.85334L40.2243 33.3144C36.799 36.1643 34.8179 40.3895 34.8179 44.8453V98H63.653V70.9441C63.653 63.4314 69.7432 57.3412 77.2559 57.3412C84.7686 57.3412 90.8588 63.4314 90.8588 70.9441V98H120.906V44.8453Z" fill="#F3D9BB"/>
<path d="M153.124 53.7818C153.405 45.2913 147.035 34.6765 142.757 28.5424C140.919 25.9079 137.175 25.9835 135.433 28.6816C131.448 34.8509 125.549 45.3988 125.549 53.7818C125.549 70.0727 139 81.7091 139 81.7091C139 81.7091 152.508 72.4 153.124 53.7818Z" fill="#7DCEAE"/>
<path d="M21.7314 18.8591C19.9254 16.6012 16.6226 16.6002 14.8076 18.8508C10.0641 24.7331 2.13243 35.9328 2.13281 45.0545C2.13378 68.0364 18.2744 71.5273 18.2744 71.5273C18.2744 71.5273 32.2847 69.4909 33.7434 45.0545C34.2837 36.004 26.4541 24.7636 21.7314 18.8591Z" fill="#7DCEAE"/>
<path d="M6.84077 96C5.7362 96 4.84077 96.8954 4.84077 98C4.84077 99.1046 5.7362 100 6.84077 100V98V96ZM141 51.4545C141 50.35 140.105 49.4545 139 49.4545C137.895 49.4545 137 50.35 137 51.4545H139H141ZM153.124 53.7818L151.125 53.7157L153.124 53.7818ZM20.2744 38.3636C20.2744 37.2591 19.379 36.3636 18.2744 36.3636C17.1698 36.3636 16.2744 37.2591 16.2744 38.3636H18.2744H20.2744ZM2.13281 45.0545L0.132812 45.0546L2.13281 45.0545ZM33.7434 45.0545L35.7399 45.1737L33.7434 45.0545ZM142.757 28.5424L144.397 27.3982L142.757 28.5424ZM135.433 28.6816L137.113 29.7668L135.433 28.6816ZM115.5 33.3144L114.221 34.8519L115.5 33.3144ZM84.8975 7.85335L83.6183 9.3908L84.8975 7.85335ZM84.8975 7.85335L83.6183 9.3908L114.221 34.8519L115.5 33.3144L116.779 31.777L86.1766 6.31589L84.8975 7.85335ZM120.906 98H122.906V44.8453H120.906H118.906V98H120.906ZM40.2243 33.3144L41.5034 34.8519L72.106 9.3908L70.8268 7.85334L69.5477 6.31589L38.9451 31.777L40.2243 33.3144ZM34.8179 98H36.8179V44.8453H34.8179H32.8179V98H34.8179ZM77.8622 98V100H90.8588V98V96H77.8622V98ZM90.8588 98V100H120.906V98V96H90.8588V98ZM90.8588 98H92.8588V70.9441H90.8588H88.8588V98H90.8588ZM34.8179 98V100H63.653V98V96H34.8179V98ZM63.653 98V100H77.8622V98V96H63.653V98ZM63.653 70.9441H61.653V98H63.653H65.653V70.9441H63.653ZM149.425 98V96H139V98V100H149.425V98ZM139 98V96H34.8179V98V100H139V98ZM120.906 98V100H139V98V96H120.906V98ZM142.757 28.5424L141.116 29.6865C143.219 32.7019 145.812 36.7851 147.838 41.1244C149.882 45.5043 151.25 49.9387 151.125 53.7157L153.124 53.7818L155.123 53.8479C155.279 49.1344 153.602 44.0162 151.462 39.4325C149.304 34.8082 146.572 30.517 144.397 27.3982L142.757 28.5424ZM139 98H141V81.7091H139H137V98H139ZM139 81.7091H141V51.4545H139H137V81.7091H139ZM153.124 53.7818L151.125 53.7157C150.834 62.5286 147.496 69.127 144.225 73.5354C142.588 75.7419 140.971 77.393 139.773 78.4858C139.174 79.0317 138.682 79.4363 138.347 79.6996C138.179 79.8311 138.051 79.9272 137.968 79.9877C137.927 80.0179 137.897 80.0393 137.88 80.0517C137.871 80.0579 137.866 80.0619 137.863 80.0637C137.862 80.0646 137.861 80.0649 137.862 80.0646C137.862 80.0645 137.862 80.0643 137.863 80.0639C137.863 80.0637 137.864 80.0633 137.864 80.0632C137.864 80.0627 137.865 80.0623 139 81.7091C140.135 83.3559 140.136 83.3554 140.136 83.3548C140.137 83.3546 140.138 83.3539 140.138 83.3535C140.14 83.3525 140.141 83.3514 140.143 83.3501C140.147 83.3476 140.151 83.3445 140.156 83.3409C140.167 83.3335 140.181 83.3239 140.197 83.3119C140.231 83.288 140.277 83.2548 140.335 83.2123C140.451 83.1274 140.614 83.0052 140.817 82.8459C141.222 82.5273 141.79 82.0592 142.468 81.4414C143.822 80.207 145.62 78.3672 147.437 75.9191C151.074 71.0184 154.799 63.6532 155.123 53.8479L153.124 53.7818ZM125.549 53.7818H123.549C123.549 62.4756 127.132 69.8493 130.62 74.9791C132.372 77.555 134.123 79.5995 135.439 81.0041C136.098 81.7072 136.651 82.2524 137.043 82.6261C137.24 82.813 137.396 82.9572 137.507 83.057C137.562 83.1069 137.605 83.1457 137.636 83.1732C137.652 83.187 137.664 83.1979 137.673 83.206C137.678 83.21 137.682 83.2134 137.685 83.216C137.686 83.2173 137.688 83.2184 137.689 83.2194C137.689 83.2198 137.69 83.2204 137.69 83.2206C137.691 83.2212 137.691 83.2217 139 81.7091C140.308 80.1965 140.309 80.1969 140.309 80.1973C140.309 80.1973 140.31 80.1976 140.31 80.1978C140.31 80.198 140.31 80.1981 140.31 80.198C140.31 80.1977 140.309 80.1968 140.307 80.1952C140.303 80.192 140.296 80.186 140.287 80.1772C140.267 80.1597 140.235 80.1312 140.191 80.0919C140.104 80.0132 139.972 79.8915 139.801 79.7284C139.458 79.4021 138.959 78.9109 138.357 78.2687C137.152 76.9823 135.54 75.0996 133.928 72.7299C130.691 67.9689 127.549 61.3789 127.549 53.7818H125.549ZM135.433 28.6816L133.753 27.5964C131.728 30.7306 129.198 35.0061 127.167 39.5919C125.153 44.142 123.549 49.1772 123.549 53.7818H125.549H127.549C127.549 50.0034 128.894 45.5732 130.825 41.2112C132.74 36.885 135.152 32.8019 137.113 29.7668L135.433 28.6816ZM6.84077 98V100H18.2744V98V96H6.84077V98ZM18.2744 98V100H34.8179V98V96H18.2744V98ZM14.8076 18.8508L13.2508 17.5954C10.8402 20.5846 7.59316 24.9561 4.93952 29.7728C2.31235 34.5414 0.1326 39.9829 0.132812 45.0546L2.13281 45.0545L4.13281 45.0545C4.13264 41.0044 5.91855 36.2852 8.44301 31.703C10.941 27.1688 14.0315 22.9993 16.3645 20.1063L14.8076 18.8508ZM18.2744 98H20.2744V71.5273H18.2744H16.2744V98H18.2744ZM18.2744 71.5273H20.2744V38.3636H18.2744H16.2744V71.5273H18.2744ZM2.13281 45.0545L0.132812 45.0546C0.133317 57.0745 4.38078 64.2329 8.84337 68.375C11.0477 70.4209 13.2562 71.6866 14.9263 72.4441C15.7621 72.8232 16.4669 73.0768 16.9748 73.2383C17.2289 73.3192 17.4344 73.3771 17.5831 73.4163C17.6574 73.4359 17.7177 73.4509 17.7627 73.4617C17.7853 73.4671 17.804 73.4714 17.8189 73.4748C17.8263 73.4765 17.8328 73.4779 17.8382 73.4791C17.8409 73.4797 17.8434 73.4803 17.8457 73.4808C17.8468 73.481 17.8483 73.4814 17.8488 73.4815C17.8502 73.4818 17.8516 73.4821 18.2744 71.5273C18.6972 69.5725 18.6984 69.5727 18.6996 69.573C18.6999 69.5731 18.701 69.5733 18.7017 69.5734C18.7029 69.5737 18.7039 69.5739 18.7047 69.5741C18.7062 69.5745 18.7068 69.5746 18.7065 69.5745C18.7058 69.5744 18.7015 69.5734 18.6935 69.5714C18.6774 69.5676 18.647 69.5602 18.6032 69.5486C18.5154 69.5254 18.3741 69.486 18.1869 69.4264C17.8121 69.3073 17.2559 69.1086 16.5786 68.8013C15.2222 68.1861 13.3956 67.1427 11.5646 65.4432C7.9566 62.0944 4.13327 56.0165 4.13281 45.0545L2.13281 45.0545ZM18.2744 71.5273C18.5621 73.5065 18.5638 73.5062 18.5655 73.506C18.5662 73.5059 18.568 73.5056 18.5693 73.5054C18.5719 73.505 18.5747 73.5046 18.5778 73.5041C18.5839 73.5032 18.5909 73.5021 18.5987 73.5009C18.6144 73.4984 18.6335 73.4952 18.6559 73.4913C18.7008 73.4836 18.7589 73.4729 18.8296 73.4585C18.9708 73.4299 19.1622 73.3868 19.3969 73.3239C19.8661 73.1982 20.5102 72.993 21.2742 72.6655C22.8042 72.0098 24.8131 70.8642 26.8522 68.8922C30.9647 64.9151 34.9868 57.7892 35.7399 45.1737L33.7434 45.0545L31.747 44.9354C31.0413 56.7562 27.3289 62.8667 24.0715 66.0169C22.4257 67.6085 20.8409 68.4993 19.6984 68.989C19.1262 69.2343 18.6643 69.3791 18.3616 69.4602C18.2104 69.5007 18.0993 69.5252 18.0346 69.5383C18.0023 69.5449 17.9816 69.5486 17.9733 69.55C17.9692 69.5507 17.9682 69.5509 17.9704 69.5505C17.9715 69.5504 17.9734 69.5501 17.9761 69.5497C17.9775 69.5494 17.979 69.5492 17.9808 69.5489C17.9817 69.5488 17.9832 69.5486 17.9836 69.5485C17.9851 69.5483 17.9867 69.5481 18.2744 71.5273ZM33.7434 45.0545L35.7399 45.1737C36.0432 40.0929 34.0119 34.6209 31.4781 29.8404C28.9167 25.0077 25.6949 20.6125 23.2932 17.6098L21.7314 18.8591L20.1695 20.1083C22.4905 23.0101 25.5449 27.1875 27.9439 31.7136C30.3706 36.2922 31.9839 40.9657 31.747 44.9354L33.7434 45.0545ZM14.8076 18.8508L16.3645 20.1063C17.3798 18.8473 19.165 18.8525 20.1695 20.1083L21.7314 18.8591L23.2932 17.6098C20.6857 14.3499 15.8654 14.353 13.2508 17.5954L14.8076 18.8508ZM90.8588 70.9441H92.8588C92.8588 62.3268 85.8731 55.3412 77.2559 55.3412V57.3412V59.3412C83.664 59.3412 88.8588 64.536 88.8588 70.9441H90.8588ZM40.2243 33.3144L38.9451 31.777C35.0631 35.0068 32.8179 39.7954 32.8179 44.8453H34.8179H36.8179C36.8179 40.9836 38.5348 37.3218 41.5034 34.8519L40.2243 33.3144ZM77.2559 57.3412V55.3412C68.6387 55.3412 61.653 62.3268 61.653 70.9441H63.653H65.653C65.653 64.536 70.8478 59.3412 77.2559 59.3412V57.3412ZM142.757 28.5424L144.397 27.3982C141.742 23.5913 136.262 23.7109 133.753 27.5964L135.433 28.6816L137.113 29.7668C138.088 28.2561 140.096 28.2245 141.116 29.6865L142.757 28.5424ZM115.5 33.3144L114.221 34.8519C117.189 37.3218 118.906 40.9836 118.906 44.8453H120.906H122.906C122.906 39.7954 120.661 35.0068 116.779 31.777L115.5 33.3144ZM84.8975 7.85335L86.1766 6.31589C81.3584 2.30718 74.3659 2.30717 69.5477 6.31589L70.8268 7.85334L72.106 9.3908C75.4417 6.61554 80.2827 6.61554 83.6183 9.3908L84.8975 7.85335Z" fill="#376F59"/>
</svg>
