<svg width="157" height="100" viewBox="0 0 157 100" fill="none" xmlns="http://www.w3.org/2000/svg">
<path d="M23.6753 55.5224C25.7113 62.1677 30.7804 66.4329 37.7247 66.4329C38.7668 66.4329 39.8094 66.3196 40.8739 66.1347C44.349 65.531 48.0572 64.1645 52.7432 63.4885C53.2945 63.409 53.8593 63.339 54.4388 63.281L49.1097 33.4589C42.6207 35.3301 35.8352 35.253 31.669 37.3382C26.8247 39.7628 21.3774 48.022 23.6753 55.5224Z" fill="#F3D9BB"/>
<path d="M40.8739 66.1347L50.3209 92.3757C50.3209 92.3757 52.6046 98.2941 58.5567 96.7399C64.128 95.2852 62.4324 89.7087 62.4324 89.7087L52.7432 63.4885C48.0572 64.1645 44.349 65.531 40.8739 66.1347Z" fill="#F3D9BB"/>
<path d="M101.281 10.8782C100.411 6.21766 94.6223 4.31161 91.0157 7.38881L103.369 72.3716C107.67 74.0221 112.366 70.3059 111.521 65.7776L108.252 48.2487L104.453 27.8824L101.281 10.8782Z" fill="#F3D9BB"/>
<path d="M114.754 35.641C113.543 27.1551 104.453 27.8824 104.453 27.8824L108.252 48.2487C108.252 48.2487 116.086 44.9696 114.754 35.641Z" fill="#F3D9BB"/>
<path d="M91.0157 7.38881C80.9956 15.9381 64.0497 29.1509 49.1097 33.4589L54.4388 63.281C70.0381 61.7186 91.3468 67.7573 103.369 72.3716L91.0157 7.38881Z" fill="#FFEFDC"/>
<path d="M54.4388 63.281C70.0381 61.7186 91.3468 67.7573 103.369 72.3716M54.4388 63.281L49.1097 33.4589M54.4388 63.281C53.8593 63.339 53.2945 63.409 52.7432 63.4885M49.1097 33.4589C42.6207 35.3301 35.8352 35.253 31.669 37.3382C26.8247 39.7628 21.3774 48.022 23.6753 55.5224C25.7113 62.1677 30.7804 66.4329 37.7247 66.4329C38.7668 66.4329 39.8094 66.3196 40.8739 66.1347M49.1097 33.4589C64.0497 29.1509 80.9956 15.9381 91.0157 7.38881M91.0157 7.38881V7.38881C94.6223 4.31161 100.411 6.21766 101.281 10.8782L104.453 27.8824M91.0157 7.38881L103.369 72.3716M103.369 72.3716V72.3716C107.67 74.0221 112.366 70.3059 111.521 65.7776L108.252 48.2487M104.453 27.8824C104.453 27.8824 113.543 27.1551 114.754 35.641C116.086 44.9696 108.252 48.2487 108.252 48.2487M104.453 27.8824L108.252 48.2487M40.8739 66.1347L50.3209 92.3757C50.3209 92.3757 52.6046 98.2941 58.5567 96.7399C64.128 95.2852 62.4324 89.7087 62.4324 89.7087L52.7432 63.4885M40.8739 66.1347C44.349 65.531 48.0572 64.1645 52.7432 63.4885M118.388 22.7909L124.686 15.7596M123.717 34.4287L134.133 32.4891M122.263 47.0364L131.226 50.9157" stroke="#376F59" stroke-width="4" stroke-linecap="round"/>
</svg>
