<svg width="157" height="100" viewBox="0 0 157 100" fill="none" xmlns="http://www.w3.org/2000/svg">
<path d="M98.486 61.5116C98.486 50.4 89.0719 41.4193 77.8989 41.7442C67.0496 42.0597 58.4814 50.722 58.4814 61.5116C58.4814 72.3012 67.0496 80.9636 77.8989 81.2791C89.0719 81.604 98.486 72.6232 98.486 61.5116Z" fill="#CCE4C9"/>
<path d="M48.4218 15.4651V19.0399C48.4218 21.8178 50.6737 24.0698 53.4516 24.0698C56.2295 24.0698 58.4814 21.8178 58.4814 19.04V15.4651V10.0298C58.4814 7.25192 56.2295 5 53.4516 5C50.6737 5 48.4218 7.25192 48.4218 10.0298V15.4651Z" fill="#F3D9BB"/>
<path d="M97.0824 15.4651V19.0399C97.0824 21.8178 99.3343 24.0698 102.112 24.0698C104.89 24.0698 107.142 21.8178 107.142 19.04V15.4651V10.0298C107.142 7.25192 104.89 5 102.112 5C99.3343 5 97.0824 7.25192 97.0824 10.0298V15.4651Z" fill="#F3D9BB"/>
<path d="M34.1512 32.4419H121.647V29.9697C121.647 21.959 115.153 15.4651 107.142 15.4651V19.04C107.142 21.8178 104.89 24.0698 102.112 24.0698C99.3343 24.0698 97.0824 21.8178 97.0824 19.0399V15.4651H58.4814V19.04C58.4814 21.8178 56.2295 24.0698 53.4516 24.0698C50.6737 24.0698 48.4218 21.8178 48.4218 19.0399V15.4651C40.5403 15.4651 34.1512 21.8543 34.1512 29.7358V32.4419Z" fill="#F3D9BB"/>
<path d="M34.1512 32.4419H121.647M34.1512 32.4419V29.7358C34.1512 21.8543 40.5403 15.4651 48.4218 15.4651V15.4651M34.1512 32.4419V80.3488M121.647 32.4419V29.9697C121.647 21.959 115.153 15.4651 107.142 15.4651V15.4651M121.647 32.4419V44.3023M48.4218 15.4651V19.0399C48.4218 21.8178 50.6737 24.0698 53.4516 24.0698V24.0698C56.2295 24.0698 58.4814 21.8178 58.4814 19.04V15.4651M48.4218 15.4651V10.0298C48.4218 7.25193 50.6737 5 53.4516 5V5C56.2295 5 58.4814 7.25193 58.4814 10.0298V15.4651M58.4814 15.4651H97.0824M97.0824 15.4651V19.0399C97.0824 21.8178 99.3343 24.0698 102.112 24.0698V24.0698C104.89 24.0698 107.142 21.8178 107.142 19.04V15.4651M97.0824 15.4651V10.0298C97.0824 7.25192 99.3343 5 102.112 5V5C104.89 5 107.142 7.25192 107.142 10.0298V15.4651M34.1512 80.3488V80.3488C34.1512 88.4404 40.7107 95 48.8023 95H101.647C112.692 95 121.647 86.0457 121.647 75V44.3023M34.1512 80.3488L41.1695 74.0698M34.1512 80.3488L27.1328 74.0698M121.647 44.3023L114.16 51.5116M121.647 44.3023L129.133 51.5116M88.4264 54.7674L78.8422 65.1936C77.3057 66.8651 74.6876 66.9241 73.0774 65.3234L69.2429 61.5116M77.8989 41.7442C89.0719 41.4193 98.486 50.4 98.486 61.5116C98.486 72.6232 89.0719 81.604 77.8989 81.2791C67.0496 80.9636 58.4814 72.3012 58.4814 61.5116C58.4814 50.722 67.0496 42.0597 77.8989 41.7442Z" stroke="#376F59" stroke-width="4" stroke-linecap="round"/>
</svg>
