<svg width="156" height="97" viewBox="0 0 156 97" fill="none" xmlns="http://www.w3.org/2000/svg">
<path d="M121.274 41.8453C121.274 37.3895 119.293 33.1643 115.867 30.3144L85.2647 4.85335C81.1877 1.46136 75.271 1.46135 71.194 4.85334L40.5915 30.3144C37.1661 33.1643 35.1851 37.3895 35.1851 41.8453V95H64.0202V67.9441C64.0202 60.4314 70.1104 54.3412 77.6231 54.3412C85.1357 54.3412 91.226 60.4314 91.226 67.9441V95H121.274V41.8453Z" fill="#F3D9BB"/>
<path d="M153.491 50.7818C153.772 42.2913 147.402 31.6765 143.124 25.5424C141.286 22.9079 137.543 22.9835 135.8 25.6816C131.815 31.8509 125.916 42.3988 125.916 50.7818C125.916 67.0727 139.367 78.7091 139.367 78.7091C139.367 78.7091 152.875 69.4 153.491 50.7818Z" fill="#7DCEAE"/>
<path d="M22.0985 15.8591C20.2926 13.6012 16.9898 13.6002 15.1748 15.8508C10.4313 21.7331 2.49962 32.9328 2.5 42.0545C2.50096 65.0364 18.6416 68.5273 18.6416 68.5273C18.6416 68.5273 32.6519 66.4909 34.1106 42.0545C34.6509 33.004 26.8213 21.7636 22.0985 15.8591Z" fill="#7DCEAE"/>
<path d="M7.20796 93C6.10339 93 5.20796 93.8954 5.20796 95C5.20796 96.1046 6.10339 97 7.20796 97V95V93ZM141.367 48.4545C141.367 47.35 140.472 46.4545 139.367 46.4545C138.263 46.4545 137.367 47.35 137.367 48.4545H139.367H141.367ZM153.491 50.7818L155.49 50.8479L153.491 50.7818ZM20.6416 35.3636C20.6416 34.2591 19.7462 33.3636 18.6416 33.3636C17.537 33.3636 16.6416 34.2591 16.6416 35.3636H18.6416H20.6416ZM2.5 42.0545L4.5 42.0545L2.5 42.0545ZM34.1106 42.0545L36.107 42.1737L34.1106 42.0545ZM143.124 25.5424L141.483 26.6865L143.124 25.5424ZM135.8 25.6816L134.12 24.5964L135.8 25.6816ZM115.867 30.3144L114.588 31.8519L115.867 30.3144ZM85.2647 4.85335L86.5438 3.31589L85.2647 4.85335ZM71.194 4.85334L69.9149 3.31589L71.194 4.85334ZM85.2647 4.85335L83.9855 6.3908L114.588 31.8519L115.867 30.3144L117.146 28.777L86.5438 3.31589L85.2647 4.85335ZM121.274 95H123.274V41.8453H121.274H119.274V95H121.274ZM40.5915 30.3144L41.8706 31.8519L72.4732 6.3908L71.194 4.85334L69.9149 3.31589L39.3123 28.777L40.5915 30.3144ZM35.1851 95H37.1851V41.8453H35.1851H33.1851V95H35.1851ZM78.2293 95V97H91.226V95V93H78.2293V95ZM91.226 95V97H121.274V95V93H91.226V95ZM91.226 95H93.226V67.9441H91.226H89.226V95H91.226ZM35.1851 95V97H64.0202V95V93H35.1851V95ZM64.0202 95V97H78.2293V95V93H64.0202V95ZM64.0202 67.9441H62.0202V95H64.0202H66.0202V67.9441H64.0202ZM149.792 95V93H139.367V95V97H149.792V95ZM139.367 95V93H35.1851V95V97H139.367V95ZM121.274 95V97H139.367V95V93H121.274V95ZM143.124 25.5424L141.483 26.6865C143.586 29.7019 146.179 33.7851 148.205 38.1244C150.249 42.5043 151.617 46.9387 151.492 50.7157L153.491 50.7818L155.49 50.8479C155.646 46.1344 153.969 41.0162 151.829 36.4325C149.671 31.8082 146.939 27.517 144.764 24.3982L143.124 25.5424ZM139.367 95H141.367V78.7091H139.367H137.367V95H139.367ZM139.367 78.7091H141.367V48.4545H139.367H137.367V78.7091H139.367ZM153.491 50.7818L151.492 50.7157C151.201 59.5286 147.864 66.127 144.592 70.5354C142.955 72.7419 141.338 74.393 140.14 75.4858C139.541 76.0317 139.049 76.4363 138.714 76.6996C138.546 76.8311 138.418 76.9272 138.336 76.9877C138.294 77.0179 138.265 77.0393 138.247 77.0517C138.238 77.0579 138.233 77.0619 138.23 77.0637C138.229 77.0646 138.228 77.0649 138.229 77.0646C138.229 77.0645 138.229 77.0643 138.23 77.0639C138.23 77.0637 138.231 77.0633 138.231 77.0632C138.232 77.0627 138.232 77.0623 139.367 78.7091C140.502 80.3559 140.503 80.3554 140.504 80.3548C140.504 80.3546 140.505 80.3539 140.506 80.3535C140.507 80.3525 140.509 80.3514 140.51 80.3501C140.514 80.3476 140.518 80.3445 140.524 80.3409C140.534 80.3335 140.548 80.3239 140.565 80.3119C140.598 80.288 140.645 80.2548 140.702 80.2123C140.818 80.1274 140.981 80.0052 141.184 79.8459C141.59 79.5273 142.158 79.0592 142.835 78.4414C144.189 77.207 145.988 75.3672 147.804 72.9191C151.441 68.0184 155.166 60.6532 155.49 50.8479L153.491 50.7818ZM125.916 50.7818H123.916C123.916 59.4756 127.499 66.8493 130.988 71.9791C132.739 74.555 134.49 76.5995 135.806 78.0041C136.465 78.7072 137.018 79.2524 137.41 79.6261C137.607 79.813 137.764 79.9572 137.874 80.057C137.929 80.1069 137.972 80.1457 138.003 80.1732C138.019 80.187 138.031 80.1979 138.041 80.206C138.045 80.21 138.049 80.2134 138.052 80.216C138.054 80.2173 138.055 80.2184 138.056 80.2194C138.057 80.2198 138.057 80.2204 138.057 80.2206C138.058 80.2212 138.059 80.2217 139.367 78.7091C140.676 77.1965 140.676 77.1969 140.676 77.1973C140.677 77.1973 140.677 77.1976 140.677 77.1978C140.677 77.198 140.677 77.1981 140.677 77.198C140.677 77.1977 140.676 77.1968 140.674 77.1952C140.67 77.192 140.664 77.186 140.654 77.1772C140.634 77.1597 140.602 77.1312 140.558 77.0919C140.472 77.0132 140.339 76.8915 140.168 76.7284C139.825 76.4021 139.327 75.911 138.725 75.2687C137.519 73.9823 135.907 72.0996 134.295 69.7299C131.058 64.9689 127.916 58.3789 127.916 50.7818H125.916ZM135.8 25.6816L134.12 24.5964C132.095 27.7306 129.565 32.0061 127.535 36.5919C125.52 41.142 123.916 46.1772 123.916 50.7818H125.916H127.916C127.916 47.0034 129.261 42.5732 131.192 38.2112C133.108 33.885 135.519 29.8019 137.48 26.7668L135.8 25.6816ZM7.20796 95V97H18.6416V95V93H7.20796V95ZM18.6416 95V97H35.1851V95V93H18.6416V95ZM15.1748 15.8508L13.618 14.5954C11.2074 17.5846 7.96035 21.9561 5.30671 26.7728C2.67954 31.5414 0.499787 36.9829 0.5 42.0546L2.5 42.0545L4.5 42.0545C4.49983 38.0044 6.28574 33.2852 8.8102 28.703C11.3082 24.1688 14.3987 19.9993 16.7317 17.1063L15.1748 15.8508ZM18.6416 95H20.6416V68.5273H18.6416H16.6416V95H18.6416ZM18.6416 68.5273H20.6416V35.3636H18.6416H16.6416V68.5273H18.6416ZM2.5 42.0545L0.5 42.0546C0.500504 54.0745 4.74797 61.2329 9.21056 65.375C11.4148 67.4209 13.6234 68.6866 15.2934 69.4441C16.1293 69.8232 16.8341 70.0768 17.342 70.2383C17.5961 70.3192 17.8016 70.3771 17.9503 70.4163C18.0246 70.4359 18.0848 70.4509 18.1299 70.4617C18.1525 70.4671 18.1712 70.4714 18.1861 70.4748C18.1935 70.4765 18.1999 70.4779 18.2054 70.4791C18.2081 70.4797 18.2106 70.4803 18.2128 70.4808C18.214 70.481 18.2155 70.4814 18.216 70.4815C18.2174 70.4818 18.2188 70.4821 18.6416 68.5273C19.0644 66.5725 19.0656 66.5727 19.0668 66.573C19.0671 66.5731 19.0682 66.5733 19.0688 66.5734C19.0701 66.5737 19.0711 66.5739 19.0719 66.5741C19.0734 66.5745 19.074 66.5746 19.0737 66.5745C19.073 66.5744 19.0686 66.5734 19.0606 66.5714C19.0446 66.5676 19.0142 66.5602 18.9704 66.5486C18.8826 66.5254 18.7413 66.486 18.5541 66.4264C18.1793 66.3073 17.6231 66.1086 16.9458 65.8013C15.5894 65.1861 13.7627 64.1427 11.9317 62.4432C8.32378 59.0944 4.50046 53.0165 4.5 42.0545L2.5 42.0545ZM18.6416 68.5273C18.9293 70.5065 18.9309 70.5062 18.9327 70.506C18.9333 70.5059 18.9352 70.5056 18.9365 70.5054C18.9391 70.505 18.9419 70.5046 18.945 70.5041C18.9511 70.5032 18.9581 70.5021 18.9659 70.5009C18.9816 70.4984 19.0007 70.4952 19.0231 70.4913C19.068 70.4836 19.1261 70.4729 19.1968 70.4585C19.338 70.4299 19.5294 70.3868 19.7641 70.3239C20.2332 70.1982 20.8774 69.993 21.6414 69.6655C23.1714 69.0098 25.1803 67.8642 27.2194 65.8922C31.3319 61.9151 35.354 54.7892 36.107 42.1737L34.1106 42.0545L32.1141 41.9354C31.4085 53.7562 27.696 59.8667 24.4387 63.0169C22.7929 64.6085 21.2081 65.4993 20.0656 65.989C19.4933 66.2343 19.0315 66.3791 18.7288 66.4602C18.5776 66.5007 18.4665 66.5252 18.4018 66.5383C18.3695 66.5449 18.3488 66.5486 18.3405 66.55C18.3364 66.5507 18.3354 66.5509 18.3376 66.5505C18.3387 66.5504 18.3406 66.5501 18.3433 66.5496C18.3447 66.5494 18.3462 66.5492 18.348 66.5489C18.3489 66.5488 18.3504 66.5486 18.3508 66.5485C18.3523 66.5483 18.3539 66.5481 18.6416 68.5273ZM34.1106 42.0545L36.107 42.1737C36.4103 37.0929 34.3791 31.6209 31.8453 26.8404C29.2839 22.0077 26.0621 17.6125 23.6604 14.6098L22.0985 15.8591L20.5367 17.1083C22.8577 20.0101 25.9121 24.1875 28.3111 28.7136C30.7378 33.2922 32.3511 37.9657 32.1141 41.9354L34.1106 42.0545ZM15.1748 15.8508L16.7317 17.1063C17.747 15.8473 19.5322 15.8525 20.5367 17.1083L22.0985 15.8591L23.6604 14.6098C21.0529 11.3499 16.2326 11.353 13.618 14.5954L15.1748 15.8508ZM91.226 67.9441H93.226C93.226 59.3268 86.2403 52.3412 77.6231 52.3412V54.3412V56.3412C84.0312 56.3412 89.226 61.536 89.226 67.9441H91.226ZM40.5915 30.3144L39.3123 28.777C35.4303 32.0068 33.1851 36.7954 33.1851 41.8453H35.1851H37.1851C37.1851 37.9836 38.902 34.3218 41.8706 31.8519L40.5915 30.3144ZM77.6231 54.3412V52.3412C69.0058 52.3412 62.0202 59.3268 62.0202 67.9441H64.0202H66.0202C66.0202 61.536 71.215 56.3412 77.6231 56.3412V54.3412ZM143.124 25.5424L144.764 24.3982C142.109 20.5913 136.63 20.7109 134.12 24.5964L135.8 25.6816L137.48 26.7668C138.456 25.2561 140.464 25.2245 141.483 26.6865L143.124 25.5424ZM115.867 30.3144L114.588 31.8519C117.557 34.3218 119.274 37.9836 119.274 41.8453H121.274H123.274C123.274 36.7954 121.028 32.0068 117.146 28.777L115.867 30.3144ZM85.2647 4.85335L86.5438 3.31589C81.7256 -0.692823 74.7331 -0.692829 69.9149 3.31589L71.194 4.85334L72.4732 6.3908C75.8088 3.61554 80.6498 3.61554 83.9855 6.3908L85.2647 4.85335Z" fill="#376F59"/>
</svg>
