<svg width="206" height="228" viewBox="0 0 206 228" fill="none" xmlns="http://www.w3.org/2000/svg">
<path opacity="0.8" d="M99.6991 67.4031C98.79 72.3245 101.258 75.2079 104.656 77.506C112.859 83.0127 122.08 85.5493 131.799 86.4165C154.245 88.411 174.071 80.8881 192.816 69.4627C194.851 68.227 196.734 66.731 198.833 65.647C199.959 65.0834 201.409 65.1484 202.903 65.6037C187.903 76.964 171.647 85.4192 153.054 88.5628C134.158 91.7281 116.193 89.1698 99.4394 78.0914C99.4394 83.7715 99.3528 88.9097 99.526 94.0262C99.5693 94.9801 100.478 96.411 101.344 96.7578C115.197 102.156 129.201 106.579 144.418 105.777C165.024 104.693 183.768 98.4489 200.565 86.4165C200.911 86.178 201.193 85.7878 201.582 85.6794C202.881 85.2891 204.201 85.0073 205.5 84.6604C204.807 85.7878 204.396 87.262 203.4 87.9774C176.041 107.685 146.149 113.928 113.444 104.454C108.942 103.153 104.613 101.202 99.4827 99.2727C99.4827 107.858 99.3745 115.88 99.6342 123.923C99.6558 124.877 101.561 126.286 102.816 126.611C110.738 128.714 118.703 130.579 126.669 132.508C127.556 132.725 128.444 132.898 129.331 133.094C129.374 133.527 129.439 133.961 129.483 134.394C127.794 134.611 126.019 135.305 124.439 135.001C117.102 133.484 109.807 131.706 102.513 129.993C101.712 129.798 100.933 129.603 99.4394 129.213C99.4394 131.424 99.4394 133.289 99.4394 135.175C99.3961 177.147 99.3745 219.098 99.2446 261.071C99.2446 264.388 98.5086 267.683 98.1407 271C97.5563 270.935 96.9719 270.87 96.3874 270.805V142.481C85.1753 142.893 74.3528 144.15 63.7035 142.026C63.7035 141.484 63.7035 140.963 63.6818 140.421C65.2186 140.356 66.7337 140.27 68.2705 140.226C76.6255 139.944 84.9589 139.619 93.3139 139.381C95.5216 139.316 96.5823 138.514 96.5606 136.129C96.4957 116.985 96.5173 97.8418 96.5173 78.6334C65.6082 99.0559 33.5087 98.2754 0.608232 86.8284C0.564942 86.113 0.521645 85.4192 0.5 84.7038C1.69048 84.7038 2.94589 84.4869 4.09307 84.7471C13.3355 86.8284 22.4264 89.9937 31.7771 90.9259C53.9632 93.159 75.2619 90.2321 93.8333 76.3786C96.8636 74.1239 96.842 74.1022 96.2359 69.311C68.7251 83.3162 41.1926 82.0154 13.7684 69.1809C9.93723 67.3814 6.04113 65.2135 3.61689 61.5712L4.46104 60.3354C6.43074 61.4194 8.46537 62.4601 10.3918 63.6091C32.6212 76.8989 56.3658 78.8935 81.0195 72.6714C85.1104 71.6307 88.79 68.9858 92.6861 67.143C96.1061 65.5386 97.4048 63.0238 96.1277 59.1864C71.6472 69.3326 48.2706 66.5359 26.171 52.3138C21.3009 49.1702 15.9978 46.135 13.552 40.4115C13.79 40.108 14.0281 39.7828 14.2662 39.4793C15.2835 40.1947 16.3874 40.8234 17.2965 41.6473C32.8593 55.5658 50.868 63.2406 71.9069 61.853C79.0065 61.3761 86.0195 58.9696 92.9026 56.845C94.9156 56.2162 96.2792 53.4846 97.5346 51.2732C78.5952 57.4087 61.1493 54.4168 44.7424 44.6391C37.1234 40.108 30.6515 34.0376 26.9286 25.7558L27.8593 24.8019C29.0498 25.951 30.3701 26.9916 31.4091 28.2707C46.3874 46.7421 65.7597 53.6797 89.0498 50.1892C91.1493 49.8857 93.119 48.8234 95.1104 47.7177C83.8766 47.1323 73.2056 45.0511 63.6385 39.0457C54.2879 33.1704 47.2316 25.3223 42.6429 15.3928C43.119 15.0026 43.5952 14.5906 44.0498 14.2004C45.3701 15.9131 46.842 17.5608 48.0108 19.3819C57.6645 34.1243 71.3658 42.1893 88.7251 44.2923C89.1364 44.3356 89.5693 44.3356 89.9805 44.3139C90.3918 44.3139 90.803 44.2272 91.9719 44.0754C74.7857 36.9427 63.7251 24.9754 57.7727 8.36848C58.2922 7.95656 58.8117 7.54465 59.3312 7.15441C60.3268 8.75873 61.5173 10.2547 62.3182 11.9457C67.2749 22.6556 74.9156 31.0241 84.7641 37.3763C87.2532 38.9806 90.197 39.9129 93.2706 40.7801C85.9112 31.0241 79.5909 21.0079 79.3961 8.26007C83.5736 18.3846 87.0151 28.8561 95.5866 37.2029V0.238481C96.106 0.151761 96.6472 0.08672 97.1667 0C97.5996 2.21136 98.4004 4.42271 98.4221 6.63407C98.5519 16.8454 98.487 27.035 98.487 38.3086C107.015 29.3547 112.232 19.6421 115.284 8.60696C115.825 8.71536 116.366 8.82378 116.885 8.93218C116.799 10.6232 116.972 12.3793 116.604 14.0053C114.483 22.9375 109.504 30.3087 103.66 37.1812C103.032 37.9183 102.426 38.6555 101.82 39.4143C101.755 39.501 101.82 39.6961 101.907 40.9318C106.561 38.6988 111.041 36.9861 115.11 34.5146C124.201 28.9862 130.284 20.6611 135.413 11.5338C136.193 10.1679 137.318 8.99721 138.963 8.23841C136.885 17.0622 132.015 24.4117 125.522 30.0702C119.158 35.6203 111.409 39.5877 104.851 43.8803C113.249 43.1215 122.297 40.6717 129.959 35.3384C137.383 30.1569 143.855 23.5879 151.409 17.0622C150.76 18.7966 150.522 20.531 149.591 21.7667C143.444 30.1569 135.716 36.7259 126.214 40.9535C118.141 44.5307 109.742 47.0456 100.76 46.9372C100.522 47.2841 100.284 47.631 100.045 47.9778C101.106 48.8234 102.167 50.3626 103.271 50.406C110.89 50.7095 118.595 51.49 126.106 50.6228C142.361 48.715 154.721 40.2381 163.032 26.016C163.422 25.3656 164.093 24.867 164.959 23.9564C166.561 27.1434 165.154 29.333 163.617 31.371C154.093 44.2272 141.647 52.4439 125.5 53.7881C118.076 54.3951 110.543 53.5496 103.054 53.4629C102.102 53.4629 101.128 53.9615 100.154 54.2217C100.781 54.9805 101.279 56.0645 102.102 56.4764C112.513 61.8097 123.639 62.2649 134.764 60.227C150.846 57.2569 164.937 50.2976 175.392 37.2029C176.95 35.2517 178.032 32.9536 179.461 30.894C179.851 30.352 180.673 30.1135 181.301 29.745C181.517 30.5471 182.145 31.6094 181.864 32.1081C180.045 35.23 178.4 38.6121 175.976 41.2137C157.621 60.7907 135.067 67.3164 108.963 62.3083C107.47 62.0265 105.998 61.5278 104.591 60.8991C103.206 60.2921 101.929 59.4249 100.457 58.5794C99.8074 61.8097 101.171 63.891 103.725 65.4953C113.53 71.6741 124.439 73.777 135.76 73.3001C158.682 72.3245 177.037 61.8097 192.34 45.2678C192.968 44.5958 194.288 44.5524 195.284 44.2055C195.024 45.2462 195.089 46.5686 194.483 47.3274C185.976 57.4954 175.262 64.7798 163.249 70.0698C142.297 79.3055 121.582 79.1103 101.344 67.685C100.998 67.4898 100.565 67.4465 99.829 67.2514L99.6991 67.4031Z" fill="#326A42"/>
</svg>
