<svg width="40" height="40" viewBox="0 0 40 40" fill="none" xmlns="http://www.w3.org/2000/svg">
<path d="M37.0085 9.22428C31.025 -0.000304932 18.8087 -2.74275 9.33481 2.99145C0.110229 8.72565 -2.88153 21.1913 3.10199 30.4159L3.60061 31.1638L1.60611 38.6432L9.0855 36.6487L9.83344 37.1473C13.0745 38.8925 16.5649 39.8898 20.0553 39.8898C23.795 39.8898 27.5347 38.8925 30.7757 36.898C40.0003 30.9145 42.7427 18.6982 37.0085 9.22428ZM31.773 28.4214C30.7757 29.9173 29.5292 30.9145 27.784 31.1638C26.7867 31.1638 25.5402 31.6624 20.5539 29.6679C16.3156 27.6734 12.8252 24.4324 10.3321 20.6927C8.83618 18.9475 8.08824 16.7037 7.83893 14.4598C7.83893 12.4653 8.58687 10.7202 9.83344 9.47359C10.3321 8.97496 10.8307 8.72565 11.3293 8.72565H12.5759C13.0745 8.72565 13.5731 8.72565 13.8224 9.7229C14.3211 10.9695 15.5676 13.9612 15.5676 14.2105C15.8169 14.4598 15.8169 14.9585 15.5676 15.2078C15.8169 15.7064 15.5676 16.205 15.3183 16.4544C15.069 16.7037 14.8197 17.2023 14.5704 17.4516C14.0718 17.7009 13.8224 18.1995 14.0718 18.6982C15.069 20.194 16.3156 21.6899 17.5621 22.9365C19.058 24.1831 20.5539 25.1803 22.2991 25.9282C22.7977 26.1776 23.2963 26.1776 23.5456 25.6789C23.795 25.1803 25.0415 23.9337 25.5402 23.4351C26.0388 22.9365 26.2881 22.9365 26.7867 23.1858L30.7757 25.1803C31.2744 25.4296 31.773 25.6789 32.0223 25.9282C32.2716 26.6762 32.2716 27.6734 31.773 28.4214Z" fill="#2F9E72"/>
</svg>
